<svg width="361" height="315" viewBox="0 0 361 315" fill="none" xmlns="http://www.w3.org/2000/svg">
<path d="M259.188 223.141L234.13 214.021L209.061 223.141L184.002 214.021L158.933 223.141L133.875 214.021L108.816 223.141V255.017L133.875 264.148L158.933 255.017L184.002 264.148L209.061 255.017L234.13 264.148L259.188 255.017V223.141Z" fill="black"/>
<path d="M259.177 173.014H259.188L234.13 163.894L209.061 173.014L184.002 163.894L158.933 173.014L133.875 163.894L108.816 173.014V204.901L133.875 214.021L158.933 204.901L184.002 214.021L209.061 204.901L234.13 214.021L259.188 204.901V173.014H259.177Z" fill="#28BE46"/>
<path d="M158.934 173.014L133.865 182.145L108.807 173.014L133.865 163.894L158.934 173.014Z" fill="black"/>
<path d="M209.048 173.014L183.99 182.145L158.932 173.014L183.99 163.894L209.048 173.014Z" fill="black"/>
<path d="M259.178 173.014L234.12 182.145L209.051 173.014L234.12 163.894L259.178 173.014Z" fill="black"/>
<path d="M108.807 255.017L133.865 245.896L158.934 255.017L133.865 264.148L108.807 255.017Z" fill="#28BE46"/>
<path d="M209.062 255.017L234.121 245.896L259.19 255.017L234.121 264.148L209.062 255.017Z" fill="#28BE46"/>
<path d="M209.048 223.142L183.99 232.262L158.932 223.142V255.018L183.99 264.149L209.048 255.018V223.142Z" fill="#28BE46"/>
<path d="M259.188 273.27L234.13 264.15L209.061 273.27L184.002 264.15L158.933 273.27L133.875 264.15L108.816 273.27V305.147L133.875 314.267L158.933 305.147L184.002 314.267L209.061 305.147L234.13 314.267L259.188 305.147V273.27Z" fill="black"/>
<path d="M108.807 305.146L133.865 296.026L158.934 305.146L133.865 314.266L108.807 305.146Z" fill="#28BE46"/>
<path d="M209.062 305.146L234.121 296.026L259.19 305.146L234.121 314.266L209.062 305.146Z" fill="#28BE46"/>
<path d="M209.048 273.269L183.99 282.389L158.932 273.269V305.145L183.99 314.265L209.048 305.145V273.269Z" fill="#28BE46"/>
<path d="M57.7395 1.25195H95.583V9.96049H81.326V44.0796H71.9215V9.96049H57.7207L57.7395 1.25195Z" fill="black"/>
<path d="M125.002 0.630859C137.962 0.630859 147.573 10.0355 147.573 22.6562C147.573 35.277 137.943 44.7002 125.002 44.7002C112.062 44.7002 102.432 35.2958 102.432 22.6562C102.432 10.0167 111.987 0.630859 125.002 0.630859ZM137.905 22.6562C137.861 20.1053 137.063 17.6245 135.613 15.5255C134.163 13.4266 132.124 11.8031 129.754 10.8593C127.383 9.91557 124.787 9.69349 122.291 10.2211C119.795 10.7486 117.51 12.0022 115.724 13.8244C113.939 15.6466 112.731 17.9559 112.254 20.4622C111.777 22.9685 112.052 25.5599 113.043 27.9107C114.035 30.2614 115.699 32.2667 117.827 33.6743C119.955 35.082 122.451 35.8295 125.002 35.8225C126.724 35.8384 128.43 35.5067 130.02 34.8474C131.61 34.188 133.051 33.2143 134.255 31.9849C135.46 30.7556 136.404 29.2957 137.032 27.6928C137.659 26.0898 137.956 24.3768 137.905 22.6562Z" fill="black"/>
<path d="M160.229 1.25195H170.179L182.818 16.2991L195.476 1.25195H205.276V44.0796H196.153V13.0449L182.818 29.2582L169.426 13.1579V44.0796H160.229V1.25195Z" fill="black"/>
<path d="M235.823 8.85245C232.061 8.85245 229.353 10.564 229.353 13.0468C229.353 15.5296 232.061 16.4888 234.845 17.2976L240.488 18.8401C247.203 20.721 252.638 23.8997 252.638 31.3104C252.638 39.4547 244.87 44.7023 235.861 44.7023C226.456 44.7023 220.249 40.3763 217.842 35.7493L223.936 30.1066C225.217 32.0894 226.987 33.7088 229.076 34.8091C231.164 35.9093 233.501 36.4534 235.861 36.3887C239.811 36.3887 242.82 34.9217 242.82 32.0063C242.82 29.4859 240.601 28.4325 237.648 27.6237L231.535 26.025C225.478 24.4827 219.497 21.699 219.497 14.0626C219.497 6.03115 227.34 0.539062 236.425 0.539062C244.757 0.539062 250.682 4.54524 253.09 9.1158L247.09 14.9277C245.901 13.0238 244.237 11.4623 242.261 10.397C240.286 9.33169 238.067 8.7994 235.823 8.85245Z" fill="black"/>
<path d="M266.5 44.0796V1.25195H275.904V44.0796H266.5ZM291.422 1.25195H301.861L286.814 19.8914L304.513 44.0796H293.416L275.886 20.2489L291.422 1.25195Z" fill="black"/>
<path d="M0.166016 79.0664H17.094C25.9718 79.0664 32.7053 84.0507 32.7053 93.1354C32.7053 102.22 25.8402 107.073 17.094 107.073H9.6832V121.875H0.27875L0.166016 79.0664ZM22.9247 93.1354C22.9247 89.8627 20.4608 87.4928 16.6426 87.4928H9.60812V98.7781H16.5862C17.3834 98.8772 18.1927 98.8048 18.9598 98.566C19.7268 98.3271 20.4341 97.9273 21.0342 97.3932C21.6343 96.859 22.1133 96.2027 22.4394 95.4684C22.7654 94.7341 22.9309 93.9388 22.9247 93.1354Z" fill="black"/>
<path d="M64.2855 78.4453C77.2449 78.4453 86.8562 87.8499 86.8562 100.471C86.8562 113.091 77.2449 122.496 64.2855 122.496C51.3262 122.496 41.7148 113.091 41.7148 100.471C41.7148 87.8499 51.251 78.4453 64.2855 78.4453ZM77.1696 100.471C77.1214 97.9244 76.3218 95.4489 74.8713 93.3556C73.4208 91.2623 71.3841 89.6443 69.0169 88.7048C66.6498 87.7653 64.0578 87.5463 61.5666 88.0752C59.0754 88.6041 56.7959 89.8574 55.0147 91.6777C53.2335 93.4979 52.0299 95.8039 51.5551 98.306C51.0802 100.808 51.3555 103.395 52.3461 105.741C53.3366 108.087 54.9982 110.088 57.1224 111.493C59.2467 112.898 61.7388 113.644 64.2855 113.637C66.0066 113.656 67.7137 113.326 69.3039 112.667C70.8941 112.008 72.3346 111.034 73.5384 109.804C74.7423 108.574 75.6845 107.113 76.3086 105.509C76.9326 103.905 77.2255 102.191 77.1696 100.471Z" fill="black"/>
<path d="M108.958 113.186H128.707V121.875H99.5156V79.0664H108.92L108.958 113.186Z" fill="black"/>
<path d="M140.238 79.0664L150.865 96.2764L161.417 79.0664H171.837L155.605 105.587V121.875H146.201V105.775L129.855 79.1227L140.238 79.0664Z" fill="black"/>
<path d="M177.514 79.0664H215.339V87.7561H201.082V121.875H191.677V87.7561H177.477L177.514 79.0664Z" fill="black"/>
<path d="M227.621 79.0664H260.085V87.6996H237.063V96.0318H253.295V104.364H237.063V113.299H260.33V121.932H227.621V79.0664Z" fill="black"/>
<path d="M291.986 87.3976C290.144 87.1876 288.277 87.3693 286.509 87.9309C284.742 88.4925 283.113 89.4214 281.729 90.6565C280.345 91.8916 279.238 93.4049 278.48 95.0977C277.722 96.7905 277.33 98.6245 277.33 100.479C277.33 102.334 277.722 104.168 278.48 105.861C279.238 107.553 280.345 109.067 281.729 110.302C283.113 111.537 284.742 112.466 286.509 113.027C288.277 113.589 290.144 113.771 291.986 113.561C294.226 113.555 296.43 112.993 298.399 111.926C300.369 110.859 302.043 109.321 303.272 107.448L310.005 113.297C308.014 116.249 305.305 118.646 302.134 120.265C298.962 121.883 295.432 122.67 291.873 122.552C279.102 122.552 269.152 113.73 269.152 100.526C269.152 87.3223 279.892 78.501 291.723 78.501C301.842 78.501 307.579 83.8616 309.93 87.755L303.215 93.5481C301.995 91.6775 300.331 90.1372 298.372 89.0642C296.413 87.9912 294.22 87.4188 291.986 87.3976Z" fill="black"/>
<path d="M360.66 79.0664V121.875H351.256V104.477H331.563V121.875H322.158V79.0664H331.563V95.8438H351.387V79.0664H360.66Z" fill="black"/>
</svg>
