<svg width="758" height="406" viewBox="0 0 758 406" fill="none" xmlns="http://www.w3.org/2000/svg">
<path d="M456.493 314.37L431.435 305.25L406.365 314.37L381.307 305.25L356.238 314.37L331.179 305.25L306.121 314.37V346.247L331.179 355.378L356.238 346.247L381.307 355.378L406.365 346.247L431.435 355.378L456.493 346.247V314.37Z" fill="black"/>
<path d="M456.482 264.243H456.493L431.435 255.123L406.365 264.243L381.307 255.123L356.238 264.243L331.179 255.123L306.121 264.243V296.131L331.179 305.251L356.238 296.131L381.307 305.251L406.365 296.131L431.435 305.251L456.493 296.131V264.243H456.482Z" fill="#28BE46"/>
<path d="M356.237 264.243L331.168 273.374L306.109 264.243L331.168 255.123L356.237 264.243Z" fill="black"/>
<path d="M406.353 264.243L381.295 273.374L356.236 264.243L381.295 255.123L406.353 264.243Z" fill="black"/>
<path d="M456.483 264.243L431.425 273.374L406.355 264.243L431.425 255.123L456.483 264.243Z" fill="black"/>
<path d="M306.109 346.245L331.168 337.125L356.237 346.245L331.168 355.376L306.109 346.245Z" fill="#28BE46"/>
<path d="M406.367 346.245L431.426 337.125L456.495 346.245L431.426 355.376L406.367 346.245Z" fill="#28BE46"/>
<path d="M406.353 314.371L381.295 323.491L356.236 314.371V346.248L381.295 355.379L406.353 346.248V314.371Z" fill="#28BE46"/>
<path d="M456.493 364.499L431.435 355.379L406.365 364.499L381.307 355.379L356.238 364.499L331.179 355.379L306.121 364.499V396.376L331.179 405.496L356.238 396.376L381.307 405.496L406.365 396.376L431.435 405.496L456.493 396.376V364.499Z" fill="black"/>
<path d="M306.109 396.376L331.168 387.256L356.237 396.376L331.168 405.496L306.109 396.376Z" fill="#28BE46"/>
<path d="M406.367 396.376L431.426 387.256L456.495 396.376L431.426 405.496L406.367 396.376Z" fill="#28BE46"/>
<path d="M406.353 364.498L381.295 373.618L356.236 364.498V396.375L381.295 405.495L406.353 396.375V364.498Z" fill="#28BE46"/>
<path d="M197.563 14.666H235.388V23.3745H221.131V57.4939H211.726V23.3745H197.525L197.563 14.666Z" fill="black"/>
<path d="M264.823 14.0449C277.782 14.0449 287.393 23.4494 287.393 36.0702C287.393 48.691 277.763 58.1142 264.823 58.1142C251.882 58.1142 242.252 48.7098 242.252 36.0702C242.252 23.4306 251.807 14.0449 264.823 14.0449ZM277.726 36.0702C277.681 33.5193 276.884 31.0384 275.433 28.9395C273.983 26.8405 271.944 25.2172 269.574 24.2734C267.204 23.3296 264.607 23.1076 262.111 23.6351C259.615 24.1627 257.33 25.4163 255.545 27.2385C253.759 29.0606 252.552 31.3701 252.075 33.8764C251.598 36.3827 251.872 38.9741 252.864 41.3248C253.855 43.6756 255.519 45.6808 257.647 47.0885C259.775 48.4962 262.271 49.2435 264.823 49.2364C266.544 49.2524 268.251 48.9207 269.841 48.2613C271.431 47.6019 272.871 46.6284 274.076 45.399C275.281 44.1696 276.225 42.7098 276.852 41.1068C277.479 39.5039 277.776 37.7907 277.726 36.0702Z" fill="black"/>
<path d="M300.673 14.666H310.604L323.263 29.7131L335.902 14.666H345.72V57.4939H336.579V26.4592L323.244 42.6725L309.852 26.5721V57.4939H300.654L300.673 14.666Z" fill="black"/>
<path d="M381.138 22.998C377.925 23.3641 374.96 24.8998 372.806 27.3124C370.653 29.725 369.463 32.8458 369.463 36.0796C369.463 39.3134 370.653 42.4341 372.806 44.8467C374.96 47.2593 377.925 48.7951 381.138 49.1612C383.379 49.1584 385.584 48.5982 387.554 47.5311C389.524 46.4639 391.197 44.9234 392.424 43.0483L399.158 48.8602C397.158 51.808 394.445 54.2023 391.272 55.8202C388.098 57.4382 384.567 58.2273 381.007 58.1142C368.236 58.1142 358.305 49.2929 358.305 36.0702C358.305 22.8475 369.045 14.0449 380.875 14.0449C390.995 14.0449 396.731 19.4244 399.082 23.299L392.349 29.1109C391.129 27.2464 389.468 25.7125 387.512 24.6459C385.556 23.5794 383.366 23.0132 381.138 22.998Z" fill="black"/>
<path d="M411.326 57.4939V14.666H420.731V57.4939H411.326ZM436.267 14.666H446.687L431.64 33.3057L449.358 57.4939H438.242L420.768 33.7194L436.267 14.666Z" fill="black"/>
<path d="M469.502 43.2367L489.496 14.666H498.9V57.4939H489.496V28.735L469.445 57.4939H460.041V14.666H469.445L469.502 43.2367Z" fill="black"/>
<path d="M524.5 43.2382L544.494 14.6674H553.898V57.4953H544.494V28.7365L524.444 57.4953H515.039V14.6674H524.444L524.5 43.2382ZM530.669 0.974609C530.615 1.51196 530.671 2.05474 530.832 2.56999C530.994 3.08525 531.259 3.56224 531.611 3.97205C531.963 4.38186 532.394 4.71585 532.879 4.95394C533.364 5.19202 533.892 5.32916 534.431 5.357C534.966 5.31656 535.488 5.17111 535.966 4.92891C536.445 4.68672 536.871 4.35255 537.22 3.94553C537.57 3.53851 537.835 3.06657 538.002 2.55679C538.169 2.04701 538.234 1.50943 538.193 0.974609H545.039C545.039 3.81303 543.912 6.53519 541.905 8.54226C539.898 10.5493 537.175 11.6769 534.337 11.6769C531.499 11.6769 528.776 10.5493 526.769 8.54226C524.762 6.53519 523.635 3.81303 523.635 0.974609H530.669Z" fill="black"/>
<path d="M39.1912 135.29H29.7868V101.17H10.0939V135.29H0.689453V92.4805H39.1912V135.29Z" fill="black"/>
<path d="M74.1762 91.8594C87.1355 91.8594 96.7468 101.264 96.7468 113.885C96.7468 126.505 87.1167 135.91 74.1762 135.91C61.2356 135.91 51.6055 126.505 51.6055 113.885C51.6055 101.264 61.1604 91.8594 74.1762 91.8594ZM87.079 113.885C87.0345 111.334 86.2371 108.853 84.7867 106.754C83.3363 104.655 81.2978 103.032 78.9275 102.088C76.5572 101.144 73.9607 100.922 71.4646 101.45C68.9684 101.977 66.6839 103.231 64.8982 105.053C63.1125 106.875 61.9053 109.185 61.4283 111.691C60.9512 114.197 61.2257 116.789 62.2172 119.139C63.2086 121.49 64.8729 123.495 67.0007 124.903C69.1285 126.311 71.6249 127.058 74.1762 127.051C75.8981 127.069 77.6061 126.74 79.1973 126.081C80.7885 125.423 82.23 124.449 83.4353 123.219C84.6406 121.989 85.5847 120.528 86.2109 118.924C86.8371 117.32 87.1324 115.606 87.079 113.885Z" fill="black"/>
<path d="M103.668 135.609V126.976H106.075C109.837 126.976 111.718 125.095 111.718 120.186V92.4805H145.048V135.29H135.643V101.114H120.709V120.807C120.709 129.684 116.815 135.609 107.072 135.609H103.668Z" fill="black"/>
<path d="M170.684 121.051L190.678 92.4805H200.082V135.29H190.678V106.549L170.74 135.29H161.336V92.4805H170.74L170.684 121.051Z" fill="black"/>
<path d="M212.439 92.4805H250.264V101.17H236.007V135.29H226.603V101.17H212.439V92.4805Z" fill="black"/>
<path d="M262.453 92.4805H294.898V101.114H271.895V109.446H288.127V117.778H271.895V126.656H295.199V135.29H262.491L262.453 92.4805Z" fill="black"/>
<path d="M327.061 107.076L337.914 92.5181H348.654L332.854 113.622L349.331 135.346H337.801L326.252 120.412L314.779 135.346H303.982L320.459 113.622L304.603 92.4805H316.02L327.061 107.076Z" fill="black"/>
<path d="M399.194 92.4805V135.29H389.79V117.872H370.115V135.29H360.711V92.4805H370.115V109.258H389.79V92.4805H399.194Z" fill="black"/>
<path d="M424.811 121.051L444.805 92.4805H454.209V135.29H444.805V106.549L424.867 135.29H415.463V92.4805H424.867L424.811 121.051Z" fill="black"/>
<path d="M503.847 92.4817V135.291H494.442V118.927H482.517C474.881 118.927 468.523 115.541 468.523 106.457V92.4629H477.928V105.291C477.928 109.052 480.335 110.294 483.984 110.294H494.574V92.4629L503.847 92.4817Z" fill="black"/>
<path d="M520.135 92.4805H552.599V101.114H529.577V109.446H545.809V117.778H529.577V126.656H552.881V135.29H520.172L520.135 92.4805Z" fill="black"/>
<path d="M584.498 100.812C581.285 101.179 578.319 102.714 576.166 105.127C574.012 107.54 572.822 110.66 572.822 113.894C572.822 117.128 574.012 120.249 576.166 122.661C578.319 125.074 581.285 126.61 584.498 126.976C586.739 126.973 588.943 126.413 590.913 125.346C592.883 124.278 594.557 122.738 595.783 120.863L602.517 126.656C600.521 129.607 597.809 132.005 594.635 133.623C591.46 135.242 587.927 136.028 584.366 135.91C571.595 135.91 561.664 127.088 561.664 113.885C561.664 100.681 572.404 91.8594 584.235 91.8594C594.354 91.8594 600.091 97.22 602.442 101.113L595.708 106.906C594.484 105.048 592.821 103.519 590.866 102.456C588.91 101.394 586.724 100.829 584.498 100.812Z" fill="black"/>
<path d="M614.686 135.291V92.4817H624.09V135.291H614.686ZM639.607 92.4629H650.028L634.98 111.103L652.755 135.291H641.639L624.128 111.46L639.607 92.4629Z" fill="black"/>
<path d="M672.865 121.051L692.858 92.4805H702.263V135.29H692.858V106.549L672.94 135.29H663.535V92.4805H672.94L672.865 121.051Z" fill="black"/>
<path d="M727.805 121.05L747.799 92.4792H757.203V135.288H747.799V106.548L727.918 135.288H718.514V92.4792H727.918L727.805 121.05ZM733.975 78.7676C733.918 79.3054 733.971 79.8492 734.132 80.3656C734.293 80.882 734.557 81.3601 734.91 81.7705C735.262 82.1809 735.694 82.5151 736.181 82.7523C736.667 82.9895 737.196 83.1249 737.736 83.1501C738.272 83.1121 738.795 82.9681 739.275 82.7267C739.754 82.4853 740.182 82.1512 740.531 81.7437C740.881 81.3361 741.147 80.8632 741.313 80.3524C741.479 79.8416 741.542 79.3029 741.498 78.7676H748.495C748.495 81.606 747.368 84.3282 745.36 86.3352C743.353 88.3423 740.631 89.4699 737.793 89.4699C734.954 89.4699 732.232 88.3423 730.225 86.3352C728.218 84.3282 727.09 81.606 727.09 78.7676H733.975Z" fill="black"/>
<path d="M117.736 204.467H122.156C124.62 204.467 127.347 204.222 128.889 202.116L111.416 170.291H121.78L133.705 192.316L143.203 170.291H153.078L138.388 203.658C135.491 210.26 130.864 213.062 124.695 213.062H117.773L117.736 204.467Z" fill="black"/>
<path d="M202.828 170.291V213.1H193.423V195.702H173.731V213.1H164.326V170.291H173.731V187.069H193.423V170.291H202.828Z" fill="black"/>
<path d="M228.447 198.843L248.441 170.291H257.846V213.1H248.441V184.36L228.391 213.1H218.986V170.291H228.391L228.447 198.843Z" fill="black"/>
<path d="M274.115 170.291H292.134C300.824 170.291 306.071 174.918 306.071 181.576C306.132 183.591 305.522 185.568 304.337 187.199C303.152 188.829 301.46 190.021 299.526 190.586C301.95 190.913 304.17 192.118 305.765 193.972C307.36 195.827 308.218 198.203 308.178 200.649C308.178 208.473 301.877 213.1 292.868 213.1H274.059L274.115 170.291ZM290.704 178.059H283.557V187.746H290.704C294.109 187.746 296.347 185.865 296.347 182.818C296.347 179.771 294.109 178.059 290.704 178.059ZM292.002 205.276C295.52 205.276 298.548 203.658 298.548 200.028C298.548 196.398 295.52 194.837 292.002 194.837H283.557V205.276H292.002Z" fill="black"/>
<path d="M321.531 170.291H353.995V178.924H330.936V187.257H347.168V195.589H330.936V204.467H354.202V213.1H321.531V170.291Z" fill="black"/>
<path d="M367.914 170.291H384.748C393.645 170.291 400.359 175.275 400.359 184.36C400.359 193.445 393.513 198.298 384.748 198.298H377.356V213.1H367.952L367.914 170.291ZM390.673 184.36C390.673 181.087 388.209 178.717 384.391 178.717H377.356V190.003H384.391C385.184 190.093 385.987 190.015 386.747 189.772C387.507 189.529 388.207 189.128 388.801 188.594C389.395 188.061 389.868 187.408 390.191 186.678C390.514 185.948 390.678 185.158 390.673 184.36Z" fill="black"/>
<path d="M432.148 178.549C430.305 178.339 428.438 178.521 426.671 179.083C424.903 179.644 423.274 180.573 421.89 181.808C420.506 183.043 419.399 184.557 418.641 186.25C417.883 187.942 417.491 189.776 417.491 191.631C417.491 193.486 417.883 195.32 418.641 197.012C419.399 198.705 420.506 200.219 421.89 201.454C423.274 202.689 424.903 203.618 426.671 204.179C428.438 204.741 430.305 204.923 432.148 204.713C434.386 204.707 436.587 204.147 438.556 203.084C440.526 202.021 442.201 200.487 443.433 198.619L450.148 204.412C448.157 207.364 445.449 209.763 442.278 211.381C439.106 213 435.575 213.786 432.016 213.666C419.245 213.666 409.295 204.844 409.295 191.641C409.295 178.437 420.035 169.615 431.866 169.615C441.985 169.615 447.74 174.976 450.073 178.869L443.358 184.662C442.136 182.8 440.474 181.268 438.518 180.202C436.563 179.136 434.375 178.568 432.148 178.549Z" fill="black"/>
<path d="M471.645 198.843L491.638 170.291H501.043V213.1H491.638V184.36L471.588 213.1H462.184V170.291H471.588L471.645 198.843Z" fill="black"/>
<path d="M513.383 170.291H551.207V178.981H536.95V213.1H527.546V178.981H513.383V170.291Z" fill="black"/>
<path d="M563.395 170.291H595.859V178.924H572.837V187.257H589.069V195.589H572.837V204.467H596.141V213.1H563.432L563.395 170.291Z" fill="black"/>
<path d="M605.246 170.291H643.165V178.981H628.908V213.1H619.503V178.981H605.321L605.246 170.291Z" fill="black"/>
</svg>
