<svg width="1056" height="148" viewBox="0 0 1056 148" fill="none" xmlns="http://www.w3.org/2000/svg">
<path d="M160.092 14.8762H169.226V36.8379H175.276V14.8762H184.441V9.27344H160.092V14.8762Z" fill="#1D1D1B"/>
<path d="M203.397 31.4749C202.289 31.4955 201.188 31.2913 200.161 30.8748C199.134 30.4582 198.202 29.8378 197.421 29.051C196.641 28.2643 196.027 27.3275 195.618 26.2971C195.209 25.2667 195.013 24.164 195.041 23.0557C195.041 20.8467 195.919 18.7281 197.48 17.166C199.041 15.604 201.159 14.7265 203.367 14.7265C205.575 14.7265 207.693 15.604 209.255 17.166C210.816 18.7281 211.693 20.8467 211.693 23.0557C211.717 24.1578 211.52 25.2536 211.113 26.278C210.706 27.3025 210.098 28.2349 209.325 29.0199C208.551 29.805 207.628 30.4268 206.61 30.8485C205.592 31.2702 204.499 31.4832 203.397 31.4749M203.397 8.88399C201.496 8.80226 199.597 9.10972 197.818 9.78755C196.04 10.4654 194.418 11.4993 193.052 12.826C191.687 14.1528 190.607 15.7443 189.877 17.5033C189.148 19.2623 188.786 21.1517 188.812 23.0557C188.812 26.9176 190.345 30.6213 193.075 33.3521C195.805 36.0828 199.507 37.617 203.367 37.617C207.228 37.617 210.93 36.0828 213.66 33.3521C216.389 30.6213 217.923 26.9176 217.923 23.0557C217.953 21.1557 217.595 19.2696 216.871 17.5128C216.147 15.756 215.072 14.1655 213.712 12.8388C212.353 11.5121 210.736 10.477 208.963 9.79697C207.189 9.11694 205.295 8.80627 203.397 8.88399" fill="#1D1D1B"/>
<path d="M240.596 18.921L232.45 9.27344H226.07V36.8379H231.97V16.9436L240.596 27.3102L249.191 16.8537V36.8379H255.061V9.27344H248.742L240.596 18.921Z" fill="#1D1D1B"/>
<path d="M274.707 14.1568C276.152 14.14 277.576 14.4983 278.841 15.1967C280.106 15.8951 281.169 16.9098 281.925 18.1416L285.788 14.3964C284.662 12.5982 283.071 11.1371 281.184 10.1669C279.297 9.19673 277.184 8.75339 275.066 8.88355C269.256 8.88355 264.315 12.449 264.315 17.5724C264.315 22.6958 268.088 24.4335 271.982 25.2724L275.905 26.3211C277.822 26.8304 279.229 27.5195 279.229 29.1375C279.229 30.7554 277.283 31.9538 274.737 31.9538C273.222 31.9812 271.724 31.6247 270.384 30.9175C269.043 30.2103 267.903 29.1754 267.07 27.909L263.146 31.4744C264.372 33.3984 266.099 34.951 268.141 35.9648C270.184 36.9786 272.464 37.4151 274.737 37.227C280.547 37.227 285.549 33.8714 285.549 28.6281C285.549 23.8642 282.045 21.737 277.732 20.5985L274.078 19.6097C272.281 19.1004 270.544 18.5012 270.544 16.8533C270.544 15.2054 272.251 14.1568 274.707 14.1568" fill="#1D1D1B"/>
<path d="M294.443 9.27344V36.8379H300.523V21.5276V9.27344H294.443Z" fill="#1D1D1B"/>
<path d="M307.562 21.288L317.205 9.27344H310.497L300.523 21.5276L311.814 36.8379H318.942L307.562 21.288Z" fill="#1D1D1B"/>
<path d="M11.3619 76.1773H6.74966V68.9266H11.3619C11.857 68.8685 12.3587 68.9131 12.8358 69.0578C13.3129 69.2025 13.755 69.4441 14.1345 69.7675C14.5139 70.0909 14.8226 70.4891 15.0413 70.9373C15.2599 71.3855 15.3837 71.874 15.4051 72.3722C15.4075 72.888 15.3017 73.3985 15.0946 73.8708C14.8874 74.343 14.5834 74.7666 14.2023 75.1139C13.8212 75.4613 13.3715 75.7247 12.8822 75.8873C12.3929 76.0498 11.875 76.1078 11.3619 76.0575M11.6015 63.3838H0.759766V90.9483H6.74966V81.3606H11.6015C17.232 81.3606 21.7244 78.3645 21.7244 72.3722C21.7244 66.3799 17.3817 63.3838 11.6614 63.3838" fill="#1D1D1B"/>
<path d="M41.8204 85.6446C40.151 85.6684 38.5123 85.1949 37.1126 84.2844C35.713 83.3738 34.6157 82.0674 33.9603 80.5312C33.3049 78.9951 33.1211 77.2986 33.4322 75.6577C33.7432 74.0167 34.5352 72.5054 35.7072 71.3159C36.8793 70.1264 38.3785 69.3126 40.0142 68.9779C41.6499 68.6432 43.3481 68.8028 44.8929 69.4364C46.4377 70.0699 47.7592 71.1488 48.6893 72.5358C49.6195 73.9228 50.1162 75.5552 50.1164 77.2255C50.1446 78.3287 49.9503 79.4262 49.5449 80.4526C49.1395 81.4789 48.5314 82.413 47.757 83.1989C46.9826 83.9848 46.0577 84.6064 45.0377 85.0267C44.0177 85.4469 42.9235 85.6571 41.8204 85.6446ZM41.8204 63.0537C38.0633 63.0537 34.4601 64.5468 31.8035 67.2045C29.1468 69.8622 27.6543 73.4669 27.6543 77.2255C27.6543 80.984 29.1468 84.5887 31.8035 87.2464C34.4601 89.9041 38.0633 91.3972 41.8204 91.3972C45.5775 91.3972 49.1807 89.9041 51.8373 87.2464C54.494 84.5887 55.9865 80.984 55.9865 77.2255C55.9865 73.4669 54.494 69.8622 51.8373 67.2045C49.1807 64.5468 45.5775 63.0537 41.8204 63.0537Z" fill="#1D1D1B"/>
<path d="M70.1833 63.4434H64.1035V91.0078H82.8818V85.4051H70.1833V63.4434Z" fill="#1D1D1B"/>
<path d="M97.1368 74.5291L90.3083 63.4434H83.5996L94.1418 80.6112V91.0078H100.192V80.5214L110.644 63.4434H103.935L97.1368 74.5291Z" fill="#1D1D1B"/>
<path d="M114.299 69.0461H123.433V91.0078H129.483V69.0461H138.648V63.4434H114.299V69.0461Z" fill="#1D1D1B"/>
<path d="M152.634 79.7124H163.087V74.3493H152.634V69.0162H167.459V63.4434H146.555V91.0078H167.609V85.435H152.634V79.7124Z" fill="#1D1D1B"/>
<path d="M187.973 68.8066C189.446 68.7768 190.903 69.1211 192.208 69.8075C193.512 70.494 194.621 71.5 195.431 72.7316L199.773 69.0164C198.508 67.0809 196.759 65.5098 194.7 64.4587C192.64 63.4076 190.342 62.9131 188.033 63.0241C186.14 62.972 184.256 63.3001 182.492 63.989C180.728 64.6778 179.12 65.7134 177.763 67.0346C176.407 68.3558 175.328 69.9358 174.592 71.681C173.856 73.4263 173.477 75.3015 173.478 77.1958C173.438 79.1062 173.792 81.0041 174.519 82.7713C175.245 84.5385 176.328 86.1369 177.699 87.4667C179.071 88.7966 180.702 89.8293 182.49 90.5005C184.278 91.1716 186.186 91.4668 188.093 91.3676C190.388 91.439 192.663 90.9267 194.706 89.8787C196.749 88.8307 198.492 87.2812 199.773 85.3753L195.431 81.72C194.634 82.9301 193.549 83.9226 192.273 84.6079C190.997 85.2932 189.571 85.6496 188.123 85.6449C185.891 85.6449 183.75 84.7579 182.172 83.179C180.594 81.6001 179.707 79.4587 179.707 77.2258C179.707 74.9929 180.594 72.8514 182.172 71.2725C183.75 69.6937 185.891 68.8066 188.123 68.8066" fill="#1D1D1B"/>
<path d="M226.129 74.2594H213.461V63.4434H207.381V91.0078H213.461V79.8023H226.129V91.0078H232.179V63.4434H226.129V74.2594Z" fill="#1D1D1B"/>
<path d="M261.68 81.0007L248.742 63.4434H242.662V91.0078H248.592V72.6115L262.219 91.0078H267.61V63.4434H261.68V81.0007Z" fill="#1D1D1B"/>
<path d="M284.172 63.4434H278.092V91.0078H284.172V63.4434Z" fill="#1D1D1B"/>
<path d="M307.323 85.645C305.091 85.645 302.95 84.7579 301.372 83.179C299.794 81.6001 298.907 79.4587 298.907 77.2258C298.907 74.9929 299.794 72.8515 301.372 71.2726C302.95 69.6937 305.091 68.8067 307.323 68.8067C308.771 68.802 310.197 69.1584 311.473 69.8437C312.749 70.529 313.834 71.5215 314.63 72.7316L318.943 69.0164C317.687 67.079 315.944 65.5057 313.889 64.4541C311.834 63.4025 309.538 62.9093 307.233 63.0241C305.339 62.9721 303.453 63.3 301.688 63.9885C299.922 64.677 298.312 65.7122 296.953 67.033C295.594 68.3538 294.512 69.9334 293.773 71.6789C293.033 73.4243 292.651 75.3001 292.648 77.1958C292.608 79.1062 292.962 81.0042 293.689 82.7713C294.415 84.5385 295.498 86.1369 296.869 87.4667C298.241 88.7966 299.872 89.8293 301.66 90.5005C303.448 91.1717 305.355 91.4668 307.263 91.3676C309.559 91.4475 311.837 90.939 313.882 89.8902C315.926 88.8414 317.668 87.2873 318.943 85.3753L314.63 81.6601C313.834 82.8702 312.749 83.8627 311.473 84.548C310.197 85.2333 308.771 85.5897 307.323 85.585" fill="#1D1D1B"/>
<path d="M61.917 133.344C61.9921 134.204 61.8806 135.07 61.5902 135.883C61.2998 136.695 60.8373 137.436 60.2344 138.053C59.6315 138.67 58.9023 139.15 58.0969 139.46C57.2915 139.769 56.4287 139.901 55.5677 139.846C54.7067 139.901 53.8439 139.769 53.0385 139.46C52.233 139.15 51.5039 138.67 50.901 138.053C50.2981 137.436 49.8356 136.695 49.5452 135.883C49.2548 135.07 49.1433 134.204 49.2184 133.344V117.614H43.2285V133.614C43.2285 141.194 48.2301 145.598 55.6575 145.598C57.2894 145.758 58.9363 145.561 60.4846 145.021C62.0328 144.481 63.4453 143.611 64.6244 142.471C65.8035 141.332 66.7211 139.949 67.3137 138.42C67.9063 136.891 68.1598 135.251 68.0566 133.614V117.614H62.0667L61.917 133.344Z" fill="#1D1D1B"/>
<path d="M97.2562 135.172L84.318 117.614H78.2383V145.179H84.1683V126.782L97.7953 145.179H103.186V117.614H97.2562V135.172Z" fill="#1D1D1B"/>
<path d="M119.75 117.614H113.67V145.179H119.75V117.614Z" fill="#1D1D1B"/>
<path d="M140.714 137.029L133.436 117.614H126.967L137.569 145.179H143.768L154.46 117.614H147.991L140.714 137.029Z" fill="#1D1D1B"/>
<path d="M167.757 133.883H178.21V128.52H167.757V123.157H182.582V117.614H161.678V145.179H182.732V139.606H167.757V133.883Z" fill="#1D1D1B"/>
<path d="M202.2 130.347H197.647V123.097H202.2C204.805 123.097 206.363 124.565 206.363 126.662C206.362 127.188 206.251 127.707 206.035 128.187C205.819 128.666 205.504 129.094 205.11 129.442C204.717 129.79 204.254 130.051 203.752 130.207C203.25 130.363 202.721 130.411 202.2 130.347M212.592 126.662C212.592 120.82 208.339 117.674 202.439 117.674H191.598V145.238H197.588V135.651H201.691L208.339 145.178H215.288L207.74 134.392C209.212 133.72 210.452 132.627 211.304 131.252C212.157 129.877 212.584 128.28 212.532 126.662" fill="#1D1D1B"/>
<path d="M230.621 122.497C232.067 122.478 233.493 122.832 234.763 123.525C236.032 124.217 237.102 125.226 237.869 126.452L241.702 122.737C240.567 120.953 238.972 119.508 237.085 118.554C235.198 117.6 233.09 117.171 230.98 117.314C225.17 117.314 220.139 120.849 220.139 126.033C220.139 131.216 224.002 132.744 227.896 133.733L231.819 134.751C233.736 135.291 235.143 135.95 235.143 137.568C235.143 139.186 233.197 140.564 230.651 140.564C229.133 140.588 227.634 140.227 226.293 139.515C224.952 138.802 223.814 137.761 222.984 136.489L219.061 140.085C220.293 142.002 222.021 143.549 224.062 144.562C226.103 145.574 228.38 146.015 230.651 145.837C236.461 145.837 241.463 142.452 241.463 137.208C241.463 132.444 237.989 130.347 233.646 129.209L229.992 128.19C228.195 127.681 226.458 127.081 226.458 125.463C226.458 123.846 228.165 122.767 230.621 122.767" fill="#1D1D1B"/>
<path d="M256.048 117.614H249.969V145.179H256.048V117.614Z" fill="#1D1D1B"/>
<path d="M263.896 123.217H273.031V145.179H279.081V123.217H288.245V117.614H263.896V123.217Z" fill="#1D1D1B"/>
<path d="M312.234 117.614L305.436 128.7L298.607 117.614H291.898L302.441 134.752V145.179H308.49V134.692L318.943 117.614H312.234Z" fill="#1D1D1B"/>
<path d="M512.656 61.9459L489.086 53.377L465.486 61.9459L441.886 53.377L418.286 61.9459L394.685 53.377L371.115 61.9459V91.9972L394.685 100.566L418.286 91.9972L441.886 100.566L465.486 91.9972L489.086 100.566L512.656 91.9972V61.9459Z" fill="#1D1D1B"/>
<path d="M512.656 14.7561H512.686L489.086 6.15723L465.486 14.7561L441.886 6.15723L418.286 14.7561L394.685 6.15723L371.115 14.7561V44.7775L394.685 53.3764L418.286 44.7775L441.886 53.3764L465.486 44.7775L489.086 53.3764L512.686 44.7775V14.7561H512.656Z" fill="#29BE46"/>
<path d="M418.286 14.7561L394.686 23.3251L371.086 14.7561L394.686 6.15723L418.286 14.7561Z" fill="#1D1D1B"/>
<path d="M465.486 14.7561L441.885 23.3251L418.285 14.7561L441.885 6.15723L465.486 14.7561Z" fill="#1D1D1B"/>
<path d="M512.657 14.7561L489.057 23.3251L465.486 14.7561L489.057 6.15723L512.657 14.7561Z" fill="#1D1D1B"/>
<path d="M371.086 91.9974L394.686 83.3984L418.286 91.9974L394.686 100.566L371.086 91.9974Z" fill="#29BE46"/>
<path d="M465.486 91.9974L489.087 83.3984L512.657 91.9974L489.087 100.566L465.486 91.9974Z" fill="#29BE46"/>
<path d="M465.456 61.9453L441.885 70.5442L418.285 61.9453V91.9966L441.885 100.566L465.486 91.9966L465.456 61.9453Z" fill="#29BE46"/>
<path d="M512.656 109.164L489.086 100.565L465.486 109.164L441.886 100.565L418.286 109.164L394.685 100.565L371.115 109.164V139.186L394.685 147.785L418.286 139.186L441.886 147.785L465.486 139.186L489.086 147.785L512.656 139.186V109.164Z" fill="#1D1D1B"/>
<path d="M371.086 139.186L394.686 130.587L418.286 139.186L394.686 147.785L371.086 139.186Z" fill="#29BE46"/>
<path d="M465.486 139.186L489.087 130.587L512.657 139.186L489.087 147.785L465.486 139.186Z" fill="#29BE46"/>
<path d="M465.456 109.165L441.885 117.764L418.285 109.165V139.186L441.885 147.785L465.486 139.186L465.456 109.165Z" fill="#29BE46"/>
<path d="M565.457 9.27344H589.806V14.8762H580.611V36.8379H574.592V14.8762H565.457V9.27344Z" fill="#1D1D1B"/>
<path d="M617.029 23.0557C617.097 21.9219 616.933 20.7861 616.546 19.7182C616.159 18.6503 615.558 17.6729 614.779 16.846C614.001 16.0191 613.062 15.3602 612.019 14.9098C610.977 14.4595 609.854 14.2271 608.718 14.2271C607.583 14.2271 606.459 14.4595 605.417 14.9098C604.375 15.3602 603.435 16.0191 602.657 16.846C601.879 17.6729 601.277 18.6503 600.891 19.7182C600.504 20.7861 600.339 21.9219 600.407 23.0557C600.339 24.1896 600.504 25.3253 600.891 26.3932C601.277 27.4611 601.879 28.4386 602.657 29.2655C603.435 30.0924 604.375 30.7513 605.417 31.2016C606.459 31.652 607.583 31.8843 608.718 31.8843C609.854 31.8843 610.977 31.652 612.019 31.2016C613.062 30.7513 614.001 30.0924 614.779 29.2655C615.558 28.4386 616.159 27.4611 616.546 26.3932C616.933 25.3253 617.097 24.1896 617.029 23.0557M608.733 8.88399C610.632 8.80644 612.528 9.11701 614.303 9.79672C616.078 10.4764 617.696 11.511 619.058 12.8373C620.421 14.1636 621.498 15.7537 622.226 17.5106C622.953 19.2675 623.315 21.1543 623.289 23.0557C623.119 26.8073 621.509 30.3487 618.795 32.9434C616.081 35.538 612.472 36.9859 608.718 36.9859C604.964 36.9859 601.355 35.538 598.641 32.9434C595.927 30.3487 594.318 26.8073 594.148 23.0557C594.122 21.1517 594.484 19.2623 595.213 17.5033C595.942 15.7443 597.023 14.1528 598.388 12.826C599.754 11.4993 601.375 10.4654 603.154 9.78755C604.933 9.10972 606.831 8.80226 608.733 8.88399" fill="#1D1D1B"/>
<path d="M631.795 9.27344H638.204L646.35 18.921L654.497 9.27344H660.816V36.8379H654.916V16.8537L646.35 27.3102L637.725 16.9436V36.8379H631.795V9.27344Z" fill="#1D1D1B"/>
<path d="M683.608 14.637C682.494 14.6039 681.385 14.799 680.348 15.2103C679.312 15.6217 678.371 16.2406 677.583 17.0291C676.795 17.8176 676.176 18.759 675.765 19.7955C675.354 20.832 675.159 21.9416 675.192 23.0562C675.159 24.1708 675.354 25.2804 675.765 26.3169C676.176 27.3534 676.795 28.2948 677.583 29.0833C678.371 29.8718 679.312 30.4907 680.348 30.9021C681.385 31.3134 682.494 31.5085 683.608 31.4753C685.067 31.467 686.501 31.0924 687.778 30.3857C689.054 29.679 690.133 28.6629 690.916 27.4306L695.228 31.1757C693.949 33.0836 692.206 34.6347 690.163 35.6829C688.119 36.7312 685.843 37.2423 683.548 37.168C681.641 37.2673 679.733 36.9721 677.945 36.3009C676.157 35.6298 674.526 34.597 673.154 33.2672C671.783 31.9373 670.7 30.3389 669.974 28.5718C669.247 26.8046 668.893 24.9066 668.933 22.9963C668.944 21.0978 669.335 19.2208 670.083 17.4763C670.832 15.7317 671.923 14.155 673.291 12.8394C674.659 11.5238 676.277 10.4959 678.049 9.81661C679.821 9.1373 681.711 8.82034 683.608 8.88445C685.913 8.7697 688.209 9.26282 690.264 10.3145C692.319 11.3661 694.062 12.9394 695.318 14.8767L690.916 18.4421C690.106 17.2542 689.015 16.2852 687.74 15.6213C686.465 14.9574 685.045 14.6193 683.608 14.637Z" fill="#1D1D1B"/>
<path d="M719.069 9.27344H725.777L716.134 21.258L727.514 36.808H720.386L709.095 21.4378L719.069 9.27344ZM703.016 9.27344H709.006V36.8379H703.016V9.27344Z" fill="#1D1D1B"/>
<path d="M740.481 27.6697L753.329 9.27344H759.409V36.8379H753.419V18.3218L740.511 36.8379H734.461V9.27344H740.481V27.6697Z" fill="#1D1D1B"/>
<path d="M779.835 0.464844C779.798 0.811352 779.832 1.16181 779.936 1.49452C780.04 1.82723 780.21 2.13512 780.438 2.39912C780.665 2.66313 780.944 2.87763 781.258 3.02936C781.572 3.18108 781.913 3.26681 782.261 3.28121C782.609 3.26236 782.949 3.17395 783.262 3.0212C783.575 2.86846 783.855 2.65448 784.084 2.39192C784.312 2.12935 784.486 1.82354 784.595 1.49254C784.704 1.16155 784.745 0.812098 784.717 0.464844L789.119 0.464844C789.159 1.36967 789.008 2.27274 788.675 3.11511C788.343 3.95748 787.836 4.72022 787.189 5.35354C786.542 5.98687 785.769 6.47654 784.919 6.7906C784.07 7.10466 783.164 7.23605 782.261 7.1762C781.355 7.23533 780.447 7.1039 779.595 6.79038C778.742 6.47685 777.965 5.98819 777.314 5.35589C776.662 4.72358 776.15 3.96167 775.81 3.11925C775.471 2.27683 775.312 1.3726 775.343 0.464844L779.835 0.464844ZM775.852 27.6698L788.73 9.27349H794.72V36.838H788.73V18.4417L775.822 36.9578H769.832V9.27349H775.822L775.852 27.6698Z" fill="#1D1D1B"/>
<path d="M593.609 91.0078H587.589V69.0461H574.89V91.0078H568.811V63.4434H593.609V91.0078Z" fill="#1D1D1B"/>
<path d="M624.428 77.2261C624.41 75.5813 623.906 73.9787 622.979 72.6202C622.052 71.2617 620.744 70.2082 619.22 69.5924C617.695 68.9767 616.022 68.8262 614.412 69.1601C612.803 69.494 611.327 70.2973 610.173 71.4687C609.019 72.64 608.237 74.127 607.927 75.7422C607.616 77.3574 607.79 79.0284 608.428 80.5446C609.065 82.0608 610.137 83.3543 611.508 84.262C612.879 85.1697 614.488 85.651 616.132 85.6452C617.234 85.6535 618.326 85.4405 619.344 85.0188C620.363 84.5971 621.286 83.9753 622.059 83.1903C622.833 82.4052 623.441 81.4728 623.848 80.4484C624.255 79.4239 624.452 78.3282 624.428 77.2261M616.132 63.0543C618.915 63.1367 621.611 64.0374 623.885 65.6439C626.159 67.2504 627.909 69.4914 628.917 72.0871C629.925 74.6828 630.147 77.5182 629.554 80.239C628.961 82.9599 627.579 85.4456 625.583 87.3858C623.586 89.326 621.062 90.6347 618.326 91.1484C615.59 91.6621 612.763 91.358 610.199 90.2741C607.635 89.1903 605.447 87.3747 603.908 85.0541C602.369 82.7335 601.548 80.0108 601.547 77.2261C601.516 75.3208 601.876 73.4294 602.603 71.6685C603.331 69.9075 604.411 68.3141 605.778 66.9865C607.144 65.6589 608.767 64.6251 610.548 63.9489C612.329 63.2726 614.229 62.9682 616.132 63.0543" fill="#1D1D1B"/>
<path d="M635.09 91.2179V85.6451H636.647C639.073 85.6451 640.301 84.5066 640.301 81.2707V63.3838H661.775V90.9483H655.785V69.0165H646.171V81.6602C646.171 87.3829 643.655 91.2179 637.396 91.2179H635.09Z" fill="#1D1D1B"/>
<path d="M678.246 81.8397L691.095 63.4434H697.174V91.0078H691.185V72.4917L678.276 91.0078H672.227V63.4434H678.246V81.8397Z" fill="#1D1D1B"/>
<path d="M705.051 63.4434H729.4V69.0461H720.205V91.0078H714.185V69.0461H705.051V63.4434Z" fill="#1D1D1B"/>
<path d="M737.277 63.4434H758.182V69.0162H743.357V74.3493H753.809V79.7124H743.357V85.435H758.332V91.0078H737.277V63.4434Z" fill="#1D1D1B"/>
<path d="M778.876 72.8213L785.855 63.4434H792.773L782.62 77.0159L793.222 91.0078H785.795L778.367 81.3902L770.97 91.0078H764.021L774.624 77.0159L764.411 63.4434H771.778L778.876 72.8213Z" fill="#1D1D1B"/>
<path d="M825.298 63.4434V91.0078H819.278V79.8023H806.58V91.0078H800.5V63.4434H806.58V74.2594H819.278V63.4434H825.298Z" fill="#1D1D1B"/>
<path d="M841.771 81.8397L854.649 63.4434H860.729V91.0078H854.739V72.4917L841.801 91.0078H835.781V63.4434H841.771V81.8397Z" fill="#1D1D1B"/>
<path d="M892.655 63.3838V90.9483H886.666V80.4917H878.999C874.087 80.4917 870.014 78.3046 870.014 72.4621V63.3838H876.004V71.6531C876.004 74.08 877.561 74.859 879.897 74.859H886.636V63.3838H892.655Z" fill="#1D1D1B"/>
<path d="M903.137 63.4434H924.041V69.0162H909.216V74.3493H919.669V79.7124H909.216V85.435H924.191V91.0078H903.137V63.4434Z" fill="#1D1D1B"/>
<path d="M944.558 68.8073C942.326 68.8073 940.185 69.6943 938.607 71.2732C937.029 72.8521 936.142 74.9935 936.142 77.2264C936.142 79.4593 937.029 81.6008 938.607 83.1797C940.185 84.7585 942.326 85.6456 944.558 85.6456C946.006 85.6502 947.432 85.2938 948.708 84.6085C949.984 83.9232 951.069 82.9307 951.865 81.7206L956.148 85.4358C954.867 87.3417 953.124 88.8912 951.081 89.9392C949.038 90.9872 946.763 91.4995 944.468 91.4281C942.561 91.5274 940.653 91.2322 938.865 90.561C937.077 89.8899 935.446 88.8571 934.074 87.5273C932.703 86.1974 931.62 84.599 930.894 82.8319C930.167 81.0647 929.813 79.1667 929.853 77.2564C929.852 75.3621 930.231 73.4869 930.967 71.7416C931.703 69.9963 932.782 68.4164 934.138 67.0952C935.495 65.774 937.103 64.7384 938.867 64.0495C940.631 63.3607 942.515 63.0326 944.408 63.0846C946.717 62.9736 949.015 63.4682 951.075 64.5192C953.134 65.5703 954.883 67.1414 956.148 69.0769L951.806 72.7921C951.009 71.582 949.924 70.5895 948.648 69.9042C947.372 69.219 945.946 68.8625 944.498 68.8672" fill="#1D1D1B"/>
<path d="M980.108 63.3838H986.816L977.113 75.3683L988.523 90.9483H981.365L970.074 75.608L980.108 63.3838ZM964.055 63.3838H970.045V90.9483H964.055V63.3838Z" fill="#1D1D1B"/>
<path d="M1001.43 81.8397L1014.31 63.4434H1020.39V91.0078H1014.37V72.4917L1001.46 91.0078H995.441V63.4434H1001.43V81.8397Z" fill="#1D1D1B"/>
<path d="M1040.79 54.6348C1040.75 54.9805 1040.79 55.3292 1040.89 55.6601C1041 55.991 1041.17 56.2971 1041.4 56.5602C1041.62 56.8232 1041.9 57.0378 1042.21 57.1909C1042.53 57.344 1042.86 57.4325 1043.21 57.4511C1043.56 57.4323 1043.9 57.3439 1044.21 57.1911C1044.53 57.0384 1044.8 56.8244 1045.03 56.5618C1045.26 56.2993 1045.44 55.9935 1045.55 55.6625C1045.65 55.3315 1045.7 54.982 1045.67 54.6348H1050.07C1050.07 56.4624 1049.34 58.2152 1048.05 59.5075C1046.76 60.7999 1045.01 61.5259 1043.18 61.5259C1041.35 61.5259 1039.6 60.7999 1038.31 59.5075C1037.02 58.2152 1036.29 56.4624 1036.29 54.6348H1040.79ZM1036.8 81.8397L1049.68 63.4434H1055.67V91.0079H1049.68V72.3719L1037.01 91.0079H1031.02V63.3835H1037.01L1036.8 81.8397Z" fill="#1D1D1B"/>
<path d="M568.902 139.606H571.717C572.508 139.717 573.313 139.638 574.068 139.378C574.823 139.118 575.505 138.682 576.06 138.108L564.799 117.614H571.478L579.145 131.786L585.134 117.614H591.484L582.02 139.097C581.382 140.904 580.184 142.46 578.6 143.538C577.016 144.616 575.129 145.16 573.215 145.089H568.902V139.606Z" fill="#1D1D1B"/>
<path d="M623.679 117.614V145.179H617.629V133.973H604.961V145.179H598.881V117.614H604.961V128.4H617.629V117.614H623.679Z" fill="#1D1D1B"/>
<path d="M640.15 135.981L653.028 117.614H659.108V145.179H653.088V126.663L640.18 145.179H634.16V117.614H640.15V135.981Z" fill="#1D1D1B"/>
<path d="M681.062 140.115C683.308 140.115 685.255 139.097 685.255 136.76C685.255 134.423 683.308 133.404 681.062 133.404H675.611V140.115H681.062ZM680.223 122.618H675.611V128.85H680.223C680.678 128.914 681.141 128.88 681.581 128.75C682.021 128.62 682.428 128.397 682.774 128.096C683.121 127.794 683.398 127.422 683.589 127.005C683.779 126.587 683.877 126.133 683.877 125.674C683.877 123.726 682.409 122.678 680.223 122.678M669.531 117.614H681.122C686.752 117.614 690.107 120.61 690.107 124.865C690.127 126.156 689.73 127.42 688.975 128.468C688.219 129.515 687.145 130.29 685.914 130.677C687.472 130.884 688.899 131.658 689.922 132.853C690.944 134.047 691.49 135.577 691.454 137.149C691.454 142.183 687.411 145.179 681.601 145.179H669.621L669.531 117.614Z" fill="#1D1D1B"/>
<path d="M699.99 117.614H720.895V123.157H706.07V128.52H716.522V133.883H706.07V139.606H721.045V145.179H699.99V117.614Z" fill="#1D1D1B"/>
<path d="M744.555 126.662C744.55 126.154 744.439 125.652 744.227 125.19C744.016 124.727 743.709 124.314 743.328 123.978C742.947 123.642 742.499 123.39 742.014 123.238C741.529 123.086 741.017 123.038 740.512 123.097H735.99V130.347H740.512C741.025 130.398 741.543 130.34 742.033 130.177C742.522 130.015 742.972 129.751 743.353 129.404C743.734 129.057 744.038 128.633 744.245 128.161C744.452 127.689 744.558 127.178 744.555 126.662M729.91 117.674H740.752C746.472 117.674 750.785 120.88 750.785 126.662C750.785 132.445 746.382 135.651 740.752 135.651H735.99V145.178H730L729.91 117.674Z" fill="#1D1D1B"/>
<path d="M771.24 122.977C769.008 122.977 766.867 123.864 765.289 125.443C763.711 127.022 762.824 129.164 762.824 131.397C762.824 133.629 763.711 135.771 765.289 137.35C766.867 138.929 769.008 139.816 771.24 139.816C772.692 139.823 774.122 139.464 775.399 138.773C776.676 138.082 777.759 137.08 778.548 135.861L782.89 139.606C781.613 141.516 779.871 143.068 777.827 144.117C775.783 145.166 773.506 145.675 771.21 145.598C769.303 145.698 767.395 145.402 765.607 144.731C763.819 144.06 762.188 143.027 760.817 141.697C759.445 140.368 758.362 138.769 757.636 137.002C756.91 135.235 756.555 133.337 756.595 131.427C756.606 129.536 756.995 127.667 757.738 125.928C758.481 124.19 759.563 122.617 760.922 121.303C762.28 119.988 763.887 118.958 765.649 118.274C767.41 117.589 769.291 117.263 771.18 117.315C773.484 117.209 775.776 117.706 777.83 118.757C779.883 119.808 781.628 121.376 782.89 123.307L778.548 126.902C777.758 125.686 776.674 124.689 775.396 124.003C774.119 123.317 772.69 122.965 771.24 122.977" fill="#1D1D1B"/>
<path d="M796.668 135.981L809.546 117.614H815.596V145.179H809.606V126.663L796.698 145.179H790.678V117.614H796.668V135.981Z" fill="#1D1D1B"/>
<path d="M823.473 117.614H847.821V123.217H838.627V145.179H832.607V123.217H823.473V117.614Z" fill="#1D1D1B"/>
<path d="M855.727 117.614H876.601V123.157H861.806V128.52H872.229V133.883H861.806V139.606H876.781V145.179H855.727V117.614Z" fill="#1D1D1B"/>
<path d="M882.652 117.614H907.001V123.217H897.807V145.179H891.787V123.217H882.652V117.614Z" fill="#1D1D1B"/>
</svg>
