<svg width="359" height="327" viewBox="0 0 359 327" fill="none" xmlns="http://www.w3.org/2000/svg">
<path d="M259.938 235.689L234.88 226.569L209.811 235.689L184.752 226.569L159.683 235.689L134.625 226.569L109.566 235.689V267.566L134.625 276.697L159.683 267.566L184.752 276.697L209.811 267.566L234.88 276.697L259.938 267.566V235.689Z" fill="black"/>
<path d="M259.927 185.563H259.938L234.88 176.443L209.811 185.563L184.752 176.443L159.683 185.563L134.625 176.443L109.566 185.563V217.451L134.625 226.571L159.683 217.451L184.752 226.571L209.811 217.451L234.88 226.571L259.938 217.451V185.563H259.927Z" fill="#28BE46"/>
<path d="M159.682 185.563L134.613 194.694L109.555 185.563L134.613 176.443L159.682 185.563Z" fill="black"/>
<path d="M209.798 185.563L184.74 194.694L159.682 185.563L184.74 176.443L209.798 185.563Z" fill="black"/>
<path d="M259.928 185.563L234.87 194.694L209.801 185.563L234.87 176.443L259.928 185.563Z" fill="black"/>
<path d="M109.555 267.565L134.613 258.445L159.682 267.565L134.613 276.696L109.555 267.565Z" fill="#28BE46"/>
<path d="M209.811 267.565L234.869 258.445L259.938 267.565L234.869 276.696L209.811 267.565Z" fill="#28BE46"/>
<path d="M209.798 235.691L184.74 244.811L159.682 235.691V267.568L184.74 276.699L209.798 267.568V235.691Z" fill="#28BE46"/>
<path d="M259.938 285.819L234.88 276.699L209.811 285.819L184.752 276.699L159.683 285.819L134.625 276.699L109.566 285.819V317.696L134.625 326.816L159.683 317.696L184.752 326.816L209.811 317.696L234.88 326.816L259.938 317.696V285.819Z" fill="black"/>
<path d="M109.555 317.695L134.613 308.575L159.682 317.695L134.613 326.815L109.555 317.695Z" fill="#28BE46"/>
<path d="M209.811 317.695L234.869 308.575L259.938 317.695L234.869 326.815L209.811 317.695Z" fill="#28BE46"/>
<path d="M209.798 285.817L184.74 294.937L159.682 285.817V317.694L184.74 326.814L209.798 317.694V285.817Z" fill="#28BE46"/>
<path d="M0.423124 13.8008H38.2478V22.5093H24.0093V56.6287H14.6049V22.5093H0.404297L0.423124 13.8008Z" fill="black"/>
<path d="M67.6097 13.1797C80.5691 13.1797 90.1804 22.5841 90.1804 35.2237C90.1804 47.8633 80.5503 57.2488 67.6097 57.2488C54.6692 57.2488 45.0391 47.8444 45.0391 35.2237C45.0391 22.6029 54.6692 13.1797 67.6097 13.1797ZM80.5126 35.2237C80.4645 32.6782 79.6654 30.2036 78.2157 28.1106C76.766 26.0177 74.7304 24.3997 72.3643 23.4596C69.9983 22.5195 67.4073 22.2994 64.9165 22.8268C62.4258 23.3542 60.1464 24.6056 58.3644 26.424C56.5824 28.2423 55.3774 30.5466 54.9004 33.0475C54.4235 35.5484 54.6957 38.1345 55.6834 40.4811C56.671 42.8277 58.3299 44.8301 60.4517 46.2372C62.5735 47.6442 65.0638 48.3932 67.6097 48.3899C69.338 48.4187 71.0541 48.0964 72.6541 47.4426C74.2541 46.7887 75.7048 45.8169 76.9182 44.5859C78.1316 43.3549 79.0824 41.8904 79.7132 40.2811C80.3439 38.6718 80.6416 36.9513 80.5879 35.2237H80.5126Z" fill="black"/>
<path d="M103.553 13.8008H113.484L126.123 28.8479L138.782 13.8008H148.581V56.6287H139.459V25.594L126.123 41.8261L112.731 25.707V56.6287H103.553V13.8008Z" fill="black"/>
<path d="M184.018 22.1327C182.175 21.9228 180.308 22.1045 178.541 22.6661C176.773 23.2277 175.144 24.1564 173.76 25.3915C172.376 26.6265 171.269 28.1401 170.511 29.8329C169.753 31.5257 169.361 33.3595 169.361 35.2143C169.361 37.069 169.753 38.9029 170.511 40.5956C171.269 42.2884 172.376 43.802 173.76 45.037C175.144 46.2721 176.773 47.2008 178.541 47.7624C180.308 48.324 182.175 48.506 184.018 48.296C186.259 48.2966 188.465 47.7376 190.435 46.6702C192.406 45.6028 194.079 44.0606 195.303 42.1831L202.036 47.995C200.039 50.9453 197.327 53.3414 194.153 54.9597C190.979 56.578 187.447 57.3654 183.886 57.2488C171.115 57.2488 161.184 48.4275 161.184 35.2237C161.184 22.0198 171.923 13.1797 183.754 13.1797C193.873 13.1797 199.61 18.5589 201.961 22.4523L195.228 28.2456C194.011 26.3788 192.35 24.8431 190.393 23.7762C188.437 22.7094 186.246 22.1446 184.018 22.1327Z" fill="black"/>
<path d="M214.188 56.6287V13.8008H223.592V56.6287H214.188ZM239.128 13.8008H249.548L234.501 32.4405L252.2 56.6287H241.103L223.724 32.9107L239.128 13.8008Z" fill="black"/>
<path d="M272.381 42.3167L292.375 13.7461H301.779V56.5738H292.375V27.8151L272.324 56.5738H262.92V13.7461H272.23L272.381 42.3167Z" fill="black"/>
<path d="M327.36 42.3143L347.354 13.7437H356.759V56.5714H347.354V27.8127L327.285 56.5714H317.881V13.7437H327.191L327.36 42.3143ZM333.53 0.0507812C333.476 0.588136 333.531 1.13079 333.693 1.64605C333.855 2.1613 334.12 2.63841 334.471 3.04822C334.823 3.45803 335.254 3.79214 335.739 4.03022C336.224 4.26831 336.752 4.40533 337.292 4.43317C337.827 4.39516 338.35 4.25142 338.83 4.01002C339.31 3.76862 339.737 3.43442 340.087 3.02687C340.437 2.61932 340.702 2.14633 340.868 1.63549C341.034 1.12465 341.097 0.586111 341.053 0.0507812H347.9C347.784 2.81403 346.605 5.42568 344.609 7.33992C342.613 9.25416 339.954 10.3229 337.188 10.3229C334.422 10.3229 331.764 9.25416 329.768 7.33992C327.771 5.42568 326.592 2.81403 326.476 0.0507812H333.53Z" fill="black"/>
<path d="M48.4608 134.48H39.0563V100.361H19.3634V134.48H9.95898V91.6523H48.4608V134.48Z" fill="black"/>
<path d="M83.4652 90.9941C96.4246 90.9941 106.036 100.399 106.036 113.019C106.036 125.64 96.4246 135.064 83.4652 135.064C70.5059 135.064 60.8945 125.659 60.8945 113.019C60.8945 100.38 70.4306 90.9941 83.4652 90.9941ZM96.3493 113.019C96.3011 110.473 95.5015 107.998 94.051 105.904C92.6005 103.811 90.5637 102.193 88.1966 101.254C85.8295 100.314 83.2375 100.095 80.7463 100.624C78.255 101.153 75.9756 102.406 74.1944 104.226C72.4132 106.047 71.2096 108.353 70.7348 110.855C70.2599 113.357 70.535 115.944 71.5255 118.29C72.516 120.636 74.1779 122.637 76.3021 124.042C78.4264 125.447 80.9185 126.192 83.4652 126.186C85.1856 126.202 86.8914 125.87 88.4804 125.21C90.0694 124.551 91.5086 123.577 92.7119 122.347C93.9152 121.118 94.8577 119.658 95.4828 118.055C96.1078 116.452 96.4026 114.739 96.3493 113.019Z" fill="black"/>
<path d="M112.957 134.744V126.111H115.365C119.126 126.111 121.007 124.23 121.007 119.321V91.6152H154.318V134.481H144.913V100.249H129.979V119.942C129.979 128.819 126.086 134.744 116.343 134.744H112.957Z" fill="black"/>
<path d="M179.973 120.186L199.967 91.6152H209.371V134.481H199.967V105.722L180.029 134.481H170.625V91.6529H180.029L179.973 120.186Z" fill="black"/>
<path d="M221.638 91.6152H259.463V100.324H245.206V134.481H235.801V100.361H221.619L221.638 91.6152Z" fill="black"/>
<path d="M271.74 91.6152H304.186V100.249H281.164V108.581H297.396V116.913H281.164V125.791H304.43V134.443H271.74V91.6152Z" fill="black"/>
<path d="M336.331 106.265L347.203 91.707H357.943L342.143 112.811L358.62 134.535H347.071L335.541 119.601L324.068 134.535H313.271L329.729 112.811L313.873 91.707H325.29L336.331 106.265Z" fill="black"/>
</svg>
