<svg width="495" height="392" viewBox="0 0 495 392" fill="none" xmlns="http://www.w3.org/2000/svg">
<path d="M323.954 300.612L298.896 291.492L273.826 300.612L248.768 291.492L223.699 300.612L198.64 291.492L173.582 300.612V332.489L198.64 341.62L223.699 332.489L248.768 341.62L273.826 332.489L298.896 341.62L323.954 332.489V300.612Z" fill="black"/>
<path d="M323.943 250.487H323.954L298.896 241.367L273.826 250.487L248.768 241.367L223.699 250.487L198.64 241.367L173.582 250.487V282.375L198.64 291.495L223.699 282.375L248.768 291.495L273.826 282.375L298.896 291.495L323.954 282.375V250.487H323.943Z" fill="#28BE46"/>
<path d="M223.7 250.487L198.631 259.618L173.572 250.487L198.631 241.367L223.7 250.487Z" fill="black"/>
<path d="M273.816 250.487L248.758 259.618L223.699 250.487L248.758 241.367L273.816 250.487Z" fill="black"/>
<path d="M323.946 250.487L298.888 259.618L273.818 250.487L298.888 241.367L323.946 250.487Z" fill="black"/>
<path d="M173.572 332.489L198.631 323.369L223.7 332.489L198.631 341.62L173.572 332.489Z" fill="#28BE46"/>
<path d="M273.828 332.489L298.886 323.369L323.956 332.489L298.886 341.62L273.828 332.489Z" fill="#28BE46"/>
<path d="M273.816 300.615L248.758 309.735L223.699 300.615V332.492L248.758 341.623L273.816 332.492V300.615Z" fill="#28BE46"/>
<path d="M323.954 350.743L298.896 341.623L273.826 350.743L248.768 341.623L223.699 350.743L198.64 341.623L173.582 350.743V382.62L198.64 391.74L223.699 382.62L248.768 391.74L273.826 382.62L298.896 391.74L323.954 382.62V350.743Z" fill="black"/>
<path d="M173.572 382.618L198.631 373.498L223.7 382.618L198.631 391.738L173.572 382.618Z" fill="#28BE46"/>
<path d="M273.828 382.618L298.886 373.498L323.956 382.618L298.886 391.738L273.828 382.618Z" fill="#28BE46"/>
<path d="M273.816 350.74L248.758 359.86L223.699 350.74V382.617L248.758 391.737L273.816 382.617V350.74Z" fill="#28BE46"/>
<path d="M122.505 0.914062H160.33V9.62259H146.073V43.742H136.668V9.62259H122.486L122.505 0.914062Z" fill="black"/>
<path d="M189.746 0.292969C202.706 0.292969 212.317 9.69737 212.317 22.337C212.317 34.9765 202.687 44.3623 189.746 44.3623C176.806 44.3623 167.176 34.9577 167.176 22.337C167.176 9.71618 176.75 0.292969 189.746 0.292969ZM202.649 22.337C202.605 19.786 201.807 17.3052 200.357 15.2062C198.907 13.1073 196.868 11.4841 194.498 10.5403C192.128 9.5965 189.531 9.37443 187.035 9.902C184.539 10.4296 182.254 11.6832 180.469 13.5054C178.683 15.3275 177.476 17.6368 176.999 20.1431C176.522 22.6494 176.796 25.2408 177.787 27.5916C178.779 29.9424 180.443 31.9476 182.571 33.3553C184.699 34.7629 187.195 35.5102 189.746 35.5032C191.469 35.5217 193.178 35.1921 194.77 34.5338C196.362 33.8756 197.805 32.9024 199.012 31.6728C200.219 30.4431 201.165 28.9823 201.793 27.3781C202.421 25.7738 202.719 24.0591 202.668 22.337H202.649Z" fill="black"/>
<path d="M224.996 0.914062H234.889L247.529 15.9612L260.187 0.914062H269.987V43.742H260.865V12.7073L247.529 28.9394L234.137 12.8202V43.742H224.939L224.996 0.914062Z" fill="black"/>
<path d="M300.587 8.51089C296.825 8.51089 294.117 10.2413 294.117 12.7052C294.117 15.1692 296.825 16.1661 299.609 16.9561L305.251 18.4985C311.966 20.2854 317.402 23.5581 317.402 30.9688C317.402 39.1131 309.634 44.3608 300.624 44.3608C291.22 44.3608 285.013 40.0347 282.605 35.4077L288.7 29.765C289.977 31.7526 291.746 33.3768 293.835 34.4806C295.924 35.5844 298.262 36.1305 300.624 36.066C304.574 36.066 307.584 34.5802 307.584 31.6836C307.584 29.1444 305.364 28.0909 302.411 27.301L296.298 25.6834C290.242 24.1411 284.261 21.3762 284.261 13.721C284.261 5.68959 292.104 0.197266 301.189 0.197266C309.521 0.197266 315.446 4.22248 317.853 8.77424L311.853 14.5861C310.665 12.6822 309.001 11.1207 307.025 10.0554C305.05 8.99012 302.831 8.45784 300.587 8.51089Z" fill="black"/>
<path d="M331.266 43.742V0.914062H340.67V43.742H331.266ZM356.187 0.914062H366.551L351.504 19.5538L369.222 43.742H358.125L340.595 19.9301L356.187 0.914062Z" fill="black"/>
<path d="M0.078125 78.7246H16.912C25.8086 78.7246 32.5235 83.728 32.5235 92.7939C32.5235 101.86 25.677 106.731 16.912 106.731H9.52023V121.628H0.11578L0.078125 78.7246ZM22.8369 92.7939C22.8369 89.5211 20.373 87.1512 16.5547 87.1512H9.52023V98.4365H16.5547C17.3476 98.527 18.1507 98.4481 18.9109 98.2053C19.6711 97.9626 20.3712 97.5614 20.9649 97.0282C21.5586 96.4949 22.0325 95.8416 22.3552 95.1117C22.6778 94.3818 22.842 93.5919 22.8369 92.7939Z" fill="black"/>
<path d="M63.8773 78.1035C76.8367 78.1035 86.448 87.5079 86.448 100.129C86.448 112.749 76.8179 122.173 63.8773 122.173C50.9368 122.173 41.3066 112.768 41.3066 100.129C41.3066 87.4891 50.8616 78.1035 63.8773 78.1035ZM76.7802 100.129C76.7357 97.5778 75.9382 95.0971 74.4879 92.9982C73.0375 90.8992 70.999 89.2758 68.6287 88.332C66.2584 87.3882 63.6621 87.1661 61.166 87.6937C58.6698 88.2213 56.3851 89.4749 54.5994 91.2971C52.8137 93.1192 51.6065 95.4285 51.1294 97.9348C50.6524 100.441 50.9269 103.033 51.9183 105.383C52.9098 107.734 54.574 109.739 56.7018 111.147C58.8297 112.555 61.326 113.302 63.8773 113.295C65.5985 113.311 67.3053 112.979 68.8953 112.32C70.4852 111.66 71.9259 110.687 73.1307 109.458C74.3355 108.228 75.2797 106.768 75.9068 105.165C76.5339 103.562 76.8309 101.849 76.7802 100.129Z" fill="black"/>
<path d="M107.948 112.845H127.678V121.629H98.5059V78.8008H107.91L107.948 112.845Z" fill="black"/>
<path d="M139.224 78.7246L149.833 95.9348L160.384 78.7246H170.823L154.591 105.264V121.628H145.187V105.452L128.842 78.7999L139.224 78.7246Z" fill="black"/>
<path d="M176.58 78.7246H214.405V87.4331H200.148V121.628H190.743V87.5085H176.58V78.7246Z" fill="black"/>
<path d="M226.611 78.7246H259.057V87.3581H236.053V95.6903H252.267V104.023H236.053V112.9H259.339V121.553H226.611V78.7246Z" fill="black"/>
<path d="M290.976 87.0566C289.134 86.8466 287.267 87.0283 285.499 87.5899C283.732 88.1515 282.103 89.0802 280.719 90.3153C279.335 91.5504 278.228 93.0639 277.47 94.7567C276.712 96.4495 276.32 98.2833 276.32 100.138C276.32 101.993 276.712 103.827 277.47 105.52C278.228 107.212 279.335 108.726 280.719 109.961C282.103 111.196 283.732 112.125 285.499 112.686C287.267 113.248 289.134 113.43 290.976 113.22C293.218 113.22 295.424 112.662 297.394 111.594C299.365 110.527 301.038 108.984 302.262 107.107L308.995 112.9C307 115.854 304.289 118.254 301.115 119.875C297.941 121.497 294.407 122.287 290.845 122.173C278.074 122.173 268.143 113.333 268.143 100.129C268.143 86.9248 278.882 78.1035 290.713 78.1035C300.832 78.1035 306.569 83.4829 308.92 87.3576L302.187 93.1695C300.97 91.3026 299.308 89.7669 297.352 88.7001C295.395 87.6332 293.205 87.0685 290.976 87.0566Z" fill="black"/>
<path d="M359.645 78.7246V121.628H350.241V104.23H330.567V121.628H321.162V78.7999H330.567V95.5775H350.241V78.7999L359.645 78.7246Z" fill="black"/>
<path d="M405.504 105.998V78.7246H414.683V121.628H406.294L385.134 93.0572V121.628H375.955V78.7999H385.36L405.504 105.998Z" fill="black"/>
<path d="M440.43 121.629H431.025V78.8008H440.43V121.629Z" fill="black"/>
<path d="M476.395 87.0566C473.182 87.4227 470.216 88.9584 468.062 91.371C465.909 93.7836 464.719 96.9043 464.719 100.138C464.719 103.372 465.909 106.493 468.062 108.905C470.216 111.318 473.182 112.854 476.395 113.22C478.635 113.217 480.84 112.657 482.81 111.59C484.78 110.523 486.454 108.982 487.68 107.107L494.413 112.9C492.418 115.854 489.707 118.254 486.533 119.875C483.359 121.497 479.825 122.287 476.263 122.173C463.492 122.173 453.561 113.333 453.561 100.129C453.561 86.9248 464.3 78.1035 476.131 78.1035C486.25 78.1035 491.987 83.4829 494.338 87.3576L487.605 93.1695C486.385 91.305 484.724 89.771 482.768 88.7044C480.812 87.6378 478.622 87.0718 476.395 87.0566Z" fill="black"/>
<path d="M52.7069 191.092C54.0434 191.163 55.3795 190.948 56.6262 190.461C57.8728 189.974 59.0014 189.227 59.9361 188.269C60.8708 187.311 61.5904 186.165 62.0466 184.907C62.5028 183.648 62.6851 182.307 62.5815 180.973V156.521H71.986V181.387C71.986 193.161 64.1427 199.951 52.7445 199.951C41.3463 199.951 33.4277 193.161 33.4277 181.387V156.521H42.8322V180.973C42.7286 182.307 42.9109 183.648 43.3672 184.907C43.8234 186.165 44.5429 187.311 45.4776 188.269C46.4124 189.227 47.5407 189.974 48.7873 190.461C50.034 190.948 51.3704 191.163 52.7069 191.092Z" fill="black"/>
<path d="M117.5 183.812V156.539H126.698V199.348H118.272L97.0928 170.796V199.348H87.9141V156.539H97.3185L117.5 183.812Z" fill="black"/>
<path d="M152.43 199.348H143.025V156.539H152.43V199.348Z" fill="black"/>
<path d="M185.006 186.708L196.291 156.613H206.335L189.745 199.422H180.115L163.639 156.613H173.701L185.006 186.708Z" fill="black"/>
<path d="M217.604 156.539H250.049V165.172H227.045V173.505H243.259V181.818H227.045V190.696H250.293V199.329H217.604V156.539Z" fill="black"/>
<path d="M264.061 156.539H280.989C290.186 156.539 296.788 161.523 296.788 170.608C296.857 173.13 296.18 175.615 294.841 177.753C293.503 179.892 291.563 181.587 289.265 182.627L300.982 199.348H290.186L279.879 184.545H273.521V199.348H264.117L264.061 156.539ZM280.537 176.345C284.619 176.345 287.007 173.937 287.007 170.702C287.007 167.467 284.619 165.059 280.537 165.059H273.503V176.345H280.537Z" fill="black"/>
<path d="M324.718 164.118C320.956 164.118 318.247 165.848 318.247 168.312C318.247 170.776 320.956 171.773 323.74 172.582L329.382 174.124C336.116 175.911 341.552 179.184 341.552 186.576C341.552 194.72 333.765 199.968 324.755 199.968C315.351 199.968 309.144 195.66 306.736 191.033L312.849 185.391C314.124 187.377 315.89 189 317.975 190.104C320.061 191.208 322.396 191.755 324.755 191.692C328.705 191.692 331.733 190.206 331.733 187.309C331.733 184.789 329.514 183.735 326.561 182.927L320.448 181.328C314.392 179.786 308.41 177.002 308.41 169.347C308.41 161.334 316.254 155.842 325.338 155.842C333.671 155.842 339.577 159.848 341.984 164.419L336.003 170.212C334.812 168.304 333.146 166.739 331.167 165.671C329.189 164.602 326.966 164.067 324.718 164.118Z" fill="black"/>
<path d="M364.217 199.348H354.812V156.539H364.217V199.348Z" fill="black"/>
<path d="M376.425 156.539H414.269V165.229H400.012V199.348H390.607V165.229H376.406L376.425 156.539Z" fill="black"/>
<path d="M430.369 156.539L440.977 173.749L451.529 156.539H461.968L445.736 183.06V199.348H436.331V183.191L419.986 156.539H430.369Z" fill="black"/>
</svg>
