<svg width="545" height="151" viewBox="0 0 545 151" fill="none" xmlns="http://www.w3.org/2000/svg">
<path d="M150.809 59.3251L125.751 50.2051L100.682 59.3251L75.6235 50.2051L50.5542 59.3251L25.4959 50.2051L0.4375 59.3251V91.2017L25.4959 100.333L50.5542 91.2017L75.6235 100.333L100.682 91.2017L125.751 100.333L150.809 91.2017V59.3251Z" fill="black"/>
<path d="M150.799 9.19819H150.809L125.751 0.078125L100.682 9.19819L75.6235 0.078125L50.5542 9.19819L25.4959 0.078125L0.4375 9.19819V41.0857L25.4959 50.2057L50.5542 41.0857L75.6235 50.2057L100.682 41.0857L125.751 50.2057L150.809 41.0857V9.19819H150.799Z" fill="#28BE46"/>
<path d="M50.5534 9.19819L25.4841 18.3292L0.425781 9.19819L25.4841 0.078125L50.5534 9.19819Z" fill="black"/>
<path d="M100.669 9.19819L75.6111 18.3292L50.5527 9.19819L75.6111 0.078125L100.669 9.19819Z" fill="black"/>
<path d="M150.799 9.19819L125.741 18.3292L100.672 9.19819L125.741 0.078125L150.799 9.19819Z" fill="black"/>
<path d="M0.425781 91.204L25.4841 82.084L50.5534 91.204L25.4841 100.335L0.425781 91.204Z" fill="#28BE46"/>
<path d="M100.682 91.204L125.74 82.084L150.809 91.204L125.74 100.335L100.682 91.204Z" fill="#28BE46"/>
<path d="M100.669 59.3262L75.6111 68.4462L50.5527 59.3262V91.2027L75.6111 100.334L100.669 91.2027V59.3262Z" fill="#28BE46"/>
<path d="M150.809 109.454L125.751 100.334L100.682 109.454L75.6235 100.334L50.5542 109.454L25.4959 100.334L0.4375 109.454V141.331L25.4959 150.451L50.5542 141.331L75.6235 150.451L100.682 141.331L125.751 150.451L150.809 141.331V109.454Z" fill="black"/>
<path d="M0.425781 141.331L25.4841 132.211L50.5534 141.331L25.4841 150.451L0.425781 141.331Z" fill="#28BE46"/>
<path d="M100.682 141.331L125.74 132.211L150.809 141.331L125.74 150.451L100.682 141.331Z" fill="#28BE46"/>
<path d="M100.669 109.453L75.6111 118.573L50.5527 109.453V141.33L75.6111 150.45L100.669 141.33V109.453Z" fill="#28BE46"/>
<path d="M205.314 3.38867H231.064V9.31347H221.359V32.5236H214.982V9.31347H205.314V3.38867Z" fill="black"/>
<path d="M251.095 2.97408C254.055 3.0444 256.928 3.98632 259.355 5.68188C261.782 7.37744 263.655 9.7513 264.739 12.5063C265.823 15.2612 266.071 18.2748 265.45 21.1697C264.83 24.0646 263.369 26.7122 261.252 28.781C259.134 30.8498 256.453 32.2478 253.544 32.8C250.635 33.3523 247.628 33.0341 244.899 31.8855C242.171 30.7369 239.841 28.8088 238.203 26.3426C236.565 23.8765 235.691 20.9818 235.69 18.0212C235.652 16.0044 236.028 14.0012 236.793 12.1349C237.559 10.2686 238.698 8.57859 240.141 7.16906C241.584 5.75953 243.3 4.66025 245.184 3.93881C247.068 3.21737 249.079 2.88904 251.095 2.97408ZM259.878 18.0212C259.86 16.2835 259.327 14.5902 258.348 13.1547C257.369 11.7192 255.987 10.6056 254.375 9.95429C252.764 9.30301 250.996 9.1432 249.295 9.49492C247.593 9.84664 246.033 10.6942 244.812 11.9308C243.591 13.1674 242.764 14.7377 242.434 16.4438C242.104 18.15 242.286 19.9156 242.958 21.5183C243.63 23.1209 244.761 24.4888 246.209 25.4497C247.657 26.4106 249.357 26.9215 251.095 26.9178C252.266 26.9284 253.426 26.7028 254.508 26.2545C255.59 25.8061 256.57 25.1443 257.39 24.3085C258.21 23.4727 258.853 22.4801 259.28 21.3901C259.708 20.3002 259.911 19.1352 259.878 17.9648V18.0212Z" fill="black"/>
<path d="M275.076 3.38867H281.847L290.462 13.5831L299.076 3.38867H305.753V32.5236H299.528V11.4013L290.462 22.4421L281.339 11.4953V32.5236H275.076V3.38867Z" fill="black"/>
<path d="M326.535 8.5613C323.921 8.5613 322.115 9.72747 322.115 11.4015C322.115 13.0755 323.996 13.7526 325.877 14.2981L329.751 15.3513C334.322 16.5739 338.027 18.7933 338.027 23.8341C338.027 29.4768 332.723 32.9376 326.591 32.9376C320.159 32.9376 315.964 30.0035 314.328 26.8624L318.485 23.1006C319.358 24.4479 320.561 25.5493 321.98 26.3C323.399 27.0506 324.986 27.4256 326.591 27.389C329.281 27.389 331.35 26.3734 331.35 24.3984C331.35 22.4235 329.827 21.972 327.814 21.4266L323.657 20.3357C319.538 19.2824 315.457 17.3827 315.457 12.1726C315.457 6.96257 320.798 2.99388 326.93 2.99388C329.161 2.86345 331.386 3.33597 333.372 4.3619C335.358 5.38783 337.031 6.92936 338.215 8.82465L334.153 12.7745C333.356 11.4734 332.235 10.4013 330.9 9.66281C329.565 8.92435 328.061 8.54483 326.535 8.5613Z" fill="black"/>
<path d="M347.414 32.5236V3.38867H353.828V32.5236H347.414ZM364.342 3.38867H371.452L361.239 16.0659L373.295 32.5236H365.772L353.828 16.3104L364.342 3.38867Z" fill="black"/>
<path d="M208.041 60.6445H219.514C225.571 60.6445 230.141 64.0489 230.141 70.2183C230.141 76.3876 225.477 79.7168 219.514 79.7168H214.474V89.7419H208.041V60.6445ZM223.558 70.2183C223.564 69.6766 223.452 69.1403 223.231 68.6458C223.01 68.1513 222.685 67.7104 222.277 67.3532C221.87 66.9961 221.391 66.731 220.872 66.5763C220.353 66.4215 219.806 66.3806 219.27 66.4565H214.474V74.1493H219.27C219.816 74.2021 220.367 74.1394 220.887 73.9654C221.407 73.7914 221.885 73.5098 222.29 73.1391C222.694 72.7684 223.016 72.3168 223.235 71.8136C223.453 71.3104 223.564 70.7668 223.558 70.2183Z" fill="black"/>
<path d="M251.469 60.228C254.429 60.2983 257.303 61.2402 259.73 62.9358C262.157 64.6313 264.029 67.0052 265.114 69.7602C266.198 72.5151 266.446 75.5287 265.825 78.4236C265.205 81.3186 263.744 83.9661 261.626 86.0349C259.508 88.1037 256.827 89.5017 253.919 90.0539C251.01 90.6062 248.003 90.288 245.274 89.1394C242.546 87.9908 240.216 86.0627 238.578 83.5965C236.94 81.1304 236.066 78.2358 236.065 75.2751C236.027 73.2583 236.403 71.255 237.168 69.3887C237.934 67.5224 239.073 65.8325 240.516 64.423C241.959 63.0134 243.675 61.9142 245.559 61.1927C247.443 60.4713 249.454 60.1429 251.469 60.228ZM260.253 75.2751C260.235 73.5375 259.702 71.8442 258.723 70.4086C257.744 68.9731 256.361 67.8595 254.75 67.2082C253.139 66.5569 251.371 66.3971 249.67 66.7488C247.968 67.1005 246.408 67.9481 245.187 69.1847C243.966 70.4213 243.139 71.9916 242.809 73.6978C242.479 75.4039 242.661 77.1695 243.333 78.7722C244.005 80.3748 245.136 81.7427 246.584 82.7036C248.032 83.6645 249.732 84.1754 251.469 84.1717C252.641 84.185 253.803 83.9611 254.886 83.5137C255.969 83.0663 256.95 82.4045 257.77 81.5682C258.591 80.7319 259.234 79.7383 259.66 78.6471C260.087 77.5559 260.289 76.3898 260.253 75.2187V75.2751Z" fill="black"/>
<path d="M281.468 83.8714H294.916V89.7397H275.035V60.5859H281.468V83.8714Z" fill="black"/>
<path d="M302.725 60.6424L309.948 72.3603L317.133 60.6424H324.242L313.183 78.6989V89.7397H306.75V78.7365L295.615 60.5859L302.725 60.6424Z" fill="black"/>
<path d="M328.136 60.6445H353.885V66.5693H344.105V89.7419H337.71V66.5693H328.061L328.136 60.6445Z" fill="black"/>
<path d="M362.236 60.6445H384.337V66.5317H368.669V72.1744H379.71V77.8171H368.669V83.8547H384.506V89.7419H362.236V60.6445Z" fill="black"/>
<path d="M406.04 66.3252C403.68 66.3252 401.417 67.2626 399.749 68.931C398.08 70.5994 397.143 72.8623 397.143 75.2218C397.143 77.5814 398.08 79.8442 399.749 81.5127C401.417 83.1811 403.68 84.1185 406.04 84.1185C407.573 84.1281 409.085 83.7525 410.435 83.0263C411.786 82.3 412.933 81.2462 413.77 79.9617L418.359 83.9115C417.001 85.9219 415.155 87.5545 412.994 88.6566C410.833 89.7586 408.427 90.294 406.002 90.2125C397.312 90.2125 390.541 84.2125 390.541 75.1654C390.54 73.1573 390.942 71.1695 391.721 69.3189C392.501 67.4683 393.643 65.7925 395.08 64.3902C396.518 62.988 398.221 61.8876 400.091 61.1539C401.96 60.4202 403.957 60.0681 405.964 60.1183C408.4 59.9992 410.825 60.5178 412.999 61.6229C415.173 62.728 417.02 64.3812 418.359 66.4193L413.77 70.3692C412.92 69.1055 411.767 68.0739 410.417 67.3678C409.068 66.6617 407.563 66.3033 406.04 66.3252Z" fill="black"/>
<path d="M452.8 60.6424V89.7397H446.405V77.8902H433.013V89.7397H426.58V60.5859H433.013V72.003H446.405V60.5859L452.8 60.6424Z" fill="black"/>
<path d="M484.004 79.2067V60.6424H490.267V89.7397H484.624L470.123 70.3478V89.7397H463.859V60.5859H470.292L484.004 79.2067Z" fill="black"/>
<path d="M507.741 89.7397H501.309V60.5859H507.741V89.7397Z" fill="black"/>
<path d="M532.192 66.3228C529.832 66.3228 527.569 67.2602 525.901 68.9286C524.233 70.5971 523.295 72.8599 523.295 75.2195C523.295 77.579 524.233 79.8419 525.901 81.5103C527.569 83.1787 529.832 84.1161 532.192 84.1161C533.725 84.124 535.236 83.7477 536.586 83.0216C537.937 82.2955 539.083 81.2427 539.922 79.9593L544.493 83.9092C543.139 85.9193 541.296 87.5522 539.138 88.6544C536.98 89.7566 534.576 90.292 532.154 90.2102C523.446 90.2102 516.693 84.2101 516.693 75.163C516.693 73.1566 517.093 71.1703 517.872 69.321C518.65 67.4717 519.791 65.7968 521.226 64.3948C522.661 62.9927 524.363 61.8919 526.23 61.1571C528.097 60.4223 530.092 60.0683 532.098 60.1159C534.534 59.9911 536.961 60.5073 539.136 61.6129C541.311 62.7184 543.158 64.3749 544.493 66.4169L539.922 70.3668C539.07 69.1043 537.918 68.0736 536.568 67.3676C535.219 66.6617 533.715 66.3026 532.192 66.3228Z" fill="black"/>
<path d="M220.943 141.427C221.851 141.472 222.759 141.323 223.605 140.991C224.452 140.659 225.218 140.15 225.853 139.499C226.488 138.848 226.977 138.07 227.288 137.215C227.599 136.36 227.725 135.449 227.658 134.543V117.953H234.09V134.881C234.09 142.913 228.767 147.521 220.924 147.521C213.081 147.521 207.758 142.913 207.758 134.881V117.953H214.153V134.58C214.09 135.491 214.221 136.404 214.54 137.26C214.858 138.115 215.355 138.893 215.997 139.541C216.64 140.189 217.414 140.693 218.266 141.018C219.119 141.343 220.032 141.482 220.943 141.427Z" fill="black"/>
<path d="M265.105 136.461V117.953H271.368V147.088H265.726L251.318 127.64V147.088H245.055V117.953H251.487L265.105 136.461Z" fill="black"/>
<path d="M288.823 147.051H282.391V117.953H288.823V147.051Z" fill="black"/>
<path d="M311 138.437L318.693 117.916H325.539L314.254 147.051H307.69L296.404 117.916H303.251L311 138.437Z" fill="black"/>
<path d="M333.175 117.953H355.276V123.821H339.589V129.464H350.649V135.107H339.589V141.144H355.389V147.032H333.119L333.175 117.953Z" fill="black"/>
<path d="M364.793 117.953H376.266C382.53 117.953 387.025 121.339 387.025 127.527C387.077 129.239 386.623 130.928 385.72 132.384C384.816 133.839 383.504 134.996 381.947 135.709L389.922 147.088H382.567L375.552 137.007H371.226V147.088H364.793V117.953ZM376.078 131.42C376.63 131.49 377.19 131.441 377.722 131.277C378.253 131.113 378.743 130.837 379.16 130.469C379.576 130.101 379.909 129.648 380.137 129.14C380.364 128.633 380.481 128.083 380.48 127.527C380.48 125.289 378.843 123.765 376.078 123.765H371.282V131.439L376.078 131.42Z" fill="black"/>
<path d="M406.172 123.07C403.557 123.07 401.752 124.255 401.752 125.929C401.752 127.603 403.633 128.28 405.514 128.826L409.369 129.879C413.959 131.102 417.645 133.321 417.645 138.362C417.645 143.892 412.36 147.466 406.228 147.466C399.796 147.466 395.601 144.531 393.965 141.39L398.122 137.628C398.997 138.972 400.201 140.07 401.62 140.817C403.039 141.565 404.625 141.937 406.228 141.898C408.918 141.898 410.968 140.901 410.968 138.926C410.968 136.951 409.463 136.481 407.451 135.936L403.275 134.845C399.175 133.792 395.093 131.911 395.093 126.701C395.093 121.49 400.435 117.503 406.567 117.503C408.8 117.374 411.026 117.85 413.012 118.879C414.998 119.909 416.67 121.454 417.852 123.353L413.695 127.359C412.914 126.059 411.812 124.981 410.495 124.23C409.177 123.479 407.688 123.08 406.172 123.07Z" fill="black"/>
<path d="M432.976 147.051H426.543V117.953H432.976V147.051Z" fill="black"/>
<path d="M441.289 117.953H467.038V123.859H457.333V147.088H450.957V123.821H441.289V117.953Z" fill="black"/>
<path d="M478.004 117.953L485.227 129.652L492.412 117.953H499.503L488.462 136.01V147.088H482.029V136.085L470.895 117.953H478.004Z" fill="black"/>
</svg>
