<svg width="637" height="165" viewBox="0 0 637 165" fill="none" xmlns="http://www.w3.org/2000/svg">
<path d="M150.809 73.1669L125.751 64.0469L100.682 73.1669L75.6235 64.0469L50.5542 73.1669L25.4959 64.0469L0.4375 73.1669V105.044L25.4959 114.174L50.5542 105.044L75.6235 114.174L100.682 105.044L125.751 114.174L150.809 105.044V73.1669Z" fill="black"/>
<path d="M150.799 23.04H150.809L125.751 13.9199L100.682 23.04L75.6235 13.9199L50.5542 23.04L25.4959 13.9199L0.4375 23.04V54.9275L25.4959 64.0475L50.5542 54.9275L75.6235 64.0475L100.682 54.9275L125.751 64.0475L150.809 54.9275V23.04H150.799Z" fill="#28BE46"/>
<path d="M50.5534 23.04L25.4841 32.171L0.425781 23.04L25.4841 13.9199L50.5534 23.04Z" fill="black"/>
<path d="M100.669 23.04L75.6111 32.171L50.5527 23.04L75.6111 13.9199L100.669 23.04Z" fill="black"/>
<path d="M150.799 23.04L125.741 32.171L100.672 23.04L125.741 13.9199L150.799 23.04Z" fill="black"/>
<path d="M0.425781 105.046L25.4841 95.9258L50.5534 105.046L25.4841 114.177L0.425781 105.046Z" fill="#28BE46"/>
<path d="M100.682 105.046L125.74 95.9258L150.809 105.046L125.74 114.177L100.682 105.046Z" fill="#28BE46"/>
<path d="M100.669 73.168L75.6111 82.288L50.5527 73.168V105.045L75.6111 114.176L100.669 105.045V73.168Z" fill="#28BE46"/>
<path d="M150.809 123.296L125.751 114.176L100.682 123.296L75.6235 114.176L50.5542 123.296L25.4959 114.176L0.4375 123.296V155.172L25.4959 164.292L50.5542 155.172L75.6235 164.292L100.682 155.172L125.751 164.292L150.809 155.172V123.296Z" fill="black"/>
<path d="M0.425781 155.173L25.4841 146.053L50.5534 155.173L25.4841 164.293L0.425781 155.173Z" fill="#28BE46"/>
<path d="M100.682 155.173L125.74 146.053L150.809 155.173L125.74 164.293L100.682 155.173Z" fill="#28BE46"/>
<path d="M100.669 123.295L75.6111 132.415L50.5527 123.295V155.171L75.6111 164.292L100.669 155.171V123.295Z" fill="#28BE46"/>
<path d="M208.68 17.1191H254.103V27.5581H236.987V68.5239H225.702V27.5581H208.68V17.1191Z" fill="black"/>
<path d="M289.555 16.3633C305.11 16.3633 316.659 27.6486 316.659 42.8086C316.659 57.9686 305.11 69.2539 289.555 69.2539C274 69.2539 262.357 57.9686 262.357 42.8086C262.357 27.6486 273.887 16.3633 289.555 16.3633ZM305.035 42.8086C304.979 39.7506 304.021 36.7772 302.281 34.262C300.541 31.7468 298.096 29.8019 295.254 28.6717C292.412 27.5415 289.299 27.2764 286.307 27.9097C283.315 28.543 280.576 30.0464 278.436 32.2311C276.295 34.4157 274.848 37.1843 274.276 40.1889C273.704 43.1934 274.033 46.3 275.221 49.1183C276.409 51.9367 278.404 54.3411 280.954 56.0295C283.504 57.7179 286.497 58.615 289.555 58.6081C291.617 58.6216 293.661 58.2195 295.564 57.4257C297.467 56.632 299.191 55.4629 300.632 53.9882C302.073 52.5135 303.203 50.7636 303.953 48.8428C304.703 46.922 305.058 44.8697 304.997 42.8086H305.035Z" fill="black"/>
<path d="M332.553 17.1191H344.478L359.675 35.1193L374.854 17.1191H386.628V68.5239H375.682V31.2634L359.675 50.7495L343.594 31.4139V68.5239H332.553V17.1191Z" fill="black"/>
<path d="M429.174 27.122C427.067 27.049 424.968 27.401 423 28.157C421.031 28.9129 419.236 30.0573 417.719 31.522C416.203 32.9868 414.997 34.7418 414.174 36.6824C413.35 38.6231 412.926 40.7098 412.926 42.818C412.926 44.9262 413.35 47.0128 414.174 48.9535C414.997 50.8942 416.203 52.6492 417.719 54.1139C419.236 55.5786 421.031 56.723 423 57.479C424.968 58.235 427.067 58.587 429.174 58.514C431.876 58.5242 434.537 57.8584 436.916 56.5772C439.294 55.296 441.314 53.4401 442.792 51.1785L450.88 58.1567C448.483 61.6959 445.228 64.57 441.419 66.5106C437.61 68.4512 433.371 69.395 429.099 69.2539C413.751 69.2539 401.826 58.6645 401.826 42.8086C401.826 26.9527 414.729 16.3633 429.024 16.3633C441.175 16.3633 448.059 22.8147 450.88 27.4794L442.792 34.4386C441.312 32.1806 439.291 30.3284 436.913 29.0506C434.534 27.7727 431.874 27.1098 429.174 27.122Z" fill="black"/>
<path d="M465.402 68.5239V17.1191H476.688V68.5239H465.402ZM495.327 17.1191H507.854L489.854 39.4829L511.108 68.5239H497.772L476.744 39.9344L495.327 17.1191Z" fill="black"/>
<path d="M535.259 51.4078L559.259 17.1191H570.545V68.5239H559.259V34.0096L535.184 68.5239H523.898V17.1191H535.071L535.259 51.4078Z" fill="black"/>
<path d="M601.277 51.4052L625.277 17.1165H636.562V68.5212H625.277V34.0069L601.201 68.5212H589.916V17.1165H601.201L601.277 51.4052ZM608.687 0.621094C608.62 1.26574 608.685 1.91735 608.879 2.53594C609.072 3.15453 609.39 3.72705 609.813 4.21842C610.235 4.70979 610.754 5.10964 611.337 5.39343C611.92 5.67722 612.554 5.83899 613.201 5.86879C613.85 5.83319 614.485 5.66822 615.069 5.38362C615.653 5.09902 616.174 4.70052 616.602 4.21156C617.029 3.72261 617.355 3.15309 617.559 2.53648C617.763 1.91987 617.842 1.26864 617.791 0.621094H626.01C626.01 8.38917 620.368 13.129 613.201 13.129C606.035 13.129 600.317 8.38917 600.317 0.621094H608.687Z" fill="black"/>
<path d="M261.343 160.688H250.058V119.722H226.434V160.688H215.148V109.283H261.343V160.688Z" fill="black"/>
<path d="M303.288 108.525C318.843 108.525 330.411 119.811 330.411 134.971C330.411 150.131 318.843 161.416 303.288 161.416C287.733 161.416 276.109 150.131 276.109 134.971C276.109 119.811 287.677 108.525 303.288 108.525ZM318.768 134.971C318.731 131.908 317.788 128.925 316.059 126.398C314.33 123.87 311.892 121.91 309.051 120.766C306.21 119.621 303.095 119.343 300.096 119.966C297.097 120.589 294.35 122.085 292.2 124.266C290.05 126.447 288.594 129.216 288.015 132.223C287.435 135.23 287.759 138.342 288.944 141.166C290.13 143.99 292.124 146.399 294.677 148.092C297.229 149.784 300.226 150.683 303.288 150.676C305.346 150.697 307.387 150.303 309.289 149.519C311.192 148.734 312.916 147.574 314.361 146.108C315.805 144.643 316.94 142.901 317.697 140.988C318.455 139.074 318.819 137.028 318.768 134.971Z" fill="black"/>
<path d="M338.707 161.064V150.776H341.604C346.118 150.776 348.412 148.631 348.412 142.631V109.283H388.419V160.688H377.134V119.647H359.152V143.252C359.152 153.917 354.488 161.027 342.789 161.027L338.707 161.064Z" fill="black"/>
<path d="M419.171 143.572L443.171 109.283H454.456V160.688H443.171V126.174L419.34 160.688H408.055V109.283H419.34L419.171 143.572Z" fill="black"/>
<path d="M469.184 109.283H514.589V119.722H497.473V160.688H486.187V119.722H469.146L469.184 109.283Z" fill="black"/>
<path d="M529.334 109.283H568.306V119.647H540.676V129.653H560.162V139.66H540.676V150.324H568.607V160.688H529.334V109.283Z" fill="black"/>
<path d="M606.901 126.757L619.936 109.283H632.839L613.861 134.619L633.648 160.688H619.804L605.942 142.763L592.174 160.688H579.215L599.002 134.619L579.967 109.283H593.66L606.901 126.757Z" fill="black"/>
</svg>
