<svg width="495" height="392" viewBox="0 0 495 392" fill="none" xmlns="http://www.w3.org/2000/svg">
<path d="M324.104 300.612L299.046 291.492L273.977 300.612L248.918 291.492L223.849 300.612L198.791 291.492L173.732 300.612V332.489L198.791 341.62L223.849 332.489L248.918 341.62L273.977 332.489L299.046 341.62L324.104 332.489V300.612Z" fill="#28BE46"/>
<path d="M324.093 250.485H324.104L299.046 241.365L273.977 250.485L248.918 241.365L223.849 250.485L198.791 241.365L173.732 250.485V282.373L198.791 291.493L223.849 282.373L248.918 291.493L273.977 282.373L299.046 291.493L324.104 282.373V250.485H324.093Z" fill="white"/>
<path d="M223.848 250.485L198.779 259.616L173.721 250.485L198.779 241.365L223.848 250.485Z" fill="#28BE46"/>
<path d="M273.964 250.485L248.906 259.616L223.848 250.485L248.906 241.365L273.964 250.485Z" fill="#28BE46"/>
<path d="M324.094 250.485L299.036 259.616L273.967 250.485L299.036 241.365L324.094 250.485Z" fill="#28BE46"/>
<path d="M173.721 332.487L198.779 323.367L223.848 332.487L198.779 341.618L173.721 332.487Z" fill="white"/>
<path d="M273.979 332.487L299.037 323.367L324.106 332.487L299.037 341.618L273.979 332.487Z" fill="white"/>
<path d="M273.964 300.613L248.906 309.733L223.848 300.613V332.49L248.906 341.621L273.964 332.49V300.613Z" fill="white"/>
<path d="M324.104 350.743L299.046 341.623L273.977 350.743L248.918 341.623L223.849 350.743L198.791 341.623L173.732 350.743V382.62L198.791 391.74L223.849 382.62L248.918 391.74L273.977 382.62L299.046 391.74L324.104 382.62V350.743Z" fill="#28BE46"/>
<path d="M173.721 382.618L198.779 373.498L223.848 382.618L198.779 391.738L173.721 382.618Z" fill="white"/>
<path d="M273.979 382.618L299.037 373.498L324.106 382.618L299.037 391.738L273.979 382.618Z" fill="white"/>
<path d="M273.964 350.74L248.906 359.86L223.848 350.74V382.617L248.906 391.737L273.964 382.617V350.74Z" fill="white"/>
<path d="M122.656 0.912109H160.48V9.62064H146.223V43.74H136.819V9.62064H122.637L122.656 0.912109Z" fill="white"/>
<path d="M189.914 0.291016C202.874 0.291016 212.485 9.69541 212.485 22.335C212.485 34.9746 202.874 44.3604 189.914 44.3604C176.955 44.3604 167.344 34.9558 167.344 22.335C167.344 9.71422 176.88 0.291016 189.914 0.291016ZM202.799 22.335C202.75 19.7887 201.951 17.3135 200.5 15.2201C199.05 13.1268 197.013 11.5088 194.646 10.5693C192.279 9.62984 189.687 9.41085 187.196 9.93976C184.704 10.4687 182.425 11.722 180.644 13.5422C178.862 15.3624 177.659 17.6682 177.184 20.1703C176.709 22.6724 176.984 25.2592 177.975 27.6055C178.965 29.9517 180.627 31.9529 182.751 33.3577C184.876 34.7625 187.368 35.5082 189.914 35.5012C191.635 35.5173 193.341 35.1857 194.93 34.5261C196.519 33.8665 197.958 32.8926 199.161 31.663C200.365 30.4333 201.307 28.9733 201.932 27.3704C202.557 25.7675 202.852 24.0546 202.799 22.335V22.335Z" fill="white"/>
<path d="M225.107 0.912109H235.039L247.697 15.9592L260.336 0.912109H270.249V43.74H261.108V12.7053L247.791 28.9374L234.399 12.8183V43.74H225.107V0.912109Z" fill="white"/>
<path d="M300.739 8.50964C296.977 8.50964 294.269 10.24 294.269 12.704C294.269 15.168 296.977 16.1648 299.761 16.9548L305.404 18.4973C312.137 20.2841 317.573 23.5569 317.573 30.9676C317.573 39.1118 309.786 44.3595 300.777 44.3595C291.372 44.3595 285.165 40.0335 282.758 35.4065L288.871 29.7638C290.145 31.7498 291.911 33.3732 293.997 34.477C296.082 35.5809 298.418 36.1278 300.777 36.0647C304.727 36.0647 307.755 34.5789 307.755 31.6823C307.755 29.1431 305.535 28.0897 302.564 27.2997L296.582 25.701C290.526 24.1587 284.545 21.3938 284.545 13.7386C284.545 5.70716 292.388 0.214844 301.473 0.214844C309.786 0.214844 315.711 4.24006 318.119 8.79182L312.137 14.6037C310.938 12.678 309.254 11.1012 307.254 10.0317C305.253 8.96207 303.007 8.43723 300.739 8.50964V8.50964Z" fill="white"/>
<path d="M331.414 43.74V0.912109H340.819V43.74H331.414ZM356.336 0.912109H366.756L351.709 19.5518L369.427 43.74H358.311L340.8 19.9281L356.336 0.912109Z" fill="white"/>
<path d="M0.208984 78.7246H17.137C26.0336 78.7246 32.7484 83.728 32.7484 92.7939C32.7484 101.86 25.9019 106.731 17.137 106.731H9.65105V121.628H0.246596L0.208984 78.7246ZM22.9866 92.7939C22.9866 89.5211 20.5226 87.1512 16.6856 87.1512H9.65105V98.4365H16.6856C17.48 98.5299 18.2851 98.4532 19.0476 98.2118C19.8101 97.9703 20.5125 97.5693 21.1084 97.0357C21.7042 96.5022 22.1798 95.8481 22.5036 95.1167C22.8274 94.3854 22.992 93.5937 22.9866 92.7939V92.7939Z" fill="white"/>
<path d="M64.0277 78.1035C76.9871 78.1035 86.5984 87.5079 86.5984 100.129C86.5984 112.749 76.9871 122.173 64.0277 122.173C51.0684 122.173 41.457 112.768 41.457 100.129C41.457 87.4891 51.012 78.1035 64.0277 78.1035ZM76.9118 100.129C76.8636 97.5824 76.064 95.1071 74.6136 93.0138C73.1631 90.9205 71.1263 89.3025 68.7592 88.363C66.392 87.4235 63.8 87.2045 61.3088 87.7334C58.8176 88.2624 56.5382 89.5156 54.757 91.3359C52.9757 93.1561 51.7721 95.4621 51.2973 97.9642C50.8224 100.466 51.0976 103.053 52.0881 105.399C53.0786 107.745 54.7404 109.747 56.8647 111.151C58.9889 112.556 61.481 113.302 64.0277 113.295C65.7481 113.311 67.454 112.979 69.043 112.32C70.632 111.66 72.0713 110.686 73.2746 109.457C74.4779 108.227 75.4203 106.767 76.0454 105.164C76.6704 103.561 76.9651 101.848 76.9118 100.129V100.129Z" fill="white"/>
<path d="M108.079 112.845H127.828V121.629H98.6367V78.8008H108.041L108.079 112.845Z" fill="white"/>
<path d="M139.378 78.7246L149.986 95.9348L160.538 78.7246H170.958L154.745 105.264V121.628H145.34V105.452L128.977 78.7999L139.378 78.7246Z" fill="white"/>
<path d="M176.638 78.7246H214.463V87.4331H200.224V121.628H190.82V87.5085H176.619L176.638 78.7246Z" fill="white"/>
<path d="M226.742 78.7246H259.206V87.3581H236.184V95.6903H252.416V104.023H236.184V112.9H259.451V121.553H226.742V78.7246Z" fill="white"/>
<path d="M291.107 87.0566C287.894 87.4227 284.929 88.9584 282.775 91.371C280.622 93.7836 279.432 96.9043 279.432 100.138C279.432 103.372 280.622 106.493 282.775 108.905C284.929 111.318 287.894 112.854 291.107 113.22C293.348 113.217 295.553 112.657 297.523 111.59C299.493 110.523 301.166 108.982 302.393 107.107L309.108 112.9C307.119 115.856 304.412 118.258 301.24 119.88C298.069 121.502 294.536 122.291 290.976 122.173C278.205 122.173 268.273 113.333 268.273 100.129C268.273 86.9248 278.995 78.1035 290.844 78.1035C300.963 78.1035 306.7 83.4829 309.032 87.3576L302.318 93.1695C301.098 91.305 299.437 89.771 297.481 88.7044C295.525 87.6378 293.335 87.0718 291.107 87.0566V87.0566Z" fill="white"/>
<path d="M359.798 78.7246V121.628H350.394V104.23H330.738V121.628H321.334V78.7999H330.738V95.5775H350.413V78.7999L359.798 78.7246Z" fill="white"/>
<path d="M405.672 105.998V78.7246H414.869V121.628H406.481L385.321 93.0572V121.628H376.123V78.7999H385.527L405.672 105.998Z" fill="white"/>
<path d="M440.565 121.629H431.16V78.8008H440.565V121.629Z" fill="white"/>
<path d="M476.543 87.0566C473.33 87.4227 470.364 88.9584 468.211 91.371C466.057 93.7836 464.867 96.9043 464.867 100.138C464.867 103.372 466.057 106.493 468.211 108.905C470.364 111.318 473.33 112.854 476.543 113.22C478.784 113.217 480.988 112.657 482.958 111.59C484.928 110.523 486.602 108.982 487.828 107.107L494.543 112.9C492.555 115.856 489.848 118.258 486.676 119.88C483.504 121.502 479.972 122.291 476.411 122.173C463.64 122.173 453.709 113.333 453.709 100.129C453.709 86.9248 464.43 78.1035 476.28 78.1035C486.399 78.1035 492.136 83.4829 494.468 87.3576L487.753 93.1695C486.534 91.305 484.872 89.771 482.916 88.7044C480.96 87.6378 478.771 87.0718 476.543 87.0566V87.0566Z" fill="white"/>
<path d="M52.8565 191.09C54.193 191.161 55.5292 190.946 56.7759 190.459C58.0226 189.972 59.151 189.225 60.0857 188.267C61.0205 187.309 61.74 186.163 62.1962 184.905C62.6524 183.646 62.8348 182.305 62.7312 180.971V156.52H72.1356V181.385C72.1356 193.159 64.2923 199.949 52.8753 199.949C41.4583 199.949 33.5586 193.159 33.5586 181.385V156.52H42.963V180.971C42.8592 182.307 43.042 183.65 43.4993 184.909C43.9566 186.169 44.6779 187.316 45.6147 188.274C46.5515 189.233 47.6823 189.98 48.9312 190.465C50.1802 190.951 51.5185 191.164 52.8565 191.09V191.09Z" fill="white"/>
<path d="M117.651 183.812V156.539H126.848V199.348H118.441L97.2054 170.796V199.348H88.0078V156.539H97.4123L117.651 183.812Z" fill="white"/>
<path d="M152.58 199.348H143.176V156.539H152.58V199.348Z" fill="white"/>
<path d="M185.159 186.706L196.444 156.611H206.507L189.917 199.42H180.287L163.811 156.611H173.873L185.159 186.706Z" fill="white"/>
<path d="M217.734 156.539H250.199V165.172H227.176V173.505H243.409V181.818H227.176V190.696H250.443V199.329H217.734V156.539Z" fill="white"/>
<path d="M264.209 156.539H281.137C290.335 156.539 296.936 161.523 296.936 170.608C297.008 173.13 296.331 175.617 294.993 177.756C293.654 179.894 291.713 181.589 289.413 182.627L301.15 199.348H290.353L280.046 184.545H273.689V199.348H264.284L264.209 156.539ZM280.686 176.345C284.748 176.345 287.156 173.937 287.156 170.702C287.156 167.467 284.748 165.059 280.686 165.059H273.651V176.345H280.686Z" fill="white"/>
<path d="M324.795 164.116C321.033 164.116 318.306 165.846 318.306 168.31C318.306 170.774 321.033 171.771 323.798 172.58L329.441 174.122C336.174 175.909 341.591 179.182 341.591 186.574C341.591 194.718 333.823 199.966 324.814 199.966C315.409 199.966 309.202 195.658 306.795 191.031L312.908 185.389C314.182 187.375 315.948 188.998 318.034 190.102C320.12 191.206 322.455 191.753 324.814 191.69C328.764 191.69 331.792 190.204 331.792 187.307C331.792 184.787 329.573 183.733 326.601 182.925L320.507 181.326C314.45 179.784 308.469 177 308.469 169.345C308.469 161.332 316.293 155.84 325.303 155.84C333.635 155.84 339.56 159.846 341.968 164.417L335.986 170.21C334.8 168.32 333.147 166.767 331.187 165.7C329.228 164.632 327.026 164.087 324.795 164.116V164.116Z" fill="white"/>
<path d="M364.293 199.348H354.889V156.539H364.293V199.348Z" fill="white"/>
<path d="M376.575 156.539H414.399V165.229H400.142V199.348H390.738V165.229H376.537L376.575 156.539Z" fill="white"/>
<path d="M430.519 156.539L441.127 173.749L451.679 156.539H462.099L445.885 183.06V199.348H436.481V183.191L420.117 156.539H430.519Z" fill="white"/>
</svg>
