<svg width="725" height="157" viewBox="0 0 725 157" fill="none" xmlns="http://www.w3.org/2000/svg">
<path d="M150.962 65.3447L125.903 56.2246L100.834 65.3447L75.7758 56.2246L50.7066 65.3447L25.6482 56.2246L0.589844 65.3447V97.2212L25.6482 106.352L50.7066 97.2212L75.7758 106.352L100.834 97.2212L125.903 106.352L150.962 97.2212V65.3447Z" fill="#28BE46"/>
<path d="M150.951 15.2177H150.962L125.903 6.09766L100.834 15.2177L75.7758 6.09766L50.7066 15.2177L25.6482 6.09766L0.589844 15.2177V47.1052L25.6482 56.2253L50.7066 47.1052L75.7758 56.2253L100.834 47.1052L125.903 56.2253L150.962 47.1052V15.2177H150.951Z" fill="white"/>
<path d="M50.7057 15.2177L25.6365 24.3487L0.578125 15.2177L25.6365 6.09766L50.7057 15.2177Z" fill="#28BE46"/>
<path d="M100.822 15.2177L75.7634 24.3487L50.7051 15.2177L75.7634 6.09766L100.822 15.2177Z" fill="#28BE46"/>
<path d="M150.952 15.2177L125.893 24.3487L100.824 15.2177L125.893 6.09766L150.952 15.2177Z" fill="#28BE46"/>
<path d="M0.578125 97.2197L25.6365 88.0996L50.7057 97.2197L25.6365 106.351L0.578125 97.2197Z" fill="white"/>
<path d="M100.834 97.2197L125.892 88.0996L150.962 97.2197L125.892 106.351L100.834 97.2197Z" fill="white"/>
<path d="M100.822 65.3457L75.7634 74.4658L50.7051 65.3457V97.2223L75.7634 106.353L100.822 97.2223V65.3457Z" fill="white"/>
<path d="M150.962 115.474L125.903 106.354L100.834 115.474L75.7758 106.354L50.7066 115.474L25.6482 106.354L0.589844 115.474V147.35L25.6482 156.47L50.7066 147.35L75.7758 156.47L100.834 147.35L125.903 156.47L150.962 147.35V115.474Z" fill="#28BE46"/>
<path d="M0.578125 147.351L25.6365 138.23L50.7057 147.351L25.6365 156.471L0.578125 147.351Z" fill="white"/>
<path d="M100.834 147.351L125.892 138.23L150.962 147.351L125.892 156.471L100.834 147.351Z" fill="white"/>
<path d="M100.822 115.473L75.7634 124.593L50.7051 115.473V147.349L75.7634 156.469L100.822 147.349V115.473Z" fill="white"/>
<path d="M205.463 9.40625H231.213V15.3123H221.47V38.5412H215.094V15.3123H205.426L205.463 9.40625Z" fill="white"/>
<path d="M251.244 8.976C254.203 9.05 257.074 9.99491 259.499 11.6926C261.923 13.3904 263.793 15.7654 264.875 18.5206C265.956 21.2758 266.201 24.2888 265.578 27.1824C264.956 30.0761 263.494 32.722 261.375 34.7889C259.257 36.8558 256.576 38.2519 253.668 38.8027C250.76 39.3534 247.754 39.0343 245.026 37.8852C242.298 36.7361 239.97 34.8081 238.333 32.3424C236.695 29.8767 235.822 26.9829 235.821 24.0231C235.785 22.0054 236.163 20.0017 236.931 18.1354C237.698 16.269 238.839 14.5793 240.284 13.17C241.728 11.7608 243.446 10.6618 245.331 9.94056C247.215 9.21932 249.228 8.89108 251.244 8.976V8.976ZM260.028 24.0231C260.009 22.2855 259.477 20.5922 258.497 19.1566C257.518 17.7211 256.136 16.6075 254.525 15.9562C252.914 15.3049 251.146 15.1451 249.444 15.4968C247.742 15.8485 246.183 16.696 244.962 17.9326C243.741 19.1692 242.913 20.7395 242.583 22.4457C242.253 24.1518 242.436 25.9174 243.107 27.5201C243.779 29.1227 244.91 30.4908 246.358 31.4516C247.806 32.4125 249.506 32.9233 251.244 32.9197C252.415 32.9329 253.578 32.7091 254.66 32.2617C255.743 31.8143 256.724 31.1525 257.545 30.3161C258.365 29.4798 259.008 28.4862 259.435 27.395C259.862 26.3039 260.063 25.1377 260.028 23.9666V24.0231Z" fill="white"/>
<path d="M275.641 9.40625H282.412L291.026 19.6006L299.641 9.40625H306.318V38.5412H300.092V17.4189L291.064 28.4597L281.942 17.4941V38.5412H275.641V9.40625Z" fill="white"/>
<path d="M330.428 15.0672C328.068 15.0672 325.805 16.0045 324.137 17.673C322.468 19.3414 321.531 21.6043 321.531 23.9638C321.531 26.3233 322.468 28.5862 324.137 30.2546C325.805 31.9231 328.068 32.8604 330.428 32.8604C331.96 32.8666 333.47 32.4896 334.821 31.7637C336.171 31.0377 337.318 29.9859 338.158 28.7037L342.729 32.6535C341.364 34.6534 339.515 36.275 337.354 37.367C335.193 38.459 332.791 38.9857 330.371 38.8981C321.681 38.8981 314.91 32.898 314.91 23.851C314.91 21.8429 315.311 19.855 316.09 18.0044C316.87 16.1538 318.012 14.4781 319.45 13.0758C320.887 11.6735 322.59 10.5731 324.46 9.83945C326.329 9.10577 328.326 8.75363 330.333 8.80383C332.769 8.68474 335.194 9.20333 337.368 10.3084C339.542 11.4135 341.389 13.0667 342.729 15.1048L338.158 19.0547C337.295 17.8074 336.138 16.7914 334.79 16.0961C333.442 15.4007 331.944 15.0474 330.428 15.0672V15.0672Z" fill="white"/>
<path d="M350.949 38.5412V9.40625H357.382V38.5412H350.949ZM367.877 9.40625H374.968L364.755 22.0834L376.83 38.5412H369.307L357.382 22.328L367.877 9.40625Z" fill="white"/>
<path d="M390.559 28.8359L404.177 9.40625H410.61V38.5412H404.252V18.9799L390.597 38.5412H384.221V9.40625H390.559V28.8359Z" fill="white"/>
<path d="M427.992 28.8351L441.534 9.40543H447.948V38.5404H441.61V18.9791L427.954 38.5404H421.578V9.40543H427.917L427.992 28.8351ZM432.13 0.0761719C432.08 0.455335 432.11 0.840859 432.218 1.20765C432.327 1.57443 432.511 1.91436 432.759 2.20526C433.008 2.49616 433.314 2.73149 433.66 2.89613C434.005 3.06077 434.381 3.15099 434.763 3.16086C435.131 3.13705 435.49 3.04059 435.82 2.87696C436.15 2.71333 436.444 2.48584 436.686 2.20767C436.927 1.9295 437.111 1.60616 437.226 1.25644C437.342 0.906708 437.387 0.537444 437.359 0.170193H442.023C441.928 2.03917 441.119 3.80025 439.763 5.08951C438.406 6.37877 436.606 7.09771 434.735 7.09771C432.864 7.09771 431.064 6.37877 429.707 5.08951C428.351 3.80025 427.541 2.03917 427.446 0.170193L432.13 0.0761719Z" fill="white"/>
<path d="M235.257 95.7951H228.862V72.5849H215.451V95.7951H209.037V66.6602H235.257V95.7951Z" fill="white"/>
<path d="M259.087 66.2475C262.047 66.3178 264.92 67.2598 267.347 68.9553C269.774 70.6509 271.647 73.0248 272.731 75.7797C273.815 78.5347 274.063 81.5482 273.443 84.4432C272.822 87.3381 271.362 89.9858 269.244 92.0545C267.126 94.1233 264.445 95.5213 261.536 96.0735C258.627 96.6257 255.62 96.3076 252.892 95.159C250.163 94.0103 247.834 92.0822 246.195 89.6161C244.557 87.1499 243.683 84.2553 243.682 81.2946C243.645 79.2778 244.02 77.2747 244.785 75.4084C245.551 73.542 246.69 71.8521 248.133 70.4426C249.576 69.033 251.292 67.9337 253.176 67.2123C255.06 66.4909 257.071 66.1625 259.087 66.2475V66.2475ZM267.871 81.2946C267.852 79.557 267.319 77.8637 266.34 76.4281C265.361 74.9926 263.979 73.879 262.368 73.2277C260.756 72.5764 258.989 72.4167 257.287 72.7684C255.585 73.1201 254.025 73.9677 252.805 75.2042C251.584 76.4408 250.756 78.0111 250.426 79.7173C250.096 81.4234 250.278 83.189 250.95 84.7917C251.622 86.3943 252.753 87.7624 254.201 88.7233C255.649 89.6841 257.349 90.1949 259.087 90.1913C260.254 90.1968 261.411 89.9675 262.488 89.5169C263.566 89.0663 264.541 88.4036 265.357 87.5684C266.173 86.7331 266.813 85.7422 267.238 84.6547C267.663 83.5673 267.866 82.4055 267.833 81.2383L267.871 81.2946Z" fill="white"/>
<path d="M279.137 96.0015V90.1331H280.773C283.331 90.1331 284.629 88.9106 284.629 85.5062V66.6973H307.331V95.8322H300.936V72.528H290.761V85.9199C290.761 91.9576 288.127 95.9826 281.488 95.9826L279.137 96.0015Z" fill="white"/>
<path d="M324.747 86.1085L338.364 66.6602H344.797V95.7951H338.44V76.2338L324.784 95.7951H318.408V66.6602H324.747V86.1085Z" fill="white"/>
<path d="M353.131 66.6602H378.899V72.5849H369.175V95.7951H362.799V72.5849H353.131V66.6602Z" fill="white"/>
<path d="M387.193 66.6602H409.313V72.5285H393.626V78.1712H404.686V83.8139H393.626V89.8703H409.557V95.7387H387.193V66.6602Z" fill="white"/>
<path d="M431.188 76.5178L438.58 66.6055H445.897L435.138 80.9567L446.423 95.7404H438.561L430.718 85.5837L422.893 95.7404H415.539L426.824 80.9567L416.028 66.6055H423.796L431.188 76.5178Z" fill="white"/>
<path d="M480.298 66.6602V95.7951H473.903V84.0396H460.492V95.8703H454.078V66.6602H460.492V78.0772H473.903V66.6602H480.298Z" fill="white"/>
<path d="M497.716 86.1085L511.333 66.6602H517.747V95.7951H511.408V76.2338L497.753 95.7951H491.377V66.6602H497.716V86.1085Z" fill="white"/>
<path d="M551.526 66.6602V95.7951H545.131V84.6791H537.024C531.814 84.6791 527.488 82.3656 527.488 76.1963V66.6602H533.883V75.3875C533.883 77.9455 535.52 78.7919 538.002 78.7919H545.131V66.6602H551.526Z" fill="white"/>
<path d="M562.604 66.6602H584.704V72.5285H569.036V78.1712H580.077V83.8139H569.036V89.8703H584.873V95.7387H562.604V66.6602Z" fill="white"/>
<path d="M606.413 72.3217C604.121 72.427 601.959 73.4114 600.375 75.07C598.791 76.7287 597.907 78.934 597.907 81.2277C597.907 83.5213 598.791 85.7267 600.375 87.3854C601.959 89.044 604.121 90.0284 606.413 90.1337C607.945 90.1399 609.456 89.7628 610.806 89.0369C612.156 88.3109 613.303 87.2592 614.143 85.977L618.732 89.9268C617.372 91.9346 615.525 93.5653 613.364 94.667C611.204 95.7688 608.799 96.3057 606.375 96.2277C597.685 96.2277 590.914 90.2089 590.914 81.1806C590.913 79.1725 591.315 77.1847 592.094 75.3342C592.874 73.4836 594.016 71.8077 595.453 70.4054C596.891 69.0032 598.594 67.9028 600.463 67.1691C602.333 66.4354 604.33 66.0833 606.337 66.1335C608.771 66.0162 611.193 66.5336 613.366 67.635C615.539 68.7363 617.388 70.3838 618.732 72.4157L614.143 76.3655C613.29 75.1043 612.137 74.0745 610.788 73.3687C609.439 72.6629 607.935 72.3032 606.413 72.3217V72.3217Z" fill="white"/>
<path d="M626.951 95.7951V66.6602H633.384V95.7951H626.951ZM643.879 66.6602H650.97L640.907 79.3373L652.964 95.7951H645.44L633.384 79.5819L643.879 66.6602Z" fill="white"/>
<path d="M666.561 86.1085L680.179 66.6602H686.612V95.7951H680.254V76.2338L666.599 95.7951H660.223V66.6602H666.561V86.1085Z" fill="white"/>
<path d="M703.992 86.1116L717.61 66.6632H724.024V95.7982H717.685V76.2369L704.03 95.7982H697.635V66.6632H703.992V86.1116ZM708.187 57.334C708.15 57.6998 708.189 58.0691 708.299 58.4198C708.409 58.7704 708.589 59.0952 708.828 59.3746C709.067 59.6539 709.36 59.8821 709.689 60.0453C710.019 60.2086 710.378 60.3036 710.745 60.3247C711.114 60.3032 711.475 60.2085 711.807 60.0459C712.139 59.8833 712.436 59.6562 712.679 59.3778C712.923 59.0994 713.108 58.7751 713.225 58.4242C713.341 58.0733 713.387 57.7027 713.359 57.334H718.024C717.929 59.203 717.119 60.964 715.763 62.2533C714.406 63.5426 712.607 64.2615 710.735 64.2615C708.864 64.2615 707.064 63.5426 705.707 62.2533C704.351 60.964 703.542 59.203 703.447 57.334H708.187Z" fill="white"/>
<path d="M209.11 147.181H212.063C212.897 147.295 213.746 147.209 214.54 146.931C215.335 146.653 216.052 146.191 216.633 145.582L204.746 123.914H211.799L219.906 138.961L226.376 123.914H233.11L223.104 146.635C222.432 148.574 221.156 150.245 219.462 151.403C217.769 152.561 215.749 153.145 213.699 153.068H208.997L209.11 147.181Z" fill="white"/>
<path d="M267.042 123.914V153.068H260.647V141.218H247.255V153.068H240.822V123.914H247.255V135.331H260.647V123.914H267.042Z" fill="white"/>
<path d="M284.458 143.362L298.075 123.914H304.508V153.068H298.169V133.488L284.514 153.068H278.119V123.914H284.458V143.362Z" fill="white"/>
<path d="M315.514 123.914H327.777C333.702 123.914 337.182 127.074 337.182 131.607C337.22 132.978 336.804 134.323 335.998 135.432C335.191 136.542 334.04 137.353 332.724 137.739C334.374 137.96 335.885 138.779 336.97 140.041C338.056 141.304 338.64 142.921 338.611 144.585C338.611 149.908 334.323 153.068 328.191 153.068H315.514V123.914ZM326.799 129.218H321.928V135.801H326.799C327.28 135.869 327.77 135.832 328.235 135.694C328.7 135.555 329.13 135.318 329.496 134.999C329.862 134.679 330.155 134.285 330.355 133.843C330.554 133.4 330.657 132.92 330.655 132.434C330.711 130.384 329.169 129.181 326.799 129.181V129.218ZM327.683 147.726C330.072 147.726 332.122 146.635 332.122 144.152C332.122 141.67 330.072 140.635 327.683 140.635H321.928V147.726H327.683Z" fill="white"/>
<path d="M347.771 123.914H369.872V129.801H354.185V135.444H365.245V141.087H354.185V147.124H370.06V153.011H347.771V123.914Z" fill="white"/>
<path d="M379.463 123.914H390.936C396.993 123.914 401.563 127.318 401.563 133.488C401.563 139.657 396.899 142.986 390.936 142.986H385.896V153.068H379.463V123.914ZM394.961 133.488C394.966 132.948 394.855 132.413 394.635 131.92C394.415 131.428 394.092 130.988 393.687 130.631C393.282 130.274 392.804 130.008 392.288 129.852C391.771 129.696 391.227 129.653 390.692 129.726H385.896V137.419H390.692C391.231 137.461 391.773 137.39 392.283 137.21C392.794 137.031 393.261 136.748 393.655 136.378C394.05 136.008 394.363 135.56 394.575 135.062C394.787 134.565 394.893 134.029 394.886 133.488H394.961Z" fill="white"/>
<path d="M423.12 129.593C420.76 129.593 418.497 130.53 416.829 132.199C415.16 133.867 414.223 136.13 414.223 138.489C414.223 140.849 415.16 143.112 416.829 144.78C418.497 146.449 420.76 147.386 423.12 147.386C424.653 147.396 426.165 147.02 427.515 146.294C428.866 145.568 430.013 144.514 430.85 143.229L435.439 147.179C434.081 149.189 432.235 150.822 430.074 151.924C427.912 153.026 425.507 153.562 423.082 153.48C414.373 153.48 407.621 147.48 407.621 138.433C407.62 136.425 408.022 134.437 408.801 132.587C409.581 130.736 410.723 129.06 412.16 127.658C413.598 126.256 415.301 125.155 417.171 124.421C419.04 123.688 421.037 123.336 423.044 123.386C425.48 123.267 427.905 123.785 430.079 124.891C432.252 125.996 434.1 127.649 435.439 129.687L430.85 133.637C429.999 132.373 428.847 131.341 427.497 130.635C426.147 129.929 424.643 129.571 423.12 129.593V129.593Z" fill="white"/>
<path d="M449.999 143.362L463.616 123.914H470.049V153.068H463.692V133.488L450.036 153.068H443.66V123.914H449.999V143.362Z" fill="white"/>
<path d="M478.342 123.914H504.11V129.839H494.405V153.068H488.01V129.839H478.342V123.914Z" fill="white"/>
<path d="M512.463 123.914H534.563V129.801H518.877V135.444H529.936V141.087H518.877V147.124H534.733V153.011H512.463V123.914Z" fill="white"/>
<path d="M540.938 123.914H566.687V129.839H556.981V153.068H550.624V129.839H540.975L540.938 123.914Z" fill="white"/>
</svg>
