<svg width="1055" height="148" viewBox="0 0 1055 148" fill="none" xmlns="http://www.w3.org/2000/svg">
<path d="M511.947 61.6725L488.377 53.1035L464.777 61.6725L441.177 53.1035L417.577 61.6725L393.976 53.1035L370.406 61.6725V91.7238L393.976 100.293L417.577 91.7238L441.177 100.293L464.777 91.7238L488.377 100.293L511.947 91.7238V61.6725Z" fill="white"/>
<path d="M511.947 14.4837H511.977L488.377 5.88477L464.777 14.4837L441.177 5.88477L417.577 14.4837L393.976 5.88477L370.406 14.4837V44.505L393.976 53.104L417.577 44.505L441.177 53.104L464.777 44.505L488.377 53.104L511.977 44.505V14.4837H511.947Z" fill="#29BE46"/>
<path d="M417.577 14.4837L393.977 23.0826L370.377 14.4837L393.977 5.88477L417.577 14.4837Z" fill="white"/>
<path d="M464.777 14.4837L441.176 23.0826L417.576 14.4837L441.176 5.88477L464.777 14.4837Z" fill="white"/>
<path d="M511.948 14.4837L488.348 23.0826L464.777 14.4837L488.348 5.88477L511.948 14.4837Z" fill="white"/>
<path d="M370.377 91.724L393.977 83.125L417.577 91.724L393.977 100.293L370.377 91.724Z" fill="#29BE46"/>
<path d="M464.777 91.724L488.378 83.125L511.948 91.724L488.378 100.293L464.777 91.724Z" fill="#29BE46"/>
<path d="M464.747 61.7028L441.176 70.2718L417.576 61.6729V91.7241L441.176 100.293L464.777 91.7241L464.747 61.7028Z" fill="#29BE46"/>
<path d="M511.947 108.892L488.377 100.293L464.777 108.892L441.177 100.293L417.577 108.892L393.976 100.293L370.406 108.892V138.913L393.976 147.512L417.577 138.913L441.177 147.512L464.777 138.913L488.377 147.512L511.947 138.913V108.892Z" fill="white"/>
<path d="M370.377 138.913L393.977 130.314L417.577 138.913L393.977 147.512L370.377 138.913Z" fill="#29BE46"/>
<path d="M464.777 138.913L488.378 130.314L511.948 138.913L488.378 147.512L464.777 138.913Z" fill="#29BE46"/>
<path d="M464.747 108.892L441.176 117.491L417.576 108.892V138.913L441.176 147.512L464.777 138.913L464.747 108.892Z" fill="#29BE46"/>
<path d="M159.383 14.6037H168.517V36.5655H174.567V14.6037H183.732V9.00098H159.383V14.6037Z" fill="white"/>
<path d="M202.689 31.0828C201.019 31.1065 199.381 30.633 197.981 29.7225C196.581 28.812 195.484 27.5056 194.829 25.9694C194.173 24.4333 193.99 22.7368 194.301 21.0958C194.612 19.4549 195.404 17.9435 196.576 16.754C197.748 15.5646 199.247 14.7508 200.883 14.4161C202.518 14.0814 204.217 14.241 205.761 14.8745C207.306 15.5081 208.628 16.587 209.558 17.974C210.488 19.361 210.985 20.9934 210.985 22.6636C211.013 23.7668 210.819 24.8644 210.413 25.8907C210.008 26.9171 209.4 27.8512 208.625 28.6371C207.851 29.423 206.926 30.0446 205.906 30.4648C204.886 30.885 203.792 31.0952 202.689 31.0828M202.689 8.49189C199.895 8.55678 197.182 9.44525 194.891 11.046C192.599 12.6467 190.831 14.8885 189.808 17.4903C188.785 20.0921 188.552 22.9381 189.139 25.6717C189.726 28.4053 191.106 30.9048 193.107 32.8569C195.108 34.809 197.64 36.1268 200.386 36.6452C203.132 37.1636 205.971 36.8595 208.545 35.771C211.119 34.6826 213.315 32.8581 214.857 30.5264C216.4 28.1947 217.219 25.4595 217.214 22.6636C217.24 20.7648 216.879 18.8806 216.154 17.1258C215.428 15.371 214.353 13.7823 212.994 12.4564C211.636 11.1306 210.021 10.0953 208.249 9.41374C206.478 8.73216 204.586 8.41852 202.689 8.49189" fill="white"/>
<path d="M239.887 18.6485L231.741 9.00098H225.361V36.5655H231.261V16.6711L239.887 27.0377L248.482 16.5812V36.5655H254.352V9.00098H248.033L239.887 18.6485Z" fill="white"/>
<path d="M273.998 13.8843C275.443 13.8675 276.867 14.2258 278.132 14.9243C279.397 15.6227 280.46 16.6373 281.216 17.8692L285.079 14.124C283.953 12.3257 282.362 10.8646 280.475 9.89443C278.588 8.92426 276.475 8.48093 274.357 8.61109C268.547 8.61109 263.516 12.1465 263.516 17.2999C263.516 22.4532 267.379 24.0112 271.273 25.0299L275.196 26.0486C277.113 26.558 278.52 27.2471 278.52 28.865C278.52 30.4829 276.574 31.6814 274.028 31.6814C272.51 31.7259 271.006 31.3769 269.662 30.6681C268.319 29.9594 267.182 28.9151 266.361 27.6366L262.438 31.0821C263.632 33.0504 265.346 34.651 267.391 35.7082C269.436 36.7653 271.732 37.2381 274.028 37.0744C279.838 37.0744 284.84 33.6888 284.84 28.4455C284.84 23.6817 281.336 21.5844 277.023 20.4159L273.369 19.4272C271.572 18.9178 269.835 18.3186 269.835 16.6707C269.835 15.0228 271.542 13.9742 273.998 13.9742" fill="white"/>
<path d="M293.734 9.00098V36.5655H299.814V21.2552V9.00098H293.734Z" fill="white"/>
<path d="M306.853 21.0155L316.496 9.00098H309.788L299.814 21.2552L311.105 36.5655H318.233L306.853 21.0155Z" fill="white"/>
<path d="M10.6529 76.0243H6.04068V68.7437H10.6529C11.1578 68.6848 11.6694 68.7329 12.1545 68.8847C12.6396 69.0366 13.0874 69.2888 13.4687 69.625C13.85 69.9613 14.1563 70.374 14.3678 70.8364C14.5792 71.2989 14.6911 71.8006 14.6961 72.3091C14.7028 72.8273 14.6001 73.3412 14.3948 73.817C14.1895 74.2929 13.8861 74.7201 13.5045 75.0708C13.123 75.4214 12.6718 75.6875 12.1804 75.8518C11.689 76.0161 11.1685 76.0749 10.6529 76.0243M10.8925 63.2607H0.0507812V90.8252H6.04068V81.2975H10.8925C16.523 81.2975 20.9555 78.1216 20.9555 72.3091C20.9555 66.4965 16.6128 63.3206 10.8925 63.3206" fill="white"/>
<path d="M41.1114 85.3721C39.442 85.3959 37.8033 84.9224 36.4037 84.0119C35.004 83.1014 33.9067 81.7949 33.2513 80.2588C32.596 78.7226 32.4121 77.0262 32.7232 75.3852C33.0343 73.7442 33.8262 72.2329 34.9982 71.0434C36.1703 69.854 37.6695 69.0401 39.3052 68.7055C40.9409 68.3708 42.6391 68.5304 44.1839 69.1639C45.7287 69.7975 47.0502 70.8763 47.9804 72.2633C48.9105 73.6503 49.4072 75.2828 49.4074 76.953C49.4357 78.0562 49.2413 79.1538 48.8359 80.1801C48.4305 81.2065 47.8224 82.1405 47.048 82.9264C46.2736 83.7123 45.3487 84.334 44.3287 84.7542C43.3087 85.1744 42.2145 85.3846 41.1114 85.3721M41.1114 62.7812C37.3543 62.7812 33.7511 64.2743 31.0945 66.932C28.4378 69.5897 26.9453 73.1944 26.9453 76.953C26.9453 80.7116 28.4378 84.3162 31.0945 86.9739C33.7511 89.6316 37.3543 91.1247 41.1114 91.1247C44.8685 91.1247 48.4717 89.6316 51.1284 86.9739C53.785 84.3162 55.2775 80.7116 55.2775 76.953C55.2775 73.1944 53.785 69.5897 51.1284 66.932C48.4717 64.2743 44.8685 62.7813 41.1114 62.7812" fill="white"/>
<path d="M69.4743 63.1709H63.3945V90.7354H82.1729V85.1326H69.4743V63.1709Z" fill="white"/>
<path d="M96.4278 74.2566L89.5993 63.1709H82.8906L93.4328 80.3388V90.7354H99.4826V80.2489L109.935 63.1709H103.226L96.4278 74.2566Z" fill="white"/>
<path d="M113.59 68.7737H122.724V90.7354H128.774V68.7737H137.939V63.1709H113.59V68.7737Z" fill="white"/>
<path d="M151.925 79.4699H162.378V74.1068H151.925V68.7437H166.75V63.1709H145.846V90.7354H166.9V85.1925H151.925V79.4699Z" fill="white"/>
<path d="M187.264 68.5342C188.738 68.5043 190.195 68.8486 191.499 69.535C192.803 70.2215 193.912 71.2275 194.722 72.4591L199.065 68.7439C197.799 66.8084 196.05 65.2373 193.991 64.1862C191.932 63.1351 189.633 62.6406 187.324 62.7516C185.432 62.6996 183.547 63.0276 181.784 63.7165C180.02 64.4053 178.412 65.441 177.055 66.7621C175.698 68.0833 174.619 69.6633 173.883 71.4085C173.147 73.1538 172.768 75.0291 172.769 76.9234C172.743 78.813 173.102 80.688 173.825 82.434C174.548 84.18 175.619 85.7603 176.973 87.0783C178.327 88.3962 179.935 89.4242 181.699 90.0994C183.464 90.7745 185.347 91.0828 187.234 91.0052C189.529 91.0766 191.804 90.5643 193.847 89.5163C195.89 88.4683 197.634 86.9188 198.915 85.0129L194.722 81.4475C193.926 82.6576 192.841 83.6501 191.565 84.3354C190.289 85.0207 188.862 85.3771 187.414 85.3724C185.182 85.3724 183.042 84.4854 181.463 82.9065C179.885 81.3276 178.998 79.1862 178.998 76.9533C178.998 74.7204 179.885 72.579 181.463 71.0001C183.042 69.4212 185.182 68.5342 187.414 68.5342" fill="white"/>
<path d="M225.42 73.987H212.752V63.1709H206.672V90.7354H212.752V79.5298H225.42V90.7354H231.47V63.1709H225.42V73.987Z" fill="white"/>
<path d="M260.971 80.7283L248.033 63.1709H241.953V90.7354H247.883V72.3391L261.51 90.7354H266.901V63.1709H260.971V80.7283Z" fill="white"/>
<path d="M283.463 63.1709H277.383V90.7354H283.463V63.1709Z" fill="white"/>
<path d="M306.614 85.3725C304.382 85.3725 302.241 84.4854 300.663 82.9065C299.085 81.3277 298.198 79.1862 298.198 76.9533C298.198 74.7204 299.085 72.579 300.663 71.0001C302.241 69.4212 304.382 68.5342 306.614 68.5342C308.062 68.5295 309.488 68.8859 310.764 69.5712C312.04 70.2565 313.125 71.249 313.921 72.4591L318.234 68.7439C316.978 66.8065 315.235 65.2333 313.18 64.1816C311.125 63.13 308.829 62.6369 306.524 62.7516C304.63 62.6996 302.744 63.0275 300.979 63.7161C299.213 64.4046 297.603 65.4397 296.244 66.7605C294.885 68.0813 293.803 69.6609 293.064 71.4064C292.324 73.1518 291.942 75.0277 291.939 76.9234C291.899 78.8337 292.253 80.7317 292.98 82.4988C293.706 84.266 294.789 85.8644 296.16 87.1943C297.532 88.5241 299.163 89.5569 300.951 90.228C302.739 90.8992 304.646 91.1943 306.554 91.0951C308.85 91.175 311.128 90.6665 313.173 89.6177C315.217 88.5689 316.959 87.0148 318.234 85.1028L313.921 81.3876C313.125 82.5977 312.04 83.5902 310.764 84.2755C309.488 84.9608 308.062 85.3172 306.614 85.3126" fill="white"/>
<path d="M61.208 132.951C61.2831 133.811 61.1716 134.677 60.8812 135.49C60.5908 136.303 60.1283 137.043 59.5254 137.66C58.9225 138.278 58.1934 138.758 57.3879 139.067C56.5825 139.376 55.7197 139.508 54.8587 139.453C53.9977 139.508 53.1349 139.376 52.3295 139.067C51.5241 138.758 50.7949 138.278 50.192 137.66C49.5891 137.043 49.1266 136.303 48.8362 135.49C48.5458 134.677 48.4343 133.811 48.5094 132.951V117.222H42.5195V133.221C42.5195 140.801 47.5211 145.206 54.9486 145.206C56.5804 145.365 58.2273 145.168 59.7756 144.628C61.3238 144.088 62.7363 143.218 63.9154 142.079C65.0946 140.939 66.0122 139.557 66.6048 138.027C67.1974 136.498 67.4508 134.858 67.3476 133.221V117.222H61.3577L61.208 132.951Z" fill="white"/>
<path d="M96.5472 134.898L83.609 117.341H77.5293V144.905H83.4593V126.509L97.0863 144.905H102.477V117.341H96.5472V134.898Z" fill="white"/>
<path d="M119.041 117.341H112.961V144.905H119.041V117.341Z" fill="white"/>
<path d="M140.005 136.756L132.727 117.341H126.258L136.86 144.905H143.059L153.751 117.341H147.282L140.005 136.756Z" fill="white"/>
<path d="M167.048 133.61H177.501V128.247H167.048V122.884H181.873V117.341H160.969V144.905H182.023V139.333H167.048V133.61Z" fill="white"/>
<path d="M201.491 129.955H196.938V122.704H201.491C204.096 122.704 205.654 124.172 205.654 126.27C205.653 126.795 205.542 127.315 205.326 127.794C205.11 128.273 204.795 128.701 204.401 129.049C204.008 129.398 203.545 129.658 203.043 129.815C202.541 129.971 202.012 130.018 201.491 129.955M211.883 126.27C211.883 120.427 207.63 117.281 201.73 117.281H190.889V144.936H196.879V135.408H200.982L207.69 144.936H214.639L207.091 134.179C208.563 133.499 209.801 132.4 210.653 131.02C211.506 129.64 211.933 128.041 211.883 126.419" fill="white"/>
<path d="M229.912 122.225C231.358 122.206 232.785 122.56 234.054 123.252C235.324 123.945 236.393 124.953 237.16 126.18L240.993 122.465C239.869 120.664 238.279 119.201 236.391 118.231C234.504 117.261 232.389 116.819 230.271 116.952C224.461 116.952 219.43 120.487 219.43 125.641C219.43 130.794 223.293 132.352 227.187 133.341L231.11 134.36C233.027 134.899 234.434 135.558 234.434 137.206C234.434 138.854 232.488 140.022 229.942 140.022C228.424 140.046 226.925 139.685 225.584 138.973C224.243 138.26 223.105 137.219 222.275 135.947L218.352 139.543C219.584 141.46 221.312 143.007 223.353 144.02C225.394 145.033 227.671 145.474 229.942 145.295C235.752 145.295 240.754 141.91 240.754 136.667C240.754 131.903 237.28 129.805 232.937 128.667L229.283 127.648C227.486 127.139 225.749 126.54 225.749 124.922C225.749 123.304 227.456 122.225 229.912 122.225" fill="white"/>
<path d="M255.34 117.341H249.26V144.905H255.34V117.341Z" fill="white"/>
<path d="M263.188 122.944H272.322V144.905H278.372V122.944H287.536V117.341H263.188V122.944Z" fill="white"/>
<path d="M311.525 117.341L304.727 128.427L297.898 117.341H291.189L301.732 134.479V144.905H307.781V134.419L318.234 117.341H311.525Z" fill="white"/>
<path d="M564.748 9.00098H589.097V14.6037H579.902V36.5655H573.883V14.6037H564.748V9.00098Z" fill="white"/>
<path d="M616.32 22.7833C616.326 21.1333 615.842 19.5189 614.929 18.1445C614.017 16.7702 612.717 15.698 611.194 15.0639C609.672 14.4297 607.995 14.2623 606.377 14.5827C604.759 14.9031 603.273 15.697 602.107 16.8637C600.941 18.0303 600.147 19.5172 599.827 21.1357C599.507 22.7542 599.674 24.4314 600.308 25.9546C600.942 27.4778 602.014 28.7784 603.387 29.6913C604.761 30.6043 606.375 31.0885 608.024 31.0826C609.127 31.095 610.222 30.8848 611.242 30.4646C612.262 30.0444 613.186 29.4228 613.961 28.6369C614.735 27.851 615.343 26.9169 615.749 25.8905C616.154 24.8642 616.348 23.7666 616.32 22.6634M608.024 8.61153C610.815 8.68814 613.522 9.58649 615.805 11.1942C618.089 12.8018 619.847 15.0474 620.861 17.6499C621.876 20.2525 622.1 23.0964 621.507 25.8259C620.913 28.5554 619.528 31.0492 617.526 32.9954C615.523 34.9415 612.99 36.2536 610.246 36.7673C607.501 37.2811 604.666 36.9737 602.095 35.8838C599.525 34.7938 597.332 32.9696 595.792 30.6394C594.253 28.3093 593.434 25.5765 593.439 22.7833C593.413 20.8792 593.775 18.9899 594.504 17.2309C595.233 15.4719 596.314 13.8803 597.679 12.5536C599.045 11.2268 600.666 10.1929 602.445 9.51509C604.224 8.83726 606.122 8.5298 608.024 8.61153" fill="white"/>
<path d="M631.086 9.00098H637.495L645.641 18.6485L653.788 9.00098H660.107V36.5655H654.207V16.5812L645.641 27.0377L637.016 16.6711V36.5655H631.086V9.00098Z" fill="white"/>
<path d="M682.899 14.3636C680.667 14.3636 678.526 15.2506 676.948 16.8295C675.37 18.4084 674.483 20.5498 674.483 22.7827C674.483 25.0156 675.37 27.1571 676.948 28.736C678.526 30.3149 680.667 31.2019 682.899 31.2019C684.347 31.2065 685.774 30.8502 687.049 30.1649C688.325 29.4796 689.41 28.487 690.207 27.277L694.519 31.0221C693.24 32.93 691.497 34.481 689.454 35.5293C687.41 36.5776 685.134 37.0887 682.839 37.0144C680.932 37.1136 679.024 36.8185 677.236 36.1473C675.448 35.4762 673.817 34.4434 672.445 33.1136C671.074 31.7837 669.991 30.1853 669.265 28.4182C668.538 26.651 668.184 24.753 668.224 22.8427C668.219 20.9341 668.598 19.0441 669.339 17.2856C670.081 15.527 671.169 13.9361 672.539 12.6076C673.909 11.2792 675.532 10.2407 677.312 9.55398C679.092 8.8673 680.992 8.54659 682.899 8.61102C685.204 8.49626 687.5 8.98937 689.555 10.041C691.61 11.0927 693.353 12.6659 694.609 14.6033L690.296 18.3185C689.496 17.1122 688.41 16.1226 687.135 15.4378C685.86 14.753 684.436 14.3942 682.989 14.3935" fill="white"/>
<path d="M718.36 9.00098H725.068L715.425 20.9855L726.805 36.5355H719.677L708.386 21.2252L718.36 9.00098ZM702.307 9.00098H708.297V36.5655H702.307V9.00098Z" fill="white"/>
<path d="M739.772 27.3973L752.62 9.00098H758.7V36.5655H752.71V18.0793L739.802 36.5655H733.752V9.00098H739.772V27.3973Z" fill="white"/>
<path d="M779.126 0.192383C779.089 0.538891 779.123 0.88932 779.227 1.22203C779.331 1.55474 779.501 1.86264 779.729 2.12664C779.956 2.39065 780.235 2.60518 780.549 2.7569C780.863 2.90863 781.204 2.99435 781.552 3.00876C781.9 2.98991 782.24 2.90147 782.553 2.74872C782.866 2.59597 783.146 2.38203 783.375 2.11947C783.603 1.8569 783.778 1.55106 783.886 1.22007C783.995 0.889072 784.036 0.539637 784.008 0.192383H788.411C788.411 2.02002 787.685 3.7728 786.393 5.06513C785.101 6.35747 783.349 7.08351 781.522 7.08351C779.695 7.08351 777.943 6.35747 776.651 5.06513C775.359 3.7728 774.634 2.02002 774.634 0.192383H779.126ZM775.143 27.3973L788.021 9.00104H794.011V36.5655H788.021V18.0793L775.113 36.5655H769.123V9.00104H775.113L775.143 27.3973Z" fill="white"/>
<path d="M592.9 90.7354H586.88V68.7737H574.181V90.7354H568.102V63.1709H592.9V90.7354Z" fill="white"/>
<path d="M623.719 76.9536C623.701 75.3089 623.197 73.7063 622.27 72.3478C621.343 70.9893 620.035 69.9357 618.511 69.3199C616.986 68.7042 615.313 68.5538 613.703 68.8877C612.094 69.2216 610.618 70.0248 609.464 71.1962C608.31 72.3675 607.528 73.8545 607.218 75.4697C606.907 77.0849 607.081 78.756 607.719 80.2722C608.356 81.7884 609.428 83.0818 610.799 83.9895C612.17 84.8972 613.779 85.3785 615.423 85.3727C616.525 85.381 617.617 85.168 618.635 84.7463C619.654 84.3246 620.577 83.7028 621.35 82.9178C622.124 82.1327 622.732 81.2003 623.139 80.1759C623.546 79.1514 623.743 78.0557 623.719 76.9536ZM615.423 62.7818C618.206 62.8643 620.902 63.765 623.176 65.3714C625.45 66.9779 627.2 69.2189 628.208 71.8147C629.216 74.4104 629.438 77.2457 628.845 79.9665C628.252 82.6874 626.87 85.1732 624.874 87.1134C622.877 89.0536 620.353 90.3622 617.617 90.8759C614.881 91.3896 612.054 91.0855 609.49 90.0017C606.926 88.9178 604.738 87.1022 603.199 84.7816C601.66 82.4611 600.839 79.7383 600.838 76.9536C600.807 75.0483 601.167 73.157 601.894 71.396C602.622 69.635 603.702 68.0417 605.069 66.714C606.435 65.3864 608.058 64.3527 609.839 63.6764C611.62 63.0002 613.52 62.6957 615.423 62.7818Z" fill="white"/>
<path d="M634.381 91.0047V85.4319H635.938C638.364 85.4319 639.592 84.2933 639.592 81.0575V63.2305H661.066V90.7949H655.076V68.8033H645.462V81.477C645.462 87.1697 642.946 91.0047 636.687 91.0047H634.381Z" fill="white"/>
<path d="M677.537 81.5672L690.386 63.1709H696.465V90.7354H690.476V72.2192L677.567 90.7354H671.518V63.1709H677.537V81.5672Z" fill="white"/>
<path d="M704.342 63.1709H728.691V68.7737H719.496V90.7354H713.476V68.7737H704.342V63.1709Z" fill="white"/>
<path d="M736.568 63.1709H757.473V68.7437H742.648V74.1068H753.1V79.4699H742.648V85.1925H757.623V90.7354H736.568V63.1709Z" fill="white"/>
<path d="M778.167 72.5488L785.146 63.1709H792.064L781.911 76.7434L792.513 90.7354H785.086L777.658 81.1177L770.261 90.7354H763.312L773.915 76.7434L763.702 63.1709H771.069L778.167 72.5488Z" fill="white"/>
<path d="M824.589 63.1709V90.7354H818.569V79.5298H805.871V90.7354H799.791V63.1709H805.871V73.987H818.569V63.1709H824.589Z" fill="white"/>
<path d="M841.062 81.5672L853.94 63.1709H860.02V90.7354H854.03V72.2192L841.092 90.7354H835.072V63.1709H841.062V81.5672Z" fill="white"/>
<path d="M891.946 63.1709V90.7354H885.957V80.2189H878.29C873.378 80.2189 869.305 78.0317 869.305 72.1893V63.2008H875.295V71.4702C875.295 73.897 876.852 74.6761 879.188 74.6761H885.927V63.2008L891.946 63.1709Z" fill="white"/>
<path d="M902.428 63.1709H923.332V68.7437H908.507V74.1068H918.96V79.4699H908.507V85.1925H923.482V90.7354H902.428V63.1709Z" fill="white"/>
<path d="M943.848 68.5338C941.616 68.5338 939.475 69.4208 937.897 70.9997C936.318 72.5786 935.432 74.7201 935.432 76.953C935.432 79.1859 936.318 81.3273 937.897 82.9062C939.475 84.4851 941.616 85.3721 943.848 85.3721C945.296 85.3768 946.722 85.0203 947.998 84.3351C949.274 83.6498 950.359 82.6573 951.155 81.4472L955.498 85.1624C954.217 87.0683 952.473 88.6178 950.43 89.6658C948.388 90.7138 946.112 91.2261 943.818 91.1547C941.91 91.2539 940.003 90.9587 938.215 90.2876C936.426 89.6164 934.795 88.5837 933.424 87.2539C932.053 85.924 930.97 84.3256 930.243 82.5584C929.517 80.7913 929.163 78.8933 929.202 76.983C929.201 75.0887 929.58 73.2134 930.317 71.4682C931.053 69.7229 932.131 68.1429 933.488 66.8218C934.845 65.5006 936.453 64.4649 938.217 63.7761C939.981 63.0872 941.865 62.7591 943.758 62.8112C946.067 62.7002 948.365 63.1947 950.424 64.2458C952.483 65.2969 954.232 66.868 955.498 68.8035L951.155 72.5187C950.359 71.3086 949.274 70.3161 947.998 69.6308C946.722 68.9455 945.296 68.5891 943.848 68.5938" fill="white"/>
<path d="M979.399 63.1709H986.107L976.463 75.1555L987.874 90.7354H980.716L969.425 75.3951L979.399 63.1709ZM963.346 63.1709H969.336V90.7354H963.346V63.1709Z" fill="white"/>
<path d="M1000.72 81.5672L1013.6 63.1709H1019.68V90.7354H1013.66V72.2192L1000.75 90.7354H994.732V63.1709H1000.72V81.5672Z" fill="white"/>
<path d="M1040.08 54.3623C1040.04 54.708 1040.08 55.0567 1040.19 55.3876C1040.29 55.7185 1040.46 56.0246 1040.69 56.2877C1040.92 56.5508 1041.19 56.7653 1041.5 56.9184C1041.82 57.0715 1042.16 57.16 1042.5 57.1787C1042.85 57.1598 1043.19 57.0714 1043.5 56.9186C1043.82 56.7659 1044.1 56.5519 1044.32 56.2894C1044.55 56.0268 1044.73 55.721 1044.84 55.39C1044.94 55.059 1044.99 54.7096 1044.96 54.3623H1049.36C1049.36 56.1899 1048.63 57.9427 1047.34 59.2351C1046.05 60.5274 1044.3 61.2534 1042.47 61.2534C1040.65 61.2534 1038.89 60.5274 1037.6 59.2351C1036.31 57.9427 1035.58 56.1899 1035.58 54.3623H1040.08ZM1036.09 81.5673L1048.97 63.171H1054.96V90.7354H1048.97V72.2193L1036.3 90.7354H1030.31V63.171H1036.3L1036.09 81.5673Z" fill="white"/>
<path d="M568.193 139.333H571.008C571.799 139.443 572.604 139.365 573.359 139.105C574.114 138.844 574.796 138.409 575.351 137.834L564.09 117.341H570.769L578.436 131.513L584.426 117.341H590.775L581.461 138.943C580.823 140.75 579.625 142.307 578.041 143.385C576.457 144.463 574.57 145.006 572.655 144.935H568.193V139.333Z" fill="white"/>
<path d="M622.97 117.341V144.905H616.92V133.7H604.252V144.905H598.172V117.341H604.252V128.127H616.92V117.341H622.97Z" fill="white"/>
<path d="M639.441 135.737L652.319 117.341H658.399V144.905H652.379V126.389L639.471 144.905H633.451V117.341H639.441V135.737Z" fill="white"/>
<path d="M680.353 139.842C682.599 139.842 684.546 138.824 684.546 136.487C684.546 134.15 682.599 133.131 680.353 133.131H674.902V139.842H680.353ZM679.514 122.345H674.902V128.577H679.514C679.969 128.641 680.432 128.607 680.872 128.477C681.312 128.347 681.719 128.124 682.065 127.823C682.412 127.522 682.689 127.15 682.88 126.732C683.07 126.314 683.168 125.86 683.168 125.401C683.168 123.454 681.701 122.405 679.514 122.405M668.822 117.401H680.413C686.043 117.401 689.398 120.398 689.398 124.652C689.418 125.944 689.021 127.207 688.266 128.255C687.51 129.302 686.436 130.077 685.205 130.465C686.76 130.677 688.184 131.454 689.205 132.646C690.226 133.839 690.774 135.366 690.745 136.936C690.745 141.97 686.702 144.966 680.892 144.966H668.912L668.822 117.401Z" fill="white"/>
<path d="M699.281 117.341H720.186V122.884H705.361V128.247H715.813V133.61H705.361V139.333H720.336V144.905H699.281V117.341Z" fill="white"/>
<path d="M743.846 126.389C743.841 125.881 743.73 125.379 743.518 124.917C743.307 124.454 743 124.042 742.619 123.705C742.238 123.369 741.79 123.117 741.305 122.965C740.82 122.813 740.308 122.765 739.803 122.824H735.281V129.955H739.803C740.316 130.005 740.834 129.947 741.324 129.785C741.813 129.622 742.263 129.359 742.644 129.011C743.025 128.664 743.329 128.24 743.536 127.768C743.743 127.296 743.849 126.785 743.846 126.27M729.201 117.281H740.043C745.763 117.281 750.076 120.487 750.076 126.27C750.076 132.052 745.673 135.258 740.043 135.258H735.281V144.936H729.291L729.201 117.281Z" fill="white"/>
<path d="M770.531 122.704C768.299 122.704 766.158 123.591 764.58 125.17C763.002 126.749 762.115 128.891 762.115 131.123C762.115 133.356 763.002 135.498 764.58 137.077C766.158 138.656 768.299 139.543 770.531 139.543C771.981 139.555 773.41 139.203 774.687 138.517C775.965 137.831 777.049 136.834 777.839 135.618L782.181 139.333C780.904 141.243 779.162 142.795 777.118 143.844C775.074 144.892 772.797 145.402 770.501 145.325C768.594 145.424 766.686 145.129 764.898 144.458C763.11 143.787 761.479 142.754 760.108 141.424C758.736 140.095 757.653 138.496 756.927 136.729C756.201 134.962 755.846 133.064 755.886 131.153C755.889 129.258 756.272 127.382 757.011 125.636C757.751 123.891 758.832 122.311 760.191 120.991C761.551 119.67 763.16 118.635 764.926 117.946C766.691 117.258 768.577 116.93 770.471 116.982C772.775 116.876 775.067 117.373 777.121 118.424C779.174 119.475 780.919 121.043 782.181 122.974L777.839 126.719C777.049 125.503 775.965 124.506 774.687 123.82C773.41 123.134 771.981 122.781 770.531 122.794" fill="white"/>
<path d="M795.959 135.737L808.837 117.341H814.887V144.905H808.897V126.389L795.989 144.905H789.969V117.341H795.959V135.737Z" fill="white"/>
<path d="M822.764 117.341H847.113V122.944H837.918V144.905H831.898V122.944H822.764V117.341Z" fill="white"/>
<path d="M855.018 117.341H875.892V122.884H861.097V128.247H871.52V133.61H861.097V139.333H876.072V144.905H855.018V117.341Z" fill="white"/>
<path d="M881.943 117.341H906.292V122.944H897.098V144.905H891.078V122.944H881.943V117.341Z" fill="white"/>
</svg>
