<svg width="545" height="151" viewBox="0 0 545 151" fill="none" xmlns="http://www.w3.org/2000/svg">
<path d="M150.962 59.3251L125.903 50.2051L100.834 59.3251L75.7758 50.2051L50.7066 59.3251L25.6482 50.2051L0.589844 59.3251V91.2017L25.6482 100.333L50.7066 91.2017L75.7758 100.333L100.834 91.2017L125.903 100.333L150.962 91.2017V59.3251Z" fill="#28BE46"/>
<path d="M150.951 9.19819H150.962L125.903 0.078125L100.834 9.19819L75.7758 0.078125L50.7066 9.19819L25.6482 0.078125L0.589844 9.19819V41.0857L25.6482 50.2057L50.7066 41.0857L75.7758 50.2057L100.834 41.0857L125.903 50.2057L150.962 41.0857V9.19819H150.951Z" fill="white"/>
<path d="M50.7057 9.19819L25.6365 18.3292L0.578125 9.19819L25.6365 0.078125L50.7057 9.19819Z" fill="#28BE46"/>
<path d="M100.822 9.19819L75.7634 18.3292L50.7051 9.19819L75.7634 0.078125L100.822 9.19819Z" fill="#28BE46"/>
<path d="M150.952 9.19819L125.893 18.3292L100.824 9.19819L125.893 0.078125L150.952 9.19819Z" fill="#28BE46"/>
<path d="M0.578125 91.204L25.6365 82.084L50.7057 91.204L25.6365 100.335L0.578125 91.204Z" fill="white"/>
<path d="M100.834 91.204L125.892 82.084L150.962 91.204L125.892 100.335L100.834 91.204Z" fill="white"/>
<path d="M100.822 59.3262L75.7634 68.4462L50.7051 59.3262V91.2027L75.7634 100.334L100.822 91.2027V59.3262Z" fill="white"/>
<path d="M150.962 109.454L125.903 100.334L100.834 109.454L75.7758 100.334L50.7066 109.454L25.6482 100.334L0.589844 109.454V141.331L25.6482 150.451L50.7066 141.331L75.7758 150.451L100.834 141.331L125.903 150.451L150.962 141.331V109.454Z" fill="#28BE46"/>
<path d="M0.578125 141.331L25.6365 132.211L50.7057 141.331L25.6365 150.451L0.578125 141.331Z" fill="white"/>
<path d="M100.834 141.331L125.892 132.211L150.962 141.331L125.892 150.451L100.834 141.331Z" fill="white"/>
<path d="M100.822 109.453L75.7634 118.573L50.7051 109.453V141.33L75.7634 150.45L100.822 141.33V109.453Z" fill="white"/>
<path d="M205.463 3.38867H231.213V9.31347H221.47V32.5236H215.094V9.31347H205.426L205.463 3.38867Z" fill="white"/>
<path d="M251.244 2.97489C254.203 3.04888 257.075 3.99391 259.499 5.69164C261.924 7.38938 263.794 9.76444 264.875 12.5196C265.956 15.2748 266.201 18.2877 265.579 21.1814C264.956 24.075 263.494 26.7209 261.376 28.7878C259.257 30.8547 256.576 32.2509 253.668 32.8017C250.76 33.3524 247.754 33.0333 245.026 31.8842C242.299 30.7351 239.97 28.807 238.333 26.3413C236.696 23.8756 235.822 20.9818 235.821 18.022C235.783 16.0035 236.159 13.9987 236.926 12.131C237.692 10.2634 238.833 8.57256 240.278 7.16275C241.723 5.75295 243.442 4.65407 245.328 3.93382C247.214 3.21356 249.227 2.8872 251.244 2.97489V2.97489ZM260.028 18.022C260.009 16.2844 259.477 14.5911 258.498 13.1555C257.518 11.72 256.136 10.6064 254.525 9.9551C252.914 9.30382 251.146 9.144 249.444 9.49573C247.743 9.84745 246.183 10.695 244.962 11.9316C243.741 13.1682 242.914 14.7385 242.584 16.4447C242.254 18.1508 242.436 19.9164 243.108 21.5191C243.78 23.1217 244.911 24.4896 246.359 25.4505C247.807 26.4114 249.507 26.9223 251.244 26.9186C252.415 26.9292 253.576 26.7036 254.658 26.2553C255.739 25.8069 256.719 25.1451 257.539 24.3093C258.359 23.4735 259.002 22.4809 259.43 21.3909C259.858 20.301 260.061 19.136 260.028 17.9656V18.022Z" fill="white"/>
<path d="M275.225 3.38867H281.996L290.61 13.5831L299.225 3.38867H305.902V32.5236H299.676V11.4013L290.61 22.4421L281.488 11.4953V32.5236H275.225V3.38867Z" fill="white"/>
<path d="M326.686 8.56008C324.071 8.56008 322.266 9.72625 322.266 11.4002C322.266 13.0742 324.147 13.7514 326.027 14.2968L329.789 15.3501C334.379 16.5727 338.084 18.7921 338.084 23.8329C338.084 29.4756 332.78 32.9364 326.648 32.9364C320.216 32.9364 316.021 30.0023 314.385 26.8612L318.542 23.0994C319.414 24.4467 320.618 25.5481 322.037 26.2988C323.456 27.0494 325.043 27.4243 326.648 27.3878C329.338 27.3878 331.388 26.3721 331.388 24.3972C331.388 22.4223 329.883 21.9708 327.871 21.4254L323.714 20.3345C319.595 19.2812 315.513 17.3815 315.513 12.1714C315.513 6.96135 320.855 2.99266 326.987 2.99266C329.217 2.86626 331.441 3.34058 333.426 4.36613C335.411 5.39169 337.085 6.93095 338.272 8.82343L334.191 12.7733C333.406 11.4861 332.304 10.4224 330.99 9.68455C329.675 8.94668 328.193 8.55943 326.686 8.56008V8.56008Z" fill="white"/>
<path d="M347.488 32.5236V3.38867H353.921V32.5236H347.488ZM364.416 3.38867H371.507L361.313 16.0659L373.369 32.5236H365.846L353.977 16.3856L364.416 3.38867Z" fill="white"/>
<path d="M208.19 60.6445H219.589C225.626 60.6445 230.216 64.0489 230.216 70.2183C230.216 76.3876 225.551 79.7168 219.589 79.7168H214.548V89.7419H208.115L208.19 60.6445ZM223.689 70.2183C223.694 69.6766 223.583 69.1403 223.362 68.6458C223.141 68.1513 222.815 67.7104 222.408 67.3532C222.001 66.9961 221.521 66.731 221.002 66.5763C220.483 66.4215 219.937 66.3806 219.401 66.4565H214.623V74.1493H219.401C219.947 74.2051 220.5 74.1446 221.021 73.9717C221.543 73.7987 222.022 73.5174 222.427 73.1461C222.832 72.7748 223.154 72.3219 223.371 71.8173C223.589 71.3127 223.697 70.7677 223.689 70.2183V70.2183Z" fill="white"/>
<path d="M251.563 60.2288C254.522 60.3028 257.393 61.2478 259.817 62.9455C262.242 64.6433 264.112 67.0183 265.193 69.7735C266.275 72.5287 266.52 75.5416 265.897 78.4353C265.275 81.3289 263.813 83.9748 261.694 86.0417C259.576 88.1086 256.894 89.5048 253.986 90.0556C251.078 90.6063 248.072 90.2872 245.345 89.1381C242.617 87.989 240.289 86.0609 238.651 83.5952C237.014 81.1295 236.14 78.2357 236.139 75.2759C236.101 73.2574 236.477 71.2526 237.244 69.3849C238.011 67.5173 239.152 65.8265 240.597 64.4167C242.042 63.0069 243.76 61.908 245.646 61.1877C247.532 60.4675 249.546 60.1411 251.563 60.2288ZM260.346 75.2759C260.343 73.5349 259.823 71.8342 258.852 70.3887C257.882 68.9432 256.505 67.8179 254.895 67.1551C253.285 66.4922 251.515 66.3217 249.808 66.665C248.101 67.0083 246.535 67.85 245.306 69.0837C244.078 70.3174 243.243 71.8877 242.907 73.5959C242.571 75.3042 242.749 77.0737 243.419 78.6807C244.088 80.2878 245.219 81.6601 246.669 82.6242C248.119 83.5884 249.822 84.101 251.563 84.0973C252.732 84.1178 253.894 83.9019 254.979 83.4626C256.063 83.0232 257.047 82.3694 257.873 81.5404C258.698 80.7114 259.348 79.7242 259.783 78.6381C260.217 77.5519 260.428 76.3891 260.403 75.2195L260.346 75.2759Z" fill="white"/>
<path d="M281.658 83.8714H295.106V89.7397H275.188V60.5859H281.658V83.8714Z" fill="white"/>
<path d="M302.911 60.6424L310.133 72.3603L317.318 60.6424H324.409L313.368 78.6989V89.7397H306.936V78.7365L295.801 60.5859L302.911 60.6424Z" fill="white"/>
<path d="M328.264 60.6445H354.032V66.5693H344.326V89.7419H337.931V66.5693H328.264V60.6445Z" fill="white"/>
<path d="M362.385 60.6445H384.485V66.5317H368.799V72.1744H379.858V77.8171H368.799V83.8547H384.655V89.7419H362.385V60.6445Z" fill="white"/>
<path d="M406.192 66.3252C403.832 66.3252 401.569 67.2626 399.901 68.931C398.233 70.5994 397.295 72.8623 397.295 75.2218C397.295 77.5814 398.233 79.8442 399.901 81.5127C401.569 83.1811 403.832 84.1185 406.192 84.1185C407.725 84.1281 409.237 83.7525 410.587 83.0263C411.938 82.3 413.085 81.2462 413.922 79.9617L418.512 83.9115C417.154 85.9219 415.307 87.5545 413.146 88.6566C410.985 89.7586 408.579 90.294 406.154 90.2125C397.446 90.2125 390.693 84.2125 390.693 75.1654C390.693 73.1573 391.094 71.1695 391.874 69.3189C392.653 67.4683 393.795 65.7925 395.233 64.3902C396.67 62.988 398.374 61.8876 400.243 61.1539C402.112 60.4202 404.109 60.0681 406.117 60.1183C408.552 59.9992 410.977 60.5178 413.151 61.6229C415.325 62.728 417.173 64.3812 418.512 66.4193L413.922 70.3692C413.072 69.1055 411.919 68.0739 410.57 67.3678C409.22 66.6617 407.715 66.3033 406.192 66.3252V66.3252Z" fill="white"/>
<path d="M452.952 60.6424V89.7397H446.557V77.8902H433.165V89.7397H426.732V60.5859H433.165V72.003H446.557V60.5859L452.952 60.6424Z" fill="white"/>
<path d="M484.154 79.2067V60.6424H490.436V89.7397H484.793L470.386 70.2913V89.7397H464.104V60.5859H470.536L484.154 79.2067Z" fill="white"/>
<path d="M507.931 89.7397H501.498V60.5859H507.931V89.7397Z" fill="white"/>
<path d="M532.418 66.3257C530.058 66.3257 527.795 67.2631 526.127 68.9315C524.458 70.5999 523.521 72.8628 523.521 75.2223C523.521 77.5819 524.458 79.8447 526.127 81.5132C527.795 83.1816 530.058 84.119 532.418 84.119C533.951 84.1252 535.461 83.7481 536.811 83.0222C538.161 82.2962 539.308 81.2443 540.148 79.9622L544.719 83.912C543.361 85.9224 541.514 87.555 539.353 88.6571C537.192 89.7591 534.786 90.2945 532.361 90.213C523.672 90.213 516.9 84.213 516.9 75.1659C516.9 73.1578 517.301 71.17 518.081 69.3194C518.86 67.4689 520.002 65.793 521.44 64.3907C522.877 62.9885 524.581 61.8881 526.45 61.1544C528.319 60.4207 530.316 60.0686 532.324 60.1188C534.76 59.9978 537.185 60.5156 539.359 61.6208C541.533 62.7261 543.381 64.3804 544.719 66.4198L540.148 70.3697C539.295 69.1084 538.142 68.0786 536.793 67.3728C535.444 66.667 533.94 66.3072 532.418 66.3257V66.3257Z" fill="white"/>
<path d="M221.091 141.427C222 141.472 222.907 141.323 223.754 140.991C224.6 140.659 225.366 140.15 226.001 139.499C226.636 138.848 227.126 138.07 227.437 137.215C227.748 136.36 227.874 135.449 227.806 134.543V117.953H234.239V134.881C234.239 142.913 228.897 147.521 221.072 147.521C213.248 147.521 207.906 142.913 207.906 134.881V117.953H214.282V134.58C214.219 135.492 214.351 136.408 214.67 137.265C214.99 138.122 215.488 138.9 216.133 139.549C216.778 140.197 217.554 140.7 218.409 141.024C219.264 141.348 220.179 141.485 221.091 141.427Z" fill="white"/>
<path d="M265.2 136.461V117.953H271.445V147.088H265.802L251.375 127.64V147.088H245.131V117.953H251.564L265.2 136.461Z" fill="white"/>
<path d="M288.957 147.051H282.543V117.953H288.957V147.051Z" fill="white"/>
<path d="M311.15 138.436L318.824 117.953H325.671L314.385 147.088H307.821L296.705 117.953H303.552L311.15 138.436Z" fill="white"/>
<path d="M333.309 117.953H355.409V123.821H339.741V129.464H350.801V135.107H339.741V141.144H355.578V147.032H333.309V117.953Z" fill="white"/>
<path d="M364.941 117.953H376.415C382.678 117.953 387.174 121.339 387.174 127.527C387.221 129.241 386.764 130.93 385.857 132.385C384.951 133.84 383.636 134.996 382.076 135.709L390.07 147.088H382.716L375.7 136.969H371.374V147.051H364.941V117.953ZM376.227 131.42C376.779 131.49 377.34 131.441 377.873 131.277C378.405 131.113 378.896 130.838 379.314 130.47C379.732 130.102 380.067 129.649 380.297 129.141C380.527 128.634 380.646 128.084 380.647 127.527C380.647 125.289 379.01 123.765 376.227 123.765H371.374V131.439L376.227 131.42Z" fill="white"/>
<path d="M406.229 123.069C403.633 123.069 401.827 124.254 401.827 125.928C401.827 127.602 403.708 128.279 405.589 128.825L409.445 129.878C414.034 131.101 417.721 133.32 417.721 138.361C417.721 143.891 412.435 147.464 406.304 147.464C399.871 147.464 395.658 144.53 394.021 141.389L398.178 137.627C399.055 138.974 400.262 140.073 401.685 140.821C403.107 141.568 404.697 141.939 406.304 141.897C408.993 141.897 411.044 140.9 411.044 138.925C411.044 136.95 409.539 136.48 407.507 135.934L403.351 134.844C399.232 133.79 395.169 131.909 395.169 126.699C395.169 121.489 400.492 117.502 406.623 117.502C408.856 117.377 411.081 117.854 413.066 118.883C415.051 119.912 416.724 121.455 417.909 123.351L413.884 127.358C413.09 126.04 411.967 124.951 410.624 124.199C409.282 123.447 407.767 123.058 406.229 123.069V123.069Z" fill="white"/>
<path d="M433.105 147.051H426.691V117.953H433.105V147.051Z" fill="white"/>
<path d="M441.42 117.953H467.188V123.859H457.483V147.088H451.088V123.821H441.42V117.953Z" fill="white"/>
<path d="M478.134 117.953L485.375 129.652L492.56 117.953H499.651L488.61 136.01V147.088H482.178V136.085L471.043 117.953H478.134Z" fill="white"/>
</svg>
