<svg width="260" height="260" viewBox="0 0 260 260" fill="none" xmlns="http://www.w3.org/2000/svg">
<path d="M259.858 102.617L216.654 86.8926L173.431 102.617L130.227 86.8926L87.0038 102.617L43.7998 86.8926L0.595703 102.617V157.576L43.7998 173.32L87.0038 157.576L130.227 173.32L173.431 157.576L216.654 173.32L259.858 157.576V102.617Z" fill="#28BE46"/>
<path d="M259.839 16.191H259.858L216.654 0.466797L173.431 16.191L130.227 0.466797L87.0038 16.191L43.7998 0.466797L0.595703 16.191V71.1695L43.7998 86.8937L87.0038 71.1695L130.227 86.8937L173.431 71.1695L216.654 86.8937L259.858 71.1695V16.191H259.839Z" fill="white"/>
<path d="M87.005 16.191L43.7822 31.9341L0.578125 16.191L43.7822 0.466797L87.005 16.191Z" fill="#28BE46"/>
<path d="M173.412 16.191L130.208 31.9341L87.0039 16.191L130.208 0.466797L173.412 16.191Z" fill="#28BE46"/>
<path d="M259.841 16.191L216.637 31.9341L173.414 16.191L216.637 0.466797L259.841 16.191Z" fill="#28BE46"/>
<path d="M0.578125 157.578L43.7822 141.854L87.005 157.578L43.7822 173.321L0.578125 157.578Z" fill="white"/>
<path d="M173.434 157.578L216.638 141.854L259.861 157.578L216.638 173.321L173.434 157.578Z" fill="white"/>
<path d="M173.412 102.619L130.208 118.343L87.0039 102.619V157.579L130.208 173.322L173.412 157.579V102.619Z" fill="white"/>
<path d="M259.858 189.047L216.654 173.322L173.431 189.047L130.227 173.322L87.0038 189.047L43.7998 173.322L0.595703 189.047V244.006L43.7998 259.73L87.0038 244.006L130.227 259.73L173.431 244.006L216.654 259.73L259.858 244.006V189.047Z" fill="#28BE46"/>
<path d="M0.578125 244.004L43.7822 228.279L87.005 244.004L43.7822 259.728L0.578125 244.004Z" fill="white"/>
<path d="M173.434 244.004L216.638 228.279L259.861 244.004L216.638 259.728L173.434 244.004Z" fill="white"/>
<path d="M173.412 189.045L130.208 204.769L87.0039 189.045V244.005L130.208 259.729L173.412 244.005V189.045Z" fill="white"/>
</svg>
