<svg width="361" height="314" viewBox="0 0 361 314" fill="none" xmlns="http://www.w3.org/2000/svg">
<path d="M259.341 222.688L234.282 213.568L209.213 222.688L184.155 213.568L159.085 222.688L134.027 213.568L108.969 222.688V254.565L134.027 263.696L159.085 254.565L184.155 263.696L209.213 254.565L234.282 263.696L259.341 254.565V222.688Z" fill="#28BE46"/>
<path d="M259.33 172.561H259.341L234.282 163.441L209.213 172.561L184.155 163.441L159.085 172.561L134.027 163.441L108.969 172.561V204.449L134.027 213.569L159.085 204.449L184.155 213.569L209.213 204.449L234.282 213.569L259.341 204.449V172.561H259.33Z" fill="white"/>
<path d="M159.087 172.561L134.017 181.692L108.959 172.561L134.017 163.441L159.087 172.561Z" fill="#28BE46"/>
<path d="M209.201 172.561L184.142 181.692L159.084 172.561L184.142 163.441L209.201 172.561Z" fill="#28BE46"/>
<path d="M259.331 172.561L234.272 181.692L209.203 172.561L234.272 163.441L259.331 172.561Z" fill="#28BE46"/>
<path d="M108.959 254.564L134.017 245.444L159.087 254.564L134.017 263.695L108.959 254.564Z" fill="white"/>
<path d="M209.215 254.564L234.273 245.444L259.342 254.564L234.273 263.695L209.215 254.564Z" fill="white"/>
<path d="M209.201 222.689L184.142 231.81L159.084 222.689V254.566L184.142 263.697L209.201 254.566V222.689Z" fill="white"/>
<path d="M259.341 272.818L234.282 263.698L209.213 272.818L184.155 263.698L159.085 272.818L134.027 263.698L108.969 272.818V304.695L134.027 313.815L159.085 304.695L184.155 313.815L209.213 304.695L234.282 313.815L259.341 304.695V272.818Z" fill="#28BE46"/>
<path d="M108.959 304.694L134.017 295.574L159.087 304.694L134.017 313.814L108.959 304.694Z" fill="white"/>
<path d="M209.215 304.694L234.273 295.574L259.342 304.694L234.273 313.814L209.215 304.694Z" fill="white"/>
<path d="M209.201 272.816L184.142 281.936L159.084 272.816V304.693L184.142 313.813L209.201 304.693V272.816Z" fill="white"/>
<path d="M57.8919 0.798828H95.7166V9.50736H81.4594V43.6267H72.055V9.50736H57.873L57.8919 0.798828Z" fill="white"/>
<path d="M125.151 0.197266C138.11 0.197266 147.721 9.60165 147.721 22.2224C147.721 34.8432 138.11 44.2476 125.151 44.2476C112.191 44.2476 102.58 34.8432 102.58 22.2224C102.58 9.60165 112.135 0.197266 125.151 0.197266ZM138.035 22.2224C137.987 19.6761 137.187 17.2009 135.737 15.1075C134.286 13.0142 132.249 11.3962 129.882 10.4568C127.515 9.51726 124.923 9.29804 122.432 9.82696C119.941 10.3559 117.661 11.6092 115.88 13.4294C114.099 15.2496 112.895 17.5556 112.42 20.0577C111.946 22.5598 112.221 25.1464 113.211 27.4927C114.202 29.8389 115.863 31.8403 117.988 33.2451C120.112 34.6499 122.604 35.3956 125.151 35.3887C126.871 35.4047 128.577 35.0729 130.166 34.4133C131.755 33.7537 133.194 32.7801 134.398 31.5504C135.601 30.3208 136.543 28.8605 137.168 27.2576C137.793 25.6547 138.088 23.942 138.035 22.2224V22.2224Z" fill="white"/>
<path d="M160.381 0.798828H170.312L182.97 15.846L195.61 0.798828H205.428V43.6267H196.287V12.592L182.97 28.8241L169.578 12.7238V43.6267H160.381V0.798828Z" fill="white"/>
<path d="M235.972 8.40026C232.21 8.40026 229.501 10.1306 229.501 12.5946C229.501 15.0586 232.21 16.0555 234.994 16.8454L240.636 18.3877C247.37 20.2686 252.806 23.4473 252.806 30.858C252.806 39.0022 245.019 44.2499 236.009 44.2499C226.605 44.2499 220.398 39.9241 217.99 35.2971L224.103 29.6544C225.378 31.6405 227.143 33.2638 229.229 34.3677C231.315 35.4715 233.65 36.0184 236.009 35.9554C239.959 35.9554 242.987 34.4693 242.987 31.5727C242.987 29.0335 240.768 27.9803 237.815 27.1903L231.702 25.5916C225.645 24.0493 219.664 21.2656 219.664 13.6104C219.664 5.59777 227.508 0.105469 236.592 0.105469C244.906 0.105469 250.831 4.11188 253.238 8.68244L247.257 14.4755C246.063 12.5727 244.395 11.0125 242.416 9.94754C240.438 8.88262 238.218 8.34951 235.972 8.40026V8.40026Z" fill="white"/>
<path d="M266.652 43.6267V0.798828H276.057V43.6267H266.652ZM291.574 0.798828H301.994L286.947 19.4385L304.665 43.6267H293.549L276.094 19.9087L291.574 0.798828Z" fill="white"/>
<path d="M0.318359 78.6152H17.2464C26.143 78.6152 32.8578 83.6184 32.8578 92.6843C32.8578 101.75 26.0113 106.641 17.2464 106.641H9.76042V121.481H0.355971L0.318359 78.6152ZM23.0771 92.6843C23.0771 89.4115 20.6132 87.0416 16.795 87.0416H9.76042V98.3269H16.795C17.5879 98.4174 18.3909 98.3387 19.1511 98.096C19.9114 97.8532 20.6114 97.4518 21.2052 96.9186C21.7989 96.3853 22.2727 95.7322 22.5954 95.0023C22.9181 94.2724 23.0823 93.4823 23.0771 92.6843V92.6843Z" fill="white"/>
<path d="M64.4183 77.9941C77.3777 77.9941 86.989 87.3985 86.989 100.038C86.989 112.678 77.3589 122.064 64.4183 122.064C51.4778 122.064 41.8477 112.659 41.8477 100.038C41.8477 87.4173 51.4026 77.9941 64.4183 77.9941ZM77.3213 100.038C77.2767 97.4872 76.4792 95.0064 75.0288 92.9074C73.5785 90.8085 71.54 89.1852 69.1697 88.2415C66.7994 87.2977 64.203 87.0756 61.7068 87.6032C59.2107 88.1307 56.9261 89.3844 55.1404 91.2065C53.3547 93.0287 52.1474 95.338 51.6704 97.8443C51.1933 100.351 51.4678 102.942 52.4593 105.293C53.4508 107.644 55.115 109.649 57.2428 111.056C59.3706 112.464 61.8671 113.211 64.4183 113.204C66.1396 113.22 67.8463 112.889 69.4363 112.229C71.0263 111.57 72.4668 110.596 73.6716 109.367C74.8764 108.138 75.8206 106.678 76.4477 105.075C77.0749 103.472 77.372 101.759 77.3213 100.038V100.038Z" fill="white"/>
<path d="M109.106 112.732H128.855V121.478H99.6641V78.6504H109.069L109.106 112.732Z" fill="white"/>
<path d="M140.349 78.6152L150.958 95.8254L161.509 78.6152H171.948L155.716 105.155V121.481H146.312V105.305L129.967 78.6529L140.349 78.6152Z" fill="white"/>
<path d="M177.666 78.6152H215.585V87.3238H201.328V121.481H191.923V87.3614H177.741L177.666 78.6152Z" fill="white"/>
<path d="M227.773 78.6152H260.219V87.2487H237.216V95.5809H253.448V103.913H237.216V112.81H260.482V121.481H227.773V78.6152Z" fill="white"/>
<path d="M292.139 86.9472C290.296 86.7372 288.429 86.919 286.662 87.4806C284.894 88.0422 283.265 88.9709 281.881 90.2059C280.497 91.441 279.39 92.9545 278.632 94.6473C277.874 96.3401 277.482 98.1739 277.482 100.029C277.482 101.883 277.874 103.717 278.632 105.41C279.39 107.103 280.497 108.616 281.881 109.851C283.265 111.087 284.894 112.015 286.662 112.577C288.429 113.138 290.296 113.32 292.139 113.11C294.38 113.111 296.586 112.552 298.556 111.485C300.527 110.417 302.2 108.875 303.424 106.998L310.158 112.809C308.158 115.757 305.445 118.151 302.272 119.769C299.098 121.387 295.567 122.177 292.007 122.064C279.236 122.064 269.305 113.242 269.305 100.038C269.305 86.8343 280.045 77.9941 291.875 77.9941C301.995 77.9941 307.731 83.3736 310.082 87.2482L303.349 93.0601C302.132 91.1932 300.471 89.6576 298.514 88.5907C296.558 87.5238 294.367 86.9591 292.139 86.9472V86.9472Z" fill="white"/>
<path d="M360.808 78.6152V121.481H351.404V104.083H331.748V121.481H322.344V78.6529H331.748V95.4305H351.422V78.6529L360.808 78.6152Z" fill="white"/>
</svg>
