<svg width="359" height="328" viewBox="0 0 359 328" fill="none" xmlns="http://www.w3.org/2000/svg">
<path d="M260.089 236.14L235.03 227.02L209.961 236.14L184.903 227.02L159.834 236.14L134.775 227.02L109.717 236.14V268.016L134.775 277.147L159.834 268.016L184.903 277.147L209.961 268.016L235.03 277.147L260.089 268.016V236.14Z" fill="#28BE46"/>
<path d="M260.078 186.013H260.089L235.03 176.893L209.961 186.013L184.903 176.893L159.834 186.013L134.775 176.893L109.717 186.013V217.9L134.775 227.02L159.834 217.9L184.903 227.02L209.961 217.9L235.03 227.02L260.089 217.9V186.013H260.078Z" fill="white"/>
<path d="M159.835 186.013L134.765 195.144L109.707 186.013L134.765 176.893L159.835 186.013Z" fill="#28BE46"/>
<path d="M209.949 186.013L184.89 195.144L159.832 186.013L184.89 176.893L209.949 186.013Z" fill="#28BE46"/>
<path d="M260.079 186.013L235.02 195.144L209.951 186.013L235.02 176.893L260.079 186.013Z" fill="#28BE46"/>
<path d="M109.707 268.016L134.765 258.896L159.835 268.016L134.765 277.147L109.707 268.016Z" fill="white"/>
<path d="M209.963 268.016L235.021 258.896L260.091 268.016L235.021 277.147L209.963 268.016Z" fill="white"/>
<path d="M209.949 236.141L184.89 245.261L159.832 236.141V268.017L184.89 277.148L209.949 268.017V236.141Z" fill="white"/>
<path d="M260.089 286.269L235.03 277.149L209.961 286.269L184.903 277.149L159.834 286.269L134.775 277.149L109.717 286.269V318.146L134.775 327.266L159.834 318.146L184.903 327.266L209.961 318.146L235.03 327.266L260.089 318.146V286.269Z" fill="#28BE46"/>
<path d="M109.707 318.145L134.765 309.025L159.835 318.145L134.765 327.266L109.707 318.145Z" fill="white"/>
<path d="M209.963 318.145L235.021 309.025L260.091 318.145L235.021 327.266L209.963 318.145Z" fill="white"/>
<path d="M209.949 286.268L184.89 295.388L159.832 286.268V318.144L184.89 327.264L209.949 318.144V286.268Z" fill="white"/>
<path d="M0.578125 14.251H38.4028V22.9407H24.1457V57.0787H14.7412V22.9407H0.578125V14.251Z" fill="white"/>
<path d="M67.8383 13.6299C80.7976 13.6299 90.409 23.0345 90.409 35.6553C90.409 48.276 80.7788 57.6804 67.8383 57.6804C54.8977 57.6804 45.2676 48.276 45.2676 35.6553C45.2676 23.0345 54.8225 13.6299 67.8383 13.6299ZM80.7412 35.6553C80.6967 33.1044 79.8991 30.6235 78.4487 28.5246C76.9984 26.4256 74.9599 24.8022 72.5896 23.8584C70.2193 22.9146 67.6229 22.6925 65.1267 23.2201C62.6306 23.7477 60.346 25.0013 58.5603 26.8234C56.7746 28.6456 55.5673 30.9549 55.0903 33.4612C54.6133 35.9675 54.8877 38.5589 55.8792 40.9097C56.8707 43.2605 58.5349 45.2657 60.6627 46.6734C62.7905 48.081 65.287 48.8285 67.8383 48.8215C69.5595 48.8374 71.2662 48.5058 72.8562 47.8464C74.4462 47.187 75.8867 46.2133 77.0915 44.984C78.2963 43.7546 79.2405 42.2948 79.8676 40.6918C80.4948 39.0888 80.7919 37.3758 80.7412 35.6553V35.6553Z" fill="white"/>
<path d="M103.689 14.251H113.639L126.279 29.2981L138.937 14.251H148.737V57.0787H139.614V26.0251L126.279 42.2572L112.887 26.1569V57.0787H103.689V14.251Z" fill="white"/>
<path d="M184.17 22.5829C182.327 22.373 180.461 22.5547 178.693 23.1163C176.925 23.6779 175.296 24.6066 173.912 25.8417C172.529 27.0767 171.421 28.5903 170.663 30.2831C169.905 31.9758 169.513 33.8097 169.513 35.6645C169.513 37.5192 169.905 39.3533 170.663 41.0461C171.421 42.7389 172.529 44.2522 173.912 45.4872C175.296 46.7223 176.925 47.6512 178.693 48.2128C180.461 48.7744 182.327 48.9562 184.17 48.7462C186.411 48.7468 188.617 48.1881 190.588 47.1206C192.558 46.0532 194.231 44.5108 195.455 42.6333L202.189 48.4264C200.193 51.378 197.481 53.7752 194.307 55.3936C191.132 57.012 187.599 57.7988 184.038 57.6804C171.267 57.6804 161.336 48.8591 161.336 35.6553C161.336 22.4514 172.076 13.6299 183.907 13.6299C194.026 13.6299 199.763 18.9905 202.114 22.8839L195.38 28.6958C194.163 26.829 192.502 25.2933 190.546 24.2264C188.589 23.1596 186.398 22.5948 184.17 22.5829V22.5829Z" fill="white"/>
<path d="M214.342 57.0787V14.251H223.746V57.0787H214.342ZM239.264 14.251H249.684L234.637 32.8904L252.355 57.0787H241.257L223.727 33.2479L239.264 14.251Z" fill="white"/>
<path d="M272.533 42.8216L292.527 14.251H301.931V57.0787H292.527V28.32L272.477 57.0787H263.072V14.251H272.477L272.533 42.8216Z" fill="white"/>
<path d="M327.513 42.8231L347.488 14.2525H356.892V57.0802H347.488V28.3215L327.438 57.0802H318.033V14.2525H327.438L327.513 42.8231ZM333.682 0.55957C333.628 1.09596 333.684 1.63766 333.846 2.15185C334.008 2.66604 334.273 3.14179 334.625 3.55012C334.977 3.95846 335.408 4.29079 335.893 4.52684C336.378 4.7629 336.905 4.89777 337.444 4.92314C337.978 4.88505 338.499 4.7418 338.978 4.50159C339.456 4.26138 339.883 3.92901 340.232 3.52349C340.582 3.11797 340.848 2.64742 341.015 2.13877C341.182 1.63011 341.247 1.0934 341.206 0.55957H348.071C347.955 3.32282 346.776 5.93447 344.78 7.84871C342.784 9.76295 340.125 10.8317 337.359 10.8317C334.594 10.8317 331.935 9.76295 329.939 7.84871C327.943 5.93447 326.764 3.32282 326.648 0.55957H333.682Z" fill="white"/>
<path d="M48.6166 134.875H39.2121V100.755H19.5568V134.875H10.1523V92.0654H48.6166V134.875Z" fill="white"/>
<path d="M83.598 91.4443C96.5574 91.4443 106.169 100.849 106.169 113.47C106.169 126.09 96.5386 135.495 83.598 135.495C70.6575 135.495 61.0273 126.09 61.0273 113.47C61.0273 100.849 70.5823 91.4443 83.598 91.4443ZM96.5009 113.47C96.4528 110.924 95.6537 108.45 94.204 106.357C92.7544 104.264 90.7187 102.645 88.3527 101.705C85.9866 100.765 83.3956 100.545 80.9049 101.073C78.4141 101.6 76.1347 102.851 74.3527 104.67C72.5707 106.488 71.3656 108.792 70.8886 111.293C70.4116 113.794 70.6841 116.38 71.6718 118.727C72.6594 121.073 74.3183 123.076 76.4401 124.483C78.5619 125.89 81.0521 126.639 83.598 126.636C85.32 126.655 87.0279 126.325 88.6191 125.666C90.2103 125.008 91.6519 124.034 92.8572 122.804C94.0625 121.574 95.0067 120.113 95.6328 118.509C96.259 116.905 96.5543 115.191 96.5009 113.47V113.47Z" fill="white"/>
<path d="M113.111 135.194V126.542H115.519C119.281 126.542 121.162 124.661 121.162 119.771V92.0654H154.51V134.875H145.105V100.699H130.171V120.373C130.171 129.269 126.296 135.194 116.535 135.194H113.111Z" fill="white"/>
<path d="M180.09 120.655L200.084 92.1029H209.488V134.912H200.084V106.172L180.033 134.912H170.629V92.0654H180.033L180.09 120.655Z" fill="white"/>
<path d="M221.77 92.0654H259.595V100.755H245.338V134.875H235.933V100.755H221.732L221.77 92.0654Z" fill="white"/>
<path d="M271.879 92.0654H304.343V100.699H281.321V109.031H297.553V117.363H281.321V126.298H304.588V134.931H271.879V92.0654Z" fill="white"/>
<path d="M336.487 106.621L347.358 92.063H358.079L342.299 113.129L358.775 134.834H347.227L335.697 119.9L324.204 134.834H313.408L329.885 113.129L314.029 92.0254H325.446L336.487 106.621Z" fill="white"/>
</svg>
