<svg width="758" height="406" viewBox="0 0 758 406" fill="none" xmlns="http://www.w3.org/2000/svg">
<path d="M456.64 314.37L431.581 305.25L406.512 314.37L381.454 305.25L356.384 314.37L331.326 305.25L306.268 314.37V346.247L331.326 355.378L356.384 346.247L381.454 355.378L406.512 346.247L431.581 355.378L456.64 346.247V314.37Z" fill="#28BE46"/>
<path d="M456.629 264.243H456.64L431.581 255.123L406.512 264.243L381.454 255.123L356.384 264.243L331.326 255.123L306.268 264.243V296.131L331.326 305.251L356.384 296.131L381.454 305.251L406.512 296.131L431.581 305.251L456.64 296.131V264.243H456.629Z" fill="white"/>
<path d="M356.383 264.243L331.314 273.374L306.256 264.243L331.314 255.123L356.383 264.243Z" fill="#28BE46"/>
<path d="M406.5 264.243L381.441 273.374L356.383 264.243L381.441 255.123L406.5 264.243Z" fill="#28BE46"/>
<path d="M456.63 264.243L431.571 273.374L406.502 264.243L431.571 255.123L456.63 264.243Z" fill="#28BE46"/>
<path d="M306.256 346.245L331.314 337.125L356.383 346.245L331.314 355.376L306.256 346.245Z" fill="white"/>
<path d="M406.512 346.245L431.57 337.125L456.639 346.245L431.57 355.376L406.512 346.245Z" fill="white"/>
<path d="M406.5 314.371L381.441 323.491L356.383 314.371V346.248L381.441 355.379L406.5 346.248V314.371Z" fill="white"/>
<path d="M456.64 364.499L431.581 355.379L406.512 364.499L381.454 355.379L356.384 364.499L331.326 355.379L306.268 364.499V396.376L331.326 405.496L356.384 396.376L381.454 405.496L406.512 396.376L431.581 405.496L456.64 396.376V364.499Z" fill="#28BE46"/>
<path d="M306.256 396.376L331.314 387.256L356.383 396.376L331.314 405.496L306.256 396.376Z" fill="white"/>
<path d="M406.512 396.376L431.57 387.256L456.639 396.376L431.57 405.496L406.512 396.376Z" fill="white"/>
<path d="M406.5 364.498L381.441 373.618L356.383 364.498V396.375L381.441 405.495L406.5 396.375V364.498Z" fill="white"/>
<path d="M197.708 14.666H235.533V23.3745H221.276V57.4939H211.871V23.3745H197.689L197.708 14.666Z" fill="white"/>
<path d="M264.971 14.0449C277.93 14.0449 287.542 23.4494 287.542 36.0702C287.542 48.691 277.893 58.1707 264.971 58.1707C252.049 58.1707 242.4 48.7663 242.4 36.1267C242.4 23.4871 251.955 14.0449 264.971 14.0449ZM277.893 36.0702C277.845 33.5239 277.045 31.0485 275.595 28.9552C274.144 26.8619 272.107 25.2439 269.74 24.3044C267.373 23.3649 264.781 23.1458 262.29 23.6747C259.799 24.2036 257.519 25.4569 255.738 27.2772C253.957 29.0974 252.753 31.4034 252.278 33.9055C251.803 36.4076 252.079 38.9943 253.069 41.3406C254.06 43.6868 255.721 45.6879 257.846 47.0928C259.97 48.4976 262.462 49.2434 265.009 49.2364C266.729 49.2525 268.435 48.9207 270.024 48.2611C271.613 47.6015 273.052 46.6277 274.256 45.3981C275.459 44.1684 276.401 42.7082 277.026 41.1053C277.651 39.5024 277.946 37.7898 277.893 36.0702V36.0702Z" fill="white"/>
<path d="M300.818 14.666H310.749L323.408 29.7131L336.047 14.666H345.866V57.4939H336.725V26.4592L323.408 42.6725L310.016 26.5721V57.4939H300.818V14.666Z" fill="white"/>
<path d="M381.34 22.998C378.127 23.3641 375.161 24.8998 373.008 27.3124C370.854 29.725 369.664 32.8458 369.664 36.0796C369.664 39.3134 370.854 42.4341 373.008 44.8467C375.161 47.2593 378.127 48.7951 381.34 49.1612C383.58 49.1584 385.785 48.5982 387.755 47.5311C389.725 46.4639 391.399 44.9234 392.625 43.0483L399.34 48.8602C397.347 51.8103 394.638 54.2067 391.467 55.8252C388.296 57.4436 384.766 58.2311 381.208 58.1142C368.437 58.1142 358.506 49.2929 358.506 36.0702C358.506 22.8475 369.227 14.0449 381.077 14.0449C391.196 14.0449 396.932 19.4244 399.265 23.299L392.625 29.1109C391.399 27.2358 389.725 25.6953 387.755 24.6281C385.785 23.561 383.58 23.0008 381.34 22.998V22.998Z" fill="white"/>
<path d="M411.436 57.4939V14.666H420.84V57.4939H411.436ZM436.376 14.666H446.796L431.749 33.3057L449.467 57.4939H438.351L420.84 33.7194L436.376 14.666Z" fill="white"/>
<path d="M469.742 43.2367L489.736 14.666H499.141V57.4939H489.736V28.735L469.742 57.4939H460.338V14.666H469.742V43.2367Z" fill="white"/>
<path d="M524.627 43.2382L544.62 14.6674H554.025V57.4953H544.714V28.7365L524.664 57.4953H515.26V14.6674H524.57L524.627 43.2382ZM530.796 0.974609C530.744 1.51146 530.802 2.05311 530.965 2.56724C531.128 3.08136 531.393 3.55731 531.744 3.96654C532.095 4.37577 532.525 4.70984 533.009 4.94877C533.492 5.1877 534.019 5.32655 534.558 5.357C535.093 5.31655 535.614 5.17111 536.093 4.92891C536.571 4.68672 536.998 4.35255 537.347 3.94553C537.696 3.53851 537.962 3.06657 538.129 2.55679C538.296 2.04701 538.361 1.50943 538.319 0.974609H545.166C545.166 3.81303 544.038 6.53519 542.031 8.54226C540.024 10.5493 537.302 11.6769 534.464 11.6769C531.625 11.6769 528.903 10.5493 526.896 8.54226C524.889 6.53519 523.761 3.81303 523.761 0.974609H530.796Z" fill="white"/>
<path d="M39.3216 135.29H29.9172V101.17H10.2619V135.29H0.857422V92.4805H39.3593L39.3216 135.29Z" fill="white"/>
<path d="M74.3226 91.8594C87.282 91.8594 96.8933 101.264 96.8933 113.885C96.8933 126.505 87.282 135.91 74.3226 135.91C61.3633 135.91 51.752 126.505 51.752 113.885C51.752 101.264 61.2881 91.8594 74.3226 91.8594ZM87.2067 113.885C87.1585 111.338 86.359 108.863 84.9085 106.77C83.458 104.676 81.4213 103.058 79.0541 102.119C76.687 101.179 74.095 100.96 71.6037 101.489C69.1125 102.018 66.8331 103.271 65.0519 105.092C63.2707 106.912 62.067 109.218 61.5922 111.72C61.1174 114.222 61.3925 116.809 62.383 119.155C63.3736 121.501 65.0353 123.502 67.1596 124.907C69.2839 126.312 71.7759 127.058 74.3226 127.051C76.0438 127.07 77.7508 126.74 79.3411 126.081C80.9313 125.422 82.3717 124.449 83.5755 123.218C84.7793 121.988 85.7217 120.527 86.3458 118.923C86.9698 117.319 87.2627 115.605 87.2067 113.885Z" fill="white"/>
<path d="M103.814 135.609V126.976H106.222C109.984 126.976 111.865 125.095 111.865 120.186V92.4805H145.175V135.29H135.771V101.114H120.837V120.807C120.837 129.684 116.943 135.609 107.2 135.609H103.814Z" fill="white"/>
<path d="M170.83 121.051L190.824 92.4805H200.229V135.29H190.824V106.549L170.887 135.29H161.482V92.4805H170.887L170.83 121.051Z" fill="white"/>
<path d="M212.476 92.4805H250.319V101.17H236.062V135.29H226.658V101.17H212.457L212.476 92.4805Z" fill="white"/>
<path d="M262.6 92.4805H295.045V101.114H272.023V109.446H288.255V117.778H272.023V126.656H295.289V135.29H262.6V92.4805Z" fill="white"/>
<path d="M327.19 107.077L338.061 92.5194H348.801L333.002 113.623L349.478 135.291H337.93L326.4 120.357L314.926 135.291H304.111L320.588 113.567L304.732 92.4629H316.149L327.19 107.077Z" fill="white"/>
<path d="M399.339 92.4805V135.29H389.935V117.872H370.279V135.29H360.875V92.4805H370.279V109.258H389.954V92.4805H399.339Z" fill="white"/>
<path d="M424.941 121.051L444.934 92.4805H454.339V135.29H445.028V106.549L425.016 135.29H415.611V92.4805H424.922L424.941 121.051Z" fill="white"/>
<path d="M503.993 92.4817V135.291H494.589V118.927H482.683C475.027 118.927 468.67 115.541 468.67 106.457V92.4629H478.074V105.291C478.074 109.052 480.482 110.294 484.131 110.294H494.607V92.4629L503.993 92.4817Z" fill="white"/>
<path d="M520.281 92.4805H552.745V101.114H529.723V109.446H545.955V117.778H529.723V126.656H552.99V135.29H520.281V92.4805Z" fill="white"/>
<path d="M584.645 100.812C581.432 101.179 578.466 102.714 576.312 105.127C574.159 107.54 572.969 110.66 572.969 113.894C572.969 117.128 574.159 120.249 576.312 122.661C578.466 125.074 581.432 126.61 584.645 126.976C586.885 126.973 589.09 126.413 591.06 125.346C593.03 124.278 594.704 122.738 595.93 120.863L602.645 126.656C600.654 129.608 597.946 132.007 594.774 133.626C591.603 135.244 588.072 136.03 584.513 135.91C571.742 135.91 561.811 127.088 561.811 113.885C561.811 100.681 572.532 91.8594 584.381 91.8594C594.5 91.8594 600.237 97.22 602.569 101.113L595.855 106.906C594.631 105.048 592.968 103.519 591.012 102.456C589.057 101.394 586.87 100.829 584.645 100.812V100.812Z" fill="white"/>
<path d="M614.818 135.291V92.4817H624.223V135.291H614.818ZM639.759 92.4629H650.179L635.132 111.103L652.906 135.291H641.79L624.26 111.46L639.759 92.4629Z" fill="white"/>
<path d="M673.009 121.051L693.003 92.4805H702.407V135.29H693.003V106.549L673.084 135.29H663.68V92.4805H672.99L673.009 121.051Z" fill="white"/>
<path d="M727.989 121.052L747.983 92.4809H757.388V135.29H748.115V106.55L728.065 135.29H718.66V92.4809H727.971L727.989 121.052ZM734.178 78.8633C734.121 79.4011 734.174 79.945 734.335 80.4614C734.496 80.9778 734.76 81.4559 735.113 81.8663C735.465 82.2768 735.897 82.6108 736.384 82.848C736.87 83.0852 737.399 83.2206 737.939 83.2458C738.475 83.2078 738.998 83.0639 739.478 82.8225C739.958 82.5811 740.385 82.2469 740.735 81.8394C741.084 81.4318 741.35 80.9589 741.516 80.4481C741.682 79.9373 741.745 79.3986 741.701 78.8633H748.548C748.548 81.7017 747.42 84.4239 745.413 86.4309C743.406 88.438 740.684 89.5656 737.845 89.5656C735.007 89.5656 732.285 88.438 730.278 86.4309C728.271 84.4239 727.143 81.7017 727.143 78.8633H734.178Z" fill="white"/>
<path d="M117.887 204.467H122.269C124.733 204.467 127.442 204.222 128.984 202.116L111.529 170.291H121.893L133.799 192.316L143.316 170.291H153.172L138.501 203.658C135.586 210.26 130.978 213.062 124.79 213.062H117.887V204.467Z" fill="white"/>
<path d="M202.978 170.291V213.1H193.573V195.702H173.918V213.1H164.514V170.291H173.918V187.069H193.592V170.291H202.978Z" fill="white"/>
<path d="M228.594 198.843L248.588 170.291H257.992V213.1H248.588V184.36L228.537 213.1H219.133V170.291H228.537L228.594 198.843Z" fill="white"/>
<path d="M274.26 170.291H292.278C300.968 170.291 306.216 174.918 306.216 181.576C306.276 183.591 305.666 185.568 304.481 187.199C303.297 188.829 301.605 190.021 299.67 190.586C302.093 190.913 304.311 192.119 305.902 193.974C307.494 195.829 308.349 198.205 308.304 200.649C308.304 208.473 302.021 213.1 293.012 213.1H274.203L274.26 170.291ZM290.849 178.059H283.702V187.746H290.849C294.235 187.746 296.492 185.865 296.492 182.818C296.492 179.771 294.235 178.059 290.849 178.059ZM292.147 205.276C295.664 205.276 298.692 203.658 298.692 200.028C298.692 196.398 295.664 194.837 292.147 194.837H283.702V205.276H292.147Z" fill="white"/>
<path d="M321.586 170.291H354.05V178.924H331.028V187.257H347.26V195.589H331.028V204.467H354.295V213.1H321.586V170.291Z" fill="white"/>
<path d="M368.043 170.291H384.971C393.849 170.291 400.582 175.275 400.582 184.36C400.582 193.445 393.736 198.298 384.971 198.298H377.579V213.1H368.175L368.043 170.291ZM390.745 184.36C390.745 181.087 388.281 178.717 384.444 178.717H377.579V190.003H384.614C385.395 190.071 386.181 189.975 386.923 189.722C387.666 189.469 388.347 189.064 388.924 188.533C389.501 188.003 389.961 187.357 390.274 186.639C390.588 185.92 390.748 185.144 390.745 184.36Z" fill="white"/>
<path d="M432.295 178.548C430.452 178.339 428.585 178.52 426.818 179.082C425.05 179.643 423.421 180.572 422.037 181.807C420.653 183.042 419.546 184.556 418.788 186.249C418.03 187.941 417.638 189.775 417.638 191.63C417.638 193.485 418.03 195.319 418.788 197.012C419.546 198.704 420.653 200.218 422.037 201.453C423.421 202.688 425.05 203.617 426.818 204.178C428.585 204.74 430.452 204.922 432.295 204.712C434.533 204.711 436.737 204.154 438.707 203.09C440.677 202.026 442.351 200.489 443.58 198.618L450.314 204.411C448.318 207.362 445.606 209.759 442.431 211.378C439.257 212.996 435.724 213.783 432.163 213.665C419.448 213.721 409.555 204.881 409.555 191.715C409.555 178.548 420.295 169.689 432.125 169.689C442.245 169.689 447.981 175.05 450.332 178.944L443.599 184.737C442.382 182.842 440.71 181.284 438.735 180.203C436.76 179.122 434.546 178.553 432.295 178.548Z" fill="white"/>
<path d="M471.775 198.843L491.769 170.291H501.174V213.1H491.769V184.36L471.719 213.1H462.314V170.291H471.625L471.775 198.843Z" fill="white"/>
<path d="M513.438 170.291H551.263V178.981H537.006V213.1H527.601V178.981H513.4L513.438 170.291Z" fill="white"/>
<path d="M563.541 170.291H596.005V178.924H572.983V187.257H589.215V195.589H572.983V204.467H596.25V213.1H563.541V170.291Z" fill="white"/>
<path d="M605.372 170.291H643.197V178.981H628.959V213.1H619.554V178.981H605.354L605.372 170.291Z" fill="white"/>
</svg>
