<svg width="637" height="165" viewBox="0 0 637 165" fill="none" xmlns="http://www.w3.org/2000/svg">
<path d="M150.962 73.1669L125.903 64.0469L100.834 73.1669L75.7758 64.0469L50.7066 73.1669L25.6482 64.0469L0.589844 73.1669V105.044L25.6482 114.174L50.7066 105.044L75.7758 114.174L100.834 105.044L125.903 114.174L150.962 105.044V73.1669Z" fill="#28BE46"/>
<path d="M150.951 23.04H150.962L125.903 13.9199L100.834 23.04L75.7758 13.9199L50.7066 23.04L25.6482 13.9199L0.589844 23.04V54.9275L25.6482 64.0475L50.7066 54.9275L75.7758 64.0475L100.834 54.9275L125.903 64.0475L150.962 54.9275V23.04H150.951Z" fill="white"/>
<path d="M50.7057 23.04L25.6365 32.171L0.578125 23.04L25.6365 13.9199L50.7057 23.04Z" fill="#28BE46"/>
<path d="M100.822 23.04L75.7634 32.171L50.7051 23.04L75.7634 13.9199L100.822 23.04Z" fill="#28BE46"/>
<path d="M150.952 23.04L125.893 32.171L100.824 23.04L125.893 13.9199L150.952 23.04Z" fill="#28BE46"/>
<path d="M0.578125 105.046L25.6365 95.9258L50.7057 105.046L25.6365 114.177L0.578125 105.046Z" fill="white"/>
<path d="M100.834 105.046L125.892 95.9258L150.962 105.046L125.892 114.177L100.834 105.046Z" fill="white"/>
<path d="M100.822 73.168L75.7634 82.288L50.7051 73.168V105.045L75.7634 114.176L100.822 105.045V73.168Z" fill="white"/>
<path d="M150.962 123.296L125.903 114.176L100.834 123.296L75.7758 114.176L50.7066 123.296L25.6482 114.176L0.589844 123.296V155.172L25.6482 164.292L50.7066 155.172L75.7758 164.292L100.834 155.172L125.903 164.292L150.962 155.172V123.296Z" fill="#28BE46"/>
<path d="M0.578125 155.173L25.6365 146.053L50.7057 155.173L25.6365 164.293L0.578125 155.173Z" fill="white"/>
<path d="M100.834 155.173L125.892 146.053L150.962 155.173L125.892 164.293L100.834 155.173Z" fill="white"/>
<path d="M100.822 123.295L75.7634 132.415L50.7051 123.295V155.171L75.7634 164.292L100.822 155.171V123.295Z" fill="white"/>
<path d="M208.906 17.1191H254.31V27.5581H237.213V68.5239H225.928V27.5581H208.887L208.906 17.1191Z" fill="white"/>
<path d="M289.653 16.3633C305.208 16.3633 316.776 27.6486 316.776 42.8086C316.776 57.9686 305.208 69.2539 289.653 69.2539C274.099 69.2539 262.475 57.9686 262.475 42.8086C262.475 27.6486 274.023 16.3633 289.653 16.3633ZM305.152 42.8086C305.119 39.7417 304.178 36.7533 302.449 34.2199C300.72 31.6866 298.28 29.7217 295.436 28.5728C292.592 27.424 289.472 27.1426 286.469 27.7641C283.465 28.3856 280.713 29.8822 278.558 32.0653C276.404 34.2484 274.944 37.0203 274.363 40.0317C273.781 43.0432 274.104 46.1595 275.29 48.9878C276.477 51.8161 278.474 54.2301 281.03 55.9253C283.586 57.6205 286.586 58.5213 289.653 58.514C291.712 58.5348 293.754 58.1411 295.657 57.3566C297.56 56.572 299.287 55.4126 300.733 53.9473C302.179 52.4819 303.315 50.7406 304.074 48.8271C304.834 46.9135 305.2 44.8667 305.152 42.8086Z" fill="white"/>
<path d="M332.706 17.1191H344.631L359.829 35.1193L375.008 17.1191H386.782V68.5239H375.816V31.2634L359.829 50.7495L343.728 31.4139V68.5239H332.688L332.706 17.1191Z" fill="white"/>
<path d="M429.308 27.122C427.201 27.049 425.101 27.401 423.133 28.157C421.165 28.9129 419.369 30.0573 417.853 31.522C416.337 32.9868 415.131 34.7418 414.307 36.6824C413.483 38.6231 413.059 40.7098 413.059 42.818C413.059 44.9262 413.483 47.0128 414.307 48.9535C415.131 50.8942 416.337 52.6492 417.853 54.1139C419.369 55.5786 421.165 56.723 423.133 57.479C425.101 58.235 427.201 58.587 429.308 58.514C432.012 58.5257 434.677 57.8606 437.058 56.5794C439.44 55.2982 441.463 53.4415 442.944 51.1785L451.013 58.1567C448.62 61.6997 445.366 64.5767 441.556 66.5178C437.746 68.4588 433.506 69.4003 429.233 69.2539C413.903 69.2539 401.979 58.6645 401.979 42.8086C401.979 26.9527 414.863 16.3633 429.157 16.3633C441.308 16.3633 448.211 22.8147 451.013 27.4794L442.944 34.4386C441.463 32.1779 439.438 30.324 437.057 29.046C434.675 27.768 432.011 27.1066 429.308 27.122V27.122Z" fill="white"/>
<path d="M465.551 68.5239V17.1191H476.836V68.5239H465.551ZM495.476 17.1191H507.984L489.984 39.4829L511.256 68.5239H497.959L476.911 39.9344L495.476 17.1191Z" fill="white"/>
<path d="M535.409 51.4078L559.409 17.1191H570.695V68.5239H559.503V34.0096L535.578 68.5239H524.293V17.1191H535.578L535.409 51.4078Z" fill="white"/>
<path d="M601.408 51.4052L625.408 17.1165H636.693V68.5212H625.521V34.0069L601.445 68.5212H590.16V17.1165H601.408V51.4052ZM608.819 0.621094C608.751 1.26574 608.816 1.91735 609.01 2.53594C609.203 3.15453 609.521 3.72705 609.944 4.21842C610.367 4.70979 610.885 5.10964 611.468 5.39343C612.051 5.67722 612.685 5.83899 613.333 5.86879C613.98 5.83068 614.614 5.66405 615.197 5.37863C615.779 5.0932 616.3 4.69469 616.727 4.20628C617.154 3.71788 617.479 3.14936 617.685 2.53384C617.89 1.91833 617.971 1.26811 617.922 0.621094H626.142C626.142 8.38917 620.499 13.129 613.333 13.129C606.167 13.129 600.43 8.38917 600.43 0.621094H608.819Z" fill="white"/>
<path d="M261.417 160.688H250.131V119.722H226.545V160.688H215.26V109.283H261.473L261.417 160.688Z" fill="white"/>
<path d="M303.441 108.525C318.996 108.525 330.563 119.811 330.563 134.971C330.563 150.131 318.996 161.416 303.441 161.416C287.886 161.416 276.262 150.131 276.262 134.971C276.262 119.811 287.81 108.525 303.441 108.525ZM318.92 134.971C318.883 131.908 317.941 128.925 316.212 126.398C314.482 123.87 312.044 121.91 309.203 120.766C306.363 119.621 303.247 119.343 300.248 119.966C297.25 120.589 294.502 122.085 292.353 124.266C290.203 126.447 288.746 129.216 288.167 132.223C287.588 135.23 287.911 138.342 289.097 141.166C290.282 143.99 292.277 146.399 294.829 148.092C297.382 149.784 300.378 150.683 303.441 150.676C305.498 150.697 307.539 150.303 309.442 149.519C311.344 148.734 313.069 147.574 314.513 146.108C315.958 144.643 317.092 142.901 317.85 140.988C318.607 139.074 318.971 137.028 318.92 134.971Z" fill="white"/>
<path d="M338.855 161.064V150.776H341.846C346.36 150.776 348.655 148.631 348.655 142.631V109.283H388.661V160.688H377.376V119.647H359.451V143.252C359.451 153.917 354.787 161.027 343.087 161.027L338.855 161.064Z" fill="white"/>
<path d="M419.317 143.572L443.412 109.283H454.697V160.688H443.412V126.174L419.336 160.688H408.051V109.283H419.242L419.317 143.572Z" fill="white"/>
<path d="M469.333 109.283H514.737V119.722H497.621V160.688H486.336V119.722H469.295L469.333 109.283Z" fill="white"/>
<path d="M529.482 109.283H568.454V119.647H540.824V129.653H560.291V139.66H540.824V150.324H568.737V160.688H529.482V109.283Z" fill="white"/>
<path d="M607.051 126.757L620.086 109.283H632.97L614.011 134.619L633.798 160.688H619.935L606.092 142.763L592.305 160.688H579.346L599.133 134.619L580.079 109.283H593.885L607.051 126.757Z" fill="white"/>
</svg>
