<svg width="545" height="153" viewBox="0 0 545 153" fill="none" xmlns="http://www.w3.org/2000/svg">
<path d="M151.696 45.8555V10.4334L124.194 0.429688L100.096 9.15702L75.9975 0.429688L51.8992 9.15702L27.8008 0.429688L0.298828 10.4334V45.8555L17.8517 52.2482L0.298828 58.6301V94.0521L17.8517 100.445L0.298828 106.827V142.249L27.8008 152.253L51.8992 143.525L75.9975 152.253L100.096 143.525L124.194 152.253L151.696 142.249V106.827L134.143 100.445L151.696 94.0521V58.6301L134.143 52.2482L151.696 45.8555ZM100.096 47.0991L114.278 52.2482L100.096 57.3973L85.914 52.2482L100.096 47.0991ZM75.9975 4.05153L100.096 12.7789L75.9975 21.5062L51.8992 12.7789L75.9975 4.05153ZM51.8992 47.0991L66.0811 52.2482L51.8992 57.3973L37.7173 52.2482L51.8992 47.0991ZM3.70249 12.8225L27.8008 4.09517L51.8883 12.8225L27.8008 21.5498L3.70249 12.8225ZM3.70249 91.6739V61.0192L27.8008 52.2919L51.8992 61.0192L75.9975 52.2919L100.096 61.0192L75.9975 69.7465L51.8992 61.0192V91.6739L27.8008 82.9466L3.70249 91.6739ZM100.096 95.3394L114.278 100.489L100.096 105.638L85.914 100.489L100.096 95.3394ZM66.0484 100.445L51.8665 105.594L37.6845 100.445L51.8992 95.3394L66.0484 100.445ZM51.8665 139.86L27.779 131.132L3.68067 139.86V109.216L27.779 100.489L51.8774 109.216L51.8665 139.86ZM75.9757 118.041L51.8774 109.314L75.9757 100.587L100.074 109.314L75.9757 118.041ZM148.271 109.314V139.969L124.183 131.241L100.085 139.969V109.216L124.183 100.489L148.271 109.314ZM148.271 61.1174V91.7721L124.183 83.0448L100.085 91.7721V61.0192L124.183 52.2919L148.271 61.1174ZM124.194 21.5935L100.096 12.8661L124.194 4.1388L148.293 12.8661L124.194 21.5935Z" fill="black"/>
<path d="M205.6 4.28711H231.349V10.1931H221.644V33.4221H215.249V10.1931H205.6V4.28711Z" fill="black"/>
<path d="M251.283 3.85491C254.242 3.92891 257.113 4.87381 259.538 6.57155C261.962 8.26928 263.832 10.6443 264.914 13.3995C265.995 16.1547 266.24 19.1677 265.618 22.0613C264.995 24.955 263.533 27.6009 261.415 29.6678C259.296 31.7347 256.615 33.1308 253.707 33.6816C250.799 34.2323 247.793 33.9132 245.065 32.7641C242.337 31.615 240.009 29.687 238.372 27.2213C236.734 24.7556 235.861 21.8619 235.86 18.902C235.825 16.8843 236.202 14.8806 236.97 13.0143C237.738 11.1479 238.879 9.45816 240.323 8.04892C241.768 6.63967 243.485 5.54071 245.37 4.81946C247.254 4.09822 249.267 3.76999 251.283 3.85491ZM260.067 18.902C260.048 17.1644 259.516 15.4711 258.536 14.0355C257.557 12.6 256.175 11.4864 254.564 10.8351C252.953 10.1838 251.185 10.024 249.483 10.3757C247.781 10.7274 246.222 11.5749 245.001 12.8115C243.78 14.0481 242.952 15.6184 242.622 17.3246C242.292 19.0307 242.475 20.7963 243.147 22.399C243.818 24.0016 244.949 25.3697 246.397 26.3305C247.845 27.2914 249.545 27.8022 251.283 27.7986C252.461 27.8221 253.631 27.6059 254.723 27.1631C255.814 26.7202 256.805 26.06 257.633 25.2226C258.462 24.3852 259.111 23.3881 259.543 22.2919C259.974 21.1956 260.178 20.0231 260.142 18.8456L260.067 18.902Z" fill="black"/>
<path d="M275.191 4.28711H281.963L290.577 14.4815L299.173 4.28711H305.869V33.4221H299.643V12.2997L290.577 23.3405L281.455 12.3749V33.4221H275.191V4.28711Z" fill="black"/>
<path d="M326.727 9.43879C324.112 9.43879 322.307 10.6238 322.307 12.2978C322.307 13.9718 324.188 14.6489 326.069 15.1943L329.83 16.2476C334.42 17.4514 338.106 19.6897 338.106 24.7304C338.106 30.2603 332.821 33.834 326.689 33.834C320.257 33.834 316.062 30.8997 314.426 27.7398L318.582 23.978C319.458 25.3218 320.662 26.4196 322.081 27.1668C323.5 27.9141 325.086 28.2862 326.689 28.2477C329.379 28.2477 331.429 27.2508 331.429 25.2759C331.429 23.3009 329.924 22.8308 327.912 22.2853L323.736 21.1944C319.636 20.1411 315.554 18.2601 315.554 13.0501C315.554 7.84 320.896 3.8526 327.028 3.8526C329.261 3.7241 331.487 4.1995 333.473 5.22883C335.459 6.25815 337.131 7.80337 338.313 9.70214L334.232 13.6331C333.441 12.3532 332.337 11.2962 331.023 10.5622C329.71 9.82824 328.231 9.44155 326.727 9.43879Z" fill="black"/>
<path d="M347.588 33.4221V4.28711H354.021V33.4221H347.588ZM364.516 4.28711H371.607L361.394 16.9643L373.469 33.4221H365.945L354.002 17.2088L364.516 4.28711Z" fill="black"/>
<path d="M208.232 61.541H219.706C225.743 61.541 230.333 64.9454 230.333 71.1147C230.333 77.284 225.668 80.5191 219.706 80.5191H214.665V90.6008H208.232V61.541ZM223.731 71.1147C223.736 70.5731 223.625 70.0367 223.404 69.5423C223.182 69.0478 222.857 68.6069 222.45 68.2497C222.043 67.8925 221.563 67.6275 221.044 67.4728C220.525 67.318 219.979 67.277 219.442 67.3529H214.665V75.027H219.442C219.988 75.0826 220.538 75.0226 221.059 74.8508C221.579 74.6789 222.057 74.3993 222.462 74.03C222.866 73.6608 223.189 73.2101 223.407 72.7078C223.626 72.2054 223.736 71.6626 223.731 71.1147Z" fill="black"/>
<path d="M251.662 61.1272C254.621 61.2012 257.492 62.1462 259.917 63.844C262.341 65.5417 264.211 67.9168 265.293 70.672C266.374 73.4272 266.619 76.4401 265.997 79.3338C265.374 82.2274 263.912 84.8732 261.794 86.9401C259.675 89.007 256.994 90.4032 254.086 90.954C251.178 91.5048 248.172 91.1856 245.444 90.0365C242.716 88.8874 240.388 86.9594 238.751 84.4937C237.114 82.028 236.24 79.1342 236.239 76.1744C236.201 74.1559 236.577 72.151 237.344 70.2834C238.11 68.4157 239.251 66.725 240.696 65.3152C242.141 63.9053 243.86 62.8064 245.746 62.0862C247.632 61.3659 249.645 61.0395 251.662 61.1272V61.1272ZM260.446 76.1744C260.424 74.4376 259.888 72.7462 258.907 71.3131C257.925 69.8801 256.541 68.7695 254.93 68.1211C253.319 67.4727 251.552 67.3154 249.851 67.6693C248.151 68.0231 246.593 68.872 245.374 70.1093C244.155 71.3466 243.329 72.917 243 74.6226C242.672 76.3282 242.855 78.0929 243.528 79.6945C244.2 81.296 245.331 82.6629 246.779 83.623C248.226 84.583 249.925 85.0934 251.662 85.0899C252.836 85.1006 254 84.8738 255.085 84.4231C256.169 83.9725 257.151 83.3072 257.971 82.4674C258.792 81.6275 259.434 80.6306 259.859 79.5362C260.284 78.4418 260.484 77.2727 260.446 76.0992V76.1744Z" fill="black"/>
<path d="M281.643 84.7511H295.091V90.676H275.191V61.541H281.605L281.643 84.7511Z" fill="black"/>
<path d="M302.956 61.541L310.178 73.2589L317.363 61.541H324.454L313.413 79.5975V90.676H306.981V79.6728L295.846 61.541H302.956Z" fill="black"/>
<path d="M328.309 61.541H354.077V67.4658H344.371V90.676H337.976V67.4658H328.309V61.541Z" fill="black"/>
<path d="M362.43 61.541H384.53V67.4094H368.844V73.0521H379.903V78.6947H368.844V84.7511H384.699V90.6195H362.43V61.541Z" fill="black"/>
<path d="M406.233 67.2019C405.029 67.1465 403.826 67.3358 402.698 67.7584C401.569 68.181 400.537 68.8281 399.666 69.6605C398.794 70.493 398.101 71.4936 397.627 72.6017C397.153 73.7099 396.908 74.9026 396.908 76.1078C396.908 77.3131 397.153 78.5058 397.627 79.614C398.101 80.7221 398.794 81.7227 399.666 82.5552C400.537 83.3876 401.569 84.0347 402.698 84.4573C403.826 84.8799 405.029 85.0692 406.233 85.0138C407.766 85.02 409.276 84.643 410.626 83.917C411.976 83.1911 413.123 82.1393 413.964 80.8571L418.553 84.807C417.189 86.81 415.341 88.4361 413.181 89.5343C411.02 90.6326 408.617 91.1673 406.195 91.0891C397.487 91.0891 390.734 85.089 390.734 76.0419C390.734 74.0339 391.135 72.0461 391.915 70.1955C392.695 68.3449 393.837 66.6692 395.274 65.2669C396.711 63.8646 398.415 62.7641 400.284 62.0304C402.153 61.2968 404.15 60.9446 406.158 60.9948C408.591 60.8775 411.014 61.3949 413.187 62.4963C415.36 63.5977 417.209 65.2452 418.553 67.277L413.964 71.2269C413.108 69.9691 411.955 68.943 410.605 68.2406C409.256 67.5381 407.754 67.1813 406.233 67.2019V67.2019Z" fill="black"/>
<path d="M452.992 61.541V90.676H446.597V78.9204H433.186V90.7512H426.754V61.541H433.186V72.958H446.579V61.541H452.992Z" fill="black"/>
<path d="M484.199 80.1054V61.541H490.462V90.676H484.819L470.412 71.2464V90.676H464.148V61.541H470.581L484.199 80.1054Z" fill="black"/>
<path d="M507.97 90.676H501.537V61.541H507.97V90.676Z" fill="black"/>
<path d="M532.459 67.2019C531.255 67.1465 530.052 67.3358 528.923 67.7584C527.795 68.181 526.763 68.8281 525.892 69.6605C525.02 70.493 524.326 71.4936 523.852 72.6017C523.378 73.7099 523.134 74.9026 523.134 76.1078C523.134 77.3131 523.378 78.5058 523.852 79.614C524.326 80.7221 525.02 81.7227 525.892 82.5552C526.763 83.3876 527.795 84.0347 528.923 84.4573C530.052 84.8799 531.255 85.0692 532.459 85.0138C533.991 85.015 535.499 84.6358 536.848 83.9103C538.197 83.1848 539.345 82.1357 540.189 80.8571L544.76 84.807C543.397 86.8113 541.549 88.4384 539.389 89.5367C537.228 90.6351 534.825 91.1691 532.402 91.0891C523.713 91.0891 516.941 85.089 516.941 76.0419C516.941 74.0339 517.342 72.0461 518.122 70.1955C518.901 68.3449 520.043 66.6692 521.481 65.2669C522.918 63.8646 524.622 62.7641 526.491 62.0304C528.36 61.2968 530.357 60.9446 532.365 60.9948C534.798 60.8775 537.22 61.3949 539.393 62.4963C541.566 63.5977 543.416 65.2452 544.76 67.277L540.189 71.2269C539.33 69.9726 538.176 68.9494 536.828 68.2473C535.479 67.5453 533.979 67.1862 532.459 67.2019V67.2019Z" fill="black"/>
<path d="M221.134 142.304C222.043 142.352 222.952 142.206 223.8 141.875C224.648 141.544 225.416 141.035 226.051 140.383C226.687 139.732 227.176 138.952 227.486 138.096C227.796 137.24 227.92 136.328 227.849 135.42V118.793H234.282V135.721C234.282 143.734 228.94 148.361 221.115 148.361C213.291 148.361 207.949 143.734 207.949 135.721V118.793H214.325V135.345C214.245 136.266 214.364 137.194 214.676 138.065C214.987 138.935 215.484 139.728 216.13 140.389C216.777 141.05 217.559 141.564 218.423 141.894C219.286 142.225 220.211 142.365 221.134 142.304V142.304Z" fill="black"/>
<path d="M265.242 137.357V118.793H271.43V147.928H265.787L251.361 128.498V147.928H245.098V118.793H251.512L265.242 137.357Z" fill="black"/>
<path d="M288.998 147.928H282.584V118.793H288.998V147.928Z" fill="black"/>
<path d="M311.175 139.332L318.867 118.793H325.714L314.428 147.928H307.883L296.598 118.793H303.444L311.175 139.332Z" fill="black"/>
<path d="M333.35 118.793H355.45V124.68H339.782V130.323H350.842V135.966H339.782V142.022H355.619V147.89H333.35V118.793Z" fill="black"/>
<path d="M364.986 118.793H376.46C382.723 118.793 387.219 122.197 387.219 128.367C387.269 130.081 386.812 131.772 385.905 133.227C384.998 134.683 383.682 135.838 382.121 136.549L390.115 147.928H382.761L375.745 137.865H371.419V147.928H364.986V118.793ZM376.272 132.279C376.826 132.348 377.388 132.299 377.922 132.134C378.456 131.969 378.948 131.692 379.366 131.322C379.784 130.952 380.119 130.497 380.348 129.987C380.576 129.478 380.694 128.925 380.692 128.367C380.692 126.147 379.055 124.605 376.272 124.605H371.494V132.298L376.272 132.279Z" fill="black"/>
<path d="M406.272 124.061C403.676 124.061 401.871 125.228 401.871 126.92C401.871 128.613 403.752 129.272 405.633 129.817L409.394 130.851C413.984 132.074 417.67 134.294 417.67 139.334C417.67 144.883 412.385 148.457 406.253 148.457C399.82 148.457 395.607 145.522 393.971 142.363L398.128 138.601C399.002 139.951 400.209 141.054 401.631 141.805C403.054 142.556 404.645 142.929 406.253 142.889C408.924 142.889 410.993 141.873 410.993 139.899C410.993 137.924 409.488 137.472 407.457 136.927L403.3 135.836C399.181 134.783 395.118 132.902 395.118 127.692C395.118 122.482 400.441 118.494 406.573 118.494C408.803 118.37 411.026 118.845 413.011 119.87C414.995 120.896 416.669 122.434 417.858 124.325L413.777 128.275C412.987 126.992 411.884 125.933 410.57 125.195C409.257 124.458 407.778 124.068 406.272 124.061V124.061Z" fill="black"/>
<path d="M433.185 147.928H426.771V118.793H433.185V147.928Z" fill="black"/>
<path d="M441.463 118.793H467.231V124.718H457.526V147.928H451.131V124.718H441.463V118.793Z" fill="black"/>
<path d="M478.179 118.793L485.402 130.511L492.587 118.793H499.697L488.656 136.849V147.928H482.223V136.943L471.088 118.793H478.179Z" fill="black"/>
</svg>
