<svg width="637" height="166" viewBox="0 0 637 166" fill="none" xmlns="http://www.w3.org/2000/svg">
<path d="M151.696 58.9707V23.5486L124.194 13.5449L100.096 22.2723L75.9975 13.5449L51.8992 22.2723L27.8008 13.5449L0.298828 23.5486V58.9707L17.8517 65.3635L0.298828 71.7453V107.167L17.8517 113.56L0.298828 119.942V155.364L27.8008 165.368L51.8992 156.64L75.9975 165.368L100.096 156.64L124.194 165.368L151.696 155.364V119.942L134.143 113.56L151.696 107.167V71.7453L134.143 65.3635L151.696 58.9707ZM100.096 60.2143L114.278 65.3635L100.096 70.5126L85.914 65.3635L100.096 60.2143ZM75.9975 17.1668L100.096 25.8941L75.9975 34.6214L51.8992 25.8941L75.9975 17.1668ZM51.8992 60.2143L66.0811 65.3635L51.8992 70.5126L37.7173 65.3635L51.8992 60.2143ZM3.70249 25.9377L27.8008 17.2104L51.8883 25.9377L27.8008 34.6651L3.70249 25.9377ZM3.70249 104.789V74.1344L27.8008 65.4071L51.8992 74.1344L75.9975 65.4071L100.096 74.1344L75.9975 82.8618L51.8992 74.1344V104.789L27.8008 96.0618L3.70249 104.789ZM100.096 108.455L114.278 113.604L100.096 118.753L85.914 113.604L100.096 108.455ZM66.0484 113.56L51.8665 118.709L37.6845 113.56L51.8992 108.455L66.0484 113.56ZM51.8665 152.975L27.779 144.248L3.68067 152.975V122.331L27.779 113.604L51.8774 122.331L51.8665 152.975ZM75.9757 131.157L51.8774 122.429L75.9757 113.702L100.074 122.429L75.9757 131.157ZM148.271 122.429V153.084L124.183 144.357L100.085 153.084V122.331L124.183 113.604L148.271 122.429ZM148.271 74.2326V104.887L124.183 96.16L100.085 104.887V74.1344L124.183 65.4071L148.271 74.2326ZM124.194 34.7087L100.096 25.9814L124.194 17.254L148.293 25.9814L124.194 34.7087Z" fill="black"/>
<path d="M208.947 17.2852H254.351V27.7241H237.254V68.6899H225.968V27.7241H208.928L208.947 17.2852Z" fill="black"/>
<path d="M289.692 16.5352C305.247 16.5352 316.815 27.8205 316.815 42.9805C316.815 58.1405 305.247 69.4258 289.692 69.4258C274.137 69.4258 262.514 58.1405 262.514 42.9805C262.514 27.8205 274.062 16.5352 289.692 16.5352ZM305.172 42.9805C305.135 39.9181 304.193 36.9353 302.464 34.4075C300.734 31.8798 298.296 29.9202 295.455 28.7756C292.615 27.6311 289.499 27.3527 286.5 27.9756C283.502 28.5985 280.754 30.0947 278.605 32.2759C276.455 34.4571 274.998 37.2257 274.419 40.233C273.84 43.2402 274.163 46.3517 275.349 49.1755C276.534 51.9993 278.529 54.4092 281.081 56.1015C283.634 57.7939 286.63 58.6931 289.692 58.6859C291.749 58.7041 293.789 58.3086 295.69 57.5229C297.591 56.7372 299.315 55.5774 300.759 54.1123C302.203 52.6472 303.338 50.9068 304.096 48.9945C304.854 47.0822 305.22 45.037 305.172 42.9805Z" fill="black"/>
<path d="M332.746 17.2852H344.671L359.869 35.2853L375.048 17.2852H386.822V68.6899H375.856V31.4295L359.869 50.9155L343.787 31.5799V68.6899H332.746V17.2852Z" fill="black"/>
<path d="M429.427 27.2751C425.262 27.2751 421.267 28.9297 418.322 31.8751C415.376 34.8204 413.721 38.8151 413.721 42.9805C413.721 47.1458 415.376 51.1406 418.322 54.0859C421.267 57.0313 425.262 58.6859 429.427 58.6859C432.131 58.6975 434.796 58.0325 437.177 56.7513C439.559 55.4701 441.583 53.6135 443.064 51.3505L451.133 58.3285C448.739 61.8716 445.485 64.7486 441.675 66.6897C437.866 68.6308 433.625 69.5722 429.352 69.4258C414.022 69.4258 402.098 58.8364 402.098 42.9805C402.098 27.1246 414.982 16.5352 429.276 16.5352C441.427 16.5352 448.33 22.9866 451.133 27.6512L443.064 34.6105C441.583 32.3475 439.559 30.4909 437.177 29.2097C434.796 27.9285 432.131 27.2635 429.427 27.2751V27.2751Z" fill="black"/>
<path d="M465.596 68.6899V17.2852H476.881V68.6899H465.596ZM495.521 17.2852H508.029L490.028 39.649L511.301 68.6899H497.966L476.919 40.1756L495.521 17.2852Z" fill="black"/>
<path d="M535.449 51.5738L559.448 17.2852H570.734V68.6899H559.542V34.1756L535.467 68.6899H524.182V17.2852H535.373L535.449 51.5738Z" fill="black"/>
<path d="M601.47 51.5751L625.471 17.2864H636.756V68.6912H625.583V34.1768L601.508 68.6912H590.223V17.2864H601.414L601.47 51.5751ZM608.862 0.791016C608.798 1.43763 608.865 2.09059 609.061 2.71031C609.256 3.33002 609.576 3.90358 610 4.39609C610.423 4.88861 610.943 5.28984 611.527 5.57544C612.111 5.86104 612.746 6.02502 613.395 6.05749C614.045 6.01947 614.68 5.85229 615.264 5.56568C615.848 5.27908 616.369 4.87885 616.796 4.3884C617.224 3.89796 617.549 3.32715 617.753 2.70945C617.957 2.09174 618.036 1.43954 617.985 0.791016H626.204C626.204 8.5779 620.656 13.3178 613.395 13.3178C606.135 13.3178 600.492 8.5779 600.492 0.791016H608.862Z" fill="black"/>
<path d="M261.463 160.854H250.178V119.888H226.535V160.854H215.25V109.449H261.463V160.854Z" fill="black"/>
<path d="M303.407 108.699C318.962 108.699 330.511 119.985 330.511 135.145C330.511 150.305 318.962 161.59 303.407 161.59C287.852 161.59 276.229 150.305 276.229 135.145C276.229 119.985 287.852 108.699 303.407 108.699ZM318.887 135.145C318.85 132.082 317.907 129.099 316.178 126.572C314.449 124.044 312.011 122.084 309.17 120.94C306.329 119.795 303.213 119.517 300.215 120.14C297.216 120.763 294.469 122.259 292.319 124.44C290.169 126.621 288.713 129.39 288.134 132.397C287.554 135.404 287.878 138.516 289.063 141.34C290.249 144.163 292.243 146.573 294.796 148.266C297.348 149.958 300.345 150.857 303.407 150.85C305.471 150.878 307.518 150.49 309.428 149.709C311.338 148.928 313.071 147.77 314.523 146.304C315.975 144.838 317.117 143.094 317.879 141.176C318.642 139.259 319.011 137.207 318.962 135.145H318.887Z" fill="black"/>
<path d="M338.896 161.23V150.848H341.793C346.307 150.848 348.602 148.703 348.602 142.703V109.449H388.609V160.854H377.323V119.813H359.398V143.437C359.398 154.12 354.733 161.23 343.034 161.23H338.896Z" fill="black"/>
<path d="M419.361 143.738L443.361 109.449H454.646V160.854H443.474V126.34L419.399 160.854H408.113V109.449H419.399L419.361 143.738Z" fill="black"/>
<path d="M469.376 109.449H514.781V119.888H497.665V160.854H486.38V119.888H469.357L469.376 109.449Z" fill="black"/>
<path d="M529.527 109.449H568.499V119.813H540.869V129.819H560.337V139.863H540.869V150.547H568.782V160.91H529.527V109.449Z" fill="black"/>
<path d="M607.094 126.923L620.129 109.449H633.013L614.053 134.785L633.84 160.854H619.978L606.135 142.929L592.348 160.854H579.389L599.176 134.785L580.122 109.449H593.834L607.094 126.923Z" fill="black"/>
</svg>
