<svg width="361" height="316" viewBox="0 0 361 316" fill="none" xmlns="http://www.w3.org/2000/svg">
<path d="M259.888 208.91V173.488L232.386 163.484L208.287 172.212L184.189 163.484L160.091 172.212L135.992 163.484L108.49 173.488V208.91L126.043 215.303L108.49 221.685V257.107L126.043 263.5L108.49 269.881V305.304L135.992 315.307L160.091 306.58L184.189 315.307L208.287 306.58L232.386 315.307L259.888 305.304V269.881L242.335 263.5L259.888 257.107V221.685L242.335 215.303L259.888 208.91ZM208.287 210.154L222.469 215.303L208.287 220.452L194.105 215.303L208.287 210.154ZM184.189 167.106L208.287 175.834L184.189 184.561L160.091 175.834L184.189 167.106ZM160.091 210.154L174.272 215.303L160.091 220.452L145.909 215.303L160.091 210.154ZM111.894 175.877L135.992 167.15L160.08 175.877L135.992 184.605L111.894 175.877ZM111.894 254.729V224.074L135.992 215.347L160.091 224.074L184.189 215.347L208.287 224.074L184.189 232.801L160.091 224.074V254.729L135.992 246.001L111.894 254.729ZM208.287 258.394L222.469 263.543L208.287 268.692L194.105 263.543L208.287 258.394ZM174.24 263.5L160.058 268.649L145.876 263.5L160.091 258.394L174.24 263.5ZM160.058 302.914L135.97 294.187L111.872 302.914V272.271L135.97 263.543L160.069 272.271L160.058 302.914ZM184.167 281.096L160.069 272.369L184.167 263.641L208.265 272.369L184.167 281.096ZM256.462 272.369V303.024L232.375 294.296L208.276 303.024V272.271L232.375 263.543L256.462 272.369ZM256.462 224.172V254.827L232.375 246.099L208.276 254.827V224.074L232.375 215.347L256.462 224.172ZM232.386 184.648L208.287 175.921L232.386 167.193L256.484 175.921L232.386 184.648Z" fill="black"/>
<path d="M57.9309 1.38867H95.7556V10.0031H81.4986V44.1225H72.0941V10.0031H57.9121L57.9309 1.38867Z" fill="black"/>
<path d="M125.196 0.769531C138.155 0.769531 147.766 10.1741 147.766 22.7949C147.766 35.4157 138.155 44.8201 125.196 44.8201C112.236 44.8201 102.625 35.4157 102.625 22.7949C102.625 10.1741 112.161 0.769531 125.196 0.769531ZM138.08 22.7949C138.032 20.2486 137.232 17.7732 135.781 15.6798C134.331 13.5865 132.294 11.9685 129.927 11.029C127.56 10.0895 124.968 9.87054 122.477 10.3995C119.986 10.9284 117.706 12.1817 115.925 14.0019C114.144 15.8221 112.94 18.1281 112.465 20.6302C111.99 23.1323 112.265 25.7189 113.256 28.0652C114.247 30.4114 115.908 32.4125 118.033 33.8174C120.157 35.2222 122.649 35.9681 125.196 35.9612C126.917 35.9798 128.624 35.6498 130.214 34.9911C131.804 34.3324 133.245 33.3586 134.449 32.1284C135.652 30.8982 136.595 29.4371 137.219 27.833C137.843 26.2289 138.136 24.5152 138.08 22.7949V22.7949Z" fill="black"/>
<path d="M160.422 1.38867H170.353L183.011 16.4358L195.651 1.38867H205.469V44.1978H196.328V13.1631L183.011 29.3952L169.619 13.2946V44.1978H160.422V1.38867Z" fill="black"/>
<path d="M236.017 8.97105C232.255 8.97105 229.546 10.7017 229.546 13.1656C229.546 15.6296 232.255 16.6263 235.038 17.4351L240.681 18.9775C247.415 20.8584 252.85 24.0371 252.85 31.429C252.85 39.5733 245.063 44.8209 236.054 44.8209C226.65 44.8209 220.443 40.5137 218.035 35.8867L224.148 30.244C225.423 32.2301 227.188 33.8534 229.274 34.9573C231.36 36.0611 233.695 36.608 236.054 36.545C240.004 36.545 243.032 35.0591 243.032 32.1626C243.032 29.6422 240.813 28.5887 237.841 27.78L231.747 26.1812C225.69 24.6389 219.709 21.8552 219.709 14.2C219.709 6.18738 227.552 0.695312 236.637 0.695312C244.951 0.695312 250.875 4.70149 253.283 9.27205L247.302 15.0651C246.11 13.1588 244.443 11.5949 242.464 10.5266C240.486 9.45829 238.264 8.92228 236.017 8.97105V8.97105Z" fill="black"/>
<path d="M266.691 44.1978V1.38867H276.096V44.1978H266.691ZM291.613 1.38867H302.033L286.986 20.0093L304.704 44.1978H293.588L276.077 20.3856L291.613 1.38867Z" fill="black"/>
<path d="M0.339844 79.1816H17.2679C26.1645 79.1816 32.8793 84.1848 32.8793 93.2507C32.8793 102.317 26.0328 107.207 17.2679 107.207H9.7443V122.01H0.339844V79.1816ZM23.0986 93.2507C23.0986 89.9967 20.6347 87.608 16.8165 87.608H9.7443V98.8933H16.7788C17.5761 98.9924 18.3853 98.9203 19.1524 98.6814C19.9195 98.4426 20.6268 98.0426 21.2269 97.5084C21.8269 96.9742 22.306 96.3179 22.632 95.5836C22.9581 94.8494 23.1235 94.054 23.1174 93.2507H23.0986Z" fill="black"/>
<path d="M64.4594 78.584C77.4187 78.584 87.03 87.9886 87.03 100.609C87.03 113.23 77.3999 122.635 64.4594 122.635C51.5188 122.635 41.8887 113.23 41.8887 100.609C41.8887 87.9886 51.4436 78.584 64.4594 78.584ZM77.3622 100.609C77.3362 98.0541 76.5544 95.5637 75.1151 93.4523C73.6758 91.3408 71.6435 89.7027 69.2745 88.7445C66.9056 87.7864 64.306 87.5512 61.8036 88.0683C59.3011 88.5855 57.0077 89.8319 55.2126 91.6506C53.4175 93.4692 52.2012 95.7786 51.7167 98.2876C51.2323 100.797 51.5013 103.393 52.4903 105.749C53.4792 108.105 55.1437 110.116 57.2738 111.528C59.4038 112.939 61.904 113.689 64.4594 113.681C66.1803 113.71 67.8894 113.39 69.4839 112.742C71.0785 112.095 72.5258 111.132 73.7394 109.911C74.9529 108.69 75.9078 107.237 76.5465 105.639C77.1851 104.041 77.4946 102.33 77.4564 100.609H77.3622Z" fill="black"/>
<path d="M109.149 113.32H128.88V122.01H99.707V79.1816H109.111L109.149 113.32Z" fill="black"/>
<path d="M140.429 79.1816L151.038 96.4104L161.589 79.1816H172.028L155.796 105.721V122.01H146.392V105.928L130.047 79.2567L140.429 79.1816Z" fill="black"/>
<path d="M177.706 79.1816H215.531V87.8902H201.274V122.01H191.869V87.8902H177.688L177.706 79.1816Z" fill="black"/>
<path d="M227.814 79.1816H260.26V87.8337H237.332V96.1661H253.545V104.48H237.332V113.451H260.58V122.085H227.89L227.814 79.1816Z" fill="black"/>
<path d="M292.178 87.5182C290.335 87.3082 288.468 87.49 286.701 88.0516C284.933 88.6132 283.304 89.5421 281.92 90.7772C280.536 92.0122 279.429 93.5256 278.671 95.2183C277.913 96.9111 277.521 98.7452 277.521 100.6C277.521 102.455 277.913 104.289 278.671 105.981C279.429 107.674 280.536 109.188 281.92 110.423C283.304 111.658 284.933 112.587 286.701 113.148C288.468 113.71 290.335 113.891 292.178 113.681C294.419 113.682 296.625 113.123 298.595 112.056C300.566 110.988 302.239 109.446 303.463 107.569L310.197 113.38C308.201 116.332 305.489 118.729 302.314 120.348C299.14 121.966 295.607 122.753 292.046 122.635C279.275 122.635 269.344 113.813 269.344 100.609C269.344 87.4055 280.084 78.584 291.914 78.584C302.034 78.584 307.77 83.9446 310.121 87.838L303.388 93.6311C302.171 91.7642 300.51 90.2286 298.553 89.1617C296.597 88.0948 294.406 87.5301 292.178 87.5182V87.5182Z" fill="black"/>
<path d="M360.852 79.1816V122.01H351.448V104.611H331.774V122.01H322.369V79.1816H331.774V95.9779H351.448V79.1816H360.852Z" fill="black"/>
</svg>
