<svg width="1056" height="149" viewBox="0 0 1056 149" fill="none" xmlns="http://www.w3.org/2000/svg">
<path d="M486.333 26.2169L463.782 18.0074L486.333 9.79801L508.855 18.0074L486.333 26.2169ZM508.855 63.0993V91.7724L486.333 83.563L463.811 91.7724V63.0993L486.363 54.8899L508.855 63.0993ZM508.855 108.041V136.744L486.333 128.535L463.811 136.744V108.041L486.363 99.862L508.855 108.041ZM441.26 116.251L418.738 108.041L441.26 99.862L463.782 108.071L441.26 116.251ZM418.708 136.744L396.186 128.535L373.664 136.744V108.041L396.186 99.862L418.738 108.041L418.708 136.744ZM431.945 99.862L418.708 104.656L405.5 99.862L418.708 95.0382L431.945 99.862ZM463.782 95.1281L477.019 99.9519L463.782 104.746L450.574 99.9519L463.782 95.1281ZM373.664 91.7424V63.0694L396.186 54.8599L418.738 63.0694L441.26 54.8599L463.782 63.0694L441.26 71.159L418.738 62.9495V91.6226L396.186 83.4132L373.664 91.7424ZM373.664 17.9775L396.186 9.76806L418.708 17.9775L396.186 26.2169L373.664 17.9775ZM418.738 50.0362L431.945 54.8599L418.738 59.6837L405.5 54.8599L418.738 50.0362ZM441.26 9.76806L463.782 17.9775L441.26 26.2169L418.738 18.0074L441.26 9.76806ZM463.782 50.0362L477.019 54.8599L463.782 59.6837L450.574 54.8599L463.782 50.0362ZM512.03 48.8677V15.9101L486.333 6.53223L463.782 14.7416L441.26 6.53223L418.708 14.7416L396.186 6.53223L370.459 15.9101V48.8677L386.871 54.8599L370.459 60.8522V93.9895L386.901 99.9818L370.459 105.974V139.111L396.186 148.459L418.708 140.28L441.26 148.459L463.782 140.28L486.333 148.459L512.03 139.111V105.824L495.618 99.832L512.03 93.8397V60.7324L495.618 54.7401L512.03 48.8677Z" fill="#1D1D1B"/>
<path d="M159.465 15.012H168.599V36.9737H174.649V15.012H183.814V9.40918H159.465V15.012Z" fill="#1D1D1B"/>
<path d="M202.771 31.6105C201.1 31.6342 199.46 31.16 198.06 30.2481C196.66 29.3363 195.562 28.0281 194.908 26.4902C194.253 24.9522 194.071 23.2542 194.385 21.6124C194.698 19.9706 195.493 18.4593 196.668 17.2711C197.843 16.0828 199.345 15.2713 200.983 14.94C202.621 14.6087 204.32 14.7726 205.864 15.4108C207.408 16.0489 208.728 17.1325 209.654 18.5234C210.581 19.9144 211.073 21.5498 211.067 23.2213C211.095 24.3245 210.901 25.422 210.495 26.4484C210.09 27.4747 209.482 28.4088 208.708 29.1947C207.933 29.9806 207.008 30.6022 205.988 31.0225C204.968 31.4427 203.874 31.6528 202.771 31.6404M202.771 9.04951C199.977 9.1144 197.264 10.0029 194.973 11.6037C192.681 13.2044 190.913 15.4462 189.89 18.0479C188.867 20.6497 188.634 23.4958 189.221 26.2294C189.808 28.9629 191.188 31.4624 193.189 33.4145C195.19 35.3666 197.722 36.6844 200.468 37.2028C203.215 37.7213 206.053 37.4172 208.627 36.3287C211.201 35.2402 213.397 33.4158 214.939 31.0841C216.482 28.7524 217.302 26.0172 217.296 23.2213C217.322 21.3225 216.961 19.4383 216.236 17.6835C215.51 15.9286 214.435 14.3399 213.076 13.0141C211.718 11.6882 210.103 10.653 208.331 9.9714C206.56 9.28982 204.668 8.97614 202.771 9.04951" fill="#1D1D1B"/>
<path d="M239.969 19.0568L231.823 9.40918H225.443V36.9737H231.343V17.0793L239.969 27.446L248.564 17.0194V36.9737H254.434V9.40918H248.115L239.969 19.0568Z" fill="#1D1D1B"/>
<path d="M274.08 14.2329C275.525 14.2162 276.949 14.5745 278.214 15.2729C279.479 15.9713 280.542 16.986 281.298 18.2178L285.161 14.4726C284.035 12.6744 282.444 11.2133 280.557 10.2431C278.67 9.27291 276.557 8.82956 274.439 8.95972C268.629 8.95972 263.598 12.4952 263.598 17.6485C263.598 22.8019 267.461 24.3599 271.355 25.3786L275.278 26.3973C277.195 26.9066 278.602 27.5957 278.602 29.2136C278.602 30.8315 276.656 32.03 274.11 32.03C272.592 32.0746 271.088 31.7255 269.744 31.0168C268.401 30.308 267.264 29.2637 266.443 27.9852L262.52 31.6106C263.741 33.54 265.466 35.0986 267.509 36.1178C269.552 37.1371 271.835 37.578 274.11 37.3931C279.92 37.3931 284.922 34.0075 284.922 28.7642C284.922 24.0003 281.418 21.903 277.105 20.7346L273.451 19.7458C271.654 19.2365 269.917 18.6373 269.917 17.0193C269.917 15.4014 271.624 14.2928 274.08 14.2928" fill="#1D1D1B"/>
<path d="M293.816 9.40918V36.9737H299.896V21.6634V9.40918H293.816Z" fill="#1D1D1B"/>
<path d="M306.935 21.4237L316.578 9.40918H309.87L299.896 21.6634L311.187 36.9737H318.315L306.935 21.4237Z" fill="#1D1D1B"/>
<path d="M10.7349 76.3427H6.12271V69.062H10.7349C11.2398 69.0032 11.7514 69.0512 12.2365 69.2031C12.7216 69.3549 13.1694 69.6072 13.5507 69.9434C13.932 70.2797 14.2383 70.6924 14.4498 71.1548C14.6613 71.6172 14.7731 72.119 14.7781 72.6274C14.7848 73.1457 14.6821 73.6596 14.4768 74.1354C14.2715 74.6113 13.9681 75.0385 13.5866 75.3891C13.205 75.7397 12.7538 76.0059 12.2624 76.1702C11.771 76.3345 11.2505 76.3933 10.7349 76.3427M10.9745 63.5791H0.132812V91.1436H6.12271V81.6159H10.9745C16.605 81.6159 21.0375 78.4399 21.0375 72.6274C21.0375 66.8149 16.6949 63.639 10.9745 63.639" fill="#1D1D1B"/>
<path d="M41.1934 85.7803C39.5241 85.8041 37.8853 85.3306 36.4857 84.4201C35.086 83.5096 33.9888 82.2031 33.3334 80.667C32.678 79.1308 32.4941 77.4344 32.8052 75.7934C33.1163 74.1524 33.9082 72.6411 35.0803 71.4516C36.2523 70.2622 37.7516 69.4483 39.3872 69.1137C41.0229 68.779 42.7212 68.9386 44.266 69.5721C45.8107 70.2057 47.1322 71.2846 48.0624 72.6716C48.9925 74.0586 49.4893 75.691 49.4894 77.3612C49.5177 78.4644 49.3233 79.562 48.9179 80.5883C48.5125 81.6147 47.9045 82.5487 47.1301 83.3346C46.3556 84.1205 45.4308 84.7422 44.4108 85.1624C43.3907 85.5826 42.2965 85.7928 41.1934 85.7803ZM41.1934 63.1895C37.4364 63.1895 33.8332 64.6826 31.1765 67.3403C28.5198 69.998 27.0273 73.6026 27.0273 77.3612C27.0273 81.1198 28.5198 84.7244 31.1765 87.3821C33.8332 90.0398 37.4364 91.533 41.1934 91.533C44.9505 91.533 48.5537 90.0398 51.2104 87.3821C53.867 84.7244 55.3595 81.1198 55.3595 77.3612C55.3595 73.6026 53.867 69.998 51.2104 67.3403C48.5537 64.6826 44.9505 63.1895 41.1934 63.1895" fill="#1D1D1B"/>
<path d="M69.5563 63.5791H63.4766V91.1436H82.2549V85.5408H69.5563V63.5791Z" fill="#1D1D1B"/>
<path d="M96.5098 74.6648L89.6813 63.5791H82.9727L93.5149 80.747V91.1436H99.5647V80.6571L110.017 63.5791H103.308L96.5098 74.6648Z" fill="#1D1D1B"/>
<path d="M113.672 69.1819H122.806V91.1436H128.856V69.1819H138.021V63.5791H113.672V69.1819Z" fill="#1D1D1B"/>
<path d="M152.007 79.8781H162.46V74.515H152.007V69.1519H166.832V63.5791H145.928V91.1436H166.982V85.5708H152.007V79.8781Z" fill="#1D1D1B"/>
<path d="M187.346 68.9424C188.82 68.9125 190.276 69.2569 191.581 69.9433C192.885 70.6297 193.994 71.6357 194.804 72.8673L199.146 69.1521C197.881 67.2166 196.132 65.6455 194.073 64.5944C192.013 63.5434 189.715 63.0488 187.406 63.1598C185.513 63.1078 183.629 63.4358 181.865 64.1247C180.101 64.8135 178.493 65.8492 177.137 67.1704C175.78 68.4916 174.701 70.0715 173.965 71.8168C173.229 73.5621 172.85 75.4373 172.851 77.3316C172.811 79.2419 173.165 81.1399 173.892 82.9071C174.618 84.6742 175.701 86.2726 177.072 87.6025C178.444 88.9323 180.075 89.965 181.863 90.6362C183.651 91.3074 185.559 91.6025 187.466 91.5033C189.76 91.5691 192.033 91.0544 194.075 90.0069C196.117 88.9593 197.861 87.4129 199.146 85.511L194.804 81.8557C194.007 83.0658 192.922 84.0584 191.646 84.7436C190.371 85.4289 188.944 85.7853 187.496 85.7807C185.264 85.7807 183.123 84.8937 181.545 83.3148C179.967 81.7359 179.08 79.5944 179.08 77.3615C179.08 75.1286 179.967 72.9872 181.545 71.4083C183.123 69.8294 185.264 68.9424 187.496 68.9424" fill="#1D1D1B"/>
<path d="M225.502 74.3952H212.834V63.5791H206.754V91.1436H212.834V79.938H225.502V91.1436H231.552V63.5791H225.502V74.3952Z" fill="#1D1D1B"/>
<path d="M261.053 81.1365L248.115 63.5791H242.035V91.1436H247.965V72.7473L261.592 91.1436H266.983V63.5791H261.053V81.1365Z" fill="#1D1D1B"/>
<path d="M283.545 63.5791H277.465V91.1436H283.545V63.5791Z" fill="#1D1D1B"/>
<path d="M306.696 85.7807C304.464 85.7807 302.323 84.8937 300.745 83.3148C299.167 81.7359 298.28 79.5944 298.28 77.3615C298.28 75.1286 299.167 72.9872 300.745 71.4083C302.323 69.8294 304.464 68.9424 306.696 68.9424C308.144 68.9377 309.57 69.2942 310.846 69.9794C312.122 70.6647 313.207 71.6572 314.003 72.8673L318.316 69.1521C317.06 67.2147 315.317 65.6415 313.262 64.5898C311.207 63.5382 308.912 63.0451 306.606 63.1598C304.712 63.1078 302.826 63.4358 301.061 64.1243C299.295 64.8128 297.685 65.8479 296.326 67.1687C294.967 68.4895 293.885 70.0692 293.146 71.8146C292.406 73.56 292.024 75.4359 292.021 77.3316C291.981 79.2419 292.335 81.1399 293.062 82.9071C293.788 84.6742 294.871 86.2726 296.242 87.6025C297.614 88.9323 299.245 89.9651 301.033 90.6362C302.821 91.3074 304.729 91.6026 306.636 91.5033C308.931 91.5776 311.207 91.0665 313.251 90.0182C315.294 88.97 317.037 87.4189 318.316 85.511L314.003 81.7659C313.207 82.976 312.122 83.9685 310.846 84.6537C309.57 85.339 308.144 85.6954 306.696 85.6908" fill="#1D1D1B"/>
<path d="M61.29 133.479C61.379 134.346 61.2779 135.222 60.9937 136.045C60.7095 136.869 60.2491 137.621 59.6446 138.249C59.0402 138.876 58.3061 139.364 57.4937 139.679C56.6813 139.994 55.81 140.127 54.9407 140.07C54.0797 140.125 53.217 139.994 52.4115 139.684C51.6061 139.375 50.877 138.895 50.2741 138.278C49.6711 137.66 49.2086 136.92 48.9182 136.107C48.6278 135.294 48.5164 134.428 48.5915 133.569V117.839H42.6016V133.838C42.6016 141.418 47.6031 145.823 55.0306 145.823C56.6624 145.982 58.3094 145.785 59.8576 145.245C61.4058 144.705 62.8183 143.836 63.9975 142.696C65.1766 141.556 66.0942 140.174 66.6868 138.644C67.2794 137.115 67.5329 135.475 67.4297 133.838V117.839H61.4398L61.29 133.479Z" fill="#1D1D1B"/>
<path d="M96.6292 135.306L83.6911 117.749H77.6113V145.313H83.5413V126.917L97.1683 145.313H102.559V117.749H96.6292V135.306Z" fill="#1D1D1B"/>
<path d="M119.123 117.749H113.043V145.313H119.123V117.749Z" fill="#1D1D1B"/>
<path d="M140.087 137.164L132.809 117.749H126.34L136.942 145.313H143.141L153.833 117.749H147.364L140.087 137.164Z" fill="#1D1D1B"/>
<path d="M167.131 134.018H177.583V128.655H167.131V123.322H181.956V117.749H161.051V145.313H182.105V139.741H167.131V134.018Z" fill="#1D1D1B"/>
<path d="M201.573 130.483H197.02V123.233H201.573C204.178 123.233 205.736 124.701 205.736 126.798C205.735 127.324 205.624 127.843 205.408 128.322C205.192 128.801 204.877 129.229 204.483 129.578C204.09 129.926 203.627 130.187 203.125 130.343C202.623 130.499 202.094 130.547 201.573 130.483ZM211.965 126.798C211.965 120.956 207.712 117.81 201.812 117.81H190.971V145.374H196.961V135.846H201.064L207.712 145.374H214.661L207.113 134.618C208.585 133.937 209.824 132.838 210.676 131.459C211.528 130.079 211.955 128.479 211.905 126.858" fill="#1D1D1B"/>
<path d="M229.994 122.633C231.444 122.611 232.875 122.967 234.145 123.666C235.416 124.365 236.483 125.382 237.242 126.618L241.075 122.873C239.951 121.073 238.361 119.61 236.473 118.639C234.586 117.669 232.471 117.227 230.353 117.36C224.543 117.36 219.512 120.896 219.512 126.049C219.512 131.202 223.375 132.76 227.269 133.749L231.192 134.798C233.109 135.307 234.516 135.966 234.516 137.614C234.516 139.262 232.57 140.43 230.024 140.43C228.509 140.458 227.011 140.101 225.671 139.394C224.33 138.687 223.19 137.652 222.357 136.386L218.434 140.071C219.666 141.988 221.394 143.535 223.435 144.548C225.476 145.561 227.753 146.002 230.024 145.824C235.834 145.824 240.836 142.438 240.836 137.195C240.836 132.431 237.362 130.333 233.019 129.195L229.365 128.086C227.568 127.547 225.831 126.948 225.831 125.33C225.831 123.712 227.538 122.633 229.994 122.633Z" fill="#1D1D1B"/>
<path d="M255.422 117.749H249.342V145.313H255.422V117.749Z" fill="#1D1D1B"/>
<path d="M263.27 123.352H272.404V145.313H278.454V123.352H287.618V117.749H263.27V123.352Z" fill="#1D1D1B"/>
<path d="M311.607 117.749L304.809 128.835L297.98 117.749H291.271L301.814 134.917V145.313H307.863V134.827L318.316 117.749H311.607Z" fill="#1D1D1B"/>
<path d="M564.83 9.40918H589.179V15.012H579.985V36.9737H573.965V15.012H564.83V9.40918Z" fill="#1D1D1B"/>
<path d="M616.403 23.2214C616.391 21.5754 615.892 19.9698 614.968 18.6073C614.045 17.2448 612.739 16.1866 611.215 15.5663C609.691 14.9459 608.017 14.7913 606.405 15.1218C604.793 15.4524 603.315 16.2533 602.158 17.4236C601.001 18.5938 600.216 20.0807 599.903 21.6968C599.59 23.3128 599.763 24.9854 600.399 26.5033C601.036 28.0213 602.107 29.3165 603.479 30.2255C604.851 31.1345 606.461 31.6165 608.107 31.6106C609.207 31.623 610.299 31.4137 611.317 30.9953C612.335 30.577 613.258 29.958 614.032 29.1753C614.806 28.3926 615.415 27.4622 615.822 26.4393C616.229 25.4165 616.427 24.3222 616.403 23.2214M608.107 9.01975C610.897 9.09632 613.602 9.99386 615.885 11.6002C618.167 13.2065 619.926 15.4503 620.941 18.0512C621.956 20.652 622.182 23.4944 621.592 26.2231C621.001 28.9519 619.619 31.4458 617.619 33.3931C615.619 35.3405 613.089 36.6549 610.347 37.1721C607.604 37.6892 604.77 37.3862 602.199 36.3008C599.627 35.2154 597.433 33.3958 595.889 31.0695C594.346 28.7432 593.522 26.0135 593.521 23.2214C593.491 21.3149 593.85 19.4223 594.578 17.6597C595.305 15.8972 596.385 14.302 597.751 12.9721C599.117 11.6421 600.74 10.6055 602.521 9.92585C604.301 9.24619 606.202 8.93785 608.107 9.01975" fill="#1D1D1B"/>
<path d="M631.168 9.40918H637.577L645.723 19.0568L653.87 9.40918H660.189V36.9737H654.289V17.0194L645.723 27.446L637.098 17.0793V36.9737H631.168V9.40918Z" fill="#1D1D1B"/>
<path d="M682.981 14.7718C680.749 14.7718 678.608 15.6588 677.03 17.2377C675.452 18.8166 674.565 20.958 674.565 23.1909C674.565 25.4238 675.452 27.5653 677.03 29.1442C678.608 30.7231 680.749 31.6101 682.981 31.6101C684.429 31.6148 685.856 31.2583 687.131 30.5731C688.407 29.8878 689.492 28.8952 690.289 27.6852L694.601 31.4303C693.322 33.3382 691.579 34.8893 689.536 35.9375C687.492 36.9858 685.216 37.4969 682.921 37.4226C681.012 37.5176 679.104 37.2185 677.316 36.5439C675.527 35.8693 673.897 34.8337 672.526 33.5015C671.155 32.1693 670.073 30.5691 669.347 28.8004C668.621 27.0318 668.266 25.1325 668.306 23.2209C668.305 21.3149 668.687 19.4281 669.43 17.6731C670.173 15.9181 671.262 14.3307 672.632 13.0054C674.001 11.6802 675.623 10.6443 677.401 9.95949C679.179 9.27465 681.077 8.95488 682.981 9.01922C685.286 8.90446 687.582 9.39758 689.637 10.4492C691.692 11.5009 693.435 13.0741 694.691 15.0115L690.378 18.7567C689.581 17.5226 688.485 16.5103 687.191 15.8136C685.898 15.1169 684.45 14.7586 682.981 14.7718" fill="#1D1D1B"/>
<path d="M718.442 9.40918H725.15L715.507 21.3937L726.887 36.9437H719.759L708.468 21.6334L718.442 9.40918ZM702.389 9.40918H708.379V36.9737H702.389V9.40918Z" fill="#1D1D1B"/>
<path d="M739.854 27.8055L752.702 9.40918H758.782V36.9737H752.792V18.4875L739.884 36.9737H733.834V9.40918H739.854V27.8055Z" fill="#1D1D1B"/>
<path d="M779.208 0.600586C779.171 0.947094 779.205 1.29757 779.309 1.63028C779.413 1.96299 779.583 2.27086 779.811 2.53487C780.038 2.79887 780.317 3.01338 780.631 3.16511C780.945 3.31683 781.286 3.40256 781.634 3.41696C781.982 3.39811 782.322 3.30969 782.635 3.15695C782.948 3.0042 783.228 2.79023 783.457 2.52767C783.686 2.26511 783.86 1.95929 783.968 1.62829C784.077 1.2973 784.119 0.94784 784.09 0.600586H788.493C788.493 2.42822 787.767 4.18102 786.475 5.47336C785.183 6.76569 783.431 7.49172 781.604 7.49172C779.777 7.49172 778.025 6.76569 776.733 5.47336C775.441 4.18102 774.716 2.42822 774.716 0.600586H779.208ZM775.225 27.8055L788.103 9.40924H794.093V36.9737H788.103V18.4875L775.195 36.9737H769.205V9.40924H775.195L775.225 27.8055Z" fill="#1D1D1B"/>
<path d="M592.982 91.1436H586.962V69.1819H574.263V91.1436H568.184V63.5791H592.982V91.1436Z" fill="#1D1D1B"/>
<path d="M623.801 77.3618C623.783 75.7171 623.279 74.1145 622.352 72.756C621.425 71.3975 620.117 70.3439 618.593 69.7282C617.068 69.1124 615.395 68.962 613.785 69.2959C612.176 69.6298 610.701 70.4331 609.546 71.6044C608.392 72.7758 607.61 74.2628 607.3 75.8779C606.989 77.4931 607.163 79.1642 607.801 80.6804C608.438 82.1966 609.51 83.4901 610.881 84.3978C612.252 85.3055 613.861 85.7868 615.505 85.7809C616.607 85.7892 617.699 85.5762 618.718 85.1545C619.736 84.7329 620.659 84.1111 621.432 83.326C622.206 82.5409 622.814 81.6086 623.221 80.5841C623.628 79.5596 623.825 78.4639 623.801 77.3618M615.505 63.19C618.288 63.2725 620.984 64.1732 623.258 65.7796C625.532 67.3861 627.282 69.6271 628.29 72.2229C629.298 74.8186 629.52 77.6539 628.927 80.3748C628.334 83.0956 626.953 85.5814 624.956 87.5216C622.959 89.4618 620.435 90.7705 617.699 91.2841C614.963 91.7978 612.136 91.4937 609.572 90.4099C607.008 89.326 604.82 87.5104 603.281 85.1899C601.742 82.8693 600.921 80.1466 600.92 77.3618C600.889 75.4565 601.249 73.5652 601.976 71.8042C602.704 70.0432 603.784 68.4499 605.151 67.1223C606.517 65.7946 608.141 64.7609 609.921 64.0846C611.702 63.4084 613.602 63.1039 615.505 63.19" fill="#1D1D1B"/>
<path d="M634.463 91.3537V85.7809H636.02C638.446 85.7809 639.674 84.6424 639.674 81.4065V63.4297H661.148V90.9942H655.158V69.0025H645.544V81.6762C645.544 87.3988 643.028 91.2039 636.769 91.2039L634.463 91.3537Z" fill="#1D1D1B"/>
<path d="M677.619 81.9754L690.468 63.5791H696.548V91.1436H690.558V72.6274L677.649 91.1436H671.6V63.5791H677.619V81.9754Z" fill="#1D1D1B"/>
<path d="M704.424 63.5791H728.773V69.1819H719.578V91.1436H713.558V69.1819H704.424V63.5791Z" fill="#1D1D1B"/>
<path d="M736.65 63.5791H757.555V69.1519H742.73V74.515H753.183V79.8781H742.73V85.5708H757.705V91.1436H736.65V63.5791Z" fill="#1D1D1B"/>
<path d="M778.249 72.957L785.228 63.5791H792.146L781.993 77.1516L792.595 91.1436H785.168L777.74 81.526L770.343 91.1436H763.395L773.997 77.1516L763.784 63.5791H771.151L778.249 72.957Z" fill="#1D1D1B"/>
<path d="M824.671 63.5791V91.1436H818.651V79.938H805.953V91.1436H799.873V63.5791H805.953V74.3952H818.651V63.5791H824.671Z" fill="#1D1D1B"/>
<path d="M841.144 81.9754L854.022 63.5791H860.102V91.1436H854.112V72.6274L841.174 91.1436H835.154V63.5791H841.144V81.9754Z" fill="#1D1D1B"/>
<path d="M892.029 63.5791V91.1436H886.039V80.6271H878.372C873.46 80.6271 869.387 78.44 869.387 72.5975V63.6091H875.377V71.8784C875.377 74.3053 876.934 75.0843 879.27 75.0843H886.009V63.6091L892.029 63.5791Z" fill="#1D1D1B"/>
<path d="M902.51 63.5791H923.415V69.1519H908.59V74.515H919.042V79.8781H908.59V85.5708H923.564V91.1436H902.51V63.5791Z" fill="#1D1D1B"/>
<path d="M943.93 68.9423C941.698 68.9423 939.557 69.8294 937.979 71.4082C936.4 72.9871 935.514 75.1286 935.514 77.3615C935.514 79.5944 936.4 81.7358 937.979 83.3147C939.557 84.8936 941.698 85.7806 943.93 85.7806C945.378 85.7853 946.804 85.4289 948.08 84.7436C949.356 84.0583 950.441 83.0658 951.237 81.8557L955.58 85.6009C954.295 87.5027 952.55 89.0492 950.509 90.0967C948.467 91.1442 946.193 91.659 943.9 91.5931C941.992 91.6924 940.085 91.3972 938.297 90.726C936.508 90.0549 934.878 89.0222 933.506 87.6923C932.135 86.3625 931.052 84.7641 930.325 82.9969C929.599 81.2297 929.245 79.3317 929.284 77.4214C929.284 75.5271 929.662 73.6519 930.399 71.9066C931.135 70.1613 932.213 68.5814 933.57 67.2602C934.927 65.939 936.535 64.9034 938.299 64.2145C940.063 63.5257 941.947 63.1976 943.84 63.2497C946.149 63.1387 948.447 63.6332 950.506 64.6843C952.565 65.7354 954.314 67.3065 955.58 69.242L951.237 72.9572C950.441 71.7471 949.356 70.7546 948.08 70.0693C946.804 69.384 945.378 69.0276 943.93 69.0322" fill="#1D1D1B"/>
<path d="M979.481 63.5791H986.189L976.546 75.5637L987.956 91.1436H980.798L969.507 75.8034L979.481 63.5791ZM963.428 63.5791H969.418V91.1436H963.428V63.5791Z" fill="#1D1D1B"/>
<path d="M1000.8 81.9754L1013.68 63.5791H1019.76V91.1436H1013.74V72.6274L1000.83 91.1436H994.814V63.5791H1000.8V81.9754Z" fill="#1D1D1B"/>
<path d="M1040.16 54.7705C1040.13 55.1162 1040.16 55.465 1040.27 55.7958C1040.37 56.1267 1040.54 56.4329 1040.77 56.6959C1041 56.959 1041.28 57.1735 1041.59 57.3266C1041.9 57.4797 1042.24 57.5683 1042.58 57.5869C1042.93 57.568 1043.27 57.4796 1043.59 57.3269C1043.9 57.1741 1044.18 56.9602 1044.41 56.6976C1044.64 56.435 1044.81 56.1292 1044.92 55.7982C1045.03 55.4672 1045.07 55.1178 1045.04 54.7705H1049.44C1049.44 56.5981 1048.72 58.3509 1047.42 59.6433C1046.13 60.9356 1044.38 61.6616 1042.55 61.6616C1040.73 61.6616 1038.98 60.9356 1037.68 59.6433C1036.39 58.3509 1035.67 56.5981 1035.67 54.7705H1040.16ZM1036.17 81.9755L1049.05 63.5792H1055.04V91.1436H1049.05V72.6275L1036.38 91.1436H1030.39V63.5792H1036.38L1036.17 81.9755Z" fill="#1D1D1B"/>
<path d="M568.275 139.741H571.09C571.881 139.851 572.686 139.773 573.441 139.513C574.196 139.253 574.878 138.817 575.433 138.243L564.172 117.749H570.851L578.518 131.921L584.508 117.749H590.857L581.393 139.231C580.756 141.039 579.557 142.595 577.973 143.673C576.389 144.751 574.502 145.294 572.588 145.224H568.275V139.741Z" fill="#1D1D1B"/>
<path d="M623.052 117.749V145.313H617.002V134.108H604.334V145.313H598.254V117.749H604.334V128.565H617.002V117.749H623.052Z" fill="#1D1D1B"/>
<path d="M639.523 136.145L652.401 117.749H658.481V145.313H652.461V126.797L639.553 145.313H633.533V117.749H639.523V136.145Z" fill="#1D1D1B"/>
<path d="M680.435 140.281C682.681 140.281 684.628 139.232 684.628 136.895C684.628 134.558 682.681 133.539 680.435 133.539H674.984V140.281H680.435ZM679.596 122.753H674.984V128.985H679.596C680.051 129.05 680.514 129.015 680.954 128.885C681.394 128.755 681.801 128.532 682.147 128.231C682.494 127.93 682.771 127.558 682.962 127.14C683.152 126.722 683.25 126.268 683.25 125.809C683.25 123.862 681.783 122.813 679.596 122.813M668.904 117.81H680.495C686.125 117.81 689.48 120.806 689.48 125.09C689.494 126.377 689.094 127.633 688.339 128.675C687.584 129.716 686.513 130.487 685.287 130.873C686.842 131.085 688.266 131.862 689.287 133.055C690.308 134.248 690.856 135.774 690.827 137.344C690.827 142.378 686.784 145.374 680.974 145.374H668.994L668.904 117.81Z" fill="#1D1D1B"/>
<path d="M699.363 117.749H720.268V123.322H705.443V128.655H715.895V134.018H705.443V139.741H720.418V145.313H699.363V117.749Z" fill="#1D1D1B"/>
<path d="M743.928 126.798C743.924 126.29 743.812 125.788 743.6 125.325C743.389 124.863 743.082 124.45 742.701 124.114C742.32 123.778 741.872 123.525 741.387 123.374C740.902 123.222 740.39 123.174 739.885 123.233H735.363V130.483H739.885C740.398 130.534 740.916 130.476 741.406 130.313C741.895 130.151 742.345 129.887 742.726 129.54C743.107 129.192 743.411 128.769 743.618 128.297C743.825 127.824 743.931 127.314 743.928 126.798ZM729.283 117.81H740.125C745.845 117.81 750.158 121.015 750.158 126.798C750.158 132.581 745.755 135.786 740.125 135.786H735.363V145.314H729.373L729.283 117.81Z" fill="#1D1D1B"/>
<path d="M770.613 123.113C768.381 123.113 766.241 124 764.662 125.578C763.084 127.157 762.197 129.299 762.197 131.532C762.197 133.765 763.084 135.906 764.662 137.485C766.241 139.064 768.381 139.951 770.613 139.951C772.063 139.964 773.492 139.611 774.77 138.925C776.047 138.239 777.131 137.242 777.921 136.026L782.263 139.741C780.986 141.651 779.244 143.204 777.2 144.252C775.156 145.301 772.879 145.81 770.583 145.733C768.676 145.833 766.768 145.537 764.98 144.866C763.192 144.195 761.561 143.162 760.19 141.833C758.818 140.503 757.735 138.904 757.009 137.137C756.283 135.37 755.928 133.472 755.968 131.562C755.971 129.666 756.354 127.79 757.093 126.045C757.833 124.299 758.914 122.72 760.273 121.399C761.633 120.078 763.242 119.043 765.008 118.354C766.774 117.666 768.659 117.338 770.553 117.39C772.857 117.284 775.149 117.781 777.203 118.832C779.256 119.883 781.001 121.451 782.263 123.382L777.921 127.127C777.131 125.911 776.047 124.914 774.77 124.228C773.492 123.542 772.063 123.19 770.613 123.202" fill="#1D1D1B"/>
<path d="M796.041 136.145L808.919 117.749H814.969V145.313H808.979V126.797L796.071 145.313H790.051V117.749H796.041V136.145Z" fill="#1D1D1B"/>
<path d="M822.846 117.749H847.195V123.352H838V145.313H831.98V123.352H822.846V117.749Z" fill="#1D1D1B"/>
<path d="M855.1 117.749H875.974V123.322H861.179V128.655H871.602V134.018H861.179V139.741H876.154V145.313H855.1V117.749Z" fill="#1D1D1B"/>
<path d="M882.025 117.749H906.374V123.352H897.18V145.313H891.16V123.352H882.025V117.749Z" fill="#1D1D1B"/>
</svg>
