<svg width="758" height="407" viewBox="0 0 758 407" fill="none" xmlns="http://www.w3.org/2000/svg">
<path d="M197.755 14.666H235.58V23.3745H221.323V57.4939H211.918V23.3745H197.736L197.755 14.666Z" fill="black"/>
<path d="M265.014 14.0449C277.973 14.0449 287.585 23.4494 287.585 36.0702C287.585 48.691 277.973 58.1142 265.014 58.1142C252.055 58.1142 242.443 48.7098 242.443 36.0702C242.443 23.4306 251.979 14.0449 265.014 14.0449ZM277.898 36.0702C277.85 33.5239 277.051 31.0485 275.6 28.9552C274.15 26.8619 272.113 25.2439 269.746 24.3044C267.379 23.3649 264.786 23.1458 262.295 23.6747C259.804 24.2036 257.525 25.4569 255.743 27.2772C253.962 29.0974 252.758 31.4034 252.284 33.9055C251.809 36.4076 252.084 38.9943 253.075 41.3406C254.065 43.6868 255.727 45.6879 257.851 47.0928C259.975 48.4976 262.467 49.2434 265.014 49.2364C266.734 49.2525 268.44 48.9207 270.029 48.2611C271.618 47.6015 273.058 46.6277 274.261 45.3981C275.464 44.1684 276.407 42.7082 277.032 41.1053C277.657 39.5024 277.951 37.7898 277.898 36.0702V36.0702Z" fill="black"/>
<path d="M300.865 14.666H310.796L323.455 29.7131L336.094 14.666H345.912V57.4939H336.771V26.4592L323.455 42.6725L310.063 26.5721V57.4939H300.865V14.666Z" fill="black"/>
<path d="M381.327 22.998C378.114 23.3641 375.148 24.8998 372.995 27.3124C370.842 29.725 369.652 32.8458 369.652 36.0796C369.652 39.3134 370.842 42.4341 372.995 44.8467C375.148 47.2593 378.114 48.7951 381.327 49.1612C383.568 49.1584 385.773 48.5982 387.743 47.5311C389.713 46.4639 391.386 44.9234 392.613 43.0483L399.327 48.8602C397.335 51.8103 394.626 54.2067 391.455 55.8252C388.284 57.4436 384.754 58.2311 381.196 58.1142C368.425 58.1142 358.475 49.2929 358.475 36.0702C358.475 22.8475 369.214 14.0449 381.045 14.0449C391.164 14.0449 396.92 19.4244 399.252 23.299L392.537 29.1109C391.318 27.2464 389.656 25.7125 387.701 24.6459C385.745 23.5794 383.555 23.0132 381.327 22.998Z" fill="black"/>
<path d="M411.5 57.4939V14.666H420.904V57.4939H411.5ZM436.441 14.666H446.861L431.814 33.3057L449.532 57.4939H438.416L420.942 33.7194L436.441 14.666Z" fill="black"/>
<path d="M469.691 43.2367L489.61 14.666H499.015V57.4939H489.704V28.735L469.635 57.4939H460.23V14.666H469.541L469.691 43.2367Z" fill="black"/>
<path d="M524.671 43.2382L544.666 14.6674H554.07V57.4953H544.76V28.7365L524.709 57.4953H515.305V14.6674H524.615L524.671 43.2382ZM530.841 0.974609C530.789 1.51146 530.847 2.05311 531.01 2.56724C531.173 3.08136 531.438 3.55731 531.789 3.96654C532.14 4.37577 532.571 4.70984 533.054 4.94877C533.538 5.1877 534.064 5.32655 534.603 5.357C535.138 5.31655 535.659 5.17111 536.138 4.92891C536.616 4.68672 537.043 4.35255 537.392 3.94553C537.742 3.53851 538.007 3.06657 538.174 2.55679C538.341 2.04701 538.406 1.50943 538.364 0.974609H545.211C545.211 3.81303 544.084 6.53519 542.077 8.54226C540.07 10.5493 537.347 11.6769 534.509 11.6769C531.671 11.6769 528.948 10.5493 526.941 8.54226C524.934 6.53519 523.806 3.81303 523.806 0.974609H530.841Z" fill="black"/>
<path d="M39.3651 135.29H29.9606V101.17H10.2677V135.29H0.863281V92.4805H39.3651V135.29Z" fill="black"/>
<path d="M74.3695 91.8594C87.3288 91.8594 96.9402 101.264 96.9402 113.885C96.9402 126.505 87.3288 135.91 74.3695 135.91C61.4102 135.91 51.7988 126.505 51.7988 113.885C51.7988 101.264 61.3349 91.8594 74.3695 91.8594ZM87.2536 113.885C87.2054 111.338 86.406 108.863 84.9555 106.77C83.505 104.676 81.468 103.058 79.1009 102.119C76.7338 101.179 74.1418 100.96 71.6506 101.489C69.1593 102.018 66.8799 103.271 65.0987 105.092C63.3175 106.912 62.1139 109.218 61.6391 111.72C61.1642 114.222 61.4395 116.809 62.43 119.155C63.4206 121.501 65.0822 123.502 67.2064 124.907C69.3307 126.312 71.8228 127.058 74.3695 127.051C76.0906 127.07 77.7977 126.74 79.3879 126.081C80.9781 125.422 82.4186 124.449 83.6224 123.218C84.8263 121.988 85.7685 120.527 86.3926 118.923C87.0166 117.319 87.3095 115.605 87.2536 113.885Z" fill="black"/>
<path d="M103.861 135.609V126.976H106.269C110.03 126.976 111.911 125.095 111.911 120.186V92.4805H145.222V135.29H135.818V101.114H120.959V120.807C120.959 129.684 117.065 135.609 107.322 135.609H103.861Z" fill="black"/>
<path d="M170.877 121.051L190.871 92.4805H200.276V135.29H190.871V106.549L170.934 135.29H161.529V92.4805H170.934L170.877 121.051Z" fill="black"/>
<path d="M212.519 92.4805H250.344V101.17H236.105V135.29H226.701V101.17H212.5L212.519 92.4805Z" fill="black"/>
<path d="M262.627 92.4805H295.091V101.114H272.069V109.446H288.358V117.778H272.126V126.656H295.392V135.29H262.683L262.627 92.4805Z" fill="black"/>
<path d="M327.235 107.076L338.106 92.5176H348.846L333.047 113.621L349.523 135.345H337.975L326.445 120.411L314.971 135.345H304.156L320.633 113.621L304.777 92.5176H316.194L327.235 107.076Z" fill="black"/>
<path d="M399.328 92.4805V135.29H389.923V117.872H370.231V135.29H360.826V92.4805H370.231V109.258H389.923V92.4805H399.328Z" fill="black"/>
<path d="M424.983 121.051L444.978 92.4805H454.382V135.29H445.072V106.549L425.059 135.29H415.654V92.4805H424.965L424.983 121.051Z" fill="black"/>
<path d="M504.04 92.4817V135.291H494.636V118.927H482.73C475.075 118.927 468.717 115.541 468.717 106.457V92.4629H478.121V105.291C478.121 109.052 480.529 110.294 484.178 110.294H494.654V92.4629L504.04 92.4817Z" fill="black"/>
<path d="M520.326 92.4805H552.79V101.114H529.768V109.446H546.038V117.778H529.806V126.656H553.072V135.29H520.364L520.326 92.4805Z" fill="black"/>
<path d="M584.693 100.812C581.48 101.179 578.514 102.714 576.361 105.127C574.207 107.54 573.017 110.66 573.017 113.894C573.017 117.128 574.207 120.249 576.361 122.661C578.514 125.074 581.48 126.61 584.693 126.976C586.933 126.973 589.138 126.413 591.108 125.346C593.078 124.278 594.752 122.738 595.978 120.863L602.693 126.656C600.703 129.608 597.995 132.007 594.823 133.626C591.651 135.244 588.12 136.03 584.561 135.91C571.79 135.91 561.84 127.088 561.84 113.885C561.84 100.681 572.58 91.8594 584.411 91.8594C594.53 91.8594 600.286 97.22 602.618 101.113L595.903 106.906C594.679 105.048 593.016 103.519 591.061 102.456C589.105 101.394 586.918 100.829 584.693 100.812V100.812Z" fill="black"/>
<path d="M614.859 135.291V92.4817H624.264V135.291H614.859ZM639.8 92.4629H650.22L635.173 111.103L652.891 135.291H641.775L624.245 111.46L639.8 92.4629Z" fill="black"/>
<path d="M673.057 121.051L693.051 92.4805H702.455V135.29H693.145V106.549L673.113 135.29H663.709V92.4805H673.113L673.057 121.051Z" fill="black"/>
<path d="M728.034 121.052L748.028 92.4809H757.432V135.29H748.122V106.55L728.11 135.29H718.705V92.4809H728.11L728.034 121.052ZM734.128 78.8633C734.074 79.4006 734.129 79.9434 734.291 80.4587C734.453 80.9739 734.718 81.4509 735.07 81.8607C735.422 82.2705 735.853 82.6046 736.338 82.8427C736.823 83.0808 737.351 83.2179 737.89 83.2458C738.426 83.2078 738.949 83.0639 739.428 82.8225C739.908 82.5811 740.335 82.2469 740.685 81.8394C741.035 81.4318 741.301 80.9589 741.467 80.4481C741.633 79.9373 741.695 79.3986 741.652 78.8633H748.498C748.498 81.7017 747.371 84.4239 745.364 86.4309C743.357 88.438 740.634 89.5656 737.796 89.5656C734.958 89.5656 732.235 88.438 730.228 86.4309C728.221 84.4239 727.094 81.7017 727.094 78.8633H734.128Z" fill="black"/>
<path d="M117.929 204.467H122.311C124.775 204.467 127.484 204.222 129.026 202.116L111.553 170.291H121.916L133.822 192.316L143.34 170.291H153.196L138.525 203.658C135.609 210.26 131.001 213.062 124.813 213.062H117.91L117.929 204.467Z" fill="black"/>
<path d="M203.02 170.291V213.1H193.616V195.702H173.942V213.1H164.537V170.291H173.942V187.069H193.616V170.291H203.02Z" fill="black"/>
<path d="M228.641 198.843L248.634 170.291H258.039V213.1H248.634V184.36L228.584 213.1H219.18V170.291H228.584L228.641 198.843Z" fill="black"/>
<path d="M274.288 170.291H292.307C301.015 170.291 306.263 174.918 306.263 181.576C306.323 183.591 305.713 185.568 304.528 187.199C303.344 188.829 301.652 190.021 299.717 190.586C302.14 190.913 304.358 192.119 305.949 193.974C307.541 195.829 308.396 198.205 308.351 200.649C308.351 208.473 302.068 213.1 293.059 213.1H274.25L274.288 170.291ZM290.896 178.059H283.73V187.746H290.896C294.281 187.746 296.539 185.865 296.539 182.818C296.539 179.771 294.281 178.059 290.896 178.059ZM292.194 205.276C295.711 205.276 298.739 203.658 298.739 200.028C298.739 196.398 295.711 194.837 292.194 194.837H283.73V205.276H292.194Z" fill="black"/>
<path d="M321.629 170.291H354.187V178.924H331.165V187.257H347.397V195.589H331.165V204.467H354.432V213.1H321.723L321.629 170.291Z" fill="black"/>
<path d="M368.088 170.291H385.016C393.894 170.291 400.627 175.275 400.627 184.36C400.627 193.445 393.781 198.298 385.016 198.298H377.605V213.1H368.201L368.088 170.291ZM390.866 184.36C390.866 181.087 388.402 178.717 384.565 178.717H377.53V190.003H384.565C385.359 190.096 386.164 190.02 386.927 189.778C387.689 189.537 388.392 189.136 388.988 188.602C389.583 188.069 390.059 187.414 390.383 186.683C390.706 185.952 390.871 185.16 390.866 184.36V184.36Z" fill="black"/>
<path d="M432.34 178.549C430.497 178.339 428.631 178.521 426.863 179.083C425.096 179.644 423.466 180.573 422.082 181.808C420.699 183.043 419.591 184.557 418.833 186.25C418.075 187.942 417.683 189.776 417.683 191.631C417.683 193.486 418.075 195.32 418.833 197.012C419.591 198.705 420.699 200.219 422.082 201.454C423.466 202.689 425.096 203.618 426.863 204.179C428.631 204.741 430.497 204.923 432.34 204.713C434.579 204.712 436.782 204.155 438.752 203.091C440.722 202.027 442.397 200.49 443.625 198.619L450.359 204.412C448.363 207.363 445.651 209.76 442.477 211.379C439.303 212.997 435.769 213.784 432.208 213.666C419.437 213.666 409.506 204.844 409.506 191.641C409.506 178.437 420.246 169.615 432.077 169.615C442.196 169.615 447.933 174.976 450.284 178.869L443.55 184.662C442.333 182.795 440.672 181.26 438.716 180.193C436.759 179.126 434.569 178.561 432.34 178.549V178.549Z" fill="black"/>
<path d="M471.818 198.843L491.812 170.291H501.216V213.1H491.812V184.36L471.762 213.1H462.357V170.291H471.668L471.818 198.843Z" fill="black"/>
<path d="M513.48 170.291H551.305V178.981H537.047V213.1H527.643V178.981H513.461L513.48 170.291Z" fill="black"/>
<path d="M563.588 170.291H596.052V178.924H573.03V187.257H589.3V195.589H573.068V204.467H596.334V213.1H563.626L563.588 170.291Z" fill="black"/>
<path d="M605.419 170.291H643.244V178.981H629.006V213.1H619.601V178.981H605.4L605.419 170.291Z" fill="black"/>
<path d="M457.188 300.002V264.58L429.686 254.576L405.588 263.304L381.49 254.576L357.391 263.304L333.293 254.576L305.791 264.58V300.002L323.344 306.395L305.791 312.777V348.199L323.344 354.591L305.791 360.973V396.395L333.293 406.399L357.391 397.672L381.49 406.399L405.588 397.672L429.686 406.399L457.188 396.395V360.973L439.636 354.591L457.188 348.199V312.777L439.636 306.395L457.188 300.002ZM405.588 301.246L419.77 306.395L405.588 311.544L391.406 306.395L405.588 301.246ZM381.49 258.198L405.588 266.925L381.49 275.653L357.391 266.925L381.49 258.198ZM357.391 301.246L371.573 306.395L357.391 311.544L343.209 306.395L357.391 301.246ZM309.195 266.969L333.293 258.242L357.38 266.969L333.293 275.696L309.195 266.969ZM309.195 345.82V315.166L333.293 306.438L357.391 315.166L381.49 306.438L405.588 315.166L381.49 323.893L357.391 315.166V345.82L333.293 337.093L309.195 345.82ZM405.588 349.486L419.77 354.635L405.588 359.784L391.406 354.635L405.588 349.486ZM371.541 354.591L357.359 359.741L343.177 354.591L357.391 349.486L371.541 354.591ZM357.359 394.006L333.271 385.279L309.173 394.006V363.362L333.271 354.635L357.37 363.362L357.359 394.006ZM381.468 372.188L357.37 363.461L381.468 354.733L405.566 363.461L381.468 372.188ZM453.763 363.461V394.115L429.675 385.388L405.577 394.115V363.362L429.675 354.635L453.763 363.461ZM453.763 315.264V345.919L429.675 337.191L405.577 345.919V315.166L429.675 306.438L453.763 315.264ZM429.686 275.74L405.588 267.013L429.686 258.285L453.785 267.013L429.686 275.74Z" fill="black"/>
</svg>
