<svg width="262" height="263" viewBox="0 0 262 263" fill="none" xmlns="http://www.w3.org/2000/svg">
<path d="M261.762 79.2695V18.197L214.345 0.949219L172.796 15.9963L131.247 0.949219L89.6985 15.9963L48.1497 0.949219L0.732422 18.197V79.2695L30.996 90.2915L0.732422 101.295V162.367L30.996 173.389L0.732422 184.392V245.465L48.1497 262.713L89.6985 247.666L131.247 262.713L172.796 247.666L214.345 262.713L261.762 245.465V184.392L231.499 173.389L261.762 162.367V101.295L231.499 90.2915L261.762 79.2695ZM172.796 81.4137L197.248 90.2915L172.796 99.1693L148.345 90.2915L172.796 81.4137ZM131.247 7.19378L172.796 22.2409L131.247 37.288L89.6985 22.2409L131.247 7.19378ZM89.6985 81.4137L114.15 90.2915L89.6985 99.1693L65.247 90.2915L89.6985 81.4137ZM6.6008 22.3161L48.1497 7.26901L89.6797 22.3161L48.1497 37.3633L6.6008 22.3161ZM6.6008 158.267V105.414L48.1497 90.3668L89.6985 105.414L131.247 90.3668L172.796 105.414L131.247 120.461L89.6985 105.414V158.267L48.1497 143.22L6.6008 158.267ZM172.796 164.587L197.248 173.465L172.796 182.342L148.345 173.465L172.796 164.587ZM114.094 173.389L89.6421 182.267L65.1905 173.389L89.6985 164.587L114.094 173.389ZM89.6421 241.346L48.1121 226.299L6.56318 241.346V188.512L48.1121 173.465L89.6609 188.512L89.6421 241.346ZM131.21 203.728L89.6609 188.681L131.21 173.634L172.759 188.681L131.21 203.728ZM255.856 188.681V241.534L214.326 226.487L172.777 241.534V188.512L214.326 173.465L255.856 188.681ZM255.856 105.583V158.436L214.326 143.389L172.777 158.436V105.414L214.326 90.3668L255.856 105.583ZM214.345 37.4385L172.796 22.3914L214.345 7.34425L255.894 22.3914L214.345 37.4385Z" fill="black"/>
</svg>
