<svg width="495" height="393" viewBox="0 0 495 393" fill="none" xmlns="http://www.w3.org/2000/svg">
<path d="M324.651 286.244V250.822L297.149 240.818L273.051 249.546L248.953 240.818L224.854 249.546L200.756 240.818L173.254 250.822V286.244L190.807 292.637L173.254 299.019V334.441L190.807 340.834L173.254 347.215V382.638L200.756 392.641L224.854 383.914L248.953 392.641L273.051 383.914L297.149 392.641L324.651 382.638V347.215L307.098 340.834L324.651 334.441V299.019L307.098 292.637L324.651 286.244ZM273.051 287.488L287.233 292.637L273.051 297.786L258.869 292.637L273.051 287.488ZM248.953 244.44L273.051 253.168L248.953 261.895L224.854 253.168L248.953 244.44ZM224.854 287.488L239.036 292.637L224.854 297.786L210.672 292.637L224.854 287.488ZM176.658 253.211L200.756 244.484L224.843 253.211L200.756 261.939L176.658 253.211ZM176.658 332.063V301.408L200.756 292.681L224.854 301.408L248.953 292.681L273.051 301.408L248.953 310.135L224.854 301.408V332.063L200.756 323.335L176.658 332.063ZM273.051 335.728L287.233 340.877L273.051 346.026L258.869 340.877L273.051 335.728ZM239.003 340.834L224.822 345.983L210.64 340.834L224.854 335.728L239.003 340.834ZM224.822 380.248L200.734 371.521L176.636 380.248V349.605L200.734 340.877L224.832 349.605L224.822 380.248ZM248.931 358.43L224.832 349.703L248.931 340.975L273.029 349.703L248.931 358.43ZM321.226 349.703V380.357L297.138 371.63L273.04 380.357V349.605L297.138 340.877L321.226 349.703ZM321.226 301.506V332.161L297.138 323.433L273.04 332.161V301.408L297.138 292.681L321.226 301.506ZM297.149 261.982L273.051 253.255L297.149 244.527L321.248 253.255L297.149 261.982Z" fill="black"/>
<path d="M122.715 0.914062H160.54V9.6226H146.282V43.742H136.878V9.6226H122.715V0.914062Z" fill="black"/>
<path d="M189.957 0.292969C202.917 0.292969 212.528 9.69737 212.528 22.337C212.528 34.9765 202.917 44.3623 189.957 44.3623C176.998 44.3623 167.387 34.9577 167.387 22.337C167.387 9.71617 176.923 0.292969 189.957 0.292969ZM202.841 22.337C202.793 19.7906 201.994 17.3154 200.543 15.2221C199.093 13.1287 197.056 11.5108 194.689 10.5713C192.322 9.63179 189.73 9.4128 187.238 9.94172C184.747 10.4706 182.468 11.7239 180.687 13.5442C178.905 15.3644 177.702 17.6702 177.227 20.1723C176.752 22.6744 177.027 25.2612 178.018 27.6074C179.008 29.9537 180.67 31.9548 182.794 33.3596C184.919 34.7644 187.411 35.5101 189.957 35.5032C191.678 35.5192 193.384 35.1877 194.973 34.5281C196.562 33.8685 198.001 32.8946 199.204 31.6649C200.408 30.4353 201.35 28.9752 201.975 27.3723C202.6 25.7694 202.895 24.0566 202.841 22.337V22.337Z" fill="black"/>
<path d="M225.188 0.914062H235.119L247.777 15.9612L260.417 0.914062H270.235V43.742H261.094V12.7073L247.777 28.9394L234.385 12.8202V43.742H225.188V0.914062Z" fill="black"/>
<path d="M300.78 8.51088C297.018 8.51088 294.309 10.2413 294.309 12.7052C294.309 15.1692 297.018 16.1661 299.783 16.9561L305.425 18.4985C312.159 20.2854 317.595 23.5581 317.595 30.9688C317.595 39.1131 309.808 44.3608 300.798 44.3608C291.394 44.3608 285.187 40.0347 282.779 35.4077L288.892 29.765C290.167 31.7511 291.932 33.3744 294.018 34.4783C296.104 35.5821 298.439 36.129 300.798 36.066C304.748 36.066 307.776 34.5802 307.776 31.6836C307.776 29.1444 305.557 28.0909 302.585 27.301L296.491 25.6834C290.435 24.1411 284.453 21.3762 284.453 13.721C284.453 5.68959 292.297 0.197266 301.381 0.197266C309.695 0.197266 315.62 4.22248 318.027 8.77424L312.046 14.5861C310.856 12.6835 309.192 11.123 307.216 10.0579C305.241 8.99282 303.023 8.4597 300.78 8.51088Z" fill="black"/>
<path d="M331.494 43.742V0.914062H340.899V43.742H331.494ZM356.416 0.914062H366.836L351.789 19.5538L369.507 43.742H358.391L340.861 19.9301L356.416 0.914062Z" fill="black"/>
<path d="M0.251953 78.7246H17.18C26.0578 78.7246 32.7912 83.728 32.7912 92.7939C32.7912 101.86 25.9449 106.731 17.18 106.731H9.76914V121.628H0.364687L0.251953 78.7246ZM23.0295 92.7939C23.0295 89.5211 20.5656 87.1512 16.7286 87.1512H9.69406V98.4365H16.7286C17.5229 98.5299 18.328 98.4532 19.0905 98.2118C19.853 97.9703 20.5555 97.5693 21.1514 97.0357C21.7472 96.5022 22.2226 95.8481 22.5464 95.1167C22.8702 94.3854 23.035 93.5937 23.0295 92.7939V92.7939Z" fill="black"/>
<path d="M64.0707 78.1035C77.03 78.1035 86.6414 87.5079 86.6414 100.129C86.6414 112.749 77.03 122.173 64.0707 122.173C51.1114 122.173 41.5 112.768 41.5 100.129C41.5 87.4891 51.0549 78.1035 64.0707 78.1035ZM76.955 100.129C76.9068 97.5824 76.1072 95.1071 74.6567 93.0138C73.2062 90.9205 71.1694 89.3025 68.8023 88.363C66.4352 87.4235 63.8432 87.2045 61.352 87.7334C58.8607 88.2624 56.5813 89.5156 54.8001 91.3359C53.0189 93.1561 51.8151 95.4621 51.3402 97.9642C50.8654 100.466 51.1407 103.053 52.1312 105.399C53.1217 107.745 54.7836 109.747 56.9078 111.151C59.0321 112.556 61.5239 113.302 64.0707 113.295C65.7911 113.311 67.4971 112.979 69.0861 112.32C70.6751 111.66 72.1143 110.686 73.3176 109.457C74.5209 108.227 75.4634 106.767 76.0885 105.164C76.7135 103.561 77.0083 101.848 76.955 100.129V100.129Z" fill="black"/>
<path d="M108.122 112.845H127.871V121.629H98.6797V78.8008H108.084L108.122 112.845Z" fill="black"/>
<path d="M139.417 78.7246L150.025 95.9348L160.577 78.7246H170.997L154.784 105.264V121.628H145.38V105.452L129.016 78.7999L139.417 78.7246Z" fill="black"/>
<path d="M176.678 78.7246H214.503V87.4331H200.246V121.628H190.841V87.5085H176.641L176.678 78.7246Z" fill="black"/>
<path d="M226.785 78.7246H259.249V87.3581H236.227V95.6903H252.497V104.023H236.265V112.9H259.532V121.553H226.823L226.785 78.7246Z" fill="black"/>
<path d="M291.15 87.0566C287.937 87.4227 284.971 88.9584 282.818 91.371C280.665 93.7836 279.475 96.9043 279.475 100.138C279.475 103.372 280.665 106.493 282.818 108.905C284.971 111.318 287.937 112.854 291.15 113.22C293.391 113.217 295.596 112.657 297.566 111.59C299.536 110.523 301.209 108.982 302.436 107.107L309.15 112.9C307.162 115.856 304.455 118.258 301.283 119.88C298.111 121.502 294.579 122.291 291.019 122.173C278.247 122.173 268.316 113.333 268.316 100.129C268.316 86.9248 279.037 78.1035 290.887 78.1035C301.006 78.1035 306.743 83.4829 309.075 87.3576L302.36 93.1695C301.141 91.305 299.479 89.771 297.523 88.7044C295.568 87.6378 293.378 87.0718 291.15 87.0566V87.0566Z" fill="black"/>
<path d="M359.838 78.7246V121.628H350.433V104.23H330.74V121.628H321.336V78.7999H330.74V95.5775H350.433V78.7999L359.838 78.7246Z" fill="black"/>
<path d="M405.678 105.998V78.7246H414.875V121.628H406.487L385.327 93.0572V121.628H376.129V78.7999H385.533L405.678 105.998Z" fill="black"/>
<path d="M440.586 121.629H431.182V78.8008H440.586V121.629Z" fill="black"/>
<path d="M476.587 87.0566C473.374 87.4227 470.408 88.9584 468.255 91.371C466.101 93.7836 464.911 96.9043 464.911 100.138C464.911 103.372 466.101 106.493 468.255 108.905C470.408 111.318 473.374 112.854 476.587 113.22C478.828 113.217 481.032 112.657 483.003 111.59C484.973 110.523 486.646 108.982 487.872 107.107L494.587 112.9C492.599 115.856 489.892 118.258 486.72 119.88C483.548 121.502 480.016 122.291 476.456 122.173C463.684 122.173 453.734 113.333 453.734 100.129C453.734 86.9248 464.474 78.1035 476.305 78.1035C486.424 78.1035 492.161 83.4829 494.493 87.3576L487.779 93.1695C486.561 91.3076 484.902 89.7754 482.95 88.709C480.997 87.6426 478.812 87.0749 476.587 87.0566V87.0566Z" fill="black"/>
<path d="M52.8956 191.092C54.2321 191.163 55.5682 190.948 56.8149 190.461C58.0616 189.974 59.1901 189.227 60.1248 188.269C61.0596 187.311 61.7791 186.165 62.2353 184.907C62.6915 183.648 62.8739 182.307 62.7703 180.973V156.521H72.1747V181.387C72.1747 193.161 64.3314 199.951 52.9144 199.951C41.4974 199.951 33.5977 193.161 33.5977 181.387V156.521H43.0021V180.973C42.8982 182.309 43.0811 183.652 43.5385 184.911C43.9958 186.171 44.717 187.318 45.6538 188.276C46.5906 189.235 47.7214 189.982 48.9704 190.467C50.2193 190.953 51.5576 191.166 52.8956 191.092V191.092Z" fill="black"/>
<path d="M117.693 183.812V156.539H126.89V199.348H118.483L97.3226 170.796V199.348H88.125V156.539H97.5295L117.693 183.812Z" fill="black"/>
<path d="M152.623 199.348H143.219V156.539H152.623V199.348Z" fill="black"/>
<path d="M185.198 186.708L196.483 156.613H206.546L189.956 199.422H180.326L163.85 156.613H173.912L185.198 186.708Z" fill="black"/>
<path d="M217.773 156.539H250.238V165.172H227.216V173.505H243.447V181.818H227.216V190.696H250.482V199.329H217.773V156.539Z" fill="black"/>
<path d="M264.252 156.539H281.18C290.378 156.539 296.979 161.523 296.979 170.608C297.051 173.13 296.374 175.617 295.036 177.756C293.697 179.894 291.756 181.589 289.456 182.627L301.193 199.348H290.378L280.089 184.545H273.732V199.348H264.327L264.252 156.539ZM280.729 176.345C284.791 176.345 287.199 173.937 287.199 170.702C287.199 167.467 284.791 165.059 280.729 165.059H273.694V176.345H280.729Z" fill="black"/>
<path d="M324.91 164.118C321.148 164.118 318.421 165.848 318.421 168.312C318.421 170.776 321.148 171.773 323.913 172.582L329.556 174.124C336.29 175.911 341.707 179.184 341.707 186.576C341.707 194.72 333.938 199.968 324.929 199.968C315.525 199.968 309.318 195.66 306.91 191.033L313.023 185.391C314.298 187.377 316.063 189 318.149 190.104C320.235 191.208 322.57 191.755 324.929 191.692C328.879 191.692 331.907 190.206 331.907 187.309C331.907 184.789 329.688 183.735 326.716 182.927L320.603 181.328C314.565 179.786 308.584 177.002 308.584 169.347C308.584 161.334 316.408 155.842 325.512 155.842C333.844 155.842 339.769 159.848 342.177 164.419L336.196 170.212C335.001 168.308 333.333 166.746 331.356 165.678C329.378 164.61 327.157 164.073 324.91 164.118V164.118Z" fill="black"/>
<path d="M364.41 199.348H355.006V156.539H364.41V199.348Z" fill="black"/>
<path d="M376.637 156.539H414.462V165.229H400.204V199.348H390.8V165.229H376.637V156.539Z" fill="black"/>
<path d="M430.562 156.539L441.17 173.749L451.722 156.539H462.142L445.929 183.06V199.348H436.524V183.191L420.16 156.539H430.562Z" fill="black"/>
</svg>
