<svg width="359" height="329" viewBox="0 0 359 329" fill="none" xmlns="http://www.w3.org/2000/svg">
<path d="M260.804 221.771V186.349L233.302 176.346L209.203 185.073L185.105 176.346L161.007 185.073L136.908 176.346L109.406 186.349V221.771L126.959 228.164L109.406 234.546V269.968L126.959 276.361L109.406 282.743V318.165L136.908 328.169L161.007 319.441L185.105 328.169L209.203 319.441L233.302 328.169L260.804 318.165V282.743L243.251 276.361L260.804 269.968V234.546L243.251 228.164L260.804 221.771ZM209.203 223.015L223.385 228.164L209.203 233.313L195.021 228.164L209.203 223.015ZM185.105 179.968L209.203 188.695L185.105 197.422L161.007 188.695L185.105 179.968ZM161.007 223.015L175.189 228.164L161.007 233.313L146.825 228.164L161.007 223.015ZM112.81 188.739L136.908 180.011L160.996 188.739L136.908 197.466L112.81 188.739ZM112.81 267.59V236.935L136.908 228.208L161.007 236.935L185.105 228.208L209.203 236.935L185.105 245.663L161.007 236.935V267.59L136.908 258.863L112.81 267.59ZM209.203 271.255L223.385 276.405L209.203 281.554L195.021 276.405L209.203 271.255ZM175.156 276.361L160.974 281.51L146.792 276.361L161.007 271.255L175.156 276.361ZM160.974 315.776L136.886 307.048L112.788 315.776V285.132L136.886 276.405L160.985 285.132L160.974 315.776ZM185.083 293.957L160.985 285.23L185.083 276.503L209.181 285.23L185.083 293.957ZM257.378 285.23V315.885L233.291 307.158L209.192 315.885V285.132L233.291 276.405L257.378 285.23ZM257.378 237.033V267.688L233.291 258.961L209.192 267.688V236.935L233.291 228.208L257.378 237.033ZM233.302 197.509L209.203 188.782L233.302 180.055L257.4 188.782L233.302 197.509Z" fill="black"/>
<path d="M0.578125 14.251H38.4028V22.9407H24.1457V57.0787H14.7413V22.9407H0.578125V14.251Z" fill="black"/>
<path d="M67.8754 13.6299C80.8347 13.6299 90.4461 23.0345 90.4461 35.6553C90.4461 48.276 80.8159 57.6804 67.8754 57.6804C54.9348 57.6804 45.3047 48.276 45.3047 35.6553C45.3047 23.0345 54.8596 13.6299 67.8754 13.6299ZM80.7783 35.6553C80.7337 33.1044 79.9361 30.6235 78.4857 28.5246C77.0353 26.4256 74.9971 24.8022 72.6267 23.8584C70.2564 22.9146 67.6599 22.6925 65.1638 23.2201C62.6676 23.7477 60.3832 25.0013 58.5974 26.8234C56.8117 28.6456 55.6045 30.9549 55.1275 33.4612C54.6504 35.9675 54.9247 38.5589 55.9162 40.9097C56.9076 43.2605 58.5721 45.2657 60.6999 46.6734C62.8277 48.081 65.3241 48.8285 67.8754 48.8215C69.5966 48.8374 71.3033 48.5058 72.8933 47.8464C74.4833 47.187 75.9237 46.2133 77.1285 44.984C78.3333 43.7546 79.2775 42.2948 79.9046 40.6918C80.5318 39.0888 80.829 37.3758 80.7783 35.6553V35.6553Z" fill="black"/>
<path d="M103.727 14.251H113.677L126.316 29.2981L138.974 14.251H148.774V57.0787H139.652V26.0251L126.316 42.2572L112.924 26.1569V57.0787H103.727V14.251Z" fill="black"/>
<path d="M184.191 22.5829C180.978 22.949 178.013 24.4848 175.859 26.8974C173.706 29.31 172.516 32.4306 172.516 35.6645C172.516 38.8983 173.706 42.0191 175.859 44.4318C178.013 46.8444 180.978 48.3801 184.191 48.7462C186.432 48.7451 188.638 48.1856 190.608 47.1183C192.578 46.051 194.252 44.5096 195.477 42.6333L202.21 48.4264C200.214 51.378 197.502 53.7752 194.328 55.3936C191.154 57.012 187.621 57.7988 184.06 57.6804C171.289 57.6804 161.357 48.8591 161.357 35.6553C161.357 22.4514 172.097 13.6299 183.928 13.6299C194.047 13.6299 199.784 18.9905 202.135 22.8839L195.401 28.6958C194.183 26.8302 192.522 25.2954 190.566 24.2287C188.61 23.162 186.42 22.5965 184.191 22.5829V22.5829Z" fill="black"/>
<path d="M214.379 57.0787V14.251H223.783V57.0787H214.379ZM239.301 14.251H249.74L234.692 32.8904L252.41 57.0787H241.332L223.821 33.2479L239.301 14.251Z" fill="black"/>
<path d="M272.574 42.8216L292.568 14.251H301.973V57.0787H292.568V28.32L272.518 57.0787H263.113V14.251H272.518L272.574 42.8216Z" fill="black"/>
<path d="M327.553 42.8231L347.546 14.2525H356.951V57.0802H347.546V28.3215L327.496 57.0802H318.092V14.2525H327.496L327.553 42.8231ZM333.722 0.55957C333.668 1.09596 333.723 1.63766 333.885 2.15185C334.047 2.66604 334.312 3.14179 334.664 3.55012C335.016 3.95846 335.448 4.29079 335.933 4.52684C336.417 4.7629 336.945 4.89777 337.484 4.92314C338.018 4.88505 338.539 4.7418 339.017 4.50159C339.496 4.26138 339.922 3.92901 340.272 3.52349C340.621 3.11797 340.887 2.64742 341.054 2.13877C341.222 1.63011 341.286 1.0934 341.245 0.55957H348.111C347.995 3.32282 346.816 5.93447 344.82 7.84871C342.823 9.76295 340.165 10.8317 337.399 10.8317C334.633 10.8317 331.975 9.76295 329.978 7.84871C327.982 5.93447 326.803 3.32282 326.687 0.55957H333.722Z" fill="black"/>
<path d="M48.6531 134.875H39.2486V100.755H19.5744V134.875H10.1699V92.0654H48.6717L48.6531 134.875Z" fill="black"/>
<path d="M83.639 91.4443C96.5984 91.4443 106.21 100.849 106.21 113.47C106.21 126.09 96.5796 135.495 83.639 135.495C70.6985 135.495 61.0684 126.09 61.0684 113.47C61.0684 100.849 70.6233 91.4443 83.639 91.4443ZM96.5419 113.47C96.4974 110.919 95.6997 108.438 94.2494 106.339C92.799 104.24 90.7607 102.617 88.3904 101.673C86.0201 100.729 83.4236 100.507 80.9275 101.035C78.4313 101.562 76.1468 102.816 74.3611 104.638C72.5754 106.46 71.368 108.77 70.8909 111.276C70.4139 113.782 70.6884 116.373 71.6798 118.724C72.6713 121.075 74.3355 123.08 76.4633 124.488C78.5911 125.896 81.0878 126.643 83.639 126.636C85.3571 126.647 87.0597 126.311 88.6453 125.65C90.2308 124.988 91.6669 124.014 92.8676 122.785C94.0684 121.556 95.0093 120.098 95.6341 118.497C96.2589 116.897 96.5548 115.187 96.5043 113.47H96.5419Z" fill="black"/>
<path d="M113.148 135.194V126.542H115.556C119.318 126.542 121.199 124.661 121.199 119.771V92.0654H154.528V134.875H145.124V100.699H130.189V120.373C130.189 129.269 126.315 135.194 116.553 135.194H113.148Z" fill="black"/>
<path d="M180.166 120.655L200.16 92.1029H209.564V134.912H200.254V106.172L180.203 134.912H170.799V92.0654H180.203L180.166 120.655Z" fill="black"/>
<path d="M221.807 92.0654H259.632V100.755H245.375V134.875H235.97V100.755H221.77L221.807 92.0654Z" fill="black"/>
<path d="M271.914 92.0654H304.378V100.699H281.356V109.031H297.588V117.363H281.356V126.298H304.623V134.931H271.914V92.0654Z" fill="black"/>
<path d="M336.524 106.621L347.395 92.063H358.116L342.336 113.129L358.794 134.834H347.264L335.734 119.9L324.242 134.834H313.445L329.922 113.129L314.066 92.0254H325.483L336.524 106.621Z" fill="black"/>
</svg>
