<svg width="725" height="159" viewBox="0 0 725 159" fill="none" xmlns="http://www.w3.org/2000/svg">
<path d="M151.696 51.8379V16.4158L124.194 6.41211L100.096 15.1394L75.9975 6.41211L51.8992 15.1394L27.8008 6.41211L0.298828 16.4158V51.8379L17.8517 58.2306L0.298828 64.6125V100.035L17.8517 106.427L0.298828 112.809V148.231L27.8008 158.235L51.8992 149.508L75.9975 158.235L100.096 149.508L124.194 158.235L151.696 148.231V112.809L134.143 106.427L151.696 100.035V64.6125L134.143 58.2306L151.696 51.8379ZM100.096 53.0815L114.278 58.2306L100.096 63.3798L85.914 58.2306L100.096 53.0815ZM75.9975 10.034L100.096 18.7613L75.9975 27.4886L51.8992 18.7613L75.9975 10.034ZM51.8992 53.0815L66.0811 58.2306L51.8992 63.3798L37.7173 58.2306L51.8992 53.0815ZM3.70249 18.8049L27.8008 10.0776L51.8883 18.8049L27.8008 27.5323L3.70249 18.8049ZM3.70249 97.6564V67.0016L27.8008 58.2743L51.8992 67.0016L75.9975 58.2743L100.096 67.0016L75.9975 75.7289L51.8992 67.0016V97.6564L27.8008 88.929L3.70249 97.6564ZM100.096 101.322L114.278 106.471L100.096 111.62L85.914 106.471L100.096 101.322ZM66.0484 106.427L51.8665 111.576L37.6845 106.427L51.8992 101.322L66.0484 106.427ZM51.8665 145.842L27.779 137.115L3.68067 145.842V115.198L27.779 106.471L51.8774 115.198L51.8665 145.842ZM75.9757 124.024L51.8774 115.296L75.9757 106.569L100.074 115.296L75.9757 124.024ZM148.271 115.296V145.951L124.183 137.224L100.085 145.951V115.198L124.183 106.471L148.271 115.296ZM148.271 67.0998V97.7546L124.183 89.0272L100.085 97.7546V67.0016L124.183 58.2743L148.271 67.0998ZM124.194 27.5759L100.096 18.8486L124.194 10.1212L148.293 18.8486L124.194 27.5759Z" fill="black"/>
<path d="M205.6 10.248H231.349V16.1728H221.644V39.4019H215.249V16.1728H205.6V10.248Z" fill="black"/>
<path d="M251.283 9.83622C254.242 9.91021 257.114 10.8552 259.538 12.553C261.963 14.2507 263.833 16.6258 264.914 19.381C265.995 22.1361 266.24 25.1491 265.618 28.0427C264.996 30.9364 263.534 33.5822 261.415 35.6491C259.296 37.716 256.615 39.1122 253.707 39.663C250.799 40.2137 247.793 39.8946 245.065 38.7455C242.338 37.5964 240.009 35.6684 238.372 33.2027C236.735 30.737 235.861 27.8432 235.86 24.8833C235.822 22.8649 236.198 20.86 236.965 18.9924C237.731 17.1247 238.872 15.4339 240.317 14.0241C241.763 12.6143 243.481 11.5154 245.367 10.7951C247.253 10.0749 249.267 9.74853 251.283 9.83622V9.83622ZM260.067 24.8833C260.049 23.1457 259.516 21.4524 258.537 20.0168C257.557 18.5813 256.175 17.4677 254.564 16.8164C252.953 16.1651 251.185 16.0053 249.483 16.3571C247.782 16.7088 246.222 17.5563 245.001 18.7929C243.78 20.0295 242.953 21.5998 242.623 23.306C242.293 25.0121 242.475 26.7777 243.147 28.3804C243.819 29.983 244.95 31.351 246.398 32.3119C247.846 33.2728 249.546 33.7836 251.283 33.78C252.461 33.8035 253.631 33.5872 254.723 33.1444C255.815 32.7016 256.805 32.0414 257.634 31.204C258.462 30.3666 259.112 29.3695 259.543 28.2732C259.974 27.177 260.178 26.0044 260.142 24.8269L260.067 24.8833Z" fill="black"/>
<path d="M275.68 10.248H282.451L291.065 20.4613L299.68 10.248H306.357V39.4019H300.131V18.2795L291.065 29.3203L281.943 18.3547V39.4019H275.68V10.248Z" fill="black"/>
<path d="M330.454 15.9268C328.094 15.9268 325.831 16.8641 324.163 18.5326C322.494 20.201 321.557 22.4639 321.557 24.8234C321.557 27.1829 322.494 29.4458 324.163 31.1143C325.831 32.7827 328.094 33.72 330.454 33.72C331.987 33.7297 333.498 33.3541 334.849 32.6278C336.2 31.9016 337.346 30.8479 338.184 29.5633L342.774 33.5131C341.415 35.5234 339.569 37.1561 337.408 38.2581C335.246 39.3602 332.841 39.8956 330.416 39.8141C321.726 39.8141 314.955 33.8141 314.955 24.767C314.954 22.7589 315.356 20.771 316.135 18.9205C316.915 17.0699 318.057 15.3941 319.495 13.9918C320.932 12.5895 322.635 11.4891 324.504 10.7555C326.374 10.0218 328.371 9.66964 330.378 9.71985C332.814 9.60076 335.239 10.1194 337.413 11.2245C339.586 12.3296 341.434 13.9828 342.774 16.0208L338.184 19.9707C337.333 18.707 336.181 17.6754 334.831 16.9693C333.481 16.2632 331.977 15.9049 330.454 15.9268V15.9268Z" fill="black"/>
<path d="M350.992 39.4019V10.248H357.425V39.4019H350.992ZM367.92 10.248H375.011L364.798 22.9253L376.873 39.4019H369.35L357.425 23.1886L367.92 10.248Z" fill="black"/>
<path d="M390.603 29.7153L404.221 10.2669H410.616V39.4207H404.258V19.8218L390.603 39.4019H384.283V10.248H390.622L390.603 29.7153Z" fill="black"/>
<path d="M428.034 29.7159L441.652 10.2675H448.065V39.4213H441.727V19.8224L428.072 39.4024H421.695V10.2486H428.034V29.7159ZM432.228 0.957031C432.192 1.32186 432.231 1.69025 432.341 2.03983C432.451 2.38941 432.632 2.71292 432.871 2.99078C433.11 3.26864 433.403 3.49503 433.732 3.65628C434.062 3.81752 434.421 3.91029 434.787 3.92887C435.155 3.90987 435.516 3.81736 435.848 3.65679C436.18 3.49622 436.476 3.27081 436.72 2.99388C436.964 2.71695 437.149 2.39411 437.266 2.04431C437.383 1.6945 437.429 1.3248 437.401 0.957031H442.066C441.971 2.82601 441.161 4.58709 439.805 5.87635C438.448 7.1656 436.648 7.88455 434.777 7.88455C432.906 7.88455 431.106 7.1656 429.749 5.87635C428.393 4.58709 427.584 2.82601 427.489 0.957031H432.228Z" fill="black"/>
<path d="M235.279 96.6545H228.903V73.4255H215.492V96.6545H209.078V67.5195H235.279V96.6545Z" fill="black"/>
<path d="M259.091 67.0913C262.05 67.1616 264.924 68.1035 267.351 69.7991C269.778 71.4946 271.651 73.8685 272.735 76.6234C273.819 79.3784 274.067 82.392 273.446 85.2869C272.826 88.1818 271.366 90.8294 269.248 92.8982C267.13 94.967 264.449 96.365 261.54 96.9172C258.631 97.4694 255.624 97.1513 252.895 96.0027C250.167 94.854 247.838 92.926 246.199 90.4598C244.561 87.9937 243.687 85.099 243.686 82.1384C243.648 80.1216 244.024 78.1184 244.789 76.2521C245.555 74.3857 246.694 72.6958 248.137 71.2862C249.58 69.8767 251.296 68.7774 253.18 68.056C255.064 67.3346 257.075 67.0062 259.091 67.0913V67.0913ZM267.874 82.1384C267.852 80.4016 267.317 78.7102 266.335 77.2772C265.354 75.8441 263.97 74.7334 262.359 74.085C260.747 73.4366 258.98 73.2795 257.279 73.6333C255.579 73.9871 254.021 74.8361 252.802 76.0734C251.583 77.3107 250.757 78.881 250.429 80.5866C250.1 82.2922 250.284 84.0569 250.956 85.6585C251.629 87.26 252.759 88.6269 254.207 89.5869C255.654 90.547 257.354 91.0574 259.091 91.0538C260.264 91.0671 261.428 90.8427 262.512 90.3942C263.596 89.9456 264.578 89.2822 265.399 88.4438C266.219 87.6055 266.862 86.6095 267.287 85.5162C267.713 84.4228 267.913 83.2546 267.874 82.082V82.1384Z" fill="black"/>
<path d="M279.178 96.8649V90.9964H280.814C283.372 90.9964 284.576 89.7739 284.576 86.3695V67.5605H307.26V96.6955H300.883V73.3913H290.708V86.7833C290.708 92.8397 288.074 96.8649 281.435 96.8649H279.178Z" fill="black"/>
<path d="M324.792 86.9491L338.409 67.5195H344.786V96.6545H338.447V77.0933L324.792 96.6545H318.453V67.5195H324.792V86.9491Z" fill="black"/>
<path d="M353.135 67.5195H378.884V73.4255H369.235V96.6545H362.859V73.4255H353.191L353.135 67.5195Z" fill="black"/>
<path d="M387.236 67.5195H409.337V73.3879H393.688V79.0306H404.747V84.6732H393.688V90.7109H409.525V96.5981H387.255L387.236 67.5195Z" fill="black"/>
<path d="M431.305 77.413L438.697 67.5195H446.014L435.255 81.8707L446.541 96.6545H438.678L430.835 86.4977L423.011 96.6545H415.656L426.942 81.8707L416.145 67.5195H423.782L431.305 77.413Z" fill="black"/>
<path d="M480.32 67.5195V96.6545H473.944V84.8049H460.533V96.6545H454.119V67.5195H460.533V78.9366H473.944V67.5195H480.32Z" fill="black"/>
<path d="M497.758 86.9491L511.375 67.5195H517.827V96.6545H511.488V77.0933L497.833 96.6545H491.494V67.5195H497.833L497.758 86.9491Z" fill="black"/>
<path d="M551.571 67.5195V96.6545H545.176V85.5197H537.069C531.859 85.5197 527.533 83.225 527.533 77.0368V67.5195H533.929V76.2468C533.929 78.8048 535.565 79.6512 538.029 79.6512H545.176V67.5195H551.571Z" fill="black"/>
<path d="M562.648 67.5195H584.749V73.3879H569.081V79.0306H580.122V84.6732H569.081V90.7109H584.918V96.5981H562.648V67.5195Z" fill="black"/>
<path d="M606.452 73.1836C604.161 73.2889 601.998 74.2732 600.414 75.9319C598.83 77.5906 597.946 79.796 597.946 82.0896C597.946 84.3833 598.83 86.5887 600.414 88.2474C601.998 89.906 604.161 90.8903 606.452 90.9956C607.985 91.0018 609.495 90.6248 610.845 89.8989C612.195 89.1729 613.342 88.121 614.182 86.8389L618.772 90.7699C617.413 92.7802 615.568 94.4129 613.406 95.515C611.245 96.617 608.839 97.1524 606.414 97.0709C597.725 97.0709 590.953 91.0709 590.953 82.0238C590.952 80.0157 591.354 78.0279 592.134 76.1773C592.913 74.3267 594.055 72.6509 595.493 71.2486C596.93 69.8463 598.633 68.746 600.503 68.0123C602.372 67.2786 604.369 66.9265 606.377 66.9767C608.812 66.8613 611.235 67.3816 613.408 68.4864C615.581 69.5911 617.43 71.2423 618.772 73.2777L614.182 77.2275C613.329 75.9663 612.176 74.9365 610.827 74.2307C609.478 73.5249 607.975 73.1651 606.452 73.1836V73.1836Z" fill="black"/>
<path d="M626.918 96.6545V67.5195H633.35V96.6545H626.918ZM643.846 67.5195H650.937L640.724 80.1967L652.78 96.6545H645.257L633.332 80.4412L643.846 67.5195Z" fill="black"/>
<path d="M666.606 86.9491L680.224 67.5195H686.657V96.6545H680.299V77.0933L666.644 96.6545H660.268V67.5195H666.606V86.9491Z" fill="black"/>
<path d="M704.037 86.9502L717.636 67.5206H724.068V96.6556H717.73V77.0943L704.075 96.6556H697.68V67.5206H704.037V86.9502ZM708.231 58.1914C708.192 58.5577 708.229 58.9281 708.338 59.2799C708.447 59.6317 708.627 59.9575 708.866 60.2374C709.106 60.5174 709.4 60.7455 709.731 60.9079C710.061 61.0703 710.422 61.1636 710.789 61.182C711.159 61.1606 711.52 61.0658 711.852 60.9032C712.184 60.7406 712.48 60.5135 712.724 60.2351C712.967 59.9567 713.153 59.6326 713.27 59.2817C713.386 58.9308 713.432 58.5601 713.404 58.1914H718.068C717.973 60.0604 717.164 61.8215 715.808 63.1107C714.451 64.4 712.651 65.1189 710.78 65.1189C708.908 65.1189 707.108 64.4 705.752 63.1107C704.396 61.8215 703.586 60.0604 703.491 58.1914H708.231Z" fill="black"/>
<path d="M209.154 148.042H212.145C212.979 148.156 213.828 148.07 214.622 147.792C215.417 147.515 216.134 147.052 216.715 146.443L204.828 124.775H211.881L219.988 139.823L226.458 124.775H233.192L223.186 147.497C222.513 149.433 221.236 151.102 219.543 152.257C217.849 153.412 215.829 153.992 213.781 153.91H209.079L209.154 148.042Z" fill="black"/>
<path d="M267.085 124.775V153.854H260.69V142.023H247.298V153.854H240.865V124.775H247.298V136.192H260.69V124.775H267.085Z" fill="black"/>
<path d="M284.596 144.224L298.214 124.775H304.647V153.854H298.308V134.293L284.596 153.854H278.201V124.775H284.596V144.224Z" fill="black"/>
<path d="M315.592 124.775H327.855C333.78 124.775 337.26 127.916 337.26 132.449C337.302 133.821 336.887 135.168 336.08 136.278C335.273 137.388 334.12 138.198 332.802 138.581C334.45 138.806 335.959 139.627 337.044 140.888C338.128 142.149 338.714 143.764 338.689 145.428C338.689 150.769 334.401 153.91 328.269 153.91H315.498L315.592 124.775ZM326.877 130.061H322.006V136.663H326.877C327.351 136.716 327.83 136.668 328.284 136.523C328.738 136.378 329.156 136.139 329.511 135.821C329.866 135.503 330.15 135.114 330.345 134.679C330.539 134.244 330.639 133.772 330.639 133.296C330.752 131.283 329.21 130.061 326.896 130.061H326.877ZM327.761 148.587C330.15 148.587 332.2 147.497 332.2 145.014C332.2 142.531 330.15 141.478 327.761 141.478H322.006V148.587H327.761Z" fill="black"/>
<path d="M347.813 124.775H369.914V130.663H354.189V136.305H365.249V141.948H354.189V148.004H370.026V153.854H347.775L347.813 124.775Z" fill="black"/>
<path d="M379.43 124.775H390.903C396.96 124.775 401.53 128.18 401.53 134.349C401.53 140.518 396.866 143.754 390.903 143.754H385.863V153.854H379.43V124.775ZM394.928 134.349C394.934 133.807 394.822 133.271 394.601 132.777C394.38 132.282 394.055 131.841 393.647 131.484C393.24 131.127 392.761 130.862 392.242 130.707C391.723 130.552 391.176 130.511 390.64 130.587H385.863V138.28H390.64C391.186 138.336 391.739 138.275 392.261 138.103C392.782 137.93 393.261 137.648 393.666 137.277C394.071 136.906 394.393 136.453 394.611 135.948C394.828 135.443 394.936 134.899 394.928 134.349V134.349Z" fill="black"/>
<path d="M423.161 130.437C421.957 130.382 420.754 130.571 419.625 130.994C418.496 131.416 417.465 132.064 416.594 132.896C415.722 133.728 415.028 134.729 414.554 135.837C414.08 136.945 413.836 138.138 413.836 139.343C413.836 140.549 414.08 141.741 414.554 142.849C415.028 143.958 415.722 144.958 416.594 145.791C417.465 146.623 418.496 147.27 419.625 147.693C420.754 148.115 421.957 148.305 423.161 148.249C424.693 148.255 426.204 147.878 427.554 147.153C428.904 146.427 430.051 145.375 430.891 144.093L435.481 148.042C434.117 150.048 432.27 151.676 430.11 152.778C427.95 153.879 425.547 154.418 423.123 154.343C414.414 154.343 407.662 148.325 407.662 139.296C407.661 137.288 408.063 135.3 408.843 133.45C409.622 131.599 410.764 129.923 412.202 128.521C413.639 127.119 415.342 126.018 417.212 125.285C419.081 124.551 421.078 124.199 423.085 124.249C425.521 124.13 427.946 124.649 430.12 125.754C432.294 126.859 434.141 128.512 435.481 130.55L430.891 134.481C430.038 133.22 428.885 132.19 427.536 131.484C426.187 130.779 424.683 130.419 423.161 130.437Z" fill="black"/>
<path d="M450.112 144.224L463.73 124.775H470.162V153.854H463.805V134.293L450.112 153.854H443.736V124.775H450.112V144.224Z" fill="black"/>
<path d="M478.328 124.775H504.096V130.7H494.391V153.854H487.996V130.7H478.328V124.775Z" fill="black"/>
<path d="M512.503 124.775H534.604V130.663H518.917V136.305H529.977V141.948H518.917V148.004H534.754V153.854H512.484L512.503 124.775Z" fill="black"/>
<path d="M540.98 124.775H566.73V130.7H557.025V153.854H550.629V130.7H540.98V124.775Z" fill="black"/>
</svg>
