<svg width="648" height="153" viewBox="0 0 648 153" fill="none" xmlns="http://www.w3.org/2000/svg">
<path d="M151.696 46.2383V10.8162L124.194 0.8125L100.096 9.53983L75.9975 0.8125L51.8992 9.53983L27.8008 0.8125L0.298828 10.8162V46.2383L17.8517 52.631L0.298828 59.0129V94.435L17.8517 100.828L0.298828 107.21V142.632L27.8008 152.635L51.8992 143.908L75.9975 152.635L100.096 143.908L124.194 152.635L151.696 142.632V107.21L134.143 100.828L151.696 94.435V59.0129L134.143 52.631L151.696 46.2383ZM100.096 47.4819L114.278 52.631L100.096 57.7802L85.914 52.631L100.096 47.4819ZM75.9975 4.43434L100.096 13.1617L75.9975 21.889L51.8992 13.1617L75.9975 4.43434ZM51.8992 47.4819L66.0811 52.631L51.8992 57.7802L37.7173 52.631L51.8992 47.4819ZM3.70249 13.2053L27.8008 4.47798L51.8883 13.2053L27.8008 21.9326L3.70249 13.2053ZM3.70249 92.0568V61.402L27.8008 52.6747L51.8992 61.402L75.9975 52.6747L100.096 61.402L75.9975 70.1293L51.8992 61.402V92.0568L27.8008 83.3294L3.70249 92.0568ZM100.096 95.7222L114.278 100.871L100.096 106.02L85.914 100.871L100.096 95.7222ZM66.0484 100.828L51.8665 105.977L37.6845 100.828L51.8992 95.7222L66.0484 100.828ZM51.8665 140.243L27.779 131.515L3.68067 140.243V109.599L27.779 100.871L51.8774 109.599L51.8665 140.243ZM75.9757 118.424L51.8774 109.697L75.9757 100.97L100.074 109.697L75.9757 118.424ZM148.271 109.697V140.352L124.183 131.624L100.085 140.352V109.599L124.183 100.871L148.271 109.697ZM148.271 61.5002V92.1549L124.183 83.4276L100.085 92.1549V61.402L124.183 52.6747L148.271 61.5002ZM124.194 21.9763L100.096 13.2489L124.194 4.52162L148.293 13.2489L124.194 21.9763Z" fill="black"/>
<path d="M210.036 4.55664H255.46V14.9956H238.344V55.9614H227.059V14.9956H210.018L210.036 4.55664Z" fill="black"/>
<path d="M290.803 3.82422C306.358 3.82422 317.907 15.1096 317.907 30.2695C317.907 45.4295 306.358 56.7149 290.803 56.7149C275.248 56.7149 263.605 45.4295 263.605 30.2695C263.605 15.1096 275.192 3.82422 290.803 3.82422ZM306.283 30.2695C306.246 27.2072 305.303 24.2243 303.574 21.6965C301.845 19.1688 299.406 17.2092 296.566 16.0647C293.725 14.9201 290.61 14.6418 287.611 15.2646C284.612 15.8875 281.865 17.3837 279.715 19.5649C277.565 21.7461 276.109 24.5147 275.53 27.522C274.95 30.5293 275.274 33.6407 276.459 36.4646C277.645 39.2884 279.639 41.6982 282.192 43.3906C284.744 45.083 287.741 45.9822 290.803 45.975C292.86 45.9932 294.9 45.5977 296.801 44.812C298.702 44.0263 300.426 42.8665 301.87 41.4014C303.314 39.9363 304.449 38.1959 305.207 36.2836C305.965 34.3713 306.331 32.3261 306.283 30.2695Z" fill="black"/>
<path d="M333.104 4.55664H345.028L360.207 22.5568L375.405 4.55664H387.179V55.9614H376.213V18.6445L360.207 38.1305L344.144 18.795V55.9049H333.104V4.55664Z" fill="black"/>
<path d="M423.78 13.6624C419.19 13.6624 416.012 15.7502 416.012 18.7032C416.012 21.6562 419.266 22.86 422.595 23.8192L429.403 25.7001C437.491 27.8631 443.999 31.7754 443.999 40.7472C443.999 50.5279 434.595 56.8289 423.855 56.8289C412.57 56.8289 405.046 51.6376 402.225 46.089L409.56 39.4118C411.095 41.7889 413.217 43.7302 415.721 45.0481C418.225 46.3659 421.026 47.016 423.855 46.9354C428.595 46.9354 432.225 45.0545 432.225 41.6689C432.225 38.6406 429.554 37.3804 425.999 36.4212L418.664 34.5403C411.403 32.6594 404.218 29.349 404.218 20.1703C404.218 10.5401 413.623 3.95703 424.438 3.95703C434.444 3.95703 441.554 8.77211 444.451 14.2455L437.265 21.2048C435.865 18.8855 433.886 16.9705 431.521 15.6481C429.157 14.3257 426.489 13.6414 423.78 13.6624V13.6624Z" fill="black"/>
<path d="M460.688 55.9614V4.55664H471.973V55.9614H460.688ZM490.612 4.55664H503.12L485.12 26.9204L506.393 55.9614H493.058L472.01 27.3718L490.612 4.55664Z" fill="black"/>
<path d="M214.854 96.7188H235.092C245.757 96.7188 253.901 102.719 253.901 113.647C253.901 124.575 245.681 130.387 235.092 130.387H226.289V148.161H215.004L214.854 96.7188ZM242.202 113.647C242.202 109.716 239.23 106.988 234.678 106.988H226.289V120.531H234.734C239.23 120.493 242.202 117.615 242.202 113.609V113.647Z" fill="black"/>
<path d="M291.838 95.9883C307.393 95.9883 318.942 107.274 318.942 122.434C318.942 137.594 307.393 148.879 291.838 148.879C276.283 148.879 264.641 137.594 264.641 122.434C264.641 107.274 276.208 95.9883 291.838 95.9883ZM307.318 122.434C307.281 119.371 306.338 116.388 304.609 113.861C302.88 111.333 300.442 109.373 297.601 108.229C294.76 107.084 291.644 106.806 288.646 107.429C285.647 108.052 282.9 109.548 280.75 111.729C278.6 113.91 277.144 116.679 276.565 119.686C275.985 122.693 276.309 125.805 277.494 128.629C278.68 131.452 280.675 133.862 283.227 135.555C285.78 137.247 288.776 138.146 291.838 138.139C293.895 138.157 295.935 137.762 297.836 136.976C299.737 136.19 301.461 135.031 302.905 133.565C304.349 132.1 305.484 130.36 306.242 128.448C307 126.535 307.366 124.49 307.318 122.434V122.434Z" fill="black"/>
<path d="M345.479 137.685H369.234V148.123H334.193V96.7188H345.479V137.685Z" fill="black"/>
<path d="M383.04 96.7188L395.774 117.409L408.451 96.7188H420.959L401.473 128.581V148.123H390.187V128.713L370.551 96.7376L383.04 96.7188Z" fill="black"/>
<path d="M427.787 96.7188H473.192V107.158H456.076V148.123H444.791V107.158H427.75L427.787 96.7188Z" fill="black"/>
<path d="M487.938 96.7188H526.909V107.045H499.279V117.051H518.765V127.058H499.279V137.722H527.229V148.086H487.956L487.938 96.7188Z" fill="black"/>
<path d="M565.225 106.728C561.06 106.728 557.065 108.383 554.12 111.328C551.174 114.274 549.52 118.268 549.52 122.434C549.52 126.599 551.174 130.594 554.12 133.539C557.065 136.484 561.06 138.139 565.225 138.139C567.927 138.149 570.588 137.483 572.966 136.202C575.345 134.921 577.365 133.065 578.843 130.804L586.931 137.763C584.536 141.306 581.282 144.183 577.473 146.127C573.664 148.071 569.424 149.018 565.15 148.879C549.802 148.879 537.877 138.271 537.877 122.434C537.877 106.596 550.78 95.9883 565.075 95.9883C577.226 95.9883 584.109 102.421 586.931 107.086L578.843 114.064C577.365 111.802 575.345 109.946 572.966 108.665C570.588 107.384 567.927 106.718 565.225 106.728Z" fill="black"/>
<path d="M647.607 96.7188V148.123H636.322V127.246H612.697V148.123H601.412V96.7188H612.697V116.863H636.322V96.7188H647.607Z" fill="black"/>
</svg>
