<svg width="648" height="151" viewBox="0 0 648 151" fill="none" xmlns="http://www.w3.org/2000/svg">
<path d="M150.409 59.6064L125.351 50.4863L100.281 59.6064L75.2231 50.4863L50.1538 59.6064L25.0955 50.4863L0.0371094 59.6064V91.483L25.0955 100.614L50.1538 91.483L75.2231 100.614L100.281 91.483L125.351 100.614L150.409 91.483V59.6064Z" fill="black"/>
<path d="M150.398 9.47553H150.409L125.351 0.355469L100.281 9.47553L75.2231 0.355469L50.1538 9.47553L25.0955 0.355469L0.0371094 9.47553V41.363L25.0955 50.4831L50.1538 41.363L75.2231 50.4831L100.281 41.363L125.351 50.4831L150.409 41.363V9.47553H150.398Z" fill="white"/>
<path d="M50.153 9.47553L25.0837 18.6065L0.0253906 9.47553L25.0837 0.355469L50.153 9.47553Z" fill="black"/>
<path d="M100.269 9.47553L75.2107 18.6065L50.1523 9.47553L75.2107 0.355469L100.269 9.47553Z" fill="black"/>
<path d="M150.399 9.47553L125.341 18.6065L100.271 9.47553L125.341 0.355469L150.399 9.47553Z" fill="black"/>
<path d="M0.0253906 91.4775L25.0837 82.3574L50.153 91.4775L25.0837 100.608L0.0253906 91.4775Z" fill="white"/>
<path d="M100.281 91.4775L125.34 82.3574L150.409 91.4775L125.34 100.608L100.281 91.4775Z" fill="white"/>
<path d="M100.269 59.6035L75.2107 68.7236L50.1523 59.6035V91.4801L75.2107 100.611L100.269 91.4801V59.6035Z" fill="white"/>
<path d="M150.409 109.729L125.351 100.609L100.281 109.729L75.2231 100.609L50.1538 109.729L25.0955 100.609L0.0371094 109.729V141.606L25.0955 150.726L50.1538 141.606L75.2231 150.726L100.281 141.606L125.351 150.726L150.409 141.606V109.729Z" fill="black"/>
<path d="M0.0253906 141.608L25.0837 132.488L50.153 141.608L25.0837 150.728L0.0253906 141.608Z" fill="white"/>
<path d="M100.281 141.608L125.34 132.488L150.409 141.608L125.34 150.728L100.281 141.608Z" fill="white"/>
<path d="M100.269 109.73L75.2107 118.851L50.1523 109.73V141.607L75.2107 150.727L100.269 141.607V109.73Z" fill="white"/>
<path d="M209.444 3.55078H254.849V13.9897H237.732V54.9555H226.447V13.9897H209.406L209.444 3.55078Z" fill="black"/>
<path d="M290.191 2.82031C305.746 2.82031 317.313 14.1057 317.313 29.2656C317.313 44.4256 305.746 55.7109 290.191 55.7109C274.636 55.7109 263.012 44.4256 263.012 29.2656C263.012 14.1057 274.56 2.82031 290.191 2.82031ZM305.67 29.2656C305.633 26.2033 304.691 23.2204 302.962 20.6926C301.232 18.1649 298.794 16.2053 295.953 15.0608C293.113 13.9162 289.997 13.6379 286.998 14.2607C284 14.8836 281.252 16.3798 279.103 18.561C276.953 20.7422 275.496 23.5108 274.917 26.5181C274.338 29.5254 274.661 32.6368 275.847 35.4606C277.032 38.2845 279.027 40.6943 281.579 42.3867C284.132 44.079 287.128 44.9783 290.191 44.9711C292.248 44.9919 294.289 44.5982 296.192 43.8134C298.094 43.0286 299.819 41.8689 301.263 40.4033C302.708 38.9377 303.843 37.1962 304.6 35.2827C305.357 33.3692 305.721 31.3229 305.67 29.2656V29.2656Z" fill="black"/>
<path d="M332.51 3.55078H344.435L359.613 21.5509L374.792 3.55078H386.585V54.9555H375.62V17.6386L359.613 37.1247L343.532 17.7891V54.8991H332.51V3.55078Z" fill="black"/>
<path d="M423.26 12.6585C418.652 12.6585 415.473 14.7463 415.473 17.6993C415.473 20.6523 418.727 21.8561 422.075 22.8153L428.884 24.6962C436.953 26.8592 443.48 30.7715 443.48 39.7433C443.48 49.524 434.075 55.825 423.335 55.825C412.05 55.825 404.526 50.6337 401.705 45.0851L409.022 38.4079C410.562 40.784 412.688 42.7239 415.195 44.0415C417.701 45.359 420.505 46.0099 423.335 45.9315C428.075 45.9315 431.705 44.0506 431.705 40.665C431.705 37.6367 429.034 36.3765 425.48 35.4173L418.144 33.5364C410.884 31.6555 403.699 28.3451 403.699 19.1664C403.699 9.53623 413.103 2.95312 423.918 2.95312C433.925 2.95312 441.035 7.76821 443.912 13.2416L436.727 20.2009C435.333 17.8805 433.357 15.9642 430.995 14.6414C428.633 13.3186 425.967 12.6351 423.26 12.6585V12.6585Z" fill="black"/>
<path d="M460.072 54.9555V3.55078H471.358V54.9555H460.072ZM489.997 3.55078H502.524L484.524 25.9146L505.778 54.9555H492.442L471.414 26.366L489.997 3.55078Z" fill="black"/>
<path d="M214.26 95.7148H234.555C245.219 95.7148 253.363 101.715 253.363 112.643C253.363 123.571 245.144 129.383 234.555 129.383H225.677V147.157H214.391L214.26 95.7148ZM241.589 112.643C241.589 108.712 238.636 105.985 234.065 105.985H225.639V119.527H234.065C238.636 119.489 241.589 116.612 241.589 112.605V112.643Z" fill="black"/>
<path d="M291.224 94.9844C306.779 94.9844 318.346 106.27 318.346 121.43C318.346 136.59 306.779 147.875 291.224 147.875C275.669 147.875 264.045 136.59 264.045 121.43C264.045 106.27 275.594 94.9844 291.224 94.9844ZM306.704 121.43C306.666 118.367 305.724 115.384 303.995 112.857C302.266 110.329 299.827 108.369 296.986 107.225C294.146 106.08 291.03 105.802 288.031 106.425C285.033 107.048 282.286 108.544 280.136 110.725C277.986 112.906 276.53 115.675 275.95 118.682C275.371 121.689 275.694 124.801 276.88 127.625C278.065 130.449 280.06 132.858 282.613 134.551C285.165 136.243 288.161 137.142 291.224 137.135C293.282 137.156 295.322 136.762 297.225 135.977C299.127 135.193 300.852 134.033 302.297 132.567C303.741 131.102 304.876 129.36 305.633 127.447C306.39 125.533 306.754 123.487 306.704 121.43Z" fill="black"/>
<path d="M344.868 136.681H368.567V147.12H333.545V95.7148H344.83L344.868 136.681Z" fill="black"/>
<path d="M382.428 95.7148L395.181 116.405L407.839 95.7148H420.366L400.88 127.577V147.12H389.594V127.709L369.977 95.7337L382.428 95.7148Z" fill="black"/>
<path d="M427.195 95.7148H472.599V106.154H455.483V147.12H444.198V106.154H427.176L427.195 95.7148Z" fill="black"/>
<path d="M487.346 95.7148H526.318V106.041H498.687V116.047H518.155V126.054H498.687V136.718H526.6V147.082H487.346V95.7148Z" fill="black"/>
<path d="M564.611 105.724C560.445 105.724 556.451 107.379 553.505 110.324C550.56 113.27 548.905 117.264 548.905 121.43C548.905 125.595 550.56 129.59 553.505 132.535C556.451 135.48 560.445 137.135 564.611 137.135C567.315 137.145 569.978 136.479 572.36 135.198C574.741 133.917 576.765 132.061 578.247 129.8L586.316 136.759C583.922 140.303 580.668 143.182 576.859 145.126C573.05 147.07 568.81 148.016 564.535 147.875C549.206 147.875 537.281 137.267 537.281 121.43C537.281 105.593 550.165 94.9844 564.46 94.9844C576.611 94.9844 583.495 101.417 586.316 106.082L578.247 113.06C576.765 110.798 574.741 108.942 572.36 107.661C569.978 106.38 567.315 105.714 564.611 105.724V105.724Z" fill="black"/>
<path d="M647.068 95.7148V147.12H635.783V126.242H612.178V147.12H600.893V95.7148H612.178V115.859H635.802V95.7148H647.068Z" fill="black"/>
</svg>
