<svg width="1056" height="148" viewBox="0 0 1056 148" fill="none" xmlns="http://www.w3.org/2000/svg">
<path d="M486.669 25.5155L464.117 17.306L486.669 9.09659L509.191 17.306L486.669 25.5155ZM509.191 62.3679V91.0709L486.669 82.8615L464.147 91.0709V62.4578L486.699 54.2783L509.191 62.3679ZM509.191 107.31V135.983L486.669 127.804L464.147 135.983V107.4L486.699 99.1905L509.191 107.31ZM441.595 115.519L419.073 107.4L441.595 99.1905L464.117 107.4L441.595 115.519ZM419.043 135.983L396.522 127.804L374 135.983V107.4L396.522 99.1905L419.073 107.4L419.043 135.983ZM432.281 99.1006L419.043 103.924L405.836 99.1006L419.043 94.3068L432.281 99.1006ZM464.117 94.3068L477.355 99.1006L464.117 103.924L450.91 99.1006L464.117 94.3068ZM374 90.9212V62.4578L396.522 54.2783L419.073 62.4578L441.595 54.2783L464.117 62.4878L441.595 70.6672L419.073 62.4578V91.1608L396.522 82.9514L374 90.9212ZM374 17.1562L396.522 8.94682L419.043 17.1562L396.522 25.3656L374 17.1562ZM419.073 49.2149L432.281 54.0387L419.073 58.8325L405.836 54.0387L419.073 49.2149ZM441.595 8.94682L464.117 17.1562L441.595 25.3656L419.073 17.1562L441.595 8.94682ZM464.117 49.2149L477.355 54.0387L464.117 58.8325L450.91 54.0387L464.117 49.2149ZM512.366 48.0464V15.0589L486.669 5.71094L464.117 13.9203L441.595 5.71094L419.043 13.9203L396.522 5.71094L370.795 15.0589V48.1962L387.207 54.1885L370.795 60.1807V93.318L387.237 99.3103L370.795 105.303V138.44L396.522 147.788L419.043 139.578L441.595 147.788L464.117 139.578L486.669 147.788L512.366 138.44V105.243L495.954 99.2504L512.366 93.2581V60.1508L495.954 54.1586L512.366 48.0464Z" fill="white"/>
<path d="M159.801 14.4289H168.935V36.3906H174.985V14.4289H184.15V8.82617H159.801V14.4289Z" fill="white"/>
<path d="M203.107 31.0284C201.438 31.0522 199.799 30.5787 198.4 29.6681C197 28.7576 195.903 27.4512 195.247 25.915C194.592 24.3789 194.408 22.6824 194.719 21.0414C195.03 19.4005 195.822 17.8891 196.994 16.6997C198.166 15.5102 199.666 14.6963 201.301 14.3617C202.937 14.027 204.635 14.1866 206.18 14.8201C207.725 15.4537 209.046 16.5326 209.976 17.9196C210.907 19.3066 211.403 20.9391 211.403 22.6093C211.432 23.7125 211.237 24.81 210.832 25.8364C210.427 26.8627 209.819 27.7967 209.044 28.5826C208.27 29.3685 207.345 29.9902 206.325 30.4104C205.305 30.8306 204.211 31.0409 203.107 31.0284ZM203.107 8.4375C200.322 8.50822 197.619 9.39911 195.338 10.9987C193.056 12.5983 191.296 14.8354 190.279 17.4304C189.261 20.0254 189.032 22.8629 189.618 25.5879C190.205 28.3128 191.581 30.8042 193.576 32.7503C195.571 34.6965 198.095 36.0109 200.833 36.5292C203.57 37.0475 206.4 36.7467 208.968 35.6644C211.535 34.582 213.727 32.7661 215.268 30.444C216.81 28.1219 217.632 25.3967 217.633 22.6093C217.647 20.718 217.277 18.8436 216.546 17.0993C215.815 15.3551 214.738 13.7772 213.38 12.461C212.023 11.1448 210.412 10.1175 208.647 9.44146C206.881 8.76536 204.997 8.45443 203.107 8.52738" fill="white"/>
<path d="M240.305 18.4737L232.159 8.82617H225.779V36.3906H231.679V16.4963L240.305 26.8629L248.9 16.4064V36.3906H254.77V8.82617H248.451L240.305 18.4737Z" fill="white"/>
<path d="M274.416 13.71C275.861 13.6933 277.285 14.0515 278.55 14.7499C279.815 15.4484 280.878 16.463 281.634 17.6949L285.497 13.9497C284.359 12.168 282.764 10.7249 280.878 9.77093C278.992 8.81697 276.884 8.38723 274.775 8.52669C268.965 8.52669 263.934 12.0621 263.934 17.2155C263.934 22.3688 267.797 23.9268 271.691 24.9156L275.614 25.9642C277.531 26.4736 278.938 27.1627 278.938 28.7806C278.938 30.3985 276.992 31.597 274.446 31.597C272.931 31.6244 271.433 31.2679 270.093 30.5607C268.752 29.8535 267.612 28.8185 266.779 27.5522L262.855 31.1176C264.081 33.0415 265.808 34.5942 267.85 35.608C269.893 36.6218 272.173 37.0582 274.446 36.8701C280.256 36.8701 285.258 33.5145 285.258 28.2712C285.258 23.5074 281.754 21.3801 277.441 20.2416L273.787 19.2528C271.99 18.7435 270.253 18.1443 270.253 16.4964C270.253 14.8486 271.96 13.7999 274.416 13.7999" fill="white"/>
<path d="M294.152 8.82617V36.3906H300.232V21.0804V8.82617H294.152Z" fill="white"/>
<path d="M307.271 20.8406L316.914 8.82617H310.206L300.232 21.0804L311.523 36.3906H318.651L307.271 20.8406Z" fill="white"/>
<path d="M11.0709 75.7303H6.45864V68.4497H11.0709C11.5757 68.3908 12.0874 68.4389 12.5725 68.5908C13.0576 68.7426 13.5053 68.9948 13.8866 69.331C14.2679 69.6673 14.5743 70.08 14.7857 70.5425C14.9972 71.0049 15.1091 71.5066 15.114 72.0151C15.1165 72.5309 15.0107 73.0414 14.8035 73.5136C14.5964 73.9859 14.2924 74.4094 13.9113 74.7568C13.5302 75.1041 13.0805 75.3676 12.5912 75.5301C12.1019 75.6927 11.584 75.7507 11.0709 75.7004M11.3105 62.9668H0.46875V90.5312H6.45864V81.0335H11.3105C16.941 81.0335 21.3735 77.8576 21.3735 72.0451C21.3735 66.2326 17.0308 63.0567 11.3105 63.0567" fill="white"/>
<path d="M41.5294 85.1983C39.86 85.2221 38.2213 84.7486 36.8216 83.8381C35.422 82.9275 34.3247 81.6211 33.6693 80.0849C33.0139 78.5488 32.8301 76.8523 33.1412 75.2114C33.4522 73.5704 34.2441 72.0591 35.4162 70.8697C36.5883 69.6802 38.0875 68.8664 39.7232 68.5317C41.3589 68.197 43.0571 68.3566 44.6019 68.9901C46.1467 69.6237 47.4682 70.7026 48.3983 72.0896C49.3285 73.4766 49.8252 75.109 49.8254 76.7792C49.8536 77.8824 49.6593 78.98 49.2539 80.0063C48.8485 81.0326 48.2404 81.9667 47.466 82.7526C46.6916 83.5386 45.7667 84.1602 44.7467 84.5804C43.7267 85.0006 42.6324 85.2108 41.5294 85.1983ZM41.5294 62.6074C37.7723 62.6074 34.1691 64.1006 31.5124 66.7583C28.8558 69.416 27.3633 73.0206 27.3633 76.7792C27.3633 80.5378 28.8558 84.1424 31.5124 86.8001C34.1691 89.4578 37.7723 90.951 41.5294 90.951C45.2865 90.951 48.8897 89.4578 51.5463 86.8001C54.203 84.1424 55.6955 80.5378 55.6955 76.7792C55.6955 73.0206 54.203 69.416 51.5463 66.7583C48.8897 64.1006 45.2865 62.6074 41.5294 62.6074" fill="white"/>
<path d="M69.8922 62.9971H63.8125V90.5616H82.5908V84.9588H69.8922V62.9971Z" fill="white"/>
<path d="M96.8458 74.0828L90.0173 62.9971H83.3086L93.8508 80.165V90.5616H99.9006V80.0751L110.353 62.9971H103.644L96.8458 74.0828Z" fill="white"/>
<path d="M114.008 68.5998H123.142V90.5616H129.192V68.5998H138.357V62.9971H114.008V68.5998Z" fill="white"/>
<path d="M152.343 79.2961H162.796V73.933H152.343V68.5699H167.168V62.9971H146.264V90.5616H167.318V84.9887H152.343V79.2961Z" fill="white"/>
<path d="M187.683 68.45C189.149 68.4103 190.6 68.741 191.903 69.4113C193.207 70.0816 194.32 71.07 195.141 72.285L199.334 68.45C198.068 66.5145 196.319 64.9434 194.26 63.8923C192.201 62.8412 189.903 62.3467 187.594 62.4577C185.701 62.4056 183.817 62.7337 182.053 63.4226C180.289 64.1114 178.681 65.147 177.324 66.4682C175.967 67.7894 174.889 69.3694 174.152 71.1146C173.416 72.8599 173.037 74.7352 173.038 76.6295C172.999 78.5398 173.353 80.4377 174.079 82.2049C174.806 83.972 175.888 85.5705 177.26 86.9003C178.631 88.2302 180.262 89.2629 182.05 89.9341C183.839 90.6052 185.746 90.9004 187.653 90.8011C189.948 90.8726 192.223 90.3603 194.266 89.3123C196.309 88.2643 198.053 86.7147 199.334 84.8089L195.141 81.2734C194.345 82.4835 193.26 83.476 191.984 84.1613C190.708 84.8466 189.281 85.203 187.833 85.1984C185.601 85.1984 183.461 84.3114 181.882 82.7325C180.304 81.1536 179.417 79.0121 179.417 76.7792C179.417 74.5463 180.304 72.4049 181.882 70.826C183.461 69.2471 185.601 68.3601 187.833 68.3601" fill="white"/>
<path d="M225.838 73.8132H213.17V62.9971H207.09V90.5616H213.17V79.3561H225.838V90.5616H231.888V62.9971H225.838V73.8132Z" fill="white"/>
<path d="M261.389 80.5545L248.451 62.9971H242.371V90.5616H248.301V72.1652L261.928 90.5616H267.319V62.9971H261.389V80.5545Z" fill="white"/>
<path d="M283.881 62.9971H277.801V90.5616H283.881V62.9971Z" fill="white"/>
<path d="M307.032 85.1977C304.8 85.1977 302.659 84.3106 301.081 82.7317C299.503 81.1528 298.616 79.0114 298.616 76.7785C298.616 74.5456 299.503 72.4042 301.081 70.8253C302.659 69.2464 304.8 68.3594 307.032 68.3594C308.48 68.3547 309.906 68.7111 311.182 69.3964C312.458 70.0817 313.543 71.0742 314.339 72.2843L318.652 68.5691C317.396 66.6317 315.653 65.0584 313.598 64.0068C311.543 62.9551 309.247 62.4621 306.942 62.5768C305.048 62.5248 303.162 62.8527 301.397 63.5412C299.631 64.2297 298.021 65.2649 296.662 66.5857C295.303 67.9065 294.221 69.4861 293.482 71.2315C292.742 72.9769 292.36 74.8528 292.357 76.7485C292.317 78.6588 292.671 80.5569 293.398 82.324C294.124 84.0912 295.207 85.6897 296.578 87.0195C297.95 88.3493 299.581 89.3821 301.369 90.0532C303.157 90.7244 305.064 91.0195 306.972 90.9203C309.268 91.0002 311.546 90.4917 313.591 89.4429C315.635 88.3941 317.377 86.84 318.652 84.928L314.339 81.2128C313.543 82.4229 312.458 83.4154 311.182 84.1007C309.906 84.786 308.48 85.1424 307.032 85.1378" fill="white"/>
<path d="M61.626 132.897C61.7011 133.757 61.5896 134.622 61.2992 135.435C61.0088 136.248 60.5463 136.988 59.9434 137.606C59.3405 138.223 58.6113 138.703 57.8059 139.012C57.0004 139.322 56.1377 139.453 55.2767 139.398C54.4157 139.453 53.5529 139.322 52.7475 139.012C51.942 138.703 51.2129 138.223 50.61 137.606C50.0071 136.988 49.5446 136.248 49.2542 135.435C48.9638 134.622 48.8523 133.757 48.9274 132.897V117.167H42.9375V133.166C42.9375 140.747 47.9391 145.151 55.3665 145.151C56.9983 145.31 58.6453 145.113 60.1935 144.573C61.7418 144.034 63.1543 143.164 64.3334 142.024C65.5125 140.884 66.4301 139.502 67.0227 137.973C67.6153 136.443 67.8688 134.803 67.7656 133.166V117.167H61.7757L61.626 132.897Z" fill="white"/>
<path d="M96.9652 134.724L84.027 117.167H77.9473V144.731H83.8773V126.335L97.5043 144.731H102.895V117.167H96.9652V134.724Z" fill="white"/>
<path d="M119.459 117.167H113.379V144.731H119.459V117.167Z" fill="white"/>
<path d="M140.423 136.582L133.145 117.167H126.676L137.278 144.731H143.477L154.169 117.167H147.7L140.423 136.582Z" fill="white"/>
<path d="M167.466 133.436H177.919V128.073H167.466V122.71H182.291V117.167H161.387V144.731H182.441V139.159H167.466V133.436Z" fill="white"/>
<path d="M201.909 129.9H197.356V122.65H201.909C204.514 122.65 206.072 124.118 206.072 126.215C206.071 126.741 205.96 127.26 205.744 127.739C205.528 128.218 205.213 128.646 204.819 128.995C204.426 129.343 203.963 129.604 203.461 129.76C202.959 129.916 202.43 129.964 201.909 129.9ZM212.301 126.215C212.301 120.373 208.048 117.227 202.148 117.227H191.307V144.791H197.297V135.263H201.4L208.048 144.791H214.997L207.449 134.005C208.921 133.332 210.161 132.24 211.013 130.865C211.866 129.489 212.293 127.892 212.241 126.275" fill="white"/>
<path d="M230.33 122.051C231.776 122.032 233.202 122.385 234.472 123.078C235.741 123.771 236.811 124.779 237.578 126.006L241.411 122.38C240.291 120.574 238.702 119.106 236.815 118.13C234.927 117.154 232.81 116.707 230.689 116.838C224.879 116.838 219.848 120.373 219.848 125.556C219.848 130.74 223.711 132.268 227.605 133.256L231.528 134.275C233.445 134.814 234.852 135.474 234.852 137.092C234.852 138.709 232.906 139.938 230.36 139.938C228.842 139.962 227.343 139.601 226.002 138.888C224.661 138.176 223.523 137.135 222.693 135.863L218.77 139.458C220.002 141.375 221.73 142.923 223.771 143.935C225.812 144.948 228.089 145.389 230.36 145.211C236.17 145.211 241.172 141.825 241.172 136.582C241.172 131.818 237.698 129.721 233.355 128.582L229.701 127.564C227.904 127.054 226.167 126.455 226.167 124.837C226.167 123.219 227.874 122.141 230.33 122.141" fill="white"/>
<path d="M255.757 117.167H249.678V144.731H255.757V117.167Z" fill="white"/>
<path d="M263.605 122.77H272.74V144.731H278.79V122.77H287.954V117.167H263.605V122.77Z" fill="white"/>
<path d="M311.943 117.167L305.145 128.223L298.316 117.167H291.607L302.15 134.305V144.731H308.199V134.245L318.652 117.167H311.943Z" fill="white"/>
<path d="M565.166 8.82617H589.515V14.4289H580.32V36.3906H574.301V14.4289H565.166V8.82617Z" fill="white"/>
<path d="M616.738 22.6085C616.72 20.9638 616.216 19.3611 615.289 18.0026C614.362 16.6441 613.054 15.5906 611.53 14.9748C610.005 14.3591 608.332 14.2086 606.723 14.5425C605.113 14.8764 603.638 15.6797 602.483 16.8511C601.329 18.0224 600.547 19.5094 600.237 21.1246C599.926 22.7397 600.1 24.4108 600.738 25.927C601.375 27.4432 602.447 28.7367 603.818 29.6444C605.189 30.5521 606.798 31.0334 608.442 31.0276C609.545 31.04 610.639 30.8298 611.659 30.4096C612.68 29.9894 613.604 29.3677 614.379 28.5818C615.153 27.7959 615.761 26.8619 616.167 25.8356C616.572 24.8092 616.766 23.7117 616.738 22.6085M608.442 8.52657C611.225 8.60899 613.921 9.50972 616.195 11.1162C618.469 12.7227 620.219 14.9636 621.227 17.5593C622.235 20.155 622.457 22.9905 621.864 25.7113C621.271 28.4322 619.89 30.9179 617.893 32.8581C615.896 34.7983 613.372 36.107 610.636 36.6207C607.9 37.1344 605.073 36.8302 602.509 35.7464C599.945 34.6625 597.757 32.8469 596.218 30.5264C594.679 28.2058 593.858 25.4831 593.857 22.6983C593.831 20.7943 594.193 18.9048 594.922 17.1459C595.651 15.3869 596.732 13.7953 598.097 12.4686C599.463 11.1419 601.084 10.108 602.863 9.43013C604.642 8.7523 606.54 8.44483 608.442 8.52657" fill="white"/>
<path d="M631.504 8.82617H637.913L646.059 18.4737L654.206 8.82617H660.525V36.3906H654.625V16.4064L646.059 26.8629L637.434 16.4963V36.3906H631.504V8.82617Z" fill="white"/>
<path d="M683.317 14.1898C681.085 14.1898 678.944 15.0768 677.366 16.6557C675.788 18.2346 674.901 20.376 674.901 22.6089C674.901 24.8418 675.788 26.9833 677.366 28.5622C678.944 30.1411 681.085 31.0281 683.317 31.0281C684.765 31.0327 686.191 30.6763 687.467 29.991C688.743 29.3057 689.828 28.3132 690.625 27.1031L694.937 30.8483C693.658 32.7562 691.915 34.3072 689.872 35.3555C687.828 36.4038 685.552 36.9148 683.257 36.8406C681.35 36.9398 679.442 36.6446 677.654 35.9734C675.866 35.3023 674.235 34.2695 672.863 32.9397C671.492 31.6099 670.409 30.0115 669.683 28.2443C668.956 26.4772 668.602 24.5791 668.642 22.6688C668.649 20.7678 669.037 18.8876 669.784 17.1396C670.53 15.3915 671.62 13.8112 672.989 12.4924C674.358 11.1736 675.977 10.143 677.751 9.46186C679.525 8.78071 681.418 8.46285 683.317 8.52703C685.622 8.41227 687.918 8.90543 689.973 9.95707C692.028 11.0087 693.771 12.5819 695.027 14.5193L690.714 18.2345C689.918 17.0244 688.833 16.0319 687.557 15.3466C686.281 14.6613 684.855 14.3049 683.407 14.3096" fill="white"/>
<path d="M718.778 8.82617H725.486L715.842 20.8107L727.223 36.3607H720.095L708.804 21.0504L718.778 8.82617ZM702.725 8.82617H708.715V36.3906H702.725V8.82617Z" fill="white"/>
<path d="M740.19 27.2224L753.038 8.82617H759.118V36.3906H753.128V17.9045L740.22 36.3906H734.17V8.82617H740.19V27.2224Z" fill="white"/>
<path d="M779.544 0.0175781C779.507 0.364086 779.541 0.714515 779.645 1.04723C779.749 1.37994 779.919 1.68788 780.147 1.95188C780.374 2.21589 780.653 2.43033 780.967 2.58205C781.281 2.73378 781.622 2.81955 781.97 2.83396C782.318 2.8151 782.658 2.72666 782.971 2.57392C783.284 2.42117 783.564 2.20722 783.793 1.94466C784.021 1.6821 784.195 1.3763 784.304 1.04531C784.413 0.714313 784.454 0.364832 784.426 0.0175781H788.828C788.828 1.84522 788.103 3.59799 786.811 4.89033C785.519 6.18266 783.767 6.90866 781.94 6.90866C780.113 6.90866 778.361 6.18266 777.069 4.89033C775.777 3.59799 775.052 1.84522 775.052 0.0175781H779.544ZM775.561 27.2225L788.439 8.82624H794.429V36.3907H788.439V17.8745L775.531 36.3907H769.541V8.82624H775.531L775.561 27.2225Z" fill="white"/>
<path d="M593.318 90.5616H587.298V68.5998H574.599V90.5616H568.52V62.9971H593.318V90.5616Z" fill="white"/>
<path d="M624.137 76.7788C624.119 75.1341 623.615 73.5315 622.688 72.173C621.761 70.8145 620.453 69.7609 618.929 69.1452C617.404 68.5294 615.731 68.379 614.121 68.7129C612.512 69.0468 611.036 69.8501 609.882 71.0214C608.728 72.1928 607.946 73.6798 607.636 75.295C607.325 76.9102 607.499 78.5811 608.137 80.0974C608.774 81.6136 609.846 82.9071 611.217 83.8148C612.588 84.7225 614.197 85.2038 615.841 85.198C616.943 85.2062 618.035 84.9932 619.053 84.5715C620.072 84.1499 620.995 83.5281 621.768 82.743C622.542 81.958 623.15 81.0256 623.557 80.0012C623.964 78.9767 624.161 77.8809 624.137 76.7788M615.841 62.607C618.624 62.6895 621.32 63.5902 623.594 65.1967C625.868 66.8031 627.618 69.0442 628.626 71.6399C629.634 74.2356 629.856 77.0709 629.263 79.7918C628.67 82.5126 627.288 84.9984 625.292 86.9386C623.295 88.8788 620.771 90.1875 618.035 90.7012C615.299 91.2148 612.472 90.9108 609.908 89.8269C607.344 88.7431 605.156 86.9274 603.617 84.6068C602.078 82.2863 601.257 79.5636 601.256 76.7788C601.225 74.8736 601.585 72.9822 602.312 71.2212C603.04 69.4602 604.12 67.8669 605.487 66.5393C606.853 65.2117 608.476 64.1779 610.257 63.5016C612.038 62.8254 613.938 62.5209 615.841 62.607" fill="white"/>
<path d="M634.799 90.7713V85.1985H636.356C638.782 85.1985 640.01 84.06 640.01 80.8241V62.9971H661.484V90.5616H655.494V68.4501H645.88V81.0938C645.88 86.8164 643.364 90.6515 637.105 90.6515L634.799 90.7713Z" fill="white"/>
<path d="M677.955 81.3934L690.804 62.9971H696.883V90.5616H690.894V72.0455L677.985 90.5616H671.936V62.9971H677.955V81.3934Z" fill="white"/>
<path d="M704.76 62.9971H729.109V68.5998H719.914V90.5616H713.894V68.5998H704.76V62.9971Z" fill="white"/>
<path d="M736.986 62.9971H757.891V68.5699H743.066V73.9031H753.518V79.2961H743.066V84.9887H758.041V90.5616H736.986V62.9971Z" fill="white"/>
<path d="M778.585 72.375L785.564 62.9971H792.482L782.329 76.5696L792.931 90.5616H785.504L778.076 80.944L770.679 90.5616H763.73L774.333 76.5696L764.12 62.9971H771.487L778.585 72.375Z" fill="white"/>
<path d="M825.007 62.9971V90.5616H818.987V79.3561H806.289V90.5616H800.209V62.9971H806.289V73.8132H818.987V62.9971H825.007Z" fill="white"/>
<path d="M841.48 81.3934L854.358 62.9971H860.438V90.5616H854.448V72.0455L841.51 90.5616H835.49V62.9971H841.48V81.3934Z" fill="white"/>
<path d="M892.364 62.9971V90.5616H886.375V80.0451H878.707C873.796 80.0451 869.723 77.858 869.723 72.0155V63.0271H875.713V71.2964C875.713 73.7233 877.27 74.5022 879.606 74.5022H886.345V63.0271L892.364 62.9971Z" fill="white"/>
<path d="M902.846 62.9971H923.75V68.5699H908.925V73.9031H919.378V79.2961H908.925V84.9887H923.9V90.5616H902.846V62.9971Z" fill="white"/>
<path d="M944.266 68.4498C942.034 68.4498 939.893 69.3369 938.315 70.9158C936.736 72.4947 935.85 74.6361 935.85 76.869C935.85 79.1019 936.736 81.2433 938.315 82.8222C939.893 84.4011 942.034 85.2881 944.266 85.2881C945.714 85.2928 947.14 84.9364 948.416 84.2511C949.692 83.5658 950.777 82.5733 951.573 81.3632L955.916 85.0784C954.635 86.9843 952.891 88.5338 950.848 89.5818C948.805 90.6299 946.53 91.1421 944.236 91.0707C942.328 91.1699 940.421 90.8747 938.633 90.2036C936.844 89.5324 935.213 88.4997 933.842 87.1699C932.47 85.84 931.388 84.2416 930.661 82.4744C929.935 80.7072 929.581 78.8093 929.62 76.899C929.619 75.0047 929.998 73.1295 930.735 71.3842C931.471 69.6389 932.549 68.0589 933.906 66.7377C935.263 65.4165 936.871 64.381 938.635 63.6921C940.399 63.0033 942.283 62.6751 944.176 62.7272C946.485 62.6162 948.783 63.1108 950.842 64.1618C952.901 65.2129 954.65 66.784 955.916 68.7195L951.573 72.4347C950.777 71.2246 949.692 70.2321 948.416 69.5468C947.14 68.8615 945.714 68.5051 944.266 68.5097" fill="white"/>
<path d="M979.817 62.9971H986.525L976.881 74.9816L988.292 90.5616H981.134L969.843 75.2214L979.817 62.9971ZM963.764 62.9971H969.754V90.5616H963.764V62.9971Z" fill="white"/>
<path d="M1001.14 81.3934L1014.02 62.9971H1020.1V90.5616H1014.08V72.0455L1001.17 90.5616H995.15V62.9971H1001.14V81.3934Z" fill="white"/>
<path d="M1040.49 54.1885C1040.46 54.5342 1040.5 54.883 1040.6 55.2138C1040.71 55.5447 1040.88 55.8509 1041.11 56.1139C1041.33 56.377 1041.61 56.5915 1041.92 56.7446C1042.23 56.8977 1042.57 56.9862 1042.92 57.0049C1043.27 56.986 1043.61 56.8977 1043.92 56.7449C1044.23 56.5922 1044.51 56.3781 1044.74 56.1156C1044.97 55.853 1045.15 55.5472 1045.25 55.2162C1045.36 54.8852 1045.4 54.5357 1045.38 54.1885H1049.78C1049.78 56.0161 1049.05 57.7689 1047.76 59.0612C1046.47 60.3536 1044.72 61.0797 1042.89 61.0797C1041.06 61.0797 1039.31 60.3536 1038.02 59.0612C1036.73 57.7689 1036 56.0161 1036 54.1885H1040.49ZM1036.51 81.3935L1049.39 62.9971H1055.38V90.5617H1049.39V72.0455L1036.72 90.5617H1030.73V62.9971H1036.72L1036.51 81.3935Z" fill="white"/>
<path d="M568.611 139.159H571.426C572.217 139.269 573.022 139.191 573.777 138.931C574.532 138.67 575.214 138.235 575.769 137.661L564.508 117.167H571.187L578.854 131.339L584.843 117.167H591.193L581.729 138.649C581.091 140.457 579.893 142.013 578.309 143.091C576.725 144.169 574.838 144.712 572.924 144.642H568.611V139.159Z" fill="white"/>
<path d="M623.388 117.167V144.731H617.338V133.526H604.67V144.731H598.59V117.167H604.67V127.953H617.338V117.167H623.388Z" fill="white"/>
<path d="M639.859 135.533L652.737 117.167H658.817V144.731H652.797V126.215L639.889 144.731H633.869V117.167H639.859V135.533Z" fill="white"/>
<path d="M680.771 139.668C683.017 139.668 684.964 138.65 684.964 136.313C684.964 133.976 683.017 132.957 680.771 132.957H675.32V139.668H680.771ZM679.932 122.171H675.32V128.373H679.932C680.387 128.437 680.85 128.403 681.29 128.273C681.73 128.143 682.137 127.92 682.483 127.619C682.83 127.318 683.107 126.946 683.298 126.528C683.488 126.11 683.586 125.656 683.586 125.197C683.586 123.25 682.118 122.201 679.932 122.201M669.24 117.197H680.831C686.461 117.197 689.816 120.193 689.816 124.448C689.836 125.739 689.439 127.003 688.684 128.051C687.928 129.098 686.854 129.873 685.623 130.26C687.181 130.467 688.608 131.241 689.631 132.436C690.653 133.63 691.199 135.16 691.163 136.732C691.163 141.766 687.12 144.762 681.31 144.762H669.33L669.24 117.197Z" fill="white"/>
<path d="M699.699 117.167H720.604V122.71H705.779V128.073H716.231V133.436H705.779V139.159H720.754V144.731H699.699V117.167Z" fill="white"/>
<path d="M744.264 126.215C744.259 125.707 744.148 125.205 743.936 124.742C743.725 124.28 743.418 123.867 743.037 123.531C742.656 123.195 742.208 122.942 741.723 122.791C741.238 122.639 740.726 122.591 740.221 122.65H735.699V129.9H740.221C740.734 129.951 741.252 129.893 741.742 129.73C742.231 129.567 742.681 129.304 743.062 128.957C743.443 128.609 743.747 128.186 743.954 127.714C744.161 127.241 744.267 126.731 744.264 126.215ZM729.619 117.227H740.461C746.181 117.227 750.494 120.432 750.494 126.215C750.494 131.998 746.091 135.203 740.461 135.203H735.699V144.731H729.709L729.619 117.227Z" fill="white"/>
<path d="M770.949 122.53C768.717 122.53 766.576 123.417 764.998 124.996C763.42 126.575 762.533 128.716 762.533 130.949C762.533 133.182 763.42 135.324 764.998 136.903C766.576 138.482 768.717 139.369 770.949 139.369C772.401 139.375 773.831 139.017 775.108 138.326C776.385 137.634 777.468 136.633 778.257 135.414L782.599 139.159C781.322 141.069 779.58 142.621 777.536 143.67C775.492 144.718 773.215 145.228 770.919 145.151C769.012 145.25 767.104 144.955 765.316 144.284C763.528 143.613 761.897 142.58 760.526 141.25C759.154 139.92 758.071 138.322 757.345 136.555C756.619 134.788 756.264 132.89 756.304 130.979C756.303 129.081 756.683 127.202 757.42 125.453C758.158 123.704 759.239 122.121 760.598 120.797C761.958 119.473 763.569 118.435 765.337 117.745C767.104 117.054 768.992 116.726 770.889 116.778C773.193 116.672 775.485 117.169 777.539 118.22C779.592 119.271 781.337 120.839 782.599 122.77L778.257 126.515C777.467 125.299 776.383 124.302 775.105 123.616C773.828 122.93 772.399 122.577 770.949 122.59" fill="white"/>
<path d="M796.377 135.533L809.255 117.167H815.305V144.731H809.315V126.215L796.407 144.731H790.387V117.167H796.377V135.533Z" fill="white"/>
<path d="M823.182 117.167H847.53V122.77H838.336V144.731H832.316V122.77H823.182V117.167Z" fill="white"/>
<path d="M855.436 117.167H876.31V122.71H861.515V128.073H871.938V133.436H861.515V139.159H876.49V144.731H855.436V117.167Z" fill="white"/>
<path d="M882.361 117.167H906.71V122.77H897.516V144.731H891.496V122.77H882.361V117.167Z" fill="white"/>
</svg>
