<svg width="359" height="328" viewBox="0 0 359 328" fill="none" xmlns="http://www.w3.org/2000/svg">
<path d="M0.0207804 14.251H37.8455V22.9407H23.5884V57.0787H14.1839V22.9407H0.00195312L0.0207804 14.251Z" fill="black"/>
<path d="M67.2797 13.6299C80.239 13.6299 89.8504 23.0345 89.8504 35.6553C89.8504 48.276 80.239 57.6804 67.2797 57.6804C54.3203 57.6804 44.709 48.276 44.709 35.6553C44.709 23.0345 54.2451 13.6299 67.2797 13.6299ZM80.1637 35.6553C80.1155 33.109 79.316 30.6335 77.8655 28.5402C76.415 26.4468 74.3783 24.8289 72.0112 23.8894C69.644 22.9499 67.052 22.7309 64.5607 23.2598C62.0695 23.7887 59.7902 25.042 58.009 26.8622C56.2277 28.6825 55.0241 30.9885 54.5492 33.4906C54.0744 35.9927 54.3495 38.5793 55.3401 40.9255C56.3306 43.2718 57.9923 45.2729 60.1166 46.6777C62.2408 48.0825 64.7329 48.8285 67.2797 48.8215C69 48.8375 70.706 48.5057 72.295 47.8462C73.8839 47.1866 75.3232 46.2127 76.5265 44.983C77.7298 43.7534 78.6723 42.2933 79.2973 40.6904C79.9223 39.0875 80.217 37.3749 80.1637 35.6553V35.6553Z" fill="black"/>
<path d="M103.131 14.251H113.062L125.72 29.2981L138.36 14.251H148.178V57.0787H139.037V26.0251L125.72 42.2572L112.328 26.1569V57.0787H103.131V14.251Z" fill="black"/>
<path d="M183.593 22.5829C180.38 22.949 177.414 24.4848 175.261 26.8974C173.107 29.31 171.917 32.4306 171.917 35.6645C171.917 38.8983 173.107 42.0191 175.261 44.4318C177.414 46.8444 180.38 48.3801 183.593 48.7462C185.834 48.7434 188.038 48.1832 190.008 47.116C191.978 46.0489 193.652 44.5084 194.878 42.6333L201.593 48.4264C199.603 51.379 196.895 53.7774 193.723 55.3961C190.551 57.0149 187.02 57.8009 183.461 57.6804C170.69 57.6804 160.74 48.8591 160.74 35.6553C160.74 22.4514 171.48 13.6299 183.311 13.6299C193.43 13.6299 199.186 18.9905 201.518 22.8839L194.803 28.6958C193.584 26.8313 191.922 25.2974 189.966 24.2308C188.01 23.1642 185.821 22.5982 183.593 22.5829V22.5829Z" fill="black"/>
<path d="M213.857 57.0787V14.251H223.262V57.0787H213.857ZM238.798 14.251H249.218L234.171 32.8904L251.889 57.0787H240.773L223.262 33.2479L238.798 14.251Z" fill="black"/>
<path d="M271.96 42.8216L291.954 14.251H301.358V57.0787H292.048V28.32L271.979 57.0787H262.574V14.251H271.885L271.96 42.8216Z" fill="black"/>
<path d="M326.937 42.8231L346.931 14.2525H356.335V57.0802H347.025V28.3215L326.975 57.0802H317.57V14.2525H326.975L326.937 42.8231ZM333.106 0.55957C333.055 1.09544 333.112 1.63606 333.276 2.1491C333.439 2.66214 333.704 3.13686 334.055 3.54461C334.407 3.95236 334.837 4.28488 335.321 4.52179C335.804 4.75871 336.331 4.89513 336.868 4.92314C337.402 4.88505 337.924 4.7418 338.402 4.50159C338.88 4.26138 339.307 3.92901 339.656 3.52349C340.006 3.11797 340.272 2.64742 340.439 2.13877C340.606 1.63011 340.671 1.0934 340.63 0.55957H347.476C347.476 3.39799 346.349 6.12015 344.342 8.12722C342.335 10.1343 339.613 11.2617 336.774 11.2617C333.936 11.2617 331.214 10.1343 329.206 8.12722C327.199 6.12015 326.072 3.39799 326.072 0.55957H333.106Z" fill="black"/>
<path d="M48.0591 134.875H38.6547V100.755H18.9806V134.875H9.57617V92.0654H48.0779L48.0591 134.875Z" fill="black"/>
<path d="M83.0394 91.4443C95.9988 91.4443 105.61 100.849 105.61 113.47C105.61 126.09 95.98 135.495 83.0394 135.495C70.0989 135.495 60.4688 126.09 60.4688 113.47C60.4688 100.849 70.0237 91.4443 83.0394 91.4443ZM95.9423 113.47C95.8978 110.919 95.1002 108.438 93.6499 106.339C92.1995 104.24 90.1611 102.617 87.7908 101.673C85.4205 100.729 82.824 100.507 80.3278 101.035C77.8317 101.562 75.5472 102.816 73.7615 104.638C71.9758 106.46 70.7685 108.77 70.2914 111.276C69.8144 113.782 70.0889 116.373 71.0803 118.724C72.0718 121.075 73.736 123.08 75.8638 124.488C77.9916 125.896 80.4881 126.643 83.0394 126.636C84.7607 126.652 86.4674 126.32 88.0574 125.661C89.6473 125.001 91.0878 124.028 92.2926 122.798C93.4974 121.569 94.4417 120.109 95.0688 118.506C95.6959 116.903 95.993 115.19 95.9423 113.47V113.47Z" fill="black"/>
<path d="M112.535 135.194V126.542H114.943C118.704 126.542 120.585 124.661 120.585 119.771V92.0654H153.915V134.875H144.51V100.699H129.576V120.373C129.576 129.269 125.683 135.194 115.94 135.194H112.535Z" fill="black"/>
<path d="M179.55 120.655L199.544 92.1029H208.948V134.912H199.638V106.172L179.569 134.912H170.164V92.0654H179.569L179.55 120.655Z" fill="black"/>
<path d="M221.213 92.0654H259V100.755H244.743V134.875H235.338V100.755H221.156L221.213 92.0654Z" fill="black"/>
<path d="M271.32 92.0654H303.766V100.699H280.762V109.031H296.995V117.363H280.762V126.298H304.029V134.931H271.32V92.0654Z" fill="black"/>
<path d="M335.928 106.624L346.78 92.0654H357.52L341.758 113.131L358.235 134.837H346.705L335.156 119.902L323.683 134.837H312.887L329.363 113.131L313.545 92.0654H324.83L335.928 106.624Z" fill="black"/>
<path d="M259.513 236.14L234.454 227.02L209.385 236.14L184.327 227.02L159.257 236.14L134.199 227.02L109.141 236.14V268.016L134.199 277.147L159.257 268.016L184.327 277.147L209.385 268.016L234.454 277.147L259.513 268.016V236.14Z" fill="black"/>
<path d="M259.502 186.013H259.513L234.454 176.893L209.385 186.013L184.327 176.893L159.257 186.013L134.199 176.893L109.141 186.013V217.9L134.199 227.02L159.257 217.9L184.327 227.02L209.385 217.9L234.454 227.02L259.513 217.9V186.013H259.502Z" fill="white"/>
<path d="M159.258 186.013L134.189 195.144L109.131 186.013L134.189 176.893L159.258 186.013Z" fill="black"/>
<path d="M209.373 186.013L184.314 195.144L159.256 186.013L184.314 176.893L209.373 186.013Z" fill="black"/>
<path d="M259.503 186.013L234.444 195.144L209.375 186.013L234.444 176.893L259.503 186.013Z" fill="black"/>
<path d="M109.131 268.016L134.189 258.896L159.258 268.016L134.189 277.147L109.131 268.016Z" fill="white"/>
<path d="M209.387 268.016L234.445 258.896L259.514 268.016L234.445 277.147L209.387 268.016Z" fill="white"/>
<path d="M209.373 236.141L184.314 245.261L159.256 236.141V268.017L184.314 277.148L209.373 268.017V236.141Z" fill="white"/>
<path d="M259.513 286.269L234.454 277.149L209.385 286.269L184.327 277.149L159.257 286.269L134.199 277.149L109.141 286.269V318.146L134.199 327.266L159.257 318.146L184.327 327.266L209.385 318.146L234.454 327.266L259.513 318.146V286.269Z" fill="black"/>
<path d="M109.131 318.145L134.189 309.025L159.258 318.145L134.189 327.266L109.131 318.145Z" fill="white"/>
<path d="M209.387 318.145L234.445 309.025L259.514 318.145L234.445 327.266L209.387 318.145Z" fill="white"/>
<path d="M209.373 286.268L184.314 295.388L159.256 286.268V318.144L184.314 327.264L209.373 318.144V286.268Z" fill="white"/>
</svg>
