<svg width="496" height="392" viewBox="0 0 496 392" fill="none" xmlns="http://www.w3.org/2000/svg">
<path d="M123.085 0.914062H160.909V9.6226H146.652V43.742H137.248V9.6226H123.047L123.085 0.914062Z" fill="black"/>
<path d="M190.287 0.292969C203.247 0.292969 212.858 9.69737 212.858 22.337C212.858 34.9765 203.228 44.3623 190.287 44.3623C177.347 44.3623 167.717 34.9577 167.717 22.337C167.717 9.71617 177.328 0.292969 190.287 0.292969ZM203.19 22.337C203.146 19.786 202.348 17.3052 200.898 15.2062C199.448 13.1073 197.409 11.4841 195.039 10.5403C192.669 9.5965 190.072 9.37443 187.576 9.902C185.08 10.4296 182.795 11.6832 181.01 13.5054C179.224 15.3275 178.017 17.6368 177.54 20.1431C177.063 22.6494 177.337 25.2408 178.328 27.5916C179.32 29.9424 180.984 31.9476 183.112 33.3553C185.24 34.7629 187.736 35.5102 190.287 35.5032C192.013 35.5268 193.726 35.2008 195.323 34.5448C196.919 33.8889 198.367 32.9167 199.578 31.6865C200.788 30.4564 201.738 28.9938 202.368 27.387C202.999 25.7802 203.298 24.0623 203.247 22.337H203.19Z" fill="black"/>
<path d="M225.592 0.914062H235.523L248.162 15.9612L260.821 0.914062H270.62V43.742H261.498V12.7073L248.162 28.9394L234.771 12.8202V43.742H225.592V0.914062Z" fill="black"/>
<path d="M301.26 8.51088C297.498 8.51088 294.771 10.2413 294.771 12.7052C294.771 15.1692 297.479 16.1661 300.263 16.9561L305.906 18.4985C312.62 20.2854 318.056 23.5581 318.056 30.9688C318.056 39.1131 310.288 44.3608 301.279 44.3608C291.874 44.3608 285.667 40.0347 283.26 35.4077L289.373 29.765C290.647 31.7511 292.413 33.3744 294.499 34.4783C296.584 35.5821 298.92 36.129 301.279 36.066C305.229 36.066 308.257 34.5802 308.257 31.6836C308.257 29.1444 306.019 28.0909 303.066 27.301L296.953 25.6834C290.915 24.1411 284.915 21.3762 284.915 13.721C284.915 5.68959 292.758 0.197266 301.843 0.197266C310.175 0.197266 316.1 4.22248 318.508 8.77424L312.526 14.5861C311.335 12.6848 309.671 11.1254 307.696 10.0605C305.721 8.99552 303.503 8.46157 301.26 8.51088V8.51088Z" fill="black"/>
<path d="M331.844 43.742V0.914062H341.248V43.742H331.844ZM356.766 0.914062H367.204L352.157 19.5538L369.856 43.742H358.759L341.229 19.9301L356.766 0.914062Z" fill="black"/>
<path d="M0.65625 78.7246H17.5843C26.4621 78.7246 33.1956 83.728 33.1956 92.7939C33.1956 101.86 26.3304 106.731 17.5843 106.731H10.0984V121.628H0.693905L0.65625 78.7246ZM23.4338 92.7939C23.4338 89.5211 20.9511 87.1512 17.1329 87.1512H10.0984V98.4365H17.1329C17.9244 98.5148 18.7236 98.4276 19.4796 98.1805C20.2357 97.9334 20.932 97.5317 21.5246 97.0011C22.1171 96.4704 22.5929 95.8224 22.9216 95.0981C23.2502 94.3738 23.4246 93.5892 23.4338 92.7939V92.7939Z" fill="black"/>
<path d="M64.4555 78.1035C77.4148 78.1035 87.0261 87.5079 87.0261 100.129C87.0261 112.749 77.396 122.173 64.4555 122.173C51.5149 122.173 41.8848 112.768 41.8848 100.129C41.8848 87.4891 51.4397 78.1035 64.4555 78.1035ZM77.3584 100.129C77.3139 97.5778 76.5164 95.0971 75.066 92.9982C73.6156 90.8992 71.5771 89.2758 69.2068 88.332C66.8365 87.3882 64.2401 87.1661 61.744 87.6937C59.2478 88.2213 56.9632 89.4749 55.1775 91.2971C53.3918 93.1192 52.1846 95.4285 51.7076 97.9348C51.2305 100.441 51.505 103.033 52.4965 105.383C53.4879 107.734 55.1522 109.739 57.28 111.147C59.4078 112.555 61.9042 113.302 64.4555 113.295C66.183 113.321 67.8979 112.997 69.4967 112.342C71.0955 111.687 72.5451 110.716 73.758 109.485C74.9708 108.255 75.9217 106.791 76.5535 105.183C77.1852 103.575 77.4847 101.856 77.4336 100.129H77.3584Z" fill="black"/>
<path d="M108.526 112.845H128.219V121.629H99.084V78.8008H108.488L108.526 112.845Z" fill="black"/>
<path d="M139.805 78.7246L150.414 95.9348L160.965 78.7246H171.48L155.247 105.264V121.628H145.843V105.452L129.498 78.7999L139.805 78.7246Z" fill="black"/>
<path d="M177.121 78.7246H214.946V87.4331H200.689V121.628H191.284V87.5085H177.121V78.7246Z" fill="black"/>
<path d="M227.189 78.7246H259.654V87.3581H236.632V95.6903H252.864V104.023H236.632V112.9H259.879V121.553H227.189V78.7246Z" fill="black"/>
<path d="M291.555 87.0566C289.712 86.8466 287.845 87.0283 286.078 87.5899C284.31 88.1515 282.681 89.0802 281.297 90.3153C279.913 91.5504 278.806 93.0639 278.048 94.7567C277.29 96.4495 276.898 98.2833 276.898 100.138C276.898 101.993 277.29 103.827 278.048 105.52C278.806 107.212 279.913 108.726 281.297 109.961C282.681 111.196 284.31 112.125 286.078 112.686C287.845 113.248 289.712 113.43 291.555 113.22C293.796 113.22 296.002 112.662 297.972 111.594C299.943 110.527 301.616 108.984 302.84 107.107L309.574 112.9C307.581 115.856 304.87 118.258 301.696 119.88C298.521 121.502 294.986 122.291 291.423 122.173C278.652 122.173 268.721 113.333 268.721 100.129C268.721 86.9248 279.461 78.1035 291.291 78.1035C301.411 78.1035 307.147 83.4829 309.498 87.3576L302.765 93.1695C301.548 91.3026 299.887 89.7669 297.93 88.7001C295.974 87.6332 293.783 87.0685 291.555 87.0566V87.0566Z" fill="black"/>
<path d="M360.228 78.7246V121.628H350.823V104.23H331.168V121.628H321.764V78.7999H331.168V95.5775H350.861V78.7999L360.228 78.7246Z" fill="black"/>
<path d="M406.082 105.998V78.7246H415.28V121.628H406.891L385.713 93.0572V121.628H376.496V78.7999H385.901L406.082 105.998Z" fill="black"/>
<path d="M441.012 121.629H431.607V78.8008H441.012V121.629Z" fill="black"/>
<path d="M476.99 87.0566C475.147 86.8466 473.281 87.0283 471.513 87.5899C469.746 88.1515 468.116 89.0802 466.733 90.3153C465.349 91.5504 464.242 93.0639 463.484 94.7567C462.725 96.4495 462.334 98.2833 462.334 100.138C462.334 101.993 462.725 103.827 463.484 105.52C464.242 107.212 465.349 108.726 466.733 109.961C468.116 111.196 469.746 112.125 471.513 112.686C473.281 113.248 475.147 113.43 476.99 113.22C479.231 113.22 481.437 112.662 483.408 111.594C485.379 110.527 487.052 108.984 488.276 107.107L495.009 112.9C493.014 115.854 490.303 118.254 487.129 119.875C483.955 121.497 480.421 122.287 476.859 122.173C464.087 122.173 454.156 113.333 454.156 100.129C454.156 86.9248 464.896 78.1035 476.727 78.1035C486.846 78.1035 492.583 83.4829 494.934 87.3576L488.2 93.1695C486.984 91.3026 485.322 89.7669 483.366 88.7001C481.409 87.6332 479.219 87.0685 476.99 87.0566V87.0566Z" fill="black"/>
<path d="M53.285 191.092C54.6215 191.163 55.9577 190.948 57.2044 190.461C58.4511 189.974 59.5795 189.227 60.5142 188.269C61.4489 187.311 62.1685 186.165 62.6247 184.907C63.0809 183.648 63.2633 182.307 63.1597 180.973V156.521H72.5641V181.387C72.5641 193.161 64.7396 199.951 53.3226 199.951C41.9056 199.951 34.0059 193.161 34.0059 181.387V156.521H43.4103V180.973C43.3067 182.307 43.4892 183.648 43.9454 184.907C44.4016 186.165 45.121 187.311 46.0558 188.269C46.9905 189.227 48.1189 189.974 49.3656 190.461C50.6123 190.948 51.9485 191.163 53.285 191.092V191.092Z" fill="black"/>
<path d="M118.082 183.812V156.539H127.28V199.348H118.815L97.6555 170.796V199.348H88.5332V156.539H97.9377L118.082 183.812Z" fill="black"/>
<path d="M153.008 199.348H143.604V156.539H153.008V199.348Z" fill="black"/>
<path d="M185.603 186.708L196.888 156.614H206.951L190.286 199.348H180.656L164.18 156.539H174.242L185.603 186.708Z" fill="black"/>
<path d="M218.182 156.539H250.646V165.172H227.624V173.505H243.856V181.818H227.624V190.696H250.89V199.329H218.182V156.539Z" fill="black"/>
<path d="M264.639 156.539H281.567C290.764 156.539 297.366 161.523 297.366 170.608C297.435 173.13 296.758 175.615 295.419 177.753C294.081 179.892 292.141 181.587 289.843 182.627L301.56 199.348H290.764L280.457 184.545H274.099V199.348H264.695L264.639 156.539ZM281.115 176.345C285.197 176.345 287.604 173.937 287.604 170.702C287.604 167.467 285.197 165.059 281.115 165.059H274.081V176.345H281.115Z" fill="black"/>
<path d="M325.3 164.118C321.538 164.118 318.83 165.848 318.83 168.312C318.83 170.776 321.538 171.773 324.322 172.582L329.964 174.124C336.679 175.911 342.115 179.184 342.115 186.576C342.115 194.72 334.347 199.968 325.337 199.968C315.933 199.968 309.726 195.66 307.318 191.033L313.413 185.391C314.69 187.378 316.459 189.002 318.548 190.106C320.637 191.21 322.975 191.756 325.337 191.692C329.287 191.692 332.297 190.206 332.297 187.309C332.297 184.789 330.077 183.735 327.124 182.927L321.011 181.328C314.955 179.786 308.974 177.002 308.974 169.347C308.974 161.334 316.817 155.842 325.902 155.842C334.234 155.842 340.159 159.848 342.566 164.419L336.566 170.212C335.377 168.307 333.714 166.744 331.739 165.676C329.764 164.607 327.545 164.07 325.3 164.118V164.118Z" fill="black"/>
<path d="M364.795 199.348H355.391V156.539H364.795V199.348Z" fill="black"/>
<path d="M377.023 156.539H414.847V165.229H400.59V199.348H391.186V165.229H377.004L377.023 156.539Z" fill="black"/>
<path d="M431.043 156.539L441.651 173.749L452.203 156.539H462.642L446.41 183.06V199.348H437.005V183.191L420.66 156.539H431.043Z" fill="black"/>
<path d="M323.388 300.612L298.329 291.492L273.26 300.612L248.202 291.492L223.132 300.612L198.074 291.492L173.016 300.612V332.489L198.074 341.62L223.132 332.489L248.202 341.62L273.26 332.489L298.329 341.62L323.388 332.489V300.612Z" fill="black"/>
<path d="M323.377 250.487H323.388L298.329 241.367L273.26 250.487L248.202 241.367L223.132 250.487L198.074 241.367L173.016 250.487V282.375L198.074 291.495L223.132 282.375L248.202 291.495L273.26 282.375L298.329 291.495L323.388 282.375V250.487H323.377Z" fill="white"/>
<path d="M223.132 250.487L198.062 259.618L173.004 250.487L198.062 241.367L223.132 250.487Z" fill="black"/>
<path d="M273.248 250.487L248.189 259.618L223.131 250.487L248.189 241.367L273.248 250.487Z" fill="black"/>
<path d="M323.378 250.487L298.319 259.618L273.25 250.487L298.319 241.367L323.378 250.487Z" fill="black"/>
<path d="M173.004 332.489L198.062 323.369L223.132 332.489L198.062 341.62L173.004 332.489Z" fill="white"/>
<path d="M273.26 332.489L298.318 323.369L323.387 332.489L298.318 341.62L273.26 332.489Z" fill="white"/>
<path d="M273.248 300.615L248.189 309.735L223.131 300.615V332.492L248.189 341.623L273.248 332.492V300.615Z" fill="white"/>
<path d="M323.388 350.743L298.329 341.623L273.26 350.743L248.202 341.623L223.132 350.743L198.074 341.623L173.016 350.743V382.62L198.074 391.74L223.132 382.62L248.202 391.74L273.26 382.62L298.329 391.74L323.388 382.62V350.743Z" fill="black"/>
<path d="M173.004 382.618L198.062 373.498L223.132 382.618L198.062 391.738L173.004 382.618Z" fill="white"/>
<path d="M273.26 382.618L298.318 373.498L323.387 382.618L298.318 391.738L273.26 382.618Z" fill="white"/>
<path d="M273.248 350.74L248.189 359.86L223.131 350.74V382.617L248.189 391.737L273.248 382.617V350.74Z" fill="white"/>
</svg>
