<svg width="724" height="157" viewBox="0 0 724 157" fill="none" xmlns="http://www.w3.org/2000/svg">
<path d="M150.409 65.3447L125.351 56.2246L100.281 65.3447L75.2231 56.2246L50.1538 65.3447L25.0955 56.2246L0.0371094 65.3447V97.2212L25.0955 106.352L50.1538 97.2212L75.2231 106.352L100.281 97.2212L125.351 106.352L150.409 97.2212V65.3447Z" fill="black"/>
<path d="M150.398 15.2177H150.409L125.351 6.09766L100.281 15.2177L75.2231 6.09766L50.1538 15.2177L25.0955 6.09766L0.0371094 15.2177V47.1052L25.0955 56.2253L50.1538 47.1052L75.2231 56.2253L100.281 47.1052L125.351 56.2253L150.409 47.1052V15.2177H150.398Z" fill="white"/>
<path d="M50.153 15.2177L25.0837 24.3487L0.0253906 15.2177L25.0837 6.09766L50.153 15.2177Z" fill="black"/>
<path d="M100.269 15.2177L75.2107 24.3487L50.1523 15.2177L75.2107 6.09766L100.269 15.2177Z" fill="black"/>
<path d="M150.399 15.2177L125.341 24.3487L100.271 15.2177L125.341 6.09766L150.399 15.2177Z" fill="black"/>
<path d="M0.0253906 97.2197L25.0837 88.0996L50.153 97.2197L25.0837 106.351L0.0253906 97.2197Z" fill="white"/>
<path d="M100.281 97.2197L125.34 88.0996L150.409 97.2197L125.34 106.351L100.281 97.2197Z" fill="white"/>
<path d="M100.269 65.3457L75.2107 74.4658L50.1523 65.3457V97.2223L75.2107 106.353L100.269 97.2223V65.3457Z" fill="white"/>
<path d="M150.409 115.474L125.351 106.354L100.281 115.474L75.2231 106.354L50.1538 115.474L25.0955 106.354L0.0371094 115.474V147.35L25.0955 156.47L50.1538 147.35L75.2231 156.47L100.281 147.35L125.351 156.47L150.409 147.35V115.474Z" fill="black"/>
<path d="M0.0253906 147.351L25.0837 138.23L50.153 147.351L25.0837 156.471L0.0253906 147.351Z" fill="white"/>
<path d="M100.281 147.351L125.34 138.23L150.409 147.351L125.34 156.471L100.281 147.351Z" fill="white"/>
<path d="M100.269 115.473L75.2107 124.593L50.1523 115.473V147.349L75.2107 156.469L100.269 147.349V115.473Z" fill="white"/>
<path d="M204.893 9.40625H230.661V15.3123H220.955V38.5412H214.56V15.3123H204.893V9.40625Z" fill="black"/>
<path d="M250.692 8.97294C253.65 9.04693 256.522 9.99184 258.946 11.6896C261.371 13.3873 263.241 15.7624 264.322 18.5176C265.404 21.2728 265.648 24.2857 265.026 27.1794C264.404 30.073 262.942 32.7189 260.823 34.7858C258.705 36.8527 256.023 38.2488 253.115 38.7996C250.207 39.3503 247.201 39.0312 244.473 37.8821C241.746 36.733 239.418 34.805 237.78 32.3393C236.143 29.8736 235.269 26.9799 235.268 24.0201C235.23 22.0016 235.606 19.9967 236.373 18.1291C237.14 16.2614 238.281 14.5706 239.726 13.1607C241.171 11.7509 242.889 10.652 244.775 9.93175C246.661 9.2115 248.675 8.88525 250.692 8.97294V8.97294ZM259.456 24.0201C259.438 22.2816 258.905 20.5875 257.925 19.1516C256.945 17.7157 255.561 16.6021 253.949 15.9514C252.337 15.3007 250.568 15.142 248.866 15.4952C247.163 15.8485 245.604 16.6979 244.384 17.9363C243.164 19.1748 242.338 20.7469 242.01 22.4543C241.682 24.1617 241.867 25.9278 242.542 27.5301C243.216 29.1324 244.35 30.499 245.801 31.4576C247.251 32.4163 248.953 32.924 250.692 32.9166C251.862 32.9273 253.022 32.7015 254.102 32.253C255.183 31.8044 256.162 31.1424 256.98 30.3063C257.799 29.4702 258.44 28.4774 258.865 27.3875C259.291 26.2976 259.492 25.1331 259.456 23.9636V24.0201Z" fill="black"/>
<path d="M275.088 9.40625H281.84L290.455 19.6006L299.069 9.40625H305.765V38.5412H299.539V17.4189L290.455 28.4597L281.351 17.4941V38.5412H275.088V9.40625Z" fill="black"/>
<path d="M329.856 15.0693C327.496 15.0693 325.234 16.0066 323.565 17.6751C321.897 19.3435 320.959 21.6064 320.959 23.9659C320.959 26.3254 321.897 28.5883 323.565 30.2568C325.234 31.9252 327.496 32.8625 329.856 32.8625C331.389 32.8721 332.901 32.4967 334.252 31.7704C335.602 31.0441 336.749 29.9904 337.586 28.7058L342.176 32.6556C340.818 34.6659 338.971 36.2986 336.81 37.4007C334.649 38.5027 332.243 39.0381 329.818 38.9567C321.11 38.9567 314.357 32.9566 314.357 23.9096C314.357 21.9015 314.758 19.9136 315.538 18.063C316.317 16.2124 317.459 14.5367 318.897 13.1344C320.334 11.7321 322.038 10.6316 323.907 9.89793C325.776 9.16425 327.773 8.81222 329.781 8.86243C332.216 8.74334 334.641 9.26192 336.815 10.367C338.989 11.4721 340.837 13.1253 342.176 15.1634L337.586 19.1132C336.733 17.8519 335.58 16.8221 334.231 16.1163C332.882 15.4105 331.379 15.0508 329.856 15.0693V15.0693Z" fill="black"/>
<path d="M350.396 38.5412V9.40625H356.81V38.5412H350.396ZM367.324 9.40625H374.434L364.334 22.0834L376.39 38.5412H368.867L356.81 22.328L367.324 9.40625Z" fill="black"/>
<path d="M390.008 28.8359L403.607 9.40625H410.039V38.5412H403.701V18.9799L390.045 38.5412H383.65V9.40625H390.008V28.8359Z" fill="black"/>
<path d="M427.419 28.8351L441.036 9.40543H447.469V38.5404H441.13V18.9791L427.475 38.5404H421.08V9.40543H427.419V28.8351ZM431.632 0.0761719C431.593 0.44248 431.629 0.81291 431.739 1.16471C431.848 1.51651 432.028 1.84233 432.267 2.12226C432.506 2.40219 432.801 2.63028 433.131 2.7927C433.462 2.95511 433.822 3.04843 434.19 3.06684C434.559 3.04542 434.92 2.95068 435.253 2.7881C435.585 2.62553 435.881 2.39838 436.124 2.11996C436.368 1.84155 436.553 1.51733 436.67 1.16643C436.787 0.81553 436.833 0.444911 436.804 0.0761719H441.45C441.45 2.01168 440.681 3.86795 439.313 5.23657C437.944 6.60518 436.088 7.37404 434.152 7.37404C432.217 7.37404 430.361 6.60518 428.992 5.23657C427.623 3.86795 426.854 2.01168 426.854 0.0761719H431.632Z" fill="black"/>
<path d="M234.686 95.7951H228.291V72.5849H214.899V95.7951H208.467V66.6602H234.686V95.7951Z" fill="black"/>
<path d="M258.498 66.2483C261.457 66.3223 264.328 67.2673 266.753 68.9651C269.177 70.6628 271.047 73.0379 272.129 75.7931C273.21 78.5483 273.455 81.5612 272.833 84.4549C272.21 87.3485 270.748 89.9943 268.63 92.0612C266.511 94.1281 263.83 95.5243 260.922 96.0751C258.014 96.6258 255.008 96.3067 252.28 95.1576C249.552 94.0085 247.224 92.0805 245.587 89.6148C243.95 87.1491 243.076 84.2553 243.075 81.2955C243.037 79.277 243.413 77.2721 244.179 75.4045C244.946 73.5368 246.087 71.8461 247.532 70.4362C248.977 69.0264 250.696 67.9275 252.582 67.2073C254.468 66.487 256.481 66.1606 258.498 66.2483V66.2483ZM267.282 81.2955C267.263 79.5578 266.731 77.8645 265.752 76.4289C264.772 74.9934 263.39 73.8798 261.779 73.2285C260.168 72.5773 258.4 72.4175 256.698 72.7692C254.996 73.1209 253.437 73.9685 252.216 75.2051C250.995 76.4417 250.167 78.012 249.837 79.7181C249.507 81.4242 249.69 83.1899 250.362 84.7925C251.033 86.3952 252.165 87.7632 253.613 88.7241C255.06 89.685 256.76 90.1958 258.498 90.1921C259.669 90.2027 260.83 89.9771 261.911 89.5287C262.993 89.0804 263.973 88.4185 264.793 87.5827C265.613 86.7469 266.256 85.7544 266.684 84.6644C267.111 83.5744 267.315 82.4095 267.282 81.2391V81.2955Z" fill="black"/>
<path d="M278.566 96.0015V90.1331H280.203C282.761 90.1331 284.077 88.9106 284.077 85.5062V66.6973H306.761V95.8322H300.385V72.528H290.228V85.9199C290.228 91.9576 287.576 95.9826 280.936 95.9826L278.566 96.0015Z" fill="black"/>
<path d="M324.176 86.1085L337.794 66.6602H344.227V95.7951H337.888V76.2338L324.233 95.7951H317.838V66.6602H324.176V86.1085Z" fill="black"/>
<path d="M352.541 66.6602H378.29V72.5849H368.585V95.7951H362.19V72.5849H352.541V66.6602Z" fill="black"/>
<path d="M386.641 66.6602H408.741V72.5285H393.073V78.1712H404.114V83.8139H393.073V89.8703H408.91V95.7387H386.641V66.6602Z" fill="black"/>
<path d="M430.616 76.5178L438.008 66.6055H445.324L434.566 80.9567L445.851 95.7404H437.989L430.127 85.5837L422.321 95.7404H414.967L426.252 80.9567L415.456 66.6055H423.224L430.616 76.5178Z" fill="black"/>
<path d="M479.729 66.6602V95.7951H473.428V84.0396H460.036V95.8703H453.604V66.6602H460.036V78.0772H473.428V66.6602H479.729Z" fill="black"/>
<path d="M497.143 86.1085L510.761 66.6602H517.194V95.7951H510.855V76.2338L497.2 95.7951H490.805V66.6602H497.143V86.1085Z" fill="black"/>
<path d="M550.954 66.6602V95.7951H544.578V84.6791H536.472C531.262 84.6791 526.936 82.3656 526.936 76.1963V66.6602H533.312V75.3875C533.312 77.9455 534.948 78.7919 537.431 78.7919H544.578V66.6602H550.954Z" fill="black"/>
<path d="M562.033 66.6602H584.152V72.5285H568.466V78.1712H579.525V83.8139H568.466V89.8703H584.397V95.7387H562.033V66.6602Z" fill="black"/>
<path d="M605.86 72.3232C604.656 72.2679 603.453 72.4572 602.324 72.8798C601.196 73.3024 600.164 73.9494 599.293 74.7819C598.421 75.6143 597.727 76.6149 597.253 77.7231C596.779 78.8312 596.535 80.0239 596.535 81.2292C596.535 82.4345 596.779 83.6272 597.253 84.7353C597.727 85.8435 598.421 86.8441 599.293 87.6765C600.164 88.509 601.196 89.156 602.324 89.5786C603.453 90.0012 604.656 90.1905 605.86 90.1352C607.392 90.1397 608.902 89.762 610.252 89.0362C611.602 88.3104 612.749 87.2595 613.59 85.9785L618.161 89.9283C616.805 91.9359 614.961 93.5668 612.804 94.6687C610.646 95.7706 608.244 96.3075 605.822 96.2293C597.114 96.2293 590.361 90.2104 590.361 81.1821C590.361 79.1757 590.762 77.1895 591.54 75.3402C592.318 73.4909 593.459 71.8159 594.894 70.4139C596.329 69.0118 598.031 67.9111 599.898 67.1763C601.765 66.4414 603.76 66.0874 605.766 66.135C608.2 66.012 610.624 66.527 612.798 67.6289C614.972 68.7308 616.821 70.3813 618.161 72.4172L613.59 76.3671C612.736 75.107 611.583 74.0782 610.234 73.3725C608.885 72.6668 607.382 72.3064 605.86 72.3232V72.3232Z" fill="black"/>
<path d="M626.398 95.7951V66.6602H632.812V95.7951H626.398ZM643.326 66.6602H650.436L640.223 79.3373L652.28 95.7951H644.756L632.812 79.5819L643.326 66.6602Z" fill="black"/>
<path d="M666.011 86.1085L679.61 66.6602H685.967V95.7951H679.629V76.2338L665.973 95.7951H659.635V66.6602H665.992L666.011 86.1085Z" fill="black"/>
<path d="M703.421 86.1116L717.038 66.6632H723.471V95.7982H717.132V76.2369L703.458 95.7982H697.082V66.6632H703.421V86.1116ZM707.634 57.334C707.595 57.7003 707.631 58.0707 707.74 58.4225C707.85 58.7743 708.029 59.1001 708.269 59.3801C708.508 59.66 708.802 59.8881 709.133 60.0505C709.463 60.2129 709.824 60.3062 710.192 60.3247C710.56 60.3033 710.921 60.2085 711.252 60.0457C711.583 59.8829 711.878 59.6553 712.12 59.3766C712.362 59.0979 712.546 58.7736 712.66 58.4228C712.775 58.0719 712.818 57.7018 712.787 57.334H717.452C717.357 59.203 716.548 60.964 715.191 62.2533C713.835 63.5426 712.035 64.2615 710.164 64.2615C708.292 64.2615 706.492 63.5426 705.136 62.2533C703.779 60.964 702.97 59.203 702.875 57.334H707.634Z" fill="black"/>
<path d="M208.558 147.181H211.53C212.366 147.296 213.219 147.211 214.017 146.933C214.814 146.655 215.535 146.192 216.119 145.582L204.213 123.914H211.285L219.392 138.961L225.862 123.914H232.671L222.683 146.635C222.012 148.574 220.735 150.245 219.042 151.403C217.349 152.561 215.329 153.145 213.279 153.068H208.577L208.558 147.181Z" fill="black"/>
<path d="M266.528 123.914V153.068H260.133V141.218H246.722V153.068H240.195V123.914H246.609V135.331H260.02V123.914H266.528Z" fill="black"/>
<path d="M283.905 143.362L297.523 123.914H303.937V153.068H297.598V133.488L283.943 153.068H277.566V123.914H283.905V143.362Z" fill="black"/>
<path d="M314.982 123.914H327.264C333.189 123.914 336.668 127.074 336.668 131.607C336.711 132.976 336.299 134.321 335.496 135.431C334.692 136.54 333.544 137.352 332.229 137.739C333.876 137.964 335.383 138.785 336.464 140.047C337.546 141.309 338.127 142.923 338.098 144.585C338.098 149.908 333.828 153.068 327.678 153.068H314.906L314.982 123.914ZM326.267 129.218H321.395V135.801H326.267C328.58 135.801 330.142 134.541 330.142 132.434C330.142 130.328 328.599 129.181 326.286 129.181L326.267 129.218ZM327.151 147.726C329.54 147.726 331.609 146.635 331.609 144.152C331.609 141.67 329.54 140.635 327.151 140.635H321.395V147.726H327.151Z" fill="black"/>
<path d="M347.201 123.914H369.302V129.801H353.634V135.444H364.675V141.087H353.634V147.124H369.471V153.011H347.201V123.914Z" fill="black"/>
<path d="M378.838 123.914H390.292C396.349 123.914 400.938 127.318 400.938 133.488C400.938 139.657 396.274 142.986 390.292 142.986H385.252V153.068H378.838V123.914ZM394.336 133.488C394.342 132.946 394.23 132.41 394.009 131.915C393.788 131.421 393.463 130.98 393.055 130.623C392.648 130.266 392.169 130.001 391.65 129.846C391.131 129.691 390.584 129.65 390.048 129.726H385.252V137.419H390.048C390.602 137.489 391.165 137.439 391.698 137.273C392.231 137.107 392.722 136.828 393.137 136.455C393.553 136.082 393.884 135.624 394.107 135.112C394.33 134.6 394.44 134.046 394.43 133.488H394.336Z" fill="black"/>
<path d="M422.642 129.593C420.283 129.593 418.02 130.53 416.352 132.199C414.683 133.867 413.746 136.13 413.746 138.489C413.746 140.849 414.683 143.112 416.352 144.78C418.02 146.449 420.283 147.386 422.642 147.386C424.175 147.392 425.685 147.015 427.035 146.289C428.385 145.563 429.533 144.511 430.373 143.229L434.943 147.179C433.585 149.189 431.739 150.822 429.578 151.924C427.416 153.026 425.011 153.562 422.586 153.48C413.896 153.48 407.125 147.48 407.125 138.433C407.124 136.425 407.526 134.437 408.305 132.587C409.085 130.736 410.227 129.06 411.664 127.658C413.102 126.256 414.805 125.155 416.674 124.421C418.544 123.688 420.541 123.336 422.548 123.386C424.984 123.267 427.409 123.785 429.582 124.891C431.756 125.996 433.604 127.649 434.943 129.687L430.373 133.637C429.52 132.375 428.367 131.346 427.018 130.64C425.668 129.934 424.165 129.574 422.642 129.593V129.593Z" fill="black"/>
<path d="M449.443 143.362L463.042 123.914H469.475V153.068H463.136V133.488L449.481 153.068H443.086V123.914H449.443V143.362Z" fill="black"/>
<path d="M477.79 123.914H503.521V129.839H493.816V153.068H487.439V129.839H477.771L477.79 123.914Z" fill="black"/>
<path d="M511.889 123.914H533.989V129.801H518.321V135.444H529.362V141.087H518.321V147.124H534.158V153.011H511.889V123.914Z" fill="black"/>
<path d="M540.367 123.914H566.135V129.839H556.411V153.068H550.035V129.839H540.367V123.914Z" fill="black"/>
</svg>
