<svg width="757" height="406" viewBox="0 0 757 406" fill="none" xmlns="http://www.w3.org/2000/svg">
<path d="M197.137 14.666H234.962V23.3745H220.705V57.4939H211.3V23.3745H197.1L197.137 14.666Z" fill="black"/>
<path d="M264.397 14.0449C277.356 14.0449 286.968 23.4494 286.968 36.0702C286.968 48.691 277.337 58.1142 264.397 58.1142C251.456 58.1142 241.826 48.7098 241.826 36.0702C241.826 23.4306 251.475 14.0449 264.397 14.0449ZM277.3 36.0702C277.255 33.5193 276.458 31.0384 275.007 28.9395C273.557 26.8405 271.519 25.2172 269.148 24.2734C266.778 23.3296 264.181 23.1076 261.685 23.6351C259.189 24.1627 256.905 25.4163 255.119 27.2385C253.333 29.0606 252.126 31.3701 251.649 33.8764C251.172 36.3827 251.446 38.9741 252.438 41.3248C253.429 43.6756 255.094 45.6808 257.221 47.0885C259.349 48.4962 261.846 49.2435 264.397 49.2364C266.118 49.2524 267.825 48.9207 269.415 48.2613C271.005 47.6019 272.445 46.6284 273.65 45.399C274.855 44.1696 275.799 42.7098 276.426 41.1068C277.053 39.5039 277.35 37.7907 277.3 36.0702V36.0702Z" fill="black"/>
<path d="M300.25 14.666H310.2L322.839 29.7131L335.498 14.666H345.297V57.4939H336.118V26.4592L322.783 42.6725L309.391 26.5721V57.4939H300.193L300.25 14.666Z" fill="black"/>
<path d="M380.732 22.998C378.889 22.788 377.023 22.9697 375.255 23.5313C373.488 24.0929 371.859 25.0218 370.475 26.2568C369.091 27.4919 367.984 29.0054 367.226 30.6982C366.468 32.391 366.076 34.2248 366.076 36.0796C366.076 37.9344 366.468 39.7682 367.226 41.461C367.984 43.1538 369.091 44.6673 370.475 45.9024C371.859 47.1375 373.488 48.0662 375.255 48.6278C377.023 49.1894 378.889 49.3712 380.732 49.1612C382.974 49.1618 385.18 48.603 387.15 47.5355C389.121 46.4681 390.794 44.9258 392.018 43.0483L398.751 48.8602C396.752 51.808 394.039 54.2023 390.866 55.8202C387.692 57.4382 384.161 58.2273 380.601 58.1142C367.83 58.1142 357.898 49.2929 357.898 36.0702C357.898 22.8475 368.638 14.0449 380.469 14.0449C390.588 14.0449 396.325 19.4244 398.676 23.299L391.943 29.1109C390.726 27.244 389.065 25.7083 387.108 24.6415C385.152 23.5746 382.961 23.0099 380.732 22.998V22.998Z" fill="black"/>
<path d="M410.9 57.4939V14.666H420.305V57.4939H410.9ZM435.803 14.666H446.242L431.195 33.3057L448.97 57.4939H437.872L420.342 33.7194L435.803 14.666Z" fill="black"/>
<path d="M469.096 43.2367L489.09 14.666H498.494V57.4939H489.09V28.735L469.039 57.4939H459.635V14.666H469.039L469.096 43.2367Z" fill="black"/>
<path d="M524.074 43.2382L544.067 14.6674H553.472V57.4953H544.067V28.7365L524.205 57.4953H514.801V14.6674H524.111L524.074 43.2382ZM530.243 0.974609C530.189 1.51196 530.244 2.05474 530.406 2.56999C530.568 3.08525 530.833 3.56224 531.185 3.97205C531.536 4.38186 531.968 4.71585 532.452 4.95394C532.937 5.19202 533.465 5.32916 534.005 5.357C534.54 5.31655 535.061 5.17111 535.54 4.92891C536.018 4.68672 536.445 4.35255 536.794 3.94553C537.143 3.53851 537.409 3.06657 537.576 2.55679C537.743 2.04701 537.808 1.50943 537.766 0.974609H544.613C544.497 3.73786 543.318 6.34939 541.322 8.26363C539.326 10.1779 536.667 11.2467 533.901 11.2467C531.136 11.2467 528.477 10.1779 526.481 8.26363C524.485 6.34939 523.305 3.73786 523.19 0.974609H530.243Z" fill="black"/>
<path d="M38.7688 135.29H29.3644V101.17H9.70914V135.29H0.304688V92.4805H38.8065L38.7688 135.29Z" fill="black"/>
<path d="M73.7504 91.8594C86.7097 91.8594 96.3211 101.264 96.3211 113.885C96.3211 126.505 86.6909 135.91 73.7504 135.91C60.8098 135.91 51.1797 126.505 51.1797 113.885C51.1797 101.264 60.7346 91.8594 73.7504 91.8594ZM86.6533 113.885C86.6087 111.334 85.8112 108.853 84.3608 106.754C82.9104 104.655 80.8721 103.032 78.5017 102.088C76.1314 101.144 73.5349 100.922 71.0388 101.45C68.5426 101.977 66.2582 103.231 64.4724 105.053C62.6867 106.875 61.4794 109.185 61.0024 111.691C60.5253 114.197 60.7998 116.789 61.7913 119.139C62.7827 121.49 64.447 123.495 66.5748 124.903C68.7026 126.311 71.1991 127.058 73.7504 127.051C75.4723 127.069 77.1802 126.74 78.7714 126.081C80.3626 125.423 81.8042 124.449 83.0095 123.219C84.2148 121.989 85.159 120.528 85.7851 118.924C86.4113 117.32 86.7066 115.606 86.6533 113.885V113.885Z" fill="black"/>
<path d="M103.242 135.609V126.976H105.65C109.411 126.976 111.292 125.095 111.292 120.186V92.4805H144.622V135.29H135.217V101.114H120.283V120.807C120.283 129.684 116.408 135.609 106.647 135.609H103.242Z" fill="black"/>
<path d="M170.259 121.051L190.253 92.4805H199.657V135.29H190.253V106.549L170.334 135.29H160.93V92.4805H170.334L170.259 121.051Z" fill="black"/>
<path d="M211.979 92.4805H249.803V101.17H235.49V135.29H226.085V101.17H211.979V92.4805Z" fill="black"/>
<path d="M262.027 92.4805H294.492V101.114H271.469V109.446H287.702V117.778H271.469V126.656H294.736V135.29H262.027V92.4805Z" fill="black"/>
<path d="M326.712 107.076L337.565 92.5181H348.305L332.355 113.584L348.907 135.29H337.377L325.828 120.355L314.355 135.29H303.559L320.035 113.565L304.142 92.4805H315.559L326.712 107.076Z" fill="black"/>
<path d="M398.769 92.4805V135.29H389.364V117.872H369.709V135.29H360.305V92.4805H369.709V109.258H389.402V92.4805H398.769Z" fill="black"/>
<path d="M424.388 121.051L444.382 92.4805H453.786V135.29H444.382V106.549L424.52 135.29H415.115V92.4805H424.52L424.388 121.051Z" fill="black"/>
<path d="M503.518 92.4817V135.291H494.114V118.927H482.208C474.553 118.927 468.195 115.541 468.195 106.457V92.4629H477.6V105.291C477.6 109.052 480.007 110.294 483.637 110.294H494.114V92.4629L503.518 92.4817Z" fill="black"/>
<path d="M519.729 92.4805H552.174V101.114H529.171V109.446H545.384V117.778H529.171V126.656H552.418V135.29H519.729V92.4805Z" fill="black"/>
<path d="M584.092 100.812C582.249 100.602 580.382 100.784 578.615 101.346C576.847 101.908 575.218 102.836 573.834 104.071C572.45 105.306 571.343 106.82 570.585 108.513C569.827 110.205 569.435 112.039 569.435 113.894C569.435 115.749 569.827 117.583 570.585 119.275C571.343 120.968 572.45 122.482 573.834 123.717C575.218 124.952 576.847 125.881 578.615 126.442C580.382 127.004 582.249 127.186 584.092 126.976C586.333 126.976 588.539 126.418 590.51 125.35C592.48 124.283 594.153 122.74 595.377 120.863L602.111 126.656C600.115 129.607 597.403 132.005 594.229 133.623C591.054 135.242 587.521 136.028 583.96 135.91C571.189 135.91 561.258 127.088 561.258 113.885C561.258 100.681 571.998 91.8594 583.828 91.8594C593.948 91.8594 599.684 97.22 602.036 101.113L595.302 106.906C594.08 105.045 592.418 103.515 590.462 102.452C588.506 101.389 586.318 100.826 584.092 100.812V100.812Z" fill="black"/>
<path d="M614.266 135.291V92.4817H623.67V135.291H614.266ZM639.187 92.4629H649.626L634.579 111.103L652.278 135.291H641.181L623.651 111.46L639.187 92.4629Z" fill="black"/>
<path d="M672.457 121.051L692.451 92.4805H701.856V135.29H692.451V106.549L672.514 135.29H663.109V92.4805H672.514L672.457 121.051Z" fill="black"/>
<path d="M727.436 121.05L747.43 92.4792H756.834V135.288H747.43V106.548L727.492 135.288H718.088V92.4792H727.492L727.436 121.05ZM733.605 78.7676C733.548 79.3054 733.602 79.8492 733.763 80.3656C733.924 80.882 734.188 81.3601 734.54 81.7705C734.893 82.1809 735.325 82.5151 735.811 82.7523C736.297 82.9895 736.827 83.1249 737.367 83.1501C737.902 83.1096 738.424 82.9641 738.902 82.7219C739.381 82.4797 739.807 82.1455 740.156 81.7385C740.506 81.3315 740.771 80.8597 740.938 80.3499C741.105 79.8401 741.17 79.3024 741.129 78.7676H748.032C747.916 81.5308 746.737 84.1424 744.741 86.0566C742.744 87.9708 740.086 89.0397 737.32 89.0397C734.555 89.0397 731.896 87.9708 729.899 86.0566C727.903 84.1424 726.724 81.5308 726.608 78.7676H733.605Z" fill="black"/>
<path d="M117.315 204.467H121.698C124.18 204.467 126.889 204.222 128.431 202.116L110.977 170.291H121.34L133.246 192.316L142.745 170.291H152.62L137.93 203.658C135.033 210.26 130.406 213.062 124.237 213.062H117.315V204.467Z" fill="black"/>
<path d="M202.424 170.291V213.1H193.02V195.702H173.346V213.1H163.941V170.291H173.346V187.069H193.039V170.291H202.424Z" fill="black"/>
<path d="M228.021 198.843L248.014 170.291H257.419V213.1H248.108V184.36L228.039 213.1H218.635V170.291H227.945L228.021 198.843Z" fill="black"/>
<path d="M273.689 170.291H291.708C300.417 170.291 305.645 174.918 305.645 181.576C305.704 183.588 305.095 185.562 303.915 187.191C302.734 188.821 301.048 190.014 299.119 190.586C301.54 190.917 303.755 192.124 305.346 193.978C306.937 195.832 307.793 198.206 307.752 200.649C307.752 208.473 301.451 213.1 292.442 213.1H273.633L273.689 170.291ZM290.297 178.059H283.131V187.746H290.297C293.683 187.746 295.94 185.865 295.94 182.818C295.94 179.771 293.683 178.059 290.297 178.059ZM291.576 205.276C295.094 205.276 298.122 203.658 298.122 200.028C298.122 196.398 295.094 194.837 291.576 194.837H283.131V205.276H291.576Z" fill="black"/>
<path d="M321.07 170.291H353.535V178.924H330.475V187.257H346.707V195.589H330.475V204.467H353.741V213.1H321.07V170.291Z" fill="black"/>
<path d="M367.49 170.291H384.418C393.296 170.291 400.03 175.275 400.03 184.36C400.03 193.445 393.164 198.298 384.418 198.298H376.932V213.1H367.528L367.49 170.291ZM390.249 184.36C390.249 181.087 387.785 178.717 383.967 178.717H376.932V190.003H383.967C384.76 190.093 385.563 190.015 386.323 189.772C387.083 189.529 387.783 189.128 388.377 188.594C388.971 188.061 389.445 187.408 389.767 186.678C390.09 185.948 390.254 185.158 390.249 184.36Z" fill="black"/>
<path d="M431.723 178.549C428.51 178.916 425.544 180.451 423.39 182.864C421.237 185.277 420.047 188.397 420.047 191.631C420.047 194.865 421.237 197.986 423.39 200.398C425.544 202.811 428.51 204.347 431.723 204.713C433.961 204.709 436.163 204.15 438.132 203.086C440.102 202.023 441.777 200.488 443.008 198.619L449.723 204.412C447.732 207.364 445.024 209.763 441.853 211.381C438.681 213 435.15 213.786 431.591 213.666C418.82 213.666 408.889 204.844 408.889 191.641C408.889 178.437 419.61 169.615 431.459 169.615C441.579 169.615 447.315 174.976 449.648 178.869L442.933 184.662C441.713 182.798 440.052 181.264 438.096 180.197C436.14 179.131 433.95 178.565 431.723 178.549V178.549Z" fill="black"/>
<path d="M471.223 198.843L491.217 170.291H500.621V213.1H491.217V184.36L471.166 213.1H461.762V170.291H471.166L471.223 198.843Z" fill="black"/>
<path d="M512.922 170.291H550.747V178.981H536.489V213.1H527.085V178.981H512.922V170.291Z" fill="black"/>
<path d="M562.988 170.291H595.434V178.924H572.412V187.257H588.644V195.589H572.412V204.467H595.678V213.1H562.988V170.291Z" fill="black"/>
<path d="M604.82 170.291H642.701V178.981H628.444V213.1H619.04V178.981H604.839L604.82 170.291Z" fill="black"/>
<path d="M454.073 314.37L429.015 305.25L403.945 314.37L378.887 305.25L353.818 314.37L328.76 305.25L303.701 314.37V346.247L328.76 355.378L353.818 346.247L378.887 355.378L403.945 346.247L429.015 355.378L454.073 346.247V314.37Z" fill="black"/>
<path d="M454.062 264.243H454.073L429.015 255.123L403.945 264.243L378.887 255.123L353.818 264.243L328.76 255.123L303.701 264.243V296.131L328.76 305.251L353.818 296.131L378.887 305.251L403.945 296.131L429.015 305.251L454.073 296.131V264.243H454.062Z" fill="white"/>
<path d="M353.817 264.243L328.748 273.374L303.689 264.243L328.748 255.123L353.817 264.243Z" fill="black"/>
<path d="M403.933 264.243L378.875 273.374L353.816 264.243L378.875 255.123L403.933 264.243Z" fill="black"/>
<path d="M454.063 264.243L429.005 273.374L403.936 264.243L429.005 255.123L454.063 264.243Z" fill="black"/>
<path d="M303.689 346.245L328.748 337.125L353.817 346.245L328.748 355.376L303.689 346.245Z" fill="white"/>
<path d="M403.947 346.245L429.006 337.125L454.075 346.245L429.006 355.376L403.947 346.245Z" fill="white"/>
<path d="M403.933 314.371L378.875 323.491L353.816 314.371V346.248L378.875 355.379L403.933 346.248V314.371Z" fill="white"/>
<path d="M454.073 364.499L429.015 355.379L403.945 364.499L378.887 355.379L353.818 364.499L328.76 355.379L303.701 364.499V396.376L328.76 405.496L353.818 396.376L378.887 405.496L403.945 396.376L429.015 405.496L454.073 396.376V364.499Z" fill="black"/>
<path d="M303.689 396.376L328.748 387.256L353.817 396.376L328.748 405.496L303.689 396.376Z" fill="white"/>
<path d="M403.947 396.376L429.006 387.256L454.075 396.376L429.006 405.496L403.947 396.376Z" fill="white"/>
<path d="M403.933 364.498L378.875 373.618L353.816 364.498V396.375L378.875 405.495L403.933 396.375V364.498Z" fill="white"/>
</svg>
