<svg width="637" height="165" viewBox="0 0 637 165" fill="none" xmlns="http://www.w3.org/2000/svg">
<path d="M150.409 73.1669L125.351 64.0469L100.281 73.1669L75.2231 64.0469L50.1538 73.1669L25.0955 64.0469L0.0371094 73.1669V105.044L25.0955 114.174L50.1538 105.044L75.2231 114.174L100.281 105.044L125.351 114.174L150.409 105.044V73.1669Z" fill="black"/>
<path d="M150.398 23.04H150.409L125.351 13.9199L100.281 23.04L75.2231 13.9199L50.1538 23.04L25.0955 13.9199L0.0371094 23.04V54.9275L25.0955 64.0475L50.1538 54.9275L75.2231 64.0475L100.281 54.9275L125.351 64.0475L150.409 54.9275V23.04H150.398Z" fill="white"/>
<path d="M50.153 23.04L25.0837 32.171L0.0253906 23.04L25.0837 13.9199L50.153 23.04Z" fill="black"/>
<path d="M100.269 23.04L75.2107 32.171L50.1523 23.04L75.2107 13.9199L100.269 23.04Z" fill="black"/>
<path d="M150.399 23.04L125.341 32.171L100.271 23.04L125.341 13.9199L150.399 23.04Z" fill="black"/>
<path d="M0.0253906 105.046L25.0837 95.9258L50.153 105.046L25.0837 114.177L0.0253906 105.046Z" fill="white"/>
<path d="M100.281 105.046L125.34 95.9258L150.409 105.046L125.34 114.177L100.281 105.046Z" fill="white"/>
<path d="M100.269 73.168L75.2107 82.288L50.1523 73.168V105.045L75.2107 114.176L100.269 105.045V73.168Z" fill="white"/>
<path d="M150.409 123.296L125.351 114.176L100.281 123.296L75.2231 114.176L50.1538 123.296L25.0955 114.176L0.0371094 123.296V155.172L25.0955 164.292L50.1538 155.172L75.2231 164.292L100.281 155.172L125.351 164.292L150.409 155.172V123.296Z" fill="black"/>
<path d="M0.0253906 155.173L25.0837 146.053L50.153 155.173L25.0837 164.293L0.0253906 155.173Z" fill="white"/>
<path d="M100.281 155.173L125.34 146.053L150.409 155.173L125.34 164.293L100.281 155.173Z" fill="white"/>
<path d="M100.269 123.295L75.2107 132.415L50.1523 123.295V155.171L75.2107 164.292L100.269 155.171V123.295Z" fill="white"/>
<path d="M208.354 17.1191H253.759V27.5581H236.643V68.5239H225.357V27.5581H208.316L208.354 17.1191Z" fill="black"/>
<path d="M289.101 16.3633C304.656 16.3633 316.204 27.6486 316.204 42.8086C316.204 57.9686 304.656 69.2539 289.101 69.2539C273.546 69.2539 261.922 57.9686 261.922 42.8086C261.922 27.6486 273.471 16.3633 289.101 16.3633ZM304.58 42.8086C304.525 39.7506 303.567 36.7772 301.827 34.262C300.086 31.7468 297.642 29.8019 294.8 28.6717C291.958 27.5415 288.845 27.2764 285.853 27.9097C282.861 28.543 280.122 30.0464 277.982 32.2311C275.841 34.4157 274.394 37.1843 273.822 40.1889C273.25 43.1934 273.579 46.3 274.767 49.1183C275.955 51.9367 277.949 54.3411 280.5 56.0295C283.05 57.7179 286.042 58.615 289.101 58.6081C291.167 58.6293 293.215 58.2328 295.124 57.4422C297.033 56.6517 298.762 55.4834 300.208 54.0077C301.654 52.5319 302.787 50.7792 303.538 48.8547C304.289 46.9302 304.644 44.8736 304.58 42.8086V42.8086Z" fill="black"/>
<path d="M332.152 17.1191H344.077L359.256 35.1193L374.435 17.1191H386.228V68.5239H375.262V31.2634L359.256 50.7495L343.174 31.4139V68.5239H332.152V17.1191Z" fill="black"/>
<path d="M428.755 27.122C426.648 27.049 424.548 27.401 422.58 28.157C420.612 28.9129 418.816 30.0573 417.3 31.522C415.784 32.9868 414.578 34.7418 413.754 36.6824C412.931 38.6231 412.506 40.7098 412.506 42.818C412.506 44.9262 412.931 47.0128 413.754 48.9535C414.578 50.8942 415.784 52.6492 417.3 54.1139C418.816 55.5786 420.612 56.723 422.58 57.479C424.548 58.235 426.648 58.587 428.755 58.514C431.457 58.5259 434.119 57.8608 436.498 56.5795C438.876 55.2981 440.896 53.4413 442.373 51.1785L450.461 58.1567C448.063 61.6959 444.808 64.57 441 66.5106C437.191 68.4512 432.952 69.395 428.68 69.2539C413.351 69.2539 401.426 58.6645 401.426 42.8086C401.426 26.9527 414.31 16.3633 428.605 16.3633C440.755 16.3633 447.639 22.8147 450.461 27.4794L442.373 34.4386C440.895 32.1782 438.875 30.3241 436.496 29.046C434.117 27.7678 431.456 27.1063 428.755 27.122V27.122Z" fill="black"/>
<path d="M464.98 68.5239V17.1191H476.266V68.5239H464.98ZM494.905 17.1191H507.432L489.432 39.4829L510.686 68.5239H497.351L476.322 39.9344L494.905 17.1191Z" fill="black"/>
<path d="M534.855 51.4078L558.855 17.1191H570.14V68.5239H558.855V34.0096L534.779 68.5239H523.494V17.1191H534.685L534.855 51.4078Z" fill="black"/>
<path d="M600.856 51.4052L624.857 17.1165H636.142V68.5212H624.951V34.0069L600.875 68.5212H589.59V17.1165H600.762L600.856 51.4052ZM608.267 0.621094C608.203 1.26524 608.27 1.91577 608.464 2.53321C608.659 3.15065 608.977 3.72208 609.399 4.21286C609.821 4.70363 610.339 5.1035 610.92 5.38815C611.501 5.67281 612.135 5.83634 612.781 5.86879C613.43 5.83319 614.065 5.66822 614.649 5.38362C615.232 5.09902 615.754 4.70052 616.181 4.21156C616.609 3.72261 616.934 3.15309 617.139 2.53648C617.343 1.91987 617.422 1.26864 617.371 0.621094H625.609C625.609 8.38917 619.966 13.129 612.781 13.129C605.596 13.129 599.897 8.38917 599.897 0.621094H608.267Z" fill="black"/>
<path d="M260.884 160.688H249.599V119.722H225.975V160.688H214.689V109.283H260.884V160.688Z" fill="black"/>
<path d="M302.883 108.525C318.438 108.525 329.987 119.811 329.987 134.971C329.987 150.131 318.438 161.416 302.883 161.416C287.328 161.416 275.686 150.131 275.686 134.971C275.686 119.811 287.215 108.525 302.883 108.525ZM318.363 134.971C318.326 131.908 317.383 128.925 315.654 126.398C313.925 123.87 311.487 121.91 308.646 120.766C305.805 119.621 302.689 119.343 299.691 119.966C296.692 120.589 293.945 122.085 291.795 124.266C289.645 126.447 288.189 129.216 287.61 132.223C287.03 135.23 287.354 138.342 288.539 141.166C289.725 143.99 291.719 146.399 294.272 148.092C296.824 149.784 299.821 150.683 302.883 150.676C304.94 150.694 306.98 150.299 308.881 149.513C310.782 148.727 312.506 147.568 313.95 146.103C315.394 144.637 316.529 142.897 317.287 140.985C318.045 139.072 318.411 137.027 318.363 134.971V134.971Z" fill="black"/>
<path d="M338.303 161.064V150.776H341.181C345.713 150.776 348.008 148.631 348.008 142.631V109.283H387.996V160.688H376.711V119.647H358.786V143.252C358.786 153.917 354.121 161.027 342.403 161.027L338.303 161.064Z" fill="black"/>
<path d="M418.747 143.572L442.748 109.283H454.033V160.688H442.748V126.174L418.879 160.688H407.594V109.283H418.766L418.747 143.572Z" fill="black"/>
<path d="M468.761 109.283H514.166V119.722H497.068V160.688H485.783V119.722H468.742L468.761 109.283Z" fill="black"/>
<path d="M528.93 109.283H567.883V119.647H540.253V129.653H559.739V139.66H540.253V150.324H568.184V160.688H528.93V109.283Z" fill="black"/>
<path d="M606.499 126.757L619.534 109.283H632.418L613.458 134.619L633.302 160.688H619.383L605.521 142.763L591.753 160.688H578.756L598.524 134.619L579.489 109.283H593.201L606.499 126.757Z" fill="black"/>
</svg>
