<svg width="545" height="151" viewBox="0 0 545 151" fill="none" xmlns="http://www.w3.org/2000/svg">
<path d="M150.409 59.3251L125.351 50.2051L100.281 59.3251L75.2231 50.2051L50.1538 59.3251L25.0955 50.2051L0.0371094 59.3251V91.2017L25.0955 100.333L50.1538 91.2017L75.2231 100.333L100.281 91.2017L125.351 100.333L150.409 91.2017V59.3251Z" fill="black"/>
<path d="M150.398 9.19819H150.409L125.351 0.078125L100.281 9.19819L75.2231 0.078125L50.1538 9.19819L25.0955 0.078125L0.0371094 9.19819V41.0857L25.0955 50.2057L50.1538 41.0857L75.2231 50.2057L100.281 41.0857L125.351 50.2057L150.409 41.0857V9.19819H150.398Z" fill="white"/>
<path d="M50.153 9.19819L25.0837 18.3292L0.0253906 9.19819L25.0837 0.078125L50.153 9.19819Z" fill="black"/>
<path d="M100.269 9.19819L75.2107 18.3292L50.1523 9.19819L75.2107 0.078125L100.269 9.19819Z" fill="black"/>
<path d="M150.399 9.19819L125.341 18.3292L100.271 9.19819L125.341 0.078125L150.399 9.19819Z" fill="black"/>
<path d="M0.0253906 91.204L25.0837 82.084L50.153 91.204L25.0837 100.335L0.0253906 91.204Z" fill="white"/>
<path d="M100.281 91.204L125.34 82.084L150.409 91.204L125.34 100.335L100.281 91.204Z" fill="white"/>
<path d="M100.269 59.3262L75.2107 68.4462L50.1523 59.3262V91.2027L75.2107 100.334L100.269 91.2027V59.3262Z" fill="white"/>
<path d="M150.409 109.454L125.351 100.334L100.281 109.454L75.2231 100.334L50.1538 109.454L25.0955 100.334L0.0371094 109.454V141.331L25.0955 150.451L50.1538 141.331L75.2231 150.451L100.281 141.331L125.351 150.451L150.409 141.331V109.454Z" fill="black"/>
<path d="M0.0253906 141.331L25.0837 132.211L50.153 141.331L25.0837 150.451L0.0253906 141.331Z" fill="white"/>
<path d="M100.281 141.331L125.34 132.211L150.409 141.331L125.34 150.451L100.281 141.331Z" fill="white"/>
<path d="M100.269 109.453L75.2107 118.573L50.1523 109.453V141.33L75.2107 150.45L100.269 141.33V109.453Z" fill="white"/>
<path d="M204.893 3.38867H230.661V9.31347H220.955V32.5236H214.56V9.31347H204.893V3.38867Z" fill="black"/>
<path d="M250.692 2.97575C253.651 3.04975 256.522 3.99477 258.947 5.69251C261.371 7.39024 263.241 9.7653 264.323 12.5205C265.404 15.2757 265.649 18.2886 265.026 21.1822C264.404 24.0759 262.942 26.7217 260.824 28.7886C258.705 30.8555 256.024 32.2518 253.116 32.8025C250.208 33.3533 247.202 33.0341 244.474 31.885C241.746 30.7359 239.418 28.8079 237.781 26.3422C236.143 23.8765 235.27 20.9827 235.269 18.0229C235.228 16.0036 235.602 13.9975 236.368 12.1286C237.133 10.2597 238.274 8.56779 239.72 7.15742C241.166 5.74705 242.885 4.64826 244.772 3.929C246.66 3.20974 248.674 2.8853 250.692 2.97575V2.97575ZM259.457 18.0229C259.438 16.2844 258.905 14.5904 257.925 13.1545C256.945 11.7185 255.562 10.605 253.95 9.95424C252.337 9.30353 250.568 9.14483 248.866 9.49809C247.164 9.85134 245.604 10.7007 244.384 11.9392C243.164 13.1777 242.338 14.7498 242.01 16.4571C241.682 18.1645 241.867 19.9307 242.542 21.533C243.217 23.1353 244.351 24.502 245.801 25.4606C247.252 26.4192 248.953 26.9268 250.692 26.9195C251.861 26.9275 253.02 26.7 254.099 26.2506C255.179 25.8011 256.157 25.1388 256.975 24.3033C257.793 23.4678 258.434 22.4761 258.86 21.3874C259.287 20.2987 259.49 19.1352 259.457 17.9665V18.0229Z" fill="black"/>
<path d="M274.654 3.38867H281.425L290.04 13.5831L298.654 3.38867H305.332V32.5236H299.125V11.4013L290.04 22.4421L280.918 11.4953V32.5236H274.654V3.38867Z" fill="black"/>
<path d="M326.112 8.5613C323.516 8.5613 321.711 9.72747 321.711 11.4015C321.711 13.0755 323.592 13.7526 325.473 14.2981L329.347 15.3513C333.918 16.5739 337.623 18.7933 337.623 23.8341C337.623 29.4768 332.338 32.9376 326.187 32.9376C320.037 32.9376 315.56 30.0035 313.924 26.8624L318.081 23.1006C318.953 24.4479 320.157 25.5493 321.576 26.3C322.995 27.0506 324.582 27.4256 326.187 27.389C328.877 27.389 330.946 26.3734 330.946 24.3984C330.946 22.4235 329.422 21.972 327.41 21.4266L323.253 20.3357C319.134 19.2824 315.052 17.3827 315.052 12.1726C315.052 6.96257 320.394 2.99388 326.526 2.99388C328.757 2.86345 330.982 3.33597 332.968 4.3619C334.954 5.38783 336.627 6.92936 337.811 8.82465L333.748 12.7745C332.95 11.4706 331.826 10.3968 330.487 9.65816C329.148 8.91955 327.641 8.54156 326.112 8.5613V8.5613Z" fill="black"/>
<path d="M346.99 32.5236V3.38867H353.423V32.5236H346.99ZM363.918 3.38867H371.028L360.815 16.0659L372.871 32.5236H365.348L353.423 16.3856L363.918 3.38867Z" fill="black"/>
<path d="M207.617 60.6445H219.091C225.147 60.6445 229.718 64.0489 229.718 70.2183C229.718 76.3876 225.053 79.7168 219.091 79.7168H214.05V89.7419H207.617V60.6445ZM223.135 70.2183C223.14 69.6766 223.028 69.1403 222.807 68.6458C222.586 68.1513 222.261 67.7104 221.854 67.3532C221.446 66.9961 220.967 66.731 220.448 66.5763C219.929 66.4215 219.382 66.3806 218.846 66.4565H214.05V74.1493H218.846C219.392 74.2021 219.943 74.1394 220.463 73.9654C220.984 73.7914 221.462 73.5098 221.866 73.1391C222.271 72.7684 222.592 72.3168 222.811 71.8136C223.029 71.3104 223.14 70.7668 223.135 70.2183V70.2183Z" fill="black"/>
<path d="M251.067 60.2258C254.026 60.2998 256.897 61.2448 259.322 62.9425C261.746 64.6402 263.616 67.0153 264.698 69.7705C265.779 72.5257 266.024 75.5386 265.401 78.4322C264.779 81.3259 263.317 83.9717 261.198 86.0386C259.08 88.1055 256.399 89.5018 253.491 90.0525C250.582 90.6033 247.577 90.2841 244.849 89.135C242.121 87.9859 239.793 86.0579 238.156 83.5922C236.518 81.1265 235.645 78.2327 235.644 75.2729C235.603 73.2536 235.977 71.2475 236.743 69.3786C237.508 67.5097 238.649 65.8178 240.095 64.4074C241.541 62.9971 243.26 61.8983 245.147 61.179C247.034 60.4597 249.049 60.1353 251.067 60.2258V60.2258ZM259.851 75.2729C259.832 73.5352 259.3 71.8419 258.32 70.4064C257.341 68.9708 255.959 67.8573 254.348 67.206C252.736 66.5547 250.969 66.3949 249.267 66.7466C247.565 67.0983 246.006 67.9458 244.785 69.1824C243.564 70.419 242.736 71.9894 242.406 73.6955C242.076 75.4017 242.259 77.1673 242.93 78.7699C243.602 80.3726 244.733 81.7405 246.181 82.7014C247.629 83.6623 249.329 84.1731 251.067 84.1695C252.238 84.1801 253.399 83.9544 254.48 83.5061C255.562 83.0577 256.542 82.3959 257.362 81.5602C258.182 80.7244 258.825 79.7318 259.253 78.6418C259.68 77.5518 259.884 76.3868 259.851 75.2165V75.2729Z" fill="black"/>
<path d="M281.05 83.8714H294.498V89.7397H274.617V60.5859H281.05V83.8714Z" fill="black"/>
<path d="M302.265 60.6424L309.487 72.3603L316.672 60.6424H323.782L312.723 78.6989V89.7397H306.309V78.7365L295.174 60.5859L302.265 60.6424Z" fill="black"/>
<path d="M327.711 60.6445H353.46V66.5693H343.755V89.7419H337.379V66.5693H327.711V60.6445Z" fill="black"/>
<path d="M361.814 60.6445H383.915V66.5317H368.247V72.1744H379.382V77.8171H368.341V83.8547H384.178V89.7419H361.814V60.6445Z" fill="black"/>
<path d="M405.715 66.3252C403.355 66.3252 401.092 67.2626 399.424 68.931C397.755 70.5994 396.818 72.8623 396.818 75.2218C396.818 77.5814 397.755 79.8442 399.424 81.5127C401.092 83.1811 403.355 84.1185 405.715 84.1185C407.247 84.1247 408.758 83.7476 410.108 83.0217C411.458 82.2957 412.605 81.2438 413.445 79.9617L418.016 83.9115C416.657 85.9219 414.811 87.5545 412.65 88.6566C410.489 89.7586 408.083 90.294 405.658 90.2125C396.968 90.2125 390.197 84.2125 390.197 75.1654C390.197 73.1573 390.598 71.1695 391.378 69.3189C392.157 67.4683 393.299 65.7925 394.737 64.3902C396.174 62.988 397.877 61.8876 399.747 61.1539C401.616 60.4202 403.613 60.0681 405.621 60.1183C408.056 59.9992 410.481 60.5178 412.655 61.6229C414.829 62.728 416.676 64.3812 418.016 66.4193L413.445 70.3692C412.592 69.1079 411.439 68.0781 410.09 67.3723C408.741 66.6665 407.237 66.3067 405.715 66.3252V66.3252Z" fill="black"/>
<path d="M452.378 60.6424V89.7397H446.002V77.8902H432.591V89.7397H426.158V60.5859H432.591V72.003H446.002V60.5859L452.378 60.6424Z" fill="black"/>
<path d="M483.581 79.2067V60.6424H489.844V89.7397H484.201L469.662 70.3478V89.7397H463.455V60.5859H469.888L483.581 79.2067Z" fill="black"/>
<path d="M507.282 89.7397H500.85V60.5859H507.282V89.7397Z" fill="black"/>
<path d="M531.846 66.3252C529.487 66.3252 527.224 67.2626 525.555 68.931C523.887 70.5994 522.95 72.8623 522.95 75.2218C522.95 77.5814 523.887 79.8442 525.555 81.5127C527.224 83.1811 529.487 84.1185 531.846 84.1185C533.38 84.1281 534.891 83.7525 536.242 83.0263C537.592 82.3 538.739 81.2462 539.577 79.9617L544.166 83.9115C542.808 85.9219 540.962 87.5545 538.8 88.6566C536.639 89.7586 534.233 90.294 531.809 90.2125C523.1 90.2125 516.348 84.2125 516.348 75.1654C516.347 73.1573 516.748 71.1695 517.528 69.3189C518.308 67.4683 519.45 65.7925 520.887 64.3902C522.324 62.988 524.028 61.8876 525.897 61.1539C527.766 60.4202 529.764 60.0681 531.771 60.1183C534.207 59.9992 536.631 60.5178 538.805 61.6229C540.979 62.728 542.827 64.3812 544.166 66.4193L539.577 70.3692C538.726 69.1055 537.574 68.0739 536.224 67.3678C534.874 66.6617 533.369 66.3033 531.846 66.3252V66.3252Z" fill="black"/>
<path d="M220.519 141.427C221.429 141.475 222.338 141.328 223.187 140.997C224.036 140.666 224.805 140.158 225.442 139.507C226.079 138.855 226.57 138.076 226.882 137.22C227.194 136.364 227.321 135.451 227.253 134.543V117.953H233.666V134.881C233.666 142.913 228.344 147.521 220.5 147.521C212.657 147.521 207.334 142.913 207.334 134.881V117.953H213.861V134.58C213.799 135.479 213.928 136.381 214.238 137.227C214.548 138.073 215.033 138.844 215.661 139.49C216.29 140.136 217.047 140.642 217.884 140.976C218.721 141.309 219.619 141.463 220.519 141.427V141.427Z" fill="black"/>
<path d="M264.646 136.461V117.953H270.909V147.088H265.267L250.859 127.64V147.088H244.596V117.953H251.028L264.646 136.461Z" fill="black"/>
<path d="M288.403 147.051H281.971V117.953H288.403V147.051Z" fill="black"/>
<path d="M310.579 138.436L318.272 117.953H325.118L313.833 147.088H307.287L296.002 117.953H302.848L310.579 138.436Z" fill="black"/>
<path d="M332.756 117.953H354.932V123.821H339.264V129.464H350.304V135.107H339.264V141.144H355.101V147.032H332.756V117.953Z" fill="black"/>
<path d="M364.334 117.953H375.807C382.071 117.953 386.566 121.339 386.566 127.527C386.618 129.239 386.164 130.928 385.261 132.384C384.357 133.839 383.045 134.996 381.488 135.709L389.463 147.088H382.108L375.093 137.007H370.767V147.088H364.334V117.953ZM375.619 131.42C376.171 131.49 376.731 131.441 377.262 131.277C377.794 131.113 378.284 130.837 378.701 130.469C379.117 130.101 379.45 129.648 379.678 129.14C379.905 128.633 380.022 128.083 380.021 127.527C380.021 125.289 378.384 123.765 375.619 123.765H370.823V131.439L375.619 131.42Z" fill="black"/>
<path d="M405.713 123.071C403.098 123.071 401.293 124.256 401.293 125.93C401.293 127.604 403.174 128.281 405.055 128.827L408.929 129.88C413.5 131.102 417.205 133.322 417.205 138.363C417.205 143.892 411.901 147.466 405.769 147.466C399.337 147.466 395.142 144.532 393.506 141.391L397.663 137.629C398.538 138.973 399.742 140.071 401.161 140.818C402.58 141.565 404.166 141.937 405.769 141.899C408.459 141.899 410.528 140.902 410.528 138.927C410.528 136.952 409.004 136.482 406.992 135.936L402.835 134.845C398.716 133.792 394.634 131.911 394.634 126.701C394.634 121.491 399.976 117.504 406.108 117.504C408.341 117.373 410.568 117.848 412.555 118.877C414.541 119.907 416.212 121.453 417.393 123.353L413.236 127.359C412.458 126.057 411.357 124.977 410.038 124.226C408.72 123.475 407.23 123.077 405.713 123.071V123.071Z" fill="black"/>
<path d="M432.554 147.051H426.121V117.953H432.554V147.051Z" fill="black"/>
<path d="M440.867 117.953H466.617V123.859H456.911V147.088H450.535V123.821H440.867V117.953Z" fill="black"/>
<path d="M477.582 117.953L484.805 129.652L491.99 117.953H499.1L488.04 136.01V147.088H481.607V136.085L470.473 117.953H477.582Z" fill="black"/>
</svg>
