<svg width="260" height="260" viewBox="0 0 260 260" fill="none" xmlns="http://www.w3.org/2000/svg">
<path d="M259.282 102.617L216.077 86.8926L172.855 102.617L129.651 86.8926L86.4277 102.617L43.2236 86.8926L0.0195312 102.617V157.576L43.2236 173.32L86.4277 157.576L129.651 173.32L172.855 157.576L216.077 173.32L259.282 157.576V102.617Z" fill="black"/>
<path d="M259.263 16.191H259.282L216.077 0.466797L172.855 16.191L129.651 0.466797L86.4277 16.191L43.2236 0.466797L0.0195312 16.191V71.1695L43.2236 86.8937L86.4277 71.1695L129.651 86.8937L172.855 71.1695L216.077 86.8937L259.282 71.1695V16.191H259.263Z" fill="white"/>
<path d="M86.4289 16.191L43.206 31.9341L0.00195312 16.191L43.206 0.466797L86.4289 16.191Z" fill="black"/>
<path d="M172.836 16.191L129.632 31.9341L86.4277 16.191L129.632 0.466797L172.836 16.191Z" fill="black"/>
<path d="M259.265 16.191L216.061 31.9341L172.838 16.191L216.061 0.466797L259.265 16.191Z" fill="black"/>
<path d="M0.00195312 157.578L43.206 141.854L86.4289 157.578L43.206 173.321L0.00195312 157.578Z" fill="white"/>
<path d="M172.857 157.578L216.061 141.854L259.284 157.578L216.061 173.321L172.857 157.578Z" fill="white"/>
<path d="M172.836 102.619L129.632 118.343L86.4277 102.619V157.579L129.632 173.322L172.836 157.579V102.619Z" fill="white"/>
<path d="M259.282 189.047L216.077 173.322L172.855 189.047L129.651 173.322L86.4277 189.047L43.2236 173.322L0.0195312 189.047V244.006L43.2236 259.73L86.4277 244.006L129.651 259.73L172.855 244.006L216.077 259.73L259.282 244.006V189.047Z" fill="black"/>
<path d="M0.00195312 244.004L43.206 228.279L86.4289 244.004L43.206 259.728L0.00195312 244.004Z" fill="white"/>
<path d="M172.857 244.004L216.061 228.279L259.284 244.004L216.061 259.728L172.857 244.004Z" fill="white"/>
<path d="M172.836 189.045L129.632 204.769L86.4277 189.045V244.005L129.632 259.729L172.836 244.005V189.045Z" fill="white"/>
</svg>
