<svg width="362" height="314" viewBox="0 0 362 314" fill="none" xmlns="http://www.w3.org/2000/svg">
<path d="M58.3184 0.798828H96.1242V9.50736H81.867V43.6267H72.4626V9.50736H58.3184V0.798828Z" fill="black"/>
<path d="M125.578 0.197266C138.538 0.197266 148.149 9.60165 148.149 22.2224C148.149 34.8432 138.519 44.2476 125.578 44.2476C112.638 44.2476 103.008 34.8432 103.008 22.2224C103.008 9.60165 112.563 0.197266 125.578 0.197266ZM138.481 22.2224C138.437 19.6715 137.639 17.1906 136.189 15.0917C134.739 12.9928 132.7 11.3695 130.33 10.4258C127.96 9.48197 125.363 9.2599 122.867 9.78747C120.371 10.315 118.086 11.5687 116.301 13.3908C114.515 15.213 113.308 17.5223 112.831 20.0286C112.354 22.5349 112.628 25.1263 113.62 27.4771C114.611 29.8278 116.275 31.8331 118.403 33.2407C120.531 34.6484 123.027 35.3957 125.578 35.3887C127.3 35.4046 129.006 35.0729 130.596 34.4135C132.186 33.7542 133.627 32.7807 134.832 31.5513C136.037 30.322 136.981 28.8619 137.608 27.2589C138.235 25.656 138.532 23.943 138.481 22.2224V22.2224Z" fill="black"/>
<path d="M160.828 0.798828H170.759L183.399 15.846L196.057 0.798828H205.857V43.6267H196.734V12.592L183.399 28.8241L170.007 12.7238V43.6267H160.828V0.798828Z" fill="black"/>
<path d="M236.418 8.40026C232.656 8.40026 229.929 10.1306 229.929 12.5946C229.929 15.0586 232.637 16.0555 235.421 16.8454L241.064 18.3877C247.797 20.2686 253.214 23.4473 253.214 30.858C253.214 39.0022 245.446 44.2499 236.437 44.2499C227.032 44.2499 220.826 39.9241 218.418 35.2971L224.531 29.6544C225.805 31.6405 227.571 33.2638 229.657 34.3677C231.742 35.4715 234.078 36.0184 236.437 35.9554C240.387 35.9554 243.415 34.4693 243.415 31.5727C243.415 29.0335 241.177 27.9803 238.224 27.1903L232.111 25.5916C226.073 24.0493 220.073 21.2656 220.073 13.6104C220.073 5.59777 227.916 0.105469 237.001 0.105469C245.334 0.105469 251.258 4.11188 253.666 8.68244L247.685 14.4755C246.489 12.578 244.824 11.0216 242.85 9.95718C240.876 8.89276 238.66 8.35648 236.418 8.40026V8.40026Z" fill="black"/>
<path d="M267.08 43.6267V0.798828H276.485V43.6267H267.08ZM292.021 0.798828H302.441L287.394 19.4385L305.093 43.6267H293.996L276.522 19.9087L292.021 0.798828Z" fill="black"/>
<path d="M0.742188 78.6152H17.6702C26.548 78.6152 33.2817 83.6184 33.2817 92.6843C33.2817 101.75 26.4352 106.641 17.6702 106.641H10.2595V121.481H0.855036L0.742188 78.6152ZM23.5199 92.6843C23.5199 89.4115 21.0558 87.0416 17.2188 87.0416H10.1843V98.3269H17.2188C18.0132 98.4203 18.8183 98.3439 19.5808 98.1024C20.3433 97.8609 21.0458 97.4599 21.6416 96.9264C22.2374 96.3928 22.7131 95.7387 23.0369 95.0074C23.3607 94.276 23.5253 93.4841 23.5199 92.6843V92.6843Z" fill="black"/>
<path d="M64.8656 77.9941C77.8249 77.9941 87.4363 87.3985 87.4363 100.038C87.4363 112.678 77.8061 122.064 64.8656 122.064C51.9251 122.064 42.2949 112.659 42.2949 100.038C42.2949 87.4173 51.8498 77.9941 64.8656 77.9941ZM77.7685 100.038C77.724 97.4872 76.9264 95.0064 75.476 92.9074C74.0257 90.8085 71.9873 89.1852 69.617 88.2415C67.2467 87.2977 64.6502 87.0756 62.154 87.6032C59.6579 88.1307 57.3734 89.3844 55.5877 91.2065C53.8019 93.0287 52.5946 95.338 52.1176 97.8443C51.6406 100.351 51.915 102.942 52.9065 105.293C53.898 107.644 55.5622 109.649 57.69 111.056C59.8178 112.464 62.3143 113.211 64.8656 113.204C66.5868 113.22 68.2935 112.889 69.8835 112.229C71.4735 111.57 72.9141 110.596 74.1189 109.367C75.3236 108.138 76.2678 106.678 76.895 105.075C77.5221 103.472 77.8192 101.759 77.7685 100.038V100.038Z" fill="black"/>
<path d="M109.534 112.732H129.283V121.478H100.092V78.6504H109.496L109.534 112.732Z" fill="black"/>
<path d="M140.834 78.6152L151.442 95.8254L161.994 78.6152H172.414L156.182 105.155V121.481H146.778V105.305L130.414 78.6529L140.834 78.6152Z" fill="black"/>
<path d="M178.094 78.6152H215.919V87.3238H201.662V121.481H192.257V87.3614H178.057L178.094 78.6152Z" fill="black"/>
<path d="M228.201 78.6152H260.665V87.2487H237.643V95.5809H253.875V103.913H237.643V112.81H260.91V121.481H228.201V78.6152Z" fill="black"/>
<path d="M292.566 86.9472C289.353 87.3133 286.387 88.849 284.234 91.2616C282.081 93.6742 280.891 96.7949 280.891 100.029C280.891 103.263 282.081 106.383 284.234 108.796C286.387 111.208 289.353 112.744 292.566 113.11C294.807 113.108 297.012 112.547 298.982 111.48C300.952 110.413 302.625 108.873 303.852 106.998L310.567 112.809C308.574 115.76 305.865 118.156 302.694 119.774C299.523 121.393 295.993 122.18 292.435 122.064C279.664 122.064 269.732 113.242 269.732 100.038C269.732 86.8343 280.453 77.9941 292.303 77.9941C302.422 77.9941 308.159 83.3736 310.491 87.2482L303.777 93.0601C302.557 91.1956 300.896 89.6616 298.94 88.595C296.984 87.5285 294.794 86.9624 292.566 86.9472V86.9472Z" fill="black"/>
<path d="M361.33 78.6152V121.481H351.925V104.083H332.176V121.481H322.771V78.6529H332.176V95.4305H351.925V78.6529L361.33 78.6152Z" fill="black"/>
<path d="M256.515 222.688L231.456 213.568L206.387 222.688L181.329 213.568L156.259 222.688L131.201 213.568L106.143 222.688V254.565L131.201 263.696L156.259 254.565L181.329 263.696L206.387 254.565L231.456 263.696L256.515 254.565V222.688Z" fill="black"/>
<path d="M256.504 172.561H256.515L231.456 163.441L206.387 172.561L181.329 163.441L156.259 172.561L131.201 163.441L106.143 172.561V204.449L131.201 213.569L156.259 204.449L181.329 213.569L206.387 204.449L231.456 213.569L256.515 204.449V172.561H256.504Z" fill="white"/>
<path d="M156.258 172.561L131.189 181.692L106.131 172.561L131.189 163.441L156.258 172.561Z" fill="black"/>
<path d="M206.375 172.561L181.316 181.692L156.258 172.561L181.316 163.441L206.375 172.561Z" fill="black"/>
<path d="M256.505 172.561L231.446 181.692L206.377 172.561L231.446 163.441L256.505 172.561Z" fill="black"/>
<path d="M106.131 254.564L131.189 245.444L156.258 254.564L131.189 263.695L106.131 254.564Z" fill="white"/>
<path d="M206.387 254.564L231.445 245.444L256.514 254.564L231.445 263.695L206.387 254.564Z" fill="white"/>
<path d="M206.375 222.689L181.316 231.81L156.258 222.689V254.566L181.316 263.697L206.375 254.566V222.689Z" fill="white"/>
<path d="M256.515 272.818L231.456 263.698L206.387 272.818L181.329 263.698L156.259 272.818L131.201 263.698L106.143 272.818V304.695L131.201 313.815L156.259 304.695L181.329 313.815L206.387 304.695L231.456 313.815L256.515 304.695V272.818Z" fill="black"/>
<path d="M106.131 304.694L131.189 295.574L156.258 304.694L131.189 313.814L106.131 304.694Z" fill="white"/>
<path d="M206.387 304.694L231.445 295.574L256.514 304.694L231.445 313.814L206.387 304.694Z" fill="white"/>
<path d="M206.375 272.816L181.316 281.936L156.258 272.816V304.693L181.316 313.813L206.375 304.693V272.816Z" fill="white"/>
</svg>
